<svg width="114" height="74" viewBox="0 0 114 74" fill="none" xmlns="http://www.w3.org/2000/svg">
<path d="M37.96 19.8263L31.6481 19.7744L28.1757 15.9629C28.5746 16.0218 29.4483 16.1402 29.7522 16.1427C30.0561 16.1452 30.8538 16.0405 31.2147 15.9879C31.0557 16.3389 30.7892 17.1526 30.9956 17.5994C31.2536 18.1578 32.04 18.4425 32.829 18.449C33.618 18.4554 34.4397 18.0728 34.5344 17.2947C34.6291 16.5166 33.9908 16.0107 33.8454 15.9261C33.7292 15.8584 33.3321 15.5973 33.1481 15.4753C33.4427 15.2181 33.7958 14.9521 34.151 14.4543C34.5062 13.9566 34.6866 13.3925 34.8364 12.9857C34.9217 13.246 35.1788 13.9065 35.5244 14.4656C35.87 15.0248 36.344 15.3903 36.5378 15.5032C36.44 15.5487 36.1562 15.7003 35.8033 15.9422C35.3622 16.2445 34.978 16.7142 35.0604 17.299C35.1428 17.8839 35.7517 18.4174 36.8032 18.4817C37.8546 18.5459 38.4428 18.1335 38.6809 17.6626C38.8713 17.2859 38.6141 16.4289 38.4617 16.0475C38.8314 16.0969 39.6468 16.2019 39.9505 16.2266C40.2542 16.2514 41.1105 16.1342 41.5007 16.0725L37.96 19.8263Z" fill="black"/>
<path d="M37.3649 19.6463L32.1658 19.6035L29.3056 16.4639C29.6341 16.5124 30.3538 16.61 30.6041 16.6121C30.8544 16.6141 31.5115 16.5279 31.8088 16.4845C31.6778 16.7737 31.4583 17.4439 31.6283 17.8119C31.8408 18.2719 32.4886 18.5064 33.1385 18.5117C33.7884 18.5171 34.4653 18.2019 34.5433 17.561C34.6213 16.9201 34.0955 16.5033 33.9757 16.4336C33.88 16.3778 33.5529 16.1628 33.4014 16.0623C33.644 15.8504 33.9348 15.6313 34.2274 15.2213C34.52 14.8113 34.6686 14.3467 34.792 14.0116C34.8623 14.2261 35.074 14.7701 35.3587 15.2306C35.6434 15.6912 36.0339 15.9923 36.1935 16.0853C36.1129 16.1228 35.8791 16.2476 35.5884 16.4469C35.2251 16.6959 34.9087 17.0828 34.9765 17.5645C35.0444 18.0463 35.5459 18.4857 36.412 18.5387C37.2781 18.5916 37.7627 18.2519 37.9587 17.864C38.1156 17.5537 37.9037 16.8478 37.7782 16.5336C38.0827 16.5743 38.7543 16.6608 39.0045 16.6812C39.2547 16.7016 39.96 16.605 40.2815 16.5542L37.3649 19.6463Z" fill="#F0C673"/>
<path d="M36.8743 19.3464L32.9351 19.314L30.7681 16.9353C31.017 16.972 31.5622 17.046 31.7519 17.0475C31.9416 17.0491 32.4394 16.9837 32.6647 16.9509C32.5654 17.17 32.3991 17.6778 32.5279 17.9566C32.6889 18.3051 33.1797 18.4828 33.6721 18.4868C34.1645 18.4909 34.6774 18.2521 34.7365 17.7665C34.7956 17.2809 34.3972 16.9651 34.3065 16.9123C34.2339 16.8701 33.9861 16.7071 33.8713 16.631C34.0551 16.4705 34.2755 16.3045 34.4972 15.9938C34.7188 15.6832 34.8314 15.3311 34.9249 15.0773C34.9782 15.2397 35.1386 15.6519 35.3543 16.0009C35.57 16.3498 35.8658 16.5779 35.9868 16.6484C35.9257 16.6768 35.7486 16.7714 35.5283 16.9224C35.2531 17.1111 35.0133 17.4042 35.0647 17.7692C35.1162 18.1342 35.4961 18.4671 36.1524 18.5072C36.8086 18.5473 37.1757 18.29 37.3242 17.9961C37.4431 17.761 37.2826 17.2261 37.1874 16.9881C37.4182 17.0189 37.927 17.0845 38.1166 17.0999C38.3061 17.1153 38.8406 17.0422 39.0841 17.0037L36.8743 19.3464Z" fill="url(#paint0_linear_10102_909)"/>
<path d="M80.5043 21.4078L75.9959 21.3707L73.5156 18.6482C73.8005 18.6903 74.4246 18.7749 74.6416 18.7766C74.8587 18.7784 75.4285 18.7037 75.6863 18.666C75.5727 18.9168 75.3824 19.498 75.5298 19.8171C75.7141 20.216 76.2758 20.4193 76.8394 20.424C77.4029 20.4286 77.9899 20.1553 78.0575 19.5995C78.1252 19.0437 77.6692 18.6823 77.5654 18.6219C77.4823 18.5735 77.1987 18.3871 77.0673 18.2999C77.2777 18.1162 77.5299 17.9262 77.7836 17.5707C78.0373 17.2151 78.1662 16.8122 78.2732 16.5217C78.3341 16.7076 78.5178 17.1793 78.7646 17.5787C79.0115 17.9781 79.3501 18.2392 79.4885 18.3198C79.4187 18.3524 79.2159 18.4606 78.9638 18.6334C78.6488 18.8494 78.3744 19.1849 78.4332 19.6026C78.4921 20.0203 78.927 20.4014 79.678 20.4473C80.4291 20.4932 80.8492 20.1987 81.0193 19.8623C81.1553 19.5932 80.9716 18.9811 80.8627 18.7086C81.1268 18.7439 81.7092 18.8189 81.9261 18.8366C82.1431 18.8543 82.7547 18.7706 83.0335 18.7265L80.5043 21.4078Z" fill="black"/>
<path d="M80.0843 21.2792L76.3706 21.2486L74.3276 19.006C74.5623 19.0407 75.0764 19.1104 75.2552 19.1119C75.434 19.1133 75.9033 19.0517 76.1157 19.0207C76.0221 19.2273 75.8653 19.7061 75.9867 19.9689C76.1385 20.2975 76.6012 20.4649 77.0655 20.4688C77.5297 20.4726 78.0131 20.2474 78.0689 19.7896C78.1246 19.3319 77.749 19.0342 77.6635 18.9844C77.5951 18.9445 77.3615 18.791 77.2532 18.7192C77.4265 18.5678 77.6343 18.4113 77.8432 18.1185C78.0522 17.8256 78.1584 17.4937 78.2465 17.2544C78.2967 17.4076 78.4479 17.7961 78.6513 18.1251C78.8547 18.4541 79.1336 18.6692 79.2476 18.7356C79.19 18.7624 79.023 18.8516 78.8154 18.9939C78.5559 19.1718 78.3299 19.4481 78.3783 19.7922C78.4268 20.1363 78.785 20.4502 79.4037 20.488C80.0223 20.5258 80.3684 20.2832 80.5085 20.0061C80.6205 19.7845 80.4692 19.2802 80.3795 19.0558C80.597 19.0849 81.0768 19.1467 81.2555 19.1612C81.4341 19.1758 81.938 19.1068 82.1676 19.0705L80.0843 21.2792Z" fill="#F0C673"/>
<path d="M79.7322 21.0649L76.9185 21.0418L75.3706 19.3427C75.5484 19.3689 75.9379 19.4218 76.0734 19.4229C76.2088 19.424 76.5645 19.3773 76.7253 19.3538C76.6544 19.5103 76.5356 19.8731 76.6276 20.0722C76.7426 20.3212 77.0932 20.448 77.4449 20.4509C77.7967 20.4538 78.163 20.2832 78.2052 19.9364C78.2474 19.5896 77.9628 19.364 77.898 19.3263C77.8462 19.2961 77.6692 19.1797 77.5872 19.1253C77.7185 19.0107 77.8759 18.8921 78.0342 18.6702C78.1926 18.4483 78.273 18.1969 78.3398 18.0155C78.3778 18.1316 78.4924 18.426 78.6465 18.6753C78.8006 18.9245 79.0119 19.0875 79.0983 19.1378C79.0547 19.1581 78.9281 19.2256 78.7708 19.3335C78.5742 19.4682 78.4029 19.6776 78.4397 19.9383C78.4764 20.199 78.7478 20.4369 79.2165 20.4655C79.6853 20.4942 79.9475 20.3103 80.0536 20.1004C80.1385 19.9325 80.0238 19.5504 79.9559 19.3804C80.1207 19.4024 80.4842 19.4492 80.6195 19.4603C80.7549 19.4713 81.1367 19.4191 81.3106 19.3916L79.7322 21.0649Z" fill="url(#paint1_linear_10102_909)"/>
<path d="M33.7961 19.3013C34.6448 19.2015 35.6864 19.3254 36.6687 19.5361C37.6032 19.7366 38.4461 20.0072 38.9545 20.2015C45.1662 24.9579 54.3407 32.1408 61.7524 38.2894C65.471 41.3743 68.7378 44.1922 70.9631 46.3102C72.0787 47.3721 72.9169 48.2433 73.4189 48.8769C73.6432 49.1599 73.7803 49.3709 73.8499 49.5146C72.7911 50.177 70.82 50.8954 68.0608 51.4569C65.16 52.0471 61.4372 52.4542 57.0961 52.4542C52.7548 52.4542 48.0562 52.0129 43.7933 50.8166C39.5267 49.6192 35.7358 47.6769 33.1594 44.7041C32.1627 43.5541 31.3965 41.8669 30.8266 39.844C30.2587 37.828 29.8964 35.5171 29.6836 33.1539C29.2692 28.5545 29.425 23.8048 29.7041 20.7428C30.515 20.276 32.1945 19.4897 33.7961 19.3013Z" fill="black" stroke="#F0C673"/>
<path d="M21.4948 57.8718C21.4948 63.9335 16.9863 68.5754 11.7474 68.5754C6.50856 68.5754 2 63.9335 2 57.8718C2 51.8101 6.50856 47.1682 11.7474 47.1682C16.9863 47.1682 21.4948 51.8101 21.4948 57.8718Z" fill="black" stroke="#9747FF" stroke-width="4"/>
<path d="M86.5161 54.3203C86.5161 61.1415 81.4525 66.3899 75.5393 66.3899C69.6262 66.3899 64.5625 61.1415 64.5625 54.3203C64.5625 47.4991 69.6262 42.2507 75.5393 42.2507C81.4525 42.2507 86.5161 47.4991 86.5161 54.3203Z" fill="black" stroke="#9747FF" stroke-width="4"/>
<path d="M4.64547 37.2518C4.64547 31.659 13.8658 31.6529 16.9807 33.5192C20.0956 35.3855 17.853 34.0169 17.853 34.0169C17.3961 33.6022 16.1086 32.9638 15.361 32.5239C14.6135 32.0839 9.75408 30.4087 5.76707 32.6483C1.78006 34.8879 0.40939 42.8508 10.0034 45.3392C19.5974 47.8276 25.8274 50.316 31.4342 52.9289C37.041 55.5417 42.5234 59.6476 49.0025 59.6476C55.4817 59.6476 55.9799 58.5278 64.951 54.7952C73.922 51.0626 74.7944 50.4405 80.6505 48.6986C86.5066 46.9567 89.2478 44.3438 89.9954 41.2333C90.743 38.1228 88.8739 34.2657 84.8869 33.8925C80.8998 33.5192 77.9094 37.5836 76.5388 39.8647L77.2864 39.1182C78.0755 37.9154 80.526 35.51 83.0179 35.0123C85.5098 34.5146 89.7462 36.7542 88.5002 41.2333C87.2542 45.7125 80.9 46.7078 74.5452 49.1962C68.1905 51.6847 56.6029 58.1396 49.9993 58.4034C43.3957 58.6672 35.9197 53.2666 28.9423 50.1916C21.2792 46.8144 22.8369 47.3299 16.7315 45.588C10.6261 43.8462 4.64547 42.8447 4.64547 37.2518Z" fill="#9747FF"/>
<path d="M81.4137 51.5884L73.9008 50.359L72.125 51.1786L79.6379 52.9544L81.4137 51.5884Z" fill="#9747FF"/>
<path d="M9.42328 35.8796C9.42328 29.7394 19.5316 29.7327 22.9465 31.7817C26.3614 33.8307 23.9028 32.3281 23.9028 32.3281C23.402 31.8728 21.9904 31.1719 21.1709 30.6889C20.3514 30.2059 15.0239 28.3667 10.6529 30.8255C6.2819 33.2843 4.77922 42.0265 15.2972 44.7585C25.8152 47.4905 32.6452 50.2224 38.7921 53.091C44.9389 55.9595 50.9492 60.4673 58.0524 60.4673C65.1556 60.4673 65.7018 59.2379 75.5368 55.1399C85.3719 51.042 86.3283 50.359 92.7484 48.4466C99.1685 46.5343 102.174 43.6657 102.993 40.2508C103.813 36.8358 101.764 32.6013 97.3927 32.1915C93.0217 31.7817 89.7432 36.2439 88.2407 38.7482L89.0602 37.9286C89.9254 36.6082 92.6119 33.9673 95.3438 33.4209C98.0756 32.8745 102.72 35.3332 101.354 40.2508C99.9881 45.1683 93.0218 46.2611 86.0551 48.993C79.0884 51.725 66.3848 58.8117 59.1452 59.1013C51.9056 59.3909 43.7095 53.4617 36.0601 50.0858C27.659 46.3781 29.3667 46.944 22.6733 45.0317C15.9799 43.1193 9.42328 42.0199 9.42328 35.8796Z" fill="#9747FF"/>
<path d="M104 56.2327C104 63.6182 98.8366 69.1219 93.0237 69.1219C87.2107 69.1219 82.0469 63.6182 82.0469 56.2327C82.0469 48.8471 87.2107 43.3435 93.0237 43.3435C98.8366 43.3435 104 48.8471 104 56.2327Z" fill="black" stroke="#9748FD" stroke-width="4"/>
<path d="M32.4224 59.2378C32.4224 66.059 27.3587 71.3074 21.4456 71.3074C15.5324 71.3074 10.4688 66.059 10.4688 59.2378C10.4688 52.4166 15.5324 47.1682 21.4456 47.1682C27.3587 47.1682 32.4224 52.4166 32.4224 59.2378Z" fill="black" stroke="#9747FF" stroke-width="4"/>
<path d="M77.1351 21.4902L70.0504 21.4319L66.1528 17.1537C66.6005 17.2198 67.5812 17.3528 67.9223 17.3556C68.2634 17.3584 69.1589 17.2409 69.564 17.1817C69.3855 17.5757 69.0864 18.4891 69.318 18.9906C69.6076 19.6174 70.4903 19.9369 71.3759 19.9442C72.2615 19.9515 73.1839 19.5219 73.2902 18.6486C73.3965 17.7753 72.68 17.2074 72.5168 17.1124C72.3863 17.0364 71.9406 16.7434 71.7341 16.6064C72.0648 16.3177 72.4611 16.0191 72.8598 15.4604C73.2584 14.9017 73.461 14.2685 73.6291 13.812C73.7249 14.1042 74.0134 14.8455 74.4013 15.4731C74.7893 16.1007 75.3214 16.511 75.5389 16.6377C75.4291 16.6888 75.1105 16.859 74.7144 17.1305C74.2193 17.4698 73.7881 17.997 73.8806 18.6535C73.973 19.3099 74.6565 19.9087 75.8367 19.9809C77.0169 20.053 77.6772 19.5901 77.9443 19.0616C78.1581 18.6387 77.8694 17.6768 77.6983 17.2487C78.1133 17.3041 79.0285 17.422 79.3694 17.4498C79.7103 17.4775 80.6715 17.346 81.1095 17.2767L77.1351 21.4902Z" fill="black"/>
<path d="M76.4701 21.288L70.6343 21.24L67.4239 17.716C67.7927 17.7705 68.6004 17.88 68.8814 17.8823C69.1624 17.8846 69.9 17.7878 70.2337 17.7391C70.0866 18.0637 69.8403 18.816 70.0311 19.2291C70.2696 19.7454 70.9967 20.0085 71.7262 20.0146C72.4557 20.0206 73.2154 19.6668 73.303 18.9474C73.3905 18.228 72.8003 17.7602 72.6659 17.682C72.5584 17.6194 72.1913 17.378 72.0212 17.2652C72.2936 17.0274 72.62 16.7815 72.9484 16.3213C73.2768 15.861 73.4436 15.3395 73.5821 14.9634C73.661 15.2041 73.8987 15.8147 74.2182 16.3317C74.5378 16.8487 74.9761 17.1866 75.1552 17.291C75.0648 17.3331 74.8023 17.4732 74.4761 17.6969C74.0683 17.9764 73.7131 18.4107 73.7893 18.9514C73.8654 19.4921 74.4284 19.9854 75.4005 20.0448C76.3727 20.1042 76.9165 19.7229 77.1366 19.2875C77.3127 18.9392 77.0749 18.1469 76.934 17.7942C77.2758 17.8399 78.0297 17.937 78.3105 17.9599C78.5913 17.9828 79.383 17.8744 79.7438 17.8174L76.4701 21.288Z" fill="#F0C673"/>
<path d="M75.9168 20.9515L71.4953 20.9151L69.0628 18.2451C69.3422 18.2864 69.9543 18.3693 70.1672 18.3711C70.38 18.3728 70.9389 18.2995 71.1917 18.2626C71.0803 18.5085 70.8936 19.0785 71.0382 19.3915C71.2189 19.7827 71.7698 19.9821 72.3225 19.9866C72.8752 19.9912 73.4508 19.7231 73.5172 19.1781C73.5835 18.633 73.1364 18.2786 73.0345 18.2193C72.9531 18.1719 72.6749 17.989 72.5461 17.9035C72.7524 17.7234 72.9998 17.537 73.2486 17.1883C73.4974 16.8397 73.6238 16.4445 73.7287 16.1596C73.7885 16.3419 73.9685 16.8046 74.2107 17.1963C74.4528 17.588 74.7848 17.844 74.9206 17.9231C74.8521 17.955 74.6532 18.0612 74.406 18.2306C74.097 18.4424 73.8279 18.7714 73.8856 19.1811C73.9434 19.5908 74.3699 19.9645 75.1064 20.0095C75.843 20.0546 76.2551 19.7657 76.4218 19.4358C76.5552 19.1719 76.375 18.5715 76.2683 18.3044C76.5273 18.339 77.0984 18.4125 77.3112 18.4299C77.5239 18.4472 78.1238 18.3651 78.3971 18.3219L75.9168 20.9515Z" fill="url(#paint2_linear_10102_909)"/>
<path d="M52.5822 20.9356L43.7198 20.8626L38.8443 15.5109C39.4044 15.5936 40.6311 15.76 41.0578 15.7635C41.4845 15.767 42.6046 15.62 43.1114 15.546C42.8881 16.0389 42.5139 17.1815 42.8037 17.8087C43.1659 18.5928 44.2702 18.9925 45.378 19.0016C46.4858 19.0107 47.6395 18.4734 47.7725 17.381C47.9055 16.2885 47.0092 15.5781 46.8051 15.4593C46.6418 15.3642 46.0843 14.9977 45.826 14.8263C46.2396 14.4652 46.7354 14.0917 47.2341 13.3928C47.7328 12.6939 47.9861 11.9019 48.1965 11.3308C48.3163 11.6963 48.6772 12.6236 49.1625 13.4087C49.6478 14.1938 50.3133 14.707 50.5854 14.8655C50.4481 14.9294 50.0495 15.1423 49.5541 15.4819C48.9347 15.9064 48.3954 16.5659 48.511 17.387C48.6267 18.2082 49.4816 18.9573 50.958 19.0475C52.4343 19.1378 53.2602 18.5587 53.5945 17.8975C53.8618 17.3686 53.5007 16.1653 53.2867 15.6298C53.8058 15.6991 54.9507 15.8465 55.3771 15.8813C55.8035 15.916 57.0059 15.7515 57.5538 15.6649L52.5822 20.9356Z" fill="black"/>
<path d="M51.753 20.6827L44.453 20.6226L40.4371 16.2143C40.8984 16.2825 41.9088 16.4195 42.2603 16.4224C42.6118 16.4253 43.5345 16.3042 43.9518 16.2433C43.7679 16.6492 43.4597 17.5904 43.6984 18.1071C43.9968 18.7529 44.9064 19.0821 45.8189 19.0896C46.7314 19.0971 47.6817 18.6546 47.7912 17.7547C47.9008 16.8548 47.1625 16.2697 46.9944 16.1718C46.8599 16.0935 46.4007 15.7916 46.1879 15.6504C46.5286 15.353 46.937 15.0453 47.3478 14.4697C47.7585 13.894 47.9672 13.2415 48.1405 12.7711C48.2392 13.0722 48.5364 13.836 48.9362 14.4827C49.3359 15.1294 49.8841 15.5521 50.1083 15.6827C49.9952 15.7354 49.6668 15.9107 49.2587 16.1904C48.7486 16.5401 48.3043 17.0833 48.3996 17.7597C48.4949 18.4361 49.1991 19.0531 50.4151 19.1275C51.6312 19.2018 52.3115 18.7248 52.5868 18.1802C52.8071 17.7445 52.5096 16.7533 52.3333 16.3122C52.7609 16.3694 53.7039 16.4908 54.0552 16.5194C54.4064 16.548 55.3968 16.4125 55.8481 16.3411L51.753 20.6827Z" fill="#F0C673"/>
<path d="M51.0614 20.2617L45.5305 20.2162L42.4877 16.8762C42.8372 16.9278 43.6028 17.0316 43.8691 17.0338C44.1354 17.036 44.8345 16.9443 45.1507 16.8981C45.0114 17.2057 44.7779 17.9188 44.9587 18.3103C45.1848 18.7996 45.8739 19.049 46.5653 19.0547C47.2567 19.0604 47.9767 18.7251 48.0597 18.0433C48.1427 17.3615 47.5833 16.9181 47.4559 16.844C47.354 16.7846 47.0061 16.5559 46.8449 16.449C47.103 16.2236 47.4124 15.9905 47.7237 15.5543C48.0349 15.1182 48.193 14.6238 48.3243 14.2674C48.3991 14.4955 48.6243 15.0743 48.9272 15.5642C49.23 16.0542 49.6454 16.3745 49.8152 16.4734C49.7295 16.5133 49.4808 16.6461 49.1716 16.8581C48.785 17.123 48.4484 17.5346 48.5206 18.0471C48.5928 18.5595 49.1263 19.027 50.0477 19.0834C50.9691 19.1397 51.4845 18.7783 51.6931 18.3657C51.86 18.0356 51.6346 17.2846 51.5011 16.9504C51.825 16.9937 52.5395 17.0857 52.8056 17.1074C53.0718 17.1291 53.8222 17.0264 54.1641 16.9723L51.0614 20.2617Z" fill="url(#paint3_linear_10102_909)"/>
<path d="M68.3859 20.2512L55.4773 20.0494L48.4332 12.2012C49.2481 12.3277 51.0332 12.5832 51.6547 12.5929C52.2762 12.6027 53.9095 12.4006 54.6484 12.2984C54.3178 13.0139 53.7605 14.6742 54.1758 15.591C54.6949 16.7371 56.2991 17.3311 57.9127 17.3564C59.5263 17.3816 61.2127 16.6114 61.4182 15.0215C61.6237 13.4316 60.3258 12.3871 60.0298 12.2118C59.7929 12.0716 58.9849 11.5317 58.6104 11.2793C59.2168 10.7577 59.943 10.2191 60.677 9.20638C61.4109 8.19371 61.7885 7.0427 62.1011 6.2131C62.2716 6.74681 62.7873 8.10144 63.4858 9.2503C64.1842 10.3992 65.1481 11.1539 65.5428 11.3877C65.342 11.4794 64.7592 11.7851 64.0338 12.2744C63.1271 12.8861 62.3343 13.841 62.4939 15.0383C62.6536 16.2357 63.8908 17.336 66.0403 17.4834C68.1899 17.6309 69.3992 16.7963 69.8932 15.8368C70.2884 15.0692 69.7753 13.3125 69.4693 12.5301C70.2248 12.6368 71.8908 12.8638 72.5116 12.9191C73.1323 12.9743 74.8856 12.7476 75.6846 12.6273L68.3859 20.2512Z" fill="black"/>
<path d="M67.1832 19.8739L56.5504 19.7076L50.748 13.243C51.4193 13.3472 52.8897 13.5577 53.4016 13.5657C53.9136 13.5737 55.2589 13.4073 55.8675 13.3231C55.5952 13.9125 55.1362 15.28 55.4783 16.0352C55.9059 16.9793 57.2273 17.4686 58.5564 17.4894C59.8855 17.5102 61.2746 16.8757 61.4439 15.5661C61.6131 14.2565 60.544 13.3962 60.3002 13.2518C60.1052 13.1362 59.4395 12.6915 59.1311 12.4836C59.6306 12.054 60.2287 11.6103 60.8333 10.7762C61.4379 9.94203 61.7489 8.99394 62.0064 8.31059C62.1468 8.75021 62.5716 9.86603 63.147 10.8124C63.7223 11.7587 64.5163 12.3804 64.8414 12.5729C64.676 12.6484 64.1959 12.9003 63.5984 13.3033C62.8515 13.8072 62.1985 14.5937 62.33 15.58C62.4615 16.5662 63.4806 17.4726 65.2512 17.5941C67.0218 17.7155 68.0179 17.0281 68.4248 16.2377C68.7503 15.6054 68.3277 14.1584 68.0757 13.514C68.6979 13.6018 70.0702 13.7889 70.5816 13.8343C71.0929 13.8798 72.537 13.6931 73.1952 13.594L67.1832 19.8739Z" fill="#F0C673"/>
<path d="M66.1816 19.2531L58.1255 19.1271L53.7293 14.2291C54.2379 14.3081 55.352 14.4675 55.7399 14.4736C56.1277 14.4797 57.147 14.3536 57.6082 14.2898C57.4019 14.7363 57.054 15.7725 57.3132 16.3447C57.6372 17.0599 58.6384 17.4307 59.6454 17.4464C60.6524 17.4622 61.7049 16.9815 61.8332 15.9892C61.9614 14.997 61.1514 14.3452 60.9666 14.2357C60.8189 14.1482 60.3145 13.8113 60.0809 13.6538C60.4593 13.3283 60.9125 12.9921 61.3706 12.3601C61.8286 11.7281 62.0643 11.0098 62.2593 10.492C62.3658 10.8251 62.6876 11.6705 63.1235 12.3875C63.5594 13.1045 64.161 13.5755 64.4073 13.7214C64.282 13.7786 63.9182 13.9694 63.4655 14.2748C62.8997 14.6566 62.4049 15.2525 62.5045 15.9997C62.6041 16.747 63.3763 17.4337 64.7178 17.5257C66.0593 17.6177 66.814 17.0969 67.1223 16.4981C67.369 16.019 67.0487 14.9227 66.8578 14.4344C67.3293 14.5009 68.369 14.6427 68.7564 14.6771C69.1439 14.7116 70.238 14.5701 70.7367 14.495L66.1816 19.2531Z" fill="url(#paint4_linear_10102_909)"/>
<path d="M28.9609 37.5188H39.1356L39.6156 37.792H29.5369L28.9609 37.5188Z" fill="#9B51E0"/>
<path d="M45.2139 48.4466L23.4948 31.9182L17.6211 33.8306L36.8814 48.1734L45.2139 48.4466Z" fill="black"/>
<path d="M44.2554 51.3152L20.8971 33.1477L19.3945 33.6941L41.3868 50.4956L44.2554 51.3152Z" fill="#9747FF"/>
<path d="M88.6785 38.3383L75.3427 48.9793L69.0054 48.6793L81.5641 38.8348L88.6785 38.3383Z" fill="black"/>
<path d="M69.5083 21.0667L69.5892 21.1011L69.677 21.1057L82.076 21.7652C82.2163 23.8973 82.2994 27.2135 82.123 30.7341C81.9336 34.514 81.4468 38.4884 80.4311 41.4819C79.1703 45.1979 77.0636 47.7548 73.9084 49.431C70.7304 51.1193 66.45 51.9347 60.8127 52.0705C55.2042 52.2056 50.9925 51.2584 47.8272 49.5681C44.6681 47.881 42.5172 45.4358 41.0552 42.5117C40.4895 41.3803 40.0789 39.7654 39.7981 37.8573C39.5186 35.9575 39.3727 33.8029 39.3184 31.6141C39.2154 27.4657 39.442 23.2254 39.6971 20.4234H55.0876H55.1264L55.1648 20.4175C55.5709 20.354 56.0431 20.2562 56.5724 20.1465C58.0507 19.8401 59.9748 19.4414 62.1512 19.4414C64.6553 19.4414 68.0405 20.444 69.5083 21.0667Z" fill="black" stroke="#9B51E0"/>
<path d="M54.6415 20.1709C54.4139 24.9974 54.0951 36.1255 54.6415 42.0266C55.1879 47.9276 56.0529 51.2242 56.4171 52.1348" stroke="#9B51E0"/>
<path d="M39.6133 37.5188C44.4821 38.4295 56.0154 40.2508 63.198 40.2508C70.3807 40.2508 78.6979 38.4295 81.9586 37.5188" stroke="#9B51E0"/>
<path d="M69.8935 20.8539C70.133 25.5566 70.4684 36.3994 69.8935 42.1492C69.3186 47.8989 68.4086 51.1109 68.0254 51.9982" stroke="#9747FF"/>
<path d="M34.465 20.6251L35.506 20.6166L36.0787 19.9879C36.013 19.9976 35.8689 20.0172 35.8187 20.0176C35.7686 20.018 35.637 20.0007 35.5775 19.9921C35.6037 20.0499 35.6477 20.1842 35.6137 20.2578C35.5711 20.3499 35.4414 20.3969 35.3113 20.398C35.1811 20.399 35.0456 20.3359 35.03 20.2076C35.0144 20.0793 35.1197 19.9958 35.1436 19.9819C35.1628 19.9707 35.2283 19.9276 35.2586 19.9075C35.2101 19.8651 35.1518 19.8212 35.0932 19.7391C35.0347 19.657 35.0049 19.564 34.9802 19.4969C34.9661 19.5399 34.9237 19.6488 34.8667 19.741C34.8097 19.8332 34.7315 19.8935 34.6996 19.9121C34.7157 19.9196 34.7625 19.9446 34.8207 19.9845C34.8935 20.0344 34.9568 20.1119 34.9433 20.2083C34.9297 20.3048 34.8292 20.3927 34.6558 20.4034C34.4824 20.414 34.3854 20.3459 34.3461 20.2683C34.3147 20.2061 34.3571 20.0648 34.3823 20.0019C34.3213 20.01 34.1868 20.0274 34.1367 20.0314C34.0867 20.0355 33.9454 20.0162 33.8811 20.006L34.465 20.6251Z" fill="#F0C673"/>
<g filter="url(#filter0_d_10102_909)">
<rect width="3.27835" height="7.37629" transform="matrix(-1 0 0 1 36.0586 22.9037)" fill="#F0C673"/>
</g>
<rect x="-0.204897" y="0.204897" width="5.05412" height="0.409794" transform="matrix(-1 0 0 1 37.2894 21.8109)" fill="black" stroke="#F0C673" stroke-width="0.409794"/>
<rect x="-0.204897" y="0.204897" width="5.05412" height="0.409794" transform="matrix(-1 0 0 1 37.2894 30.5532)" fill="black" stroke="#F0C673" stroke-width="0.409794"/>
<rect x="-0.204897" y="0.204897" width="2.32216" height="0.409794" transform="matrix(-1 0 0 1 37.2894 30.5532)" fill="black" stroke="#F0C673" stroke-width="0.409794"/>
<rect x="-0.204897" y="0.204897" width="2.32216" height="0.409794" transform="matrix(-1 0 0 1 37.2894 21.8109)" fill="black" stroke="#F0C673" stroke-width="0.409794"/>
<g filter="url(#filter1_d_10102_909)">
<rect width="1.36598" height="7.37629" transform="matrix(-1 0 0 1 37.1523 22.9037)" fill="#DDB873"/>
</g>
<rect width="3.27835" height="0.546392" transform="matrix(-1 0 0 1 36.6094 20.9912)" fill="#F0C673"/>
<rect width="3.27835" height="0.546392" transform="matrix(-1 0 0 1 36.6094 31.6459)" fill="#F0C673"/>
<rect width="4.64433" height="0.273196" transform="matrix(-1 0 0 1 38.7969 32.4655)" fill="#F0C673"/>
<path d="M24.9647 19.0049L25.8846 18.9974L26.3907 18.4419C26.3326 18.4504 26.2052 18.4677 26.1609 18.4681C26.1167 18.4684 26.0004 18.4532 25.9478 18.4455C25.971 18.4967 26.0098 18.6153 25.9797 18.6804C25.9421 18.7618 25.8275 18.8033 25.7125 18.8042C25.5975 18.8051 25.4778 18.7494 25.464 18.636C25.4502 18.5226 25.5432 18.4488 25.5644 18.4365C25.5813 18.4266 25.6392 18.3886 25.666 18.3708C25.6231 18.3333 25.5716 18.2945 25.5198 18.222C25.4681 18.1495 25.4418 18.0672 25.4199 18.008C25.4075 18.0459 25.37 18.1421 25.3197 18.2236C25.2693 18.3051 25.2002 18.3584 25.172 18.3749C25.1862 18.3815 25.2276 18.4036 25.279 18.4388C25.3433 18.4829 25.3993 18.5514 25.3873 18.6366C25.3753 18.7218 25.2865 18.7996 25.1333 18.809C24.98 18.8183 24.8943 18.7582 24.8596 18.6896C24.8319 18.6347 24.8694 18.5098 24.8916 18.4542C24.8377 18.4614 24.7188 18.4767 24.6746 18.4803C24.6303 18.4839 24.5055 18.4668 24.4486 18.4578L24.9647 19.0049Z" fill="#F0C673"/>
<g filter="url(#filter2_d_10102_909)">
<rect width="2.89706" height="6.51838" transform="matrix(-1 0 0 1 26.3789 21.0184)" fill="#F0C673"/>
</g>
<rect x="-0.181066" y="0.181066" width="4.46629" height="0.362132" transform="matrix(-1 0 0 1 27.466 20.0527)" fill="black" stroke="#F0C673" stroke-width="0.362132"/>
<rect x="-0.181066" y="0.181066" width="4.46629" height="0.362132" transform="matrix(-1 0 0 1 27.466 27.7782)" fill="black" stroke="#F0C673" stroke-width="0.362132"/>
<rect x="-0.181066" y="0.181066" width="2.05208" height="0.362132" transform="matrix(-1 0 0 1 27.466 27.7782)" fill="black" stroke="#F0C673" stroke-width="0.362132"/>
<rect x="-0.181066" y="0.181066" width="2.05208" height="0.362132" transform="matrix(-1 0 0 1 27.466 20.0527)" fill="black" stroke="#F0C673" stroke-width="0.362132"/>
<g filter="url(#filter3_d_10102_909)">
<rect width="1.20711" height="6.51838" transform="matrix(-1 0 0 1 27.3438 21.0184)" fill="#DDB873"/>
</g>
<rect width="2.89706" height="0.482843" transform="matrix(-1 0 0 1 26.8633 19.3285)" fill="#F0C673"/>
<rect width="2.89706" height="0.482843" transform="matrix(-1 0 0 1 26.8633 28.7439)" fill="#F0C673"/>
<rect width="4.10416" height="0.241421" transform="matrix(-1 0 0 1 28.793 29.4681)" fill="#F0C673"/>
<path d="M85.9647 20.0049L86.8846 19.9974L87.3907 19.4419C87.3326 19.4504 87.2052 19.4677 87.1609 19.4681C87.1167 19.4684 87.0004 19.4532 86.9478 19.4455C86.971 19.4967 87.0098 19.6153 86.9797 19.6804C86.9421 19.7618 86.8275 19.8033 86.7125 19.8042C86.5975 19.8051 86.4778 19.7494 86.464 19.636C86.4502 19.5226 86.5432 19.4488 86.5644 19.4365C86.5813 19.4266 86.6392 19.3886 86.666 19.3708C86.6231 19.3333 86.5716 19.2945 86.5198 19.222C86.4681 19.1495 86.4418 19.0672 86.4199 19.008C86.4075 19.0459 86.37 19.1421 86.3197 19.2236C86.2693 19.3051 86.2002 19.3584 86.172 19.3749C86.1862 19.3815 86.2276 19.4036 86.279 19.4388C86.3433 19.4829 86.3993 19.5514 86.3873 19.6366C86.3753 19.7218 86.2865 19.7996 86.1333 19.809C85.98 19.8183 85.8943 19.7582 85.8596 19.6896C85.8319 19.6347 85.8694 19.5098 85.8916 19.4542C85.8377 19.4614 85.7188 19.4767 85.6746 19.4803C85.6303 19.4839 85.5055 19.4668 85.4486 19.4578L85.9647 20.0049Z" fill="#F0C673"/>
<g filter="url(#filter4_d_10102_909)">
<rect width="2.89706" height="6.51838" transform="matrix(-1 0 0 1 87.3789 22.0184)" fill="#F0C673"/>
</g>
<rect x="-0.181066" y="0.181066" width="4.46629" height="0.362132" transform="matrix(-1 0 0 1 88.466 21.0527)" fill="black" stroke="#F0C673" stroke-width="0.362132"/>
<rect x="-0.181066" y="0.181066" width="4.46629" height="0.362132" transform="matrix(-1 0 0 1 88.466 28.7782)" fill="black" stroke="#F0C673" stroke-width="0.362132"/>
<rect x="-0.181066" y="0.181066" width="2.05208" height="0.362132" transform="matrix(-1 0 0 1 88.466 28.7782)" fill="black" stroke="#F0C673" stroke-width="0.362132"/>
<rect x="-0.181066" y="0.181066" width="2.05208" height="0.362132" transform="matrix(-1 0 0 1 88.466 21.0527)" fill="black" stroke="#F0C673" stroke-width="0.362132"/>
<g filter="url(#filter5_d_10102_909)">
<rect width="1.20711" height="6.51838" transform="matrix(-1 0 0 1 88.3438 22.0184)" fill="#DDB873"/>
</g>
<rect width="2.89706" height="0.482843" transform="matrix(-1 0 0 1 87.8633 20.3285)" fill="#F0C673"/>
<rect width="2.89706" height="0.482843" transform="matrix(-1 0 0 1 87.8633 29.7439)" fill="#F0C673"/>
<rect width="4.10416" height="0.241421" transform="matrix(-1 0 0 1 89.793 30.4681)" fill="#F0C673"/>
<path d="M22.8967 56.0124H21.8105C21.84 55.473 21.7839 54.27 21.3228 53.7734C20.8617 53.2769 20.1848 52.7242 19.904 52.5099L19.9262 52L16.867 55.037C17.0961 55.2735 17.5808 55.7553 17.6872 55.7907C17.8202 55.8351 18.3522 55.9459 18.5296 55.569C18.7069 55.1922 18.7291 55.037 19.0838 55.037C19.4385 55.037 19.7045 55.0592 19.904 54.8597C20.0636 54.7001 20.1774 54.468 20.2144 54.372C20.3178 54.6232 20.4626 55.2144 20.2144 55.569C19.9661 55.9237 19.1503 56.6036 18.7734 56.8991L16.1133 56.9213V61.7539L17.8646 59.8918C17.5911 59.7366 17.0576 59.2933 17.1108 58.7612C17.164 58.2292 17.5173 57.9041 17.6872 57.808L19.372 59.4928L16.7118 61.9534L19.904 64.1481V62.1751C19.6971 62.2268 19.2212 62.2549 18.973 61.9534C18.7247 61.6519 18.7365 61.3401 18.7734 61.2219H19.6823" stroke="#F0C673" stroke-width="0.5"/>
<path d="M24.9985 56.7883V58.1184C25.2498 58.3253 25.7168 58.9032 25.5749 59.5593C25.433 60.2155 24.2448 61.2958 23.6685 61.754C23.3359 61.9683 22.6931 62.521 22.7817 63.0175C22.8704 63.5141 23.1586 63.8304 23.2916 63.9264L21.5625 65.5447H24.7325V64.2368C24.6439 63.9855 24.3645 63.4254 23.9566 63.1949C23.5488 62.9643 23.4468 62.6702 23.4468 62.552" stroke="#F0C673" stroke-width="0.5"/>
<path d="M20.7218 61.9534C20.7292 62.2637 20.8016 62.9687 21.0321 63.3056C21.2627 63.6426 21.4977 63.8303 21.5863 63.882L19.9902 65.5446H16" stroke="#F0C673" stroke-width="0.5"/>
<path d="M27.5686 65.5669H25.5513V63.7047C25.3666 63.6382 25.0193 63.3855 25.108 62.9067C25.2188 62.3082 25.64 62.5077 25.773 61.9535C25.8794 61.5101 25.8913 61.2219 25.8839 61.1333C26.0908 61.1259 26.4868 61.2796 26.4159 61.9535C26.3272 62.7959 26.3716 63.5274 26.7706 63.9929C27.0898 64.3653 27.4356 64.621 27.5686 64.7023C27.4726 64.2146 27.1543 63.1401 27.3026 62.5963C27.7016 61.1333 27.5021 60.5347 27.1253 60.1579C26.7793 59.8119 26.342 59.8253 26.1056 59.781" stroke="#F0C673" stroke-width="0.5"/>
<path d="M26.2412 59.116L27.3496 58.0298L25.6427 55.4805L24.8446 55.2588V54.8376C25.0146 54.7341 25.3722 54.4386 25.4432 54.0839C25.5318 53.6405 25.3988 52.9533 24.6451 52.6873C23.8914 52.4213 23.0934 53.175 22.8717 53.4188C22.6943 53.6139 22.4874 54.0174 22.4727 54.106H23.3594L22.6722 54.5272C22.6943 54.6824 22.7331 54.8265 22.8717 54.9928C23.0934 55.2588 23.3298 55.3327 23.4037 55.3696L22.783 56.0347" stroke="#F0C673" stroke-width="0.5"/>
<path d="M93.8967 53.0124H92.8105C92.84 52.473 92.7839 51.27 92.3228 50.7734C91.8617 50.2769 91.1848 49.7242 90.904 49.5099L90.9262 49L87.867 52.037C88.0961 52.2735 88.5808 52.7553 88.6872 52.7907C88.8202 52.8351 89.3522 52.9459 89.5296 52.569C89.7069 52.1922 89.7291 52.037 90.0838 52.037C90.4385 52.037 90.7045 52.0592 90.904 51.8597C91.0636 51.7001 91.1774 51.468 91.2144 51.372C91.3178 51.6232 91.4626 52.2144 91.2144 52.569C90.9661 52.9237 90.1503 53.6036 89.7734 53.8991L87.1133 53.9213V58.7539L88.8646 56.8918C88.5911 56.7366 88.0576 56.2933 88.1108 55.7612C88.164 55.2292 88.5173 54.9041 88.6872 54.808L90.372 56.4928L87.7118 58.9534L90.904 61.1481V59.1751C90.6971 59.2268 90.2212 59.2549 89.973 58.9534C89.7247 58.6519 89.7365 58.3401 89.7734 58.2219H90.6823" stroke="#F0C673" stroke-width="0.5"/>
<path d="M95.9985 53.7883V55.1184C96.2498 55.3253 96.7168 55.9032 96.5749 56.5593C96.433 57.2155 95.2448 58.2958 94.6685 58.754C94.3359 58.9683 93.6931 59.521 93.7817 60.0175C93.8704 60.5141 94.1586 60.8304 94.2916 60.9264L92.5625 62.5447H95.7325V61.2368C95.6439 60.9855 95.3645 60.4254 94.9566 60.1949C94.5488 59.9643 94.4468 59.6702 94.4468 59.552" stroke="#F0C673" stroke-width="0.5"/>
<path d="M91.7218 58.9534C91.7292 59.2637 91.8016 59.9687 92.0321 60.3056C92.2627 60.6426 92.4977 60.8303 92.5863 60.882L90.9902 62.5446H87" stroke="#F0C673" stroke-width="0.5"/>
<path d="M98.5686 62.5669H96.5513V60.7047C96.3666 60.6382 96.0193 60.3855 96.108 59.9067C96.2188 59.3082 96.64 59.5077 96.773 58.9535C96.8794 58.5101 96.8913 58.2219 96.8839 58.1333C97.0908 58.1259 97.4868 58.2796 97.4159 58.9535C97.3272 59.7959 97.3716 60.5274 97.7706 60.9929C98.0898 61.3653 98.4356 61.621 98.5686 61.7023C98.4726 61.2146 98.1543 60.1401 98.3026 59.5963C98.7016 58.1333 98.5021 57.5347 98.1253 57.1579C97.7793 56.8119 97.342 56.8253 97.1056 56.781" stroke="#F0C673" stroke-width="0.5"/>
<path d="M97.2412 56.116L98.3496 55.0298L96.6427 52.4805L95.8446 52.2588V51.8376C96.0146 51.7341 96.3722 51.4386 96.4432 51.0839C96.5318 50.6405 96.3988 49.9533 95.6451 49.6873C94.8914 49.4213 94.0934 50.175 93.8717 50.4188C93.6943 50.6139 93.4874 51.0174 93.4727 51.106H94.3594L93.6722 51.5272C93.6943 51.6824 93.7331 51.8265 93.8717 51.9928C94.0934 52.2588 94.3298 52.3327 94.4037 52.3696L93.783 53.0347" stroke="#F0C673" stroke-width="0.5"/>
<path d="M58 23H58.8423V30.8191L58 29.2219V23Z" fill="#F0C673"/>
<path d="M59.5117 23H60.354V33.7036L59.5117 32.1064V23Z" fill="#F0C673"/>
<path d="M61.0039 23H61.8462V36.7072L61.0039 35.11V23Z" fill="#F0C673"/>
<path fill-rule="evenodd" clip-rule="evenodd" d="M64.8136 23H61.9805L62.7462 23.3099C63.0333 23.4291 63.0333 23.9774 63.0333 24.1919C63.0333 24.2158 63.0333 24.2158 63.0333 24.2158C63.0333 26.5758 63.0142 31.415 62.9376 31.7965C62.8802 32.1302 62.4208 32.2017 62.1145 32.2494C62.0762 32.2494 62.0379 32.2732 61.9996 32.2732C62.6122 32.3209 63.7225 32.2971 64.5839 32.2732C64.9285 32.2732 65.2156 32.2732 65.4071 32.2732C66.9194 32.2732 67.3214 30.1278 67.0342 28.5783C66.8045 27.3386 65.5602 27.1718 65.1199 27.1718C65.1582 27.1718 65.3879 27.1479 65.5794 27.0287C65.6177 27.0049 65.6368 26.981 65.6942 26.9572C66.0388 26.7427 66.7279 26.3374 66.7279 24.7164C66.7279 23 65.8091 23 65.0051 23.0238C64.9285 23 64.8711 23 64.8136 23ZM63.8756 23.7628V26.7188C64.2202 26.7665 65.1391 26.8857 65.5411 25.7653C65.9431 24.6687 65.6368 23.7628 65.1391 23.5006C64.6414 23.2384 64.0288 23.4053 63.8756 23.4529V23.7628ZM63.8756 27.6485V31.8441H63.8948C64.2585 31.8918 65.3114 32.0587 65.7134 31.1528C66.2111 30.0324 66.0197 28.4591 65.5411 27.9823C65.1582 27.6009 64.2394 27.6009 63.8756 27.6485Z" fill="#F0C673"/>
<defs>
<filter id="filter0_d_10102_909" x="7.78125" y="1.90369" width="53.2773" height="57.3763" filterUnits="userSpaceOnUse" color-interpolation-filters="sRGB">
<feFlood flood-opacity="0" result="BackgroundImageFix"/>
<feColorMatrix in="SourceAlpha" type="matrix" values="0 0 0 0 0 0 0 0 0 0 0 0 0 0 0 0 0 0 127 0" result="hardAlpha"/>
<feOffset dy="4"/>
<feGaussianBlur stdDeviation="12.5"/>
<feComposite in2="hardAlpha" operator="out"/>
<feColorMatrix type="matrix" values="0 0 0 0 1 0 0 0 0 1 0 0 0 0 1 0 0 0 1 0"/>
<feBlend mode="normal" in2="BackgroundImageFix" result="effect1_dropShadow_10102_909"/>
<feBlend mode="normal" in="SourceGraphic" in2="effect1_dropShadow_10102_909" result="shape"/>
</filter>
<filter id="filter1_d_10102_909" x="10.7852" y="1.90369" width="51.3672" height="57.3763" filterUnits="userSpaceOnUse" color-interpolation-filters="sRGB">
<feFlood flood-opacity="0" result="BackgroundImageFix"/>
<feColorMatrix in="SourceAlpha" type="matrix" values="0 0 0 0 0 0 0 0 0 0 0 0 0 0 0 0 0 0 127 0" result="hardAlpha"/>
<feOffset dy="4"/>
<feGaussianBlur stdDeviation="12.5"/>
<feComposite in2="hardAlpha" operator="out"/>
<feColorMatrix type="matrix" values="0 0 0 0 1 0 0 0 0 1 0 0 0 0 1 0 0 0 1 0"/>
<feBlend mode="normal" in2="BackgroundImageFix" result="effect1_dropShadow_10102_909"/>
<feBlend mode="normal" in="SourceGraphic" in2="effect1_dropShadow_10102_909" result="shape"/>
</filter>
<filter id="filter2_d_10102_909" x="13.4805" y="15.0184" width="22.8984" height="26.5184" filterUnits="userSpaceOnUse" color-interpolation-filters="sRGB">
<feFlood flood-opacity="0" result="BackgroundImageFix"/>
<feColorMatrix in="SourceAlpha" type="matrix" values="0 0 0 0 0 0 0 0 0 0 0 0 0 0 0 0 0 0 127 0" result="hardAlpha"/>
<feOffset dy="4"/>
<feGaussianBlur stdDeviation="5"/>
<feComposite in2="hardAlpha" operator="out"/>
<feColorMatrix type="matrix" values="0 0 0 0 1 0 0 0 0 1 0 0 0 0 1 0 0 0 1 0"/>
<feBlend mode="normal" in2="BackgroundImageFix" result="effect1_dropShadow_10102_909"/>
<feBlend mode="normal" in="SourceGraphic" in2="effect1_dropShadow_10102_909" result="shape"/>
</filter>
<filter id="filter3_d_10102_909" x="1.13672" y="0.0184326" width="51.207" height="56.5184" filterUnits="userSpaceOnUse" color-interpolation-filters="sRGB">
<feFlood flood-opacity="0" result="BackgroundImageFix"/>
<feColorMatrix in="SourceAlpha" type="matrix" values="0 0 0 0 0 0 0 0 0 0 0 0 0 0 0 0 0 0 127 0" result="hardAlpha"/>
<feOffset dy="4"/>
<feGaussianBlur stdDeviation="12.5"/>
<feComposite in2="hardAlpha" operator="out"/>
<feColorMatrix type="matrix" values="0 0 0 0 1 0 0 0 0 1 0 0 0 0 1 0 0 0 1 0"/>
<feBlend mode="normal" in2="BackgroundImageFix" result="effect1_dropShadow_10102_909"/>
<feBlend mode="normal" in="SourceGraphic" in2="effect1_dropShadow_10102_909" result="shape"/>
</filter>
<filter id="filter4_d_10102_909" x="74.4805" y="16.0184" width="22.8984" height="26.5184" filterUnits="userSpaceOnUse" color-interpolation-filters="sRGB">
<feFlood flood-opacity="0" result="BackgroundImageFix"/>
<feColorMatrix in="SourceAlpha" type="matrix" values="0 0 0 0 0 0 0 0 0 0 0 0 0 0 0 0 0 0 127 0" result="hardAlpha"/>
<feOffset dy="4"/>
<feGaussianBlur stdDeviation="5"/>
<feComposite in2="hardAlpha" operator="out"/>
<feColorMatrix type="matrix" values="0 0 0 0 1 0 0 0 0 1 0 0 0 0 1 0 0 0 1 0"/>
<feBlend mode="normal" in2="BackgroundImageFix" result="effect1_dropShadow_10102_909"/>
<feBlend mode="normal" in="SourceGraphic" in2="effect1_dropShadow_10102_909" result="shape"/>
</filter>
<filter id="filter5_d_10102_909" x="62.1367" y="1.01843" width="51.207" height="56.5184" filterUnits="userSpaceOnUse" color-interpolation-filters="sRGB">
<feFlood flood-opacity="0" result="BackgroundImageFix"/>
<feColorMatrix in="SourceAlpha" type="matrix" values="0 0 0 0 0 0 0 0 0 0 0 0 0 0 0 0 0 0 127 0" result="hardAlpha"/>
<feOffset dy="4"/>
<feGaussianBlur stdDeviation="12.5"/>
<feComposite in2="hardAlpha" operator="out"/>
<feColorMatrix type="matrix" values="0 0 0 0 1 0 0 0 0 1 0 0 0 0 1 0 0 0 1 0"/>
<feBlend mode="normal" in2="BackgroundImageFix" result="effect1_dropShadow_10102_909"/>
<feBlend mode="normal" in="SourceGraphic" in2="effect1_dropShadow_10102_909" result="shape"/>
</filter>
<linearGradient id="paint0_linear_10102_909" x1="34.9432" y1="15.0774" x2="34.9082" y2="19.3303" gradientUnits="userSpaceOnUse">
<stop stop-color="#9747FF"/>
<stop offset="1" stop-color="#345888"/>
</linearGradient>
<linearGradient id="paint1_linear_10102_909" x1="78.3528" y1="18.0156" x2="78.3278" y2="21.0534" gradientUnits="userSpaceOnUse">
<stop stop-color="#9747FF"/>
<stop offset="1" stop-color="#345888"/>
</linearGradient>
<linearGradient id="paint2_linear_10102_909" x1="73.7492" y1="16.1597" x2="73.7099" y2="20.9333" gradientUnits="userSpaceOnUse">
<stop stop-color="#9747FF"/>
<stop offset="1" stop-color="#345888"/>
</linearGradient>
<linearGradient id="paint3_linear_10102_909" x1="48.3499" y1="14.2676" x2="48.3008" y2="20.239" gradientUnits="userSpaceOnUse">
<stop stop-color="#9747FF"/>
<stop offset="1" stop-color="#345888"/>
</linearGradient>
<linearGradient id="paint4_linear_10102_909" x1="62.2966" y1="10.4926" x2="62.1606" y2="19.1902" gradientUnits="userSpaceOnUse">
<stop stop-color="#9747FF"/>
<stop offset="1" stop-color="#345888"/>
</linearGradient>
</defs>
</svg>
