<svg width="360" height="170" viewBox="0 0 360 170" fill="none" xmlns="http://www.w3.org/2000/svg">
<path d="M34.11 68.81L14.85 8.15H14.49V65.75H24.39V68H1.08V65.75H10.98V2.39H1.08V0.139999H25.47L39.78 47.66H40.14L54.81 0.139999H78.48V2.39H68.58V65.75H78.48V68H46.62V65.75H56.52V8.15H56.16L37.35 68.81H34.11ZM104.831 69.08C101.891 69.08 99.131 68.48 96.551 67.28C94.031 66.08 91.781 64.49 89.801 62.51C87.881 60.47 86.381 58.19 85.301 55.67C84.221 53.09 83.681 50.45 83.681 47.75C83.681 45.05 84.221 42.44 85.301 39.92C86.381 37.34 87.881 35.06 89.801 33.08C91.781 31.04 94.031 29.42 96.551 28.22C99.131 27.02 101.891 26.42 104.831 26.42C107.771 26.42 110.501 27.02 113.021 28.22C115.601 29.42 117.851 31.04 119.771 33.08C121.751 35.06 123.281 37.34 124.361 39.92C125.441 42.44 125.981 45.05 125.981 47.75C125.981 50.45 125.441 53.09 124.361 55.67C123.281 58.19 121.751 60.47 119.771 62.51C117.851 64.49 115.601 66.08 113.021 67.28C110.501 68.48 107.771 69.08 104.831 69.08ZM104.831 66.38C107.111 66.38 108.941 65.87 110.321 64.85C111.701 63.83 112.691 62 113.291 59.36C113.951 56.66 114.281 52.79 114.281 47.75C114.281 42.71 113.951 38.84 113.291 36.14C112.691 33.44 111.701 31.61 110.321 30.65C108.941 29.63 107.111 29.12 104.831 29.12C102.551 29.12 100.721 29.63 99.341 30.65C97.961 31.61 96.941 33.44 96.281 36.14C95.681 38.84 95.381 42.71 95.381 47.75C95.381 52.79 95.681 56.66 96.281 59.36C96.941 62 97.961 63.83 99.341 64.85C100.721 65.87 102.551 66.38 104.831 66.38ZM151.858 69.08C148.858 69.08 146.008 68.21 143.308 66.47C140.668 64.67 138.508 62.18 136.828 59C135.208 55.76 134.398 52.01 134.398 47.75C134.398 43.49 135.208 39.77 136.828 36.59C138.508 33.35 140.668 30.86 143.308 29.12C145.948 27.32 148.768 26.42 151.768 26.42C154.588 26.42 157.048 27.02 159.148 28.22C161.308 29.42 162.868 30.92 163.828 32.72H165.988L164.188 46.4C164.188 40.52 163.108 36.23 160.948 33.53C158.848 30.83 156.178 29.48 152.938 29.48C151.258 29.48 149.908 29.99 148.888 31.01C147.868 31.97 147.118 33.77 146.638 36.41C146.158 39.05 145.918 42.86 145.918 47.84C145.918 52.76 146.128 56.54 146.548 59.18C147.028 61.82 147.778 63.62 148.798 64.58C149.818 65.54 151.168 66.02 152.848 66.02C156.088 66.02 158.788 64.67 160.948 61.97C163.108 59.21 164.188 54.92 164.188 49.1L165.988 62.78H163.828C162.868 64.58 161.338 66.08 159.238 67.28C157.138 68.48 154.678 69.08 151.858 69.08ZM164.188 68V65.75H180.208V68H164.188ZM164.188 66.65V1.58H174.088V66.65H164.188ZM155.278 2.39V0.139999H174.088V2.39H155.278ZM205.89 69.08C203.01 69.08 200.28 68.51 197.7 67.37C195.18 66.17 192.96 64.58 191.04 62.6C189.12 60.56 187.62 58.28 186.54 55.76C185.46 53.18 184.92 50.51 184.92 47.75C184.92 44.09 185.76 40.64 187.44 37.4C189.18 34.16 191.58 31.52 194.64 29.48C197.7 27.44 201.3 26.42 205.44 26.42C208.68 26.42 211.59 27.17 214.17 28.67C216.81 30.11 218.88 32.15 220.38 34.79C221.88 37.43 222.63 40.46 222.63 43.88V44.42H193.2V42.17H212.19V37.04C212.19 31.58 209.79 28.85 204.99 28.85C203.01 28.85 201.39 29.45 200.13 30.65C198.93 31.79 198.03 33.74 197.43 36.5C196.89 39.26 196.62 43.01 196.62 47.75C196.62 52.61 196.92 56.39 197.52 59.09C198.12 61.79 199.11 63.68 200.49 64.76C201.93 65.84 203.82 66.38 206.16 66.38C209.34 66.38 212.1 65.57 214.44 63.95C216.78 62.33 218.76 59.51 220.38 55.49H222.9C221.7 59.69 219.57 63.02 216.51 65.48C213.51 67.88 209.97 69.08 205.89 69.08ZM234.95 66.65V1.58H244.85V66.65H234.95ZM227.84 68V65.75H252.05V68H227.84ZM227.84 2.39V0.139999H244.85V2.39H227.84ZM274.811 69.08C272.351 69.08 269.951 68.66 267.611 67.82C265.331 66.98 263.471 65.87 262.031 64.49L260.681 68H258.071V54.23H260.951L261.401 55.94C262.241 59.18 263.741 61.64 265.901 63.32C268.121 65 271.061 65.84 274.721 65.84C277.721 65.84 279.821 65.33 281.021 64.31C282.221 63.23 282.821 61.7 282.821 59.72C282.821 57.74 282.011 56.3 280.391 55.4C278.771 54.44 276.281 53.6 272.921 52.88C270.041 52.28 267.521 51.53 265.361 50.63C263.261 49.67 261.611 48.35 260.411 46.67C259.211 44.93 258.611 42.56 258.611 39.56C258.611 35.3 259.841 32.06 262.301 29.84C264.761 27.56 268.271 26.42 272.831 26.42C275.411 26.42 277.631 26.78 279.491 27.5C281.411 28.22 282.761 29.21 283.541 30.47L284.531 27.5H286.871V40.55H284.081L283.811 39.2C283.151 35.84 281.981 33.41 280.301 31.91C278.681 30.41 276.251 29.66 273.011 29.66C270.131 29.66 267.971 30.23 266.531 31.37C265.151 32.45 264.461 33.98 264.461 35.96C264.461 36.92 264.731 37.79 265.271 38.57C265.811 39.29 266.801 39.95 268.241 40.55C269.741 41.15 271.811 41.75 274.451 42.35C277.511 43.01 280.091 43.85 282.191 44.87C284.291 45.89 285.881 47.24 286.961 48.92C288.101 50.6 288.671 52.79 288.671 55.49C288.671 59.63 287.411 62.93 284.891 65.39C282.371 67.85 279.011 69.08 274.811 69.08Z" fill="url(#paint0_linear_393_2589)"/>
<path d="M5.11 137.538C4.93267 137.706 4.70867 137.837 4.438 137.93C4.17667 138.014 3.90133 138.056 3.612 138.056C2.97733 138.056 2.48733 137.883 2.142 137.538C1.79667 137.183 1.624 136.693 1.624 136.068V131.294H0.28V130.692H1.624V129.096H2.324V130.692H4.648V131.294H2.324V135.998C2.324 136.474 2.436 136.838 2.66 137.09C2.89333 137.333 3.234 137.454 3.682 137.454C4.13933 137.454 4.51733 137.319 4.816 137.048L5.11 137.538ZM12.9764 134.514H6.69036C6.70903 135.083 6.85369 135.592 7.12436 136.04C7.39503 136.479 7.75903 136.819 8.21636 137.062C8.68303 137.305 9.20569 137.426 9.78436 137.426C10.2604 137.426 10.699 137.342 11.1004 137.174C11.511 136.997 11.8517 136.74 12.1224 136.404L12.5284 136.866C12.211 137.249 11.8097 137.543 11.3244 137.748C10.8484 137.953 10.3304 138.056 9.77036 138.056C9.04236 138.056 8.39369 137.897 7.82436 137.58C7.25503 137.263 6.80703 136.824 6.48036 136.264C6.16303 135.704 6.00436 135.065 6.00436 134.346C6.00436 133.637 6.15369 133.002 6.45236 132.442C6.76036 131.873 7.18036 131.429 7.71236 131.112C8.24436 130.795 8.84169 130.636 9.50436 130.636C10.167 130.636 10.7597 130.795 11.2824 131.112C11.8144 131.42 12.2297 131.854 12.5284 132.414C12.8364 132.974 12.9904 133.609 12.9904 134.318L12.9764 134.514ZM9.50436 131.252C8.99103 131.252 8.52903 131.369 8.11836 131.602C7.70769 131.826 7.37636 132.148 7.12436 132.568C6.88169 132.979 6.74169 133.445 6.70436 133.968H12.3044C12.2764 133.445 12.1364 132.979 11.8844 132.568C11.6324 132.157 11.301 131.835 10.8904 131.602C10.4797 131.369 10.0177 131.252 9.50436 131.252ZM19.5988 138L17.0928 134.738L14.5868 138H13.7888L16.6868 134.234L13.9428 130.692H14.7408L17.0928 133.73L19.4448 130.692H20.2288L17.4848 134.234L20.4248 138H19.5988ZM25.8366 137.538C25.6592 137.706 25.4352 137.837 25.1646 137.93C24.9032 138.014 24.6279 138.056 24.3386 138.056C23.7039 138.056 23.2139 137.883 22.8686 137.538C22.5232 137.183 22.3506 136.693 22.3506 136.068V131.294H21.0066V130.692H22.3506V129.096H23.0506V130.692H25.3746V131.294H23.0506V135.998C23.0506 136.474 23.1626 136.838 23.3866 137.09C23.6199 137.333 23.9606 137.454 24.4086 137.454C24.8659 137.454 25.2439 137.319 25.5426 137.048L25.8366 137.538ZM33.8484 130.636C34.7537 130.636 35.4491 130.869 35.9344 131.336C36.4197 131.793 36.6624 132.47 36.6624 133.366V138H35.9904V136.698C35.7571 137.127 35.4164 137.463 34.9684 137.706C34.5204 137.939 33.9837 138.056 33.3584 138.056C32.5464 138.056 31.9024 137.865 31.4264 137.482C30.9597 137.099 30.7264 136.595 30.7264 135.97C30.7264 135.363 30.9411 134.873 31.3704 134.5C31.8091 134.117 32.5044 133.926 33.4564 133.926H35.9624V133.338C35.9624 132.657 35.7757 132.139 35.4024 131.784C35.0384 131.429 34.5017 131.252 33.7924 131.252C33.3071 131.252 32.8404 131.336 32.3924 131.504C31.9537 131.672 31.5804 131.896 31.2724 132.176L30.9224 131.672C31.2864 131.345 31.7251 131.093 32.2384 130.916C32.7517 130.729 33.2884 130.636 33.8484 130.636ZM33.4564 137.482C34.0631 137.482 34.5764 137.342 34.9964 137.062C35.4257 136.782 35.7477 136.376 35.9624 135.844V134.472H33.4704C32.7517 134.472 32.2291 134.603 31.9024 134.864C31.5851 135.125 31.4264 135.485 31.4264 135.942C31.4264 136.418 31.6037 136.796 31.9584 137.076C32.3131 137.347 32.8124 137.482 33.4564 137.482ZM43.2145 130.636C43.8958 130.636 44.5118 130.795 45.0625 131.112C45.6132 131.42 46.0425 131.859 46.3505 132.428C46.6678 132.988 46.8265 133.627 46.8265 134.346C46.8265 135.065 46.6678 135.704 46.3505 136.264C46.0425 136.824 45.6132 137.263 45.0625 137.58C44.5118 137.897 43.8958 138.056 43.2145 138.056C42.5612 138.056 41.9685 137.902 41.4365 137.594C40.9138 137.277 40.5078 136.838 40.2185 136.278V138H39.5465V127.612H40.2465V132.358C40.5358 131.817 40.9418 131.397 41.4645 131.098C41.9872 130.79 42.5705 130.636 43.2145 130.636ZM43.1725 137.426C43.7325 137.426 44.2365 137.295 44.6845 137.034C45.1325 136.773 45.4825 136.409 45.7345 135.942C45.9958 135.475 46.1265 134.943 46.1265 134.346C46.1265 133.749 45.9958 133.217 45.7345 132.75C45.4825 132.283 45.1325 131.919 44.6845 131.658C44.2365 131.397 43.7325 131.266 43.1725 131.266C42.6125 131.266 42.1085 131.397 41.6605 131.658C41.2218 131.919 40.8718 132.283 40.6105 132.75C40.3585 133.217 40.2325 133.749 40.2325 134.346C40.2325 134.943 40.3585 135.475 40.6105 135.942C40.8718 136.409 41.2218 136.773 41.6605 137.034C42.1085 137.295 42.6125 137.426 43.1725 137.426ZM51.8498 138.056C51.1591 138.056 50.5338 137.897 49.9738 137.58C49.4231 137.263 48.9891 136.824 48.6718 136.264C48.3544 135.695 48.1958 135.055 48.1958 134.346C48.1958 133.637 48.3544 133.002 48.6718 132.442C48.9891 131.873 49.4231 131.429 49.9738 131.112C50.5338 130.795 51.1591 130.636 51.8498 130.636C52.5404 130.636 53.1611 130.795 53.7118 131.112C54.2718 131.429 54.7104 131.873 55.0278 132.442C55.3451 133.002 55.5038 133.637 55.5038 134.346C55.5038 135.055 55.3451 135.695 55.0278 136.264C54.7104 136.824 54.2718 137.263 53.7118 137.58C53.1611 137.897 52.5404 138.056 51.8498 138.056ZM51.8498 137.426C52.4098 137.426 52.9091 137.295 53.3478 137.034C53.7958 136.773 54.1458 136.409 54.3978 135.942C54.6591 135.475 54.7898 134.943 54.7898 134.346C54.7898 133.749 54.6591 133.217 54.3978 132.75C54.1458 132.283 53.7958 131.919 53.3478 131.658C52.9091 131.397 52.4098 131.266 51.8498 131.266C51.2898 131.266 50.7858 131.397 50.3378 131.658C49.8991 131.919 49.5491 132.283 49.2878 132.75C49.0358 133.217 48.9098 133.749 48.9098 134.346C48.9098 134.943 49.0358 135.475 49.2878 135.942C49.5491 136.409 49.8991 136.773 50.3378 137.034C50.7858 137.295 51.2898 137.426 51.8498 137.426ZM64.0734 130.692V138H63.4014V136.432C63.1587 136.945 62.7994 137.347 62.3234 137.636C61.8474 137.916 61.2874 138.056 60.6434 138.056C59.6914 138.056 58.9447 137.79 58.4034 137.258C57.8621 136.726 57.5914 135.961 57.5914 134.962V130.692H58.2914V134.906C58.2914 135.727 58.5014 136.353 58.9214 136.782C59.3414 137.211 59.9341 137.426 60.6994 137.426C61.5207 137.426 62.1694 137.169 62.6454 136.656C63.1307 136.143 63.3734 135.452 63.3734 134.584V130.692H64.0734ZM70.6666 137.538C70.4893 137.706 70.2653 137.837 69.9946 137.93C69.7333 138.014 69.458 138.056 69.1686 138.056C68.534 138.056 68.044 137.883 67.6986 137.538C67.3533 137.183 67.1806 136.693 67.1806 136.068V131.294H65.8366V130.692H67.1806V129.096H67.8806V130.692H70.2046V131.294H67.8806V135.998C67.8806 136.474 67.9926 136.838 68.2166 137.09C68.45 137.333 68.7906 137.454 69.2386 137.454C69.696 137.454 70.074 137.319 70.3726 137.048L70.6666 137.538ZM86.6585 130.692L83.8865 138H83.2285L80.7645 131.658L78.2865 138H77.6425L74.8705 130.692H75.5425L77.9785 137.216L80.4705 130.692H81.0725L83.5505 137.202L86.0145 130.692H86.6585ZM90.532 130.636C91.4373 130.636 92.1327 130.869 92.618 131.336C93.1033 131.793 93.346 132.47 93.346 133.366V138H92.674V136.698C92.4407 137.127 92.1 137.463 91.652 137.706C91.204 137.939 90.6673 138.056 90.042 138.056C89.23 138.056 88.586 137.865 88.11 137.482C87.6433 137.099 87.41 136.595 87.41 135.97C87.41 135.363 87.6247 134.873 88.054 134.5C88.4927 134.117 89.188 133.926 90.14 133.926H92.646V133.338C92.646 132.657 92.4593 132.139 92.086 131.784C91.722 131.429 91.1853 131.252 90.476 131.252C89.9907 131.252 89.524 131.336 89.076 131.504C88.6373 131.672 88.264 131.896 87.956 132.176L87.606 131.672C87.97 131.345 88.4087 131.093 88.922 130.916C89.4353 130.729 89.972 130.636 90.532 130.636ZM90.14 137.482C90.7467 137.482 91.26 137.342 91.68 137.062C92.1093 136.782 92.4313 136.376 92.646 135.844V134.472H90.154C89.4353 134.472 88.9127 134.603 88.586 134.864C88.2687 135.125 88.11 135.485 88.11 135.942C88.11 136.418 88.2873 136.796 88.642 137.076C88.9967 137.347 89.496 137.482 90.14 137.482ZM99.8561 137.538C99.6788 137.706 99.4548 137.837 99.1841 137.93C98.9228 138.014 98.6474 138.056 98.3581 138.056C97.7234 138.056 97.2334 137.883 96.8881 137.538C96.5428 137.183 96.3701 136.693 96.3701 136.068V131.294H95.0261V130.692H96.3701V129.096H97.0701V130.692H99.3941V131.294H97.0701V135.998C97.0701 136.474 97.1821 136.838 97.4061 137.09C97.6394 137.333 97.9801 137.454 98.4281 137.454C98.8854 137.454 99.2634 137.319 99.5621 137.048L99.8561 137.538ZM104.446 138.056C103.737 138.056 103.102 137.897 102.542 137.58C101.982 137.263 101.544 136.824 101.226 136.264C100.909 135.695 100.75 135.055 100.75 134.346C100.75 133.627 100.909 132.988 101.226 132.428C101.544 131.859 101.982 131.42 102.542 131.112C103.102 130.795 103.737 130.636 104.446 130.636C105.034 130.636 105.566 130.753 106.042 130.986C106.528 131.21 106.92 131.541 107.218 131.98L106.7 132.358C106.439 131.994 106.112 131.723 105.72 131.546C105.338 131.359 104.913 131.266 104.446 131.266C103.877 131.266 103.364 131.397 102.906 131.658C102.458 131.91 102.104 132.269 101.842 132.736C101.59 133.203 101.464 133.739 101.464 134.346C101.464 134.953 101.59 135.489 101.842 135.956C102.104 136.423 102.458 136.787 102.906 137.048C103.364 137.3 103.877 137.426 104.446 137.426C104.913 137.426 105.338 137.337 105.72 137.16C106.112 136.973 106.439 136.698 106.7 136.334L107.218 136.712C106.92 137.151 106.528 137.487 106.042 137.72C105.566 137.944 105.034 138.056 104.446 138.056ZM112.761 130.636C113.676 130.636 114.399 130.902 114.931 131.434C115.463 131.966 115.729 132.731 115.729 133.73V138H115.029V133.786C115.029 132.965 114.819 132.339 114.399 131.91C113.988 131.481 113.41 131.266 112.663 131.266C111.804 131.266 111.128 131.523 110.633 132.036C110.138 132.549 109.891 133.24 109.891 134.108V138H109.191V127.612H109.891V132.218C110.143 131.714 110.516 131.327 111.011 131.056C111.506 130.776 112.089 130.636 112.761 130.636ZM128.703 127.612V138H128.017V136.278C127.727 136.847 127.321 137.286 126.799 137.594C126.276 137.902 125.683 138.056 125.021 138.056C124.339 138.056 123.723 137.897 123.173 137.58C122.622 137.263 122.188 136.824 121.871 136.264C121.563 135.704 121.409 135.065 121.409 134.346C121.409 133.627 121.563 132.988 121.871 132.428C122.188 131.859 122.622 131.42 123.173 131.112C123.723 130.795 124.339 130.636 125.021 130.636C125.674 130.636 126.257 130.79 126.771 131.098C127.293 131.406 127.704 131.835 128.003 132.386V127.612H128.703ZM125.063 137.426C125.623 137.426 126.122 137.295 126.561 137.034C127.009 136.773 127.359 136.409 127.611 135.942C127.872 135.475 128.003 134.943 128.003 134.346C128.003 133.749 127.872 133.217 127.611 132.75C127.359 132.283 127.009 131.919 126.561 131.658C126.122 131.397 125.623 131.266 125.063 131.266C124.503 131.266 123.999 131.397 123.551 131.658C123.112 131.919 122.762 132.283 122.501 132.75C122.249 133.217 122.123 133.749 122.123 134.346C122.123 134.943 122.249 135.475 122.501 135.942C122.762 136.409 123.112 136.773 123.551 137.034C123.999 137.295 124.503 137.426 125.063 137.426ZM137.828 134.514H131.542C131.561 135.083 131.705 135.592 131.976 136.04C132.247 136.479 132.611 136.819 133.068 137.062C133.535 137.305 134.057 137.426 134.636 137.426C135.112 137.426 135.551 137.342 135.952 137.174C136.363 136.997 136.703 136.74 136.974 136.404L137.38 136.866C137.063 137.249 136.661 137.543 136.176 137.748C135.7 137.953 135.182 138.056 134.622 138.056C133.894 138.056 133.245 137.897 132.676 137.58C132.107 137.263 131.659 136.824 131.332 136.264C131.015 135.704 130.856 135.065 130.856 134.346C130.856 133.637 131.005 133.002 131.304 132.442C131.612 131.873 132.032 131.429 132.564 131.112C133.096 130.795 133.693 130.636 134.356 130.636C135.019 130.636 135.611 130.795 136.134 131.112C136.666 131.42 137.081 131.854 137.38 132.414C137.688 132.974 137.842 133.609 137.842 134.318L137.828 134.514ZM134.356 131.252C133.843 131.252 133.381 131.369 132.97 131.602C132.559 131.826 132.228 132.148 131.976 132.568C131.733 132.979 131.593 133.445 131.556 133.968H137.156C137.128 133.445 136.988 132.979 136.736 132.568C136.484 132.157 136.153 131.835 135.742 131.602C135.331 131.369 134.869 131.252 134.356 131.252ZM141.855 138.056C141.267 138.056 140.707 137.967 140.175 137.79C139.643 137.613 139.228 137.389 138.929 137.118L139.251 136.558C139.55 136.81 139.933 137.02 140.399 137.188C140.875 137.356 141.37 137.44 141.883 137.44C142.621 137.44 143.162 137.319 143.507 137.076C143.862 136.833 144.039 136.497 144.039 136.068C144.039 135.76 143.941 135.517 143.745 135.34C143.559 135.163 143.325 135.032 143.045 134.948C142.765 134.864 142.378 134.775 141.883 134.682C141.305 134.579 140.838 134.467 140.483 134.346C140.129 134.225 139.825 134.029 139.573 133.758C139.321 133.487 139.195 133.114 139.195 132.638C139.195 132.059 139.433 131.583 139.909 131.21C140.395 130.827 141.081 130.636 141.967 130.636C142.434 130.636 142.896 130.701 143.353 130.832C143.811 130.963 144.184 131.135 144.473 131.35L144.151 131.91C143.853 131.695 143.512 131.532 143.129 131.42C142.747 131.308 142.355 131.252 141.953 131.252C141.272 131.252 140.759 131.378 140.413 131.63C140.068 131.882 139.895 132.213 139.895 132.624C139.895 132.951 139.993 133.207 140.189 133.394C140.385 133.571 140.623 133.707 140.903 133.8C141.193 133.884 141.594 133.977 142.107 134.08C142.677 134.183 143.134 134.295 143.479 134.416C143.834 134.528 144.133 134.715 144.375 134.976C144.618 135.237 144.739 135.597 144.739 136.054C144.739 136.661 144.487 137.146 143.983 137.51C143.479 137.874 142.77 138.056 141.855 138.056ZM146.693 130.692H147.393V138H146.693V130.692ZM147.043 128.914C146.884 128.914 146.749 128.863 146.637 128.76C146.525 128.648 146.469 128.513 146.469 128.354C146.469 128.195 146.525 128.06 146.637 127.948C146.749 127.836 146.884 127.78 147.043 127.78C147.202 127.78 147.337 127.836 147.449 127.948C147.561 128.051 147.617 128.181 147.617 128.34C147.617 128.499 147.561 128.634 147.449 128.746C147.337 128.858 147.202 128.914 147.043 128.914ZM156.923 130.692V137.216C156.923 138.429 156.629 139.325 156.041 139.904C155.453 140.483 154.567 140.772 153.381 140.772C152.709 140.772 152.075 140.669 151.477 140.464C150.88 140.259 150.399 139.974 150.035 139.61L150.413 139.078C150.777 139.414 151.216 139.675 151.729 139.862C152.243 140.049 152.789 140.142 153.367 140.142C154.338 140.142 155.057 139.909 155.523 139.442C155.99 138.985 156.223 138.271 156.223 137.3V136.068C155.925 136.6 155.509 137.011 154.977 137.3C154.445 137.589 153.848 137.734 153.185 137.734C152.504 137.734 151.883 137.585 151.323 137.286C150.773 136.978 150.339 136.553 150.021 136.012C149.704 135.471 149.545 134.859 149.545 134.178C149.545 133.497 149.704 132.885 150.021 132.344C150.339 131.803 150.773 131.383 151.323 131.084C151.883 130.785 152.504 130.636 153.185 130.636C153.857 130.636 154.464 130.785 155.005 131.084C155.547 131.383 155.962 131.803 156.251 132.344V130.692H156.923ZM153.241 137.104C153.811 137.104 154.324 136.983 154.781 136.74C155.239 136.488 155.593 136.143 155.845 135.704C156.107 135.256 156.237 134.747 156.237 134.178C156.237 133.609 156.107 133.105 155.845 132.666C155.593 132.227 155.239 131.887 154.781 131.644C154.324 131.392 153.811 131.266 153.241 131.266C152.672 131.266 152.159 131.392 151.701 131.644C151.253 131.887 150.899 132.227 150.637 132.666C150.385 133.105 150.259 133.609 150.259 134.178C150.259 134.747 150.385 135.256 150.637 135.704C150.899 136.143 151.253 136.488 151.701 136.74C152.159 136.983 152.672 137.104 153.241 137.104ZM163.456 130.636C164.371 130.636 165.094 130.902 165.626 131.434C166.158 131.966 166.424 132.731 166.424 133.73V138H165.724V133.786C165.724 132.965 165.514 132.339 165.094 131.91C164.684 131.481 164.105 131.266 163.358 131.266C162.5 131.266 161.823 131.523 161.328 132.036C160.834 132.549 160.586 133.24 160.586 134.108V138H159.886V130.692H160.558V132.274C160.81 131.761 161.184 131.359 161.678 131.07C162.182 130.781 162.775 130.636 163.456 130.636ZM175.758 138.056C175.067 138.056 174.442 137.897 173.882 137.58C173.331 137.263 172.897 136.824 172.58 136.264C172.263 135.695 172.104 135.055 172.104 134.346C172.104 133.637 172.263 133.002 172.58 132.442C172.897 131.873 173.331 131.429 173.882 131.112C174.442 130.795 175.067 130.636 175.758 130.636C176.449 130.636 177.069 130.795 177.62 131.112C178.18 131.429 178.619 131.873 178.936 132.442C179.253 133.002 179.412 133.637 179.412 134.346C179.412 135.055 179.253 135.695 178.936 136.264C178.619 136.824 178.18 137.263 177.62 137.58C177.069 137.897 176.449 138.056 175.758 138.056ZM175.758 137.426C176.318 137.426 176.817 137.295 177.256 137.034C177.704 136.773 178.054 136.409 178.306 135.942C178.567 135.475 178.698 134.943 178.698 134.346C178.698 133.749 178.567 133.217 178.306 132.75C178.054 132.283 177.704 131.919 177.256 131.658C176.817 131.397 176.318 131.266 175.758 131.266C175.198 131.266 174.694 131.397 174.246 131.658C173.807 131.919 173.457 132.283 173.196 132.75C172.944 133.217 172.818 133.749 172.818 134.346C172.818 134.943 172.944 135.475 173.196 135.942C173.457 136.409 173.807 136.773 174.246 137.034C174.694 137.295 175.198 137.426 175.758 137.426ZM185.252 130.636C185.933 130.636 186.549 130.795 187.1 131.112C187.65 131.429 188.08 131.868 188.388 132.428C188.705 132.988 188.864 133.627 188.864 134.346C188.864 135.065 188.705 135.709 188.388 136.278C188.08 136.838 187.65 137.277 187.1 137.594C186.549 137.902 185.933 138.056 185.252 138.056C184.608 138.056 184.024 137.907 183.502 137.608C182.979 137.3 182.573 136.875 182.284 136.334V140.716H181.584V130.692H182.256V132.414C182.545 131.854 182.951 131.42 183.474 131.112C184.006 130.795 184.598 130.636 185.252 130.636ZM185.21 137.426C185.77 137.426 186.274 137.295 186.722 137.034C187.17 136.773 187.52 136.409 187.772 135.942C188.033 135.475 188.164 134.943 188.164 134.346C188.164 133.749 188.033 133.217 187.772 132.75C187.52 132.283 187.17 131.919 186.722 131.658C186.274 131.397 185.77 131.266 185.21 131.266C184.65 131.266 184.146 131.397 183.698 131.658C183.259 131.919 182.909 132.283 182.648 132.75C182.396 133.217 182.27 133.749 182.27 134.346C182.27 134.943 182.396 135.475 182.648 135.942C182.909 136.409 183.259 136.773 183.698 137.034C184.146 137.295 184.65 137.426 185.21 137.426ZM194.657 137.538C194.48 137.706 194.256 137.837 193.985 137.93C193.724 138.014 193.448 138.056 193.159 138.056C192.524 138.056 192.034 137.883 191.689 137.538C191.344 137.183 191.171 136.693 191.171 136.068V131.294H189.827V130.692H191.171V129.096H191.871V130.692H194.195V131.294H191.871V135.998C191.871 136.474 191.983 136.838 192.207 137.09C192.44 137.333 192.781 137.454 193.229 137.454C193.686 137.454 194.064 137.319 194.363 137.048L194.657 137.538ZM196.609 130.692H197.309V138H196.609V130.692ZM196.959 128.914C196.8 128.914 196.665 128.863 196.553 128.76C196.441 128.648 196.385 128.513 196.385 128.354C196.385 128.195 196.441 128.06 196.553 127.948C196.665 127.836 196.8 127.78 196.959 127.78C197.118 127.78 197.253 127.836 197.365 127.948C197.477 128.051 197.533 128.181 197.533 128.34C197.533 128.499 197.477 128.634 197.365 128.746C197.253 128.858 197.118 128.914 196.959 128.914ZM203.115 138.056C202.425 138.056 201.799 137.897 201.239 137.58C200.689 137.263 200.255 136.824 199.937 136.264C199.62 135.695 199.461 135.055 199.461 134.346C199.461 133.637 199.62 133.002 199.937 132.442C200.255 131.873 200.689 131.429 201.239 131.112C201.799 130.795 202.425 130.636 203.115 130.636C203.806 130.636 204.427 130.795 204.977 131.112C205.537 131.429 205.976 131.873 206.293 132.442C206.611 133.002 206.769 133.637 206.769 134.346C206.769 135.055 206.611 135.695 206.293 136.264C205.976 136.824 205.537 137.263 204.977 137.58C204.427 137.897 203.806 138.056 203.115 138.056ZM203.115 137.426C203.675 137.426 204.175 137.295 204.613 137.034C205.061 136.773 205.411 136.409 205.663 135.942C205.925 135.475 206.055 134.943 206.055 134.346C206.055 133.749 205.925 133.217 205.663 132.75C205.411 132.283 205.061 131.919 204.613 131.658C204.175 131.397 203.675 131.266 203.115 131.266C202.555 131.266 202.051 131.397 201.603 131.658C201.165 131.919 200.815 132.283 200.553 132.75C200.301 133.217 200.175 133.749 200.175 134.346C200.175 134.943 200.301 135.475 200.553 135.942C200.815 136.409 201.165 136.773 201.603 137.034C202.051 137.295 202.555 137.426 203.115 137.426ZM212.511 130.636C213.426 130.636 214.149 130.902 214.681 131.434C215.213 131.966 215.479 132.731 215.479 133.73V138H214.779V133.786C214.779 132.965 214.569 132.339 214.149 131.91C213.738 131.481 213.16 131.266 212.413 131.266C211.554 131.266 210.878 131.523 210.383 132.036C209.888 132.549 209.641 133.24 209.641 134.108V138H208.941V130.692H209.613V132.274C209.865 131.761 210.238 131.359 210.733 131.07C211.237 130.781 211.83 130.636 212.511 130.636ZM220.209 138.056C219.621 138.056 219.061 137.967 218.529 137.79C217.997 137.613 217.582 137.389 217.283 137.118L217.605 136.558C217.904 136.81 218.286 137.02 218.753 137.188C219.229 137.356 219.724 137.44 220.237 137.44C220.974 137.44 221.516 137.319 221.861 137.076C222.216 136.833 222.393 136.497 222.393 136.068C222.393 135.76 222.295 135.517 222.099 135.34C221.912 135.163 221.679 135.032 221.399 134.948C221.119 134.864 220.732 134.775 220.237 134.682C219.658 134.579 219.192 134.467 218.837 134.346C218.482 134.225 218.179 134.029 217.927 133.758C217.675 133.487 217.549 133.114 217.549 132.638C217.549 132.059 217.787 131.583 218.263 131.21C218.748 130.827 219.434 130.636 220.321 130.636C220.788 130.636 221.25 130.701 221.707 130.832C222.164 130.963 222.538 131.135 222.827 131.35L222.505 131.91C222.206 131.695 221.866 131.532 221.483 131.42C221.1 131.308 220.708 131.252 220.307 131.252C219.626 131.252 219.112 131.378 218.767 131.63C218.422 131.882 218.249 132.213 218.249 132.624C218.249 132.951 218.347 133.207 218.543 133.394C218.739 133.571 218.977 133.707 219.257 133.8C219.546 133.884 219.948 133.977 220.461 134.08C221.03 134.183 221.488 134.295 221.833 134.416C222.188 134.528 222.486 134.715 222.729 134.976C222.972 135.237 223.093 135.597 223.093 136.054C223.093 136.661 222.841 137.146 222.337 137.51C221.833 137.874 221.124 138.056 220.209 138.056ZM224.963 131.826C224.804 131.826 224.664 131.77 224.543 131.658C224.431 131.537 224.375 131.392 224.375 131.224C224.375 131.056 224.431 130.916 224.543 130.804C224.664 130.692 224.804 130.636 224.963 130.636C225.121 130.636 225.257 130.692 225.369 130.804C225.49 130.916 225.551 131.056 225.551 131.224C225.551 131.392 225.49 131.537 225.369 131.658C225.257 131.77 225.121 131.826 224.963 131.826ZM224.963 138.056C224.804 138.056 224.664 138 224.543 137.888C224.431 137.767 224.375 137.622 224.375 137.454C224.375 137.286 224.431 137.146 224.543 137.034C224.664 136.922 224.804 136.866 224.963 136.866C225.121 136.866 225.257 136.922 225.369 137.034C225.49 137.146 225.551 137.286 225.551 137.454C225.551 137.622 225.49 137.767 225.369 137.888C225.257 138 225.121 138.056 224.963 138.056ZM233.293 138.056C232.705 138.056 232.145 137.967 231.613 137.79C231.081 137.613 230.666 137.389 230.367 137.118L230.689 136.558C230.988 136.81 231.37 137.02 231.837 137.188C232.313 137.356 232.808 137.44 233.321 137.44C234.058 137.44 234.6 137.319 234.945 137.076C235.3 136.833 235.477 136.497 235.477 136.068C235.477 135.76 235.379 135.517 235.183 135.34C234.996 135.163 234.763 135.032 234.483 134.948C234.203 134.864 233.816 134.775 233.321 134.682C232.742 134.579 232.276 134.467 231.921 134.346C231.566 134.225 231.263 134.029 231.011 133.758C230.759 133.487 230.633 133.114 230.633 132.638C230.633 132.059 230.871 131.583 231.347 131.21C231.832 130.827 232.518 130.636 233.405 130.636C233.872 130.636 234.334 130.701 234.791 130.832C235.248 130.963 235.622 131.135 235.911 131.35L235.589 131.91C235.29 131.695 234.95 131.532 234.567 131.42C234.184 131.308 233.792 131.252 233.391 131.252C232.71 131.252 232.196 131.378 231.851 131.63C231.506 131.882 231.333 132.213 231.333 132.624C231.333 132.951 231.431 133.207 231.627 133.394C231.823 133.571 232.061 133.707 232.341 133.8C232.63 133.884 233.032 133.977 233.545 134.08C234.114 134.183 234.572 134.295 234.917 134.416C235.272 134.528 235.57 134.715 235.813 134.976C236.056 135.237 236.177 135.597 236.177 136.054C236.177 136.661 235.925 137.146 235.421 137.51C234.917 137.874 234.208 138.056 233.293 138.056ZM241.756 137.538C241.579 137.706 241.355 137.837 241.084 137.93C240.823 138.014 240.548 138.056 240.258 138.056C239.624 138.056 239.134 137.883 238.788 137.538C238.443 137.183 238.27 136.693 238.27 136.068V131.294H236.926V130.692H238.27V129.096H238.97V130.692H241.294V131.294H238.97V135.998C238.97 136.474 239.082 136.838 239.306 137.09C239.54 137.333 239.88 137.454 240.328 137.454C240.786 137.454 241.164 137.319 241.462 137.048L241.756 137.538ZM244.381 132.288C244.605 131.756 244.955 131.35 245.431 131.07C245.907 130.781 246.485 130.636 247.167 130.636V131.322L246.999 131.308C246.187 131.308 245.552 131.565 245.095 132.078C244.637 132.582 244.409 133.287 244.409 134.192V138H243.709V130.692H244.381V132.288ZM251.559 130.636C252.465 130.636 253.16 130.869 253.645 131.336C254.131 131.793 254.373 132.47 254.373 133.366V138H253.701V136.698C253.468 137.127 253.127 137.463 252.679 137.706C252.231 137.939 251.695 138.056 251.069 138.056C250.257 138.056 249.613 137.865 249.137 137.482C248.671 137.099 248.437 136.595 248.437 135.97C248.437 135.363 248.652 134.873 249.081 134.5C249.52 134.117 250.215 133.926 251.167 133.926H253.673V133.338C253.673 132.657 253.487 132.139 253.113 131.784C252.749 131.429 252.213 131.252 251.503 131.252C251.018 131.252 250.551 131.336 250.103 131.504C249.665 131.672 249.291 131.896 248.983 132.176L248.633 131.672C248.997 131.345 249.436 131.093 249.949 130.916C250.463 130.729 250.999 130.636 251.559 130.636ZM251.167 137.482C251.774 137.482 252.287 137.342 252.707 137.062C253.137 136.782 253.459 136.376 253.673 135.844V134.472H251.181C250.463 134.472 249.94 134.603 249.613 134.864C249.296 135.125 249.137 135.485 249.137 135.942C249.137 136.418 249.315 136.796 249.669 137.076C250.024 137.347 250.523 137.482 251.167 137.482ZM260.925 130.636C261.607 130.636 262.223 130.795 262.773 131.112C263.324 131.429 263.753 131.868 264.061 132.428C264.379 132.988 264.537 133.627 264.537 134.346C264.537 135.065 264.379 135.709 264.061 136.278C263.753 136.838 263.324 137.277 262.773 137.594C262.223 137.902 261.607 138.056 260.925 138.056C260.281 138.056 259.698 137.907 259.175 137.608C258.653 137.3 258.247 136.875 257.957 136.334V140.716H257.257V130.692H257.929V132.414C258.219 131.854 258.625 131.42 259.147 131.112C259.679 130.795 260.272 130.636 260.925 130.636ZM260.883 137.426C261.443 137.426 261.947 137.295 262.395 137.034C262.843 136.773 263.193 136.409 263.445 135.942C263.707 135.475 263.837 134.943 263.837 134.346C263.837 133.749 263.707 133.217 263.445 132.75C263.193 132.283 262.843 131.919 262.395 131.658C261.947 131.397 261.443 131.266 260.883 131.266C260.323 131.266 259.819 131.397 259.371 131.658C258.933 131.919 258.583 132.283 258.321 132.75C258.069 133.217 257.943 133.749 257.943 134.346C257.943 134.943 258.069 135.475 258.321 135.942C258.583 136.409 258.933 136.773 259.371 137.034C259.819 137.295 260.323 137.426 260.883 137.426ZM268.553 138.056C267.965 138.056 267.405 137.967 266.873 137.79C266.341 137.613 265.925 137.389 265.627 137.118L265.949 136.558C266.247 136.81 266.63 137.02 267.097 137.188C267.573 137.356 268.067 137.44 268.581 137.44C269.318 137.44 269.859 137.319 270.205 137.076C270.559 136.833 270.737 136.497 270.737 136.068C270.737 135.76 270.639 135.517 270.443 135.34C270.256 135.163 270.023 135.032 269.743 134.948C269.463 134.864 269.075 134.775 268.581 134.682C268.002 134.579 267.535 134.467 267.181 134.346C266.826 134.225 266.523 134.029 266.271 133.758C266.019 133.487 265.893 133.114 265.893 132.638C265.893 132.059 266.131 131.583 266.607 131.21C267.092 130.827 267.778 130.636 268.665 130.636C269.131 130.636 269.593 130.701 270.051 130.832C270.508 130.963 270.881 131.135 271.171 131.35L270.849 131.91C270.55 131.695 270.209 131.532 269.827 131.42C269.444 131.308 269.052 131.252 268.651 131.252C267.969 131.252 267.456 131.378 267.111 131.63C266.765 131.882 266.593 132.213 266.593 132.624C266.593 132.951 266.691 133.207 266.887 133.394C267.083 133.571 267.321 133.707 267.601 133.8C267.89 133.884 268.291 133.977 268.805 134.08C269.374 134.183 269.831 134.295 270.177 134.416C270.531 134.528 270.83 134.715 271.073 134.976C271.315 135.237 271.437 135.597 271.437 136.054C271.437 136.661 271.185 137.146 270.681 137.51C270.177 137.874 269.467 138.056 268.553 138.056ZM273.306 136.866C273.474 136.866 273.614 136.927 273.726 137.048C273.838 137.16 273.894 137.295 273.894 137.454C273.894 137.547 273.88 137.645 273.852 137.748C273.834 137.851 273.806 137.967 273.768 138.098L273.222 140.002H272.718L273.18 138.028C273.04 137.991 272.928 137.925 272.844 137.832C272.76 137.729 272.718 137.603 272.718 137.454C272.718 137.286 272.774 137.146 272.886 137.034C272.998 136.922 273.138 136.866 273.306 136.866ZM282.687 138.056C281.977 138.056 281.343 137.897 280.783 137.58C280.223 137.263 279.784 136.824 279.467 136.264C279.149 135.695 278.991 135.055 278.991 134.346C278.991 133.627 279.149 132.988 279.467 132.428C279.784 131.859 280.223 131.42 280.783 131.112C281.343 130.795 281.977 130.636 282.687 130.636C283.275 130.636 283.807 130.753 284.283 130.986C284.768 131.21 285.16 131.541 285.459 131.98L284.941 132.358C284.679 131.994 284.353 131.723 283.961 131.546C283.578 131.359 283.153 131.266 282.687 131.266C282.117 131.266 281.604 131.397 281.147 131.658C280.699 131.91 280.344 132.269 280.083 132.736C279.831 133.203 279.705 133.739 279.705 134.346C279.705 134.953 279.831 135.489 280.083 135.956C280.344 136.423 280.699 136.787 281.147 137.048C281.604 137.3 282.117 137.426 282.687 137.426C283.153 137.426 283.578 137.337 283.961 137.16C284.353 136.973 284.679 136.698 284.941 136.334L285.459 136.712C285.16 137.151 284.768 137.487 284.283 137.72C283.807 137.944 283.275 138.056 282.687 138.056ZM290.287 138.056C289.597 138.056 288.971 137.897 288.411 137.58C287.861 137.263 287.427 136.824 287.109 136.264C286.792 135.695 286.633 135.055 286.633 134.346C286.633 133.637 286.792 133.002 287.109 132.442C287.427 131.873 287.861 131.429 288.411 131.112C288.971 130.795 289.597 130.636 290.287 130.636C290.978 130.636 291.599 130.795 292.149 131.112C292.709 131.429 293.148 131.873 293.465 132.442C293.783 133.002 293.941 133.637 293.941 134.346C293.941 135.055 293.783 135.695 293.465 136.264C293.148 136.824 292.709 137.263 292.149 137.58C291.599 137.897 290.978 138.056 290.287 138.056ZM290.287 137.426C290.847 137.426 291.347 137.295 291.785 137.034C292.233 136.773 292.583 136.409 292.835 135.942C293.097 135.475 293.227 134.943 293.227 134.346C293.227 133.749 293.097 133.217 292.835 132.75C292.583 132.283 292.233 131.919 291.785 131.658C291.347 131.397 290.847 131.266 290.287 131.266C289.727 131.266 289.223 131.397 288.775 131.658C288.337 131.919 287.987 132.283 287.725 132.75C287.473 133.217 287.347 133.749 287.347 134.346C287.347 134.943 287.473 135.475 287.725 135.942C287.987 136.409 288.337 136.773 288.775 137.034C289.223 137.295 289.727 137.426 290.287 137.426ZM296.113 127.612H296.813V138H296.113V127.612ZM302.619 138.056C301.929 138.056 301.303 137.897 300.743 137.58C300.193 137.263 299.759 136.824 299.441 136.264C299.124 135.695 298.965 135.055 298.965 134.346C298.965 133.637 299.124 133.002 299.441 132.442C299.759 131.873 300.193 131.429 300.743 131.112C301.303 130.795 301.929 130.636 302.619 130.636C303.31 130.636 303.931 130.795 304.481 131.112C305.041 131.429 305.48 131.873 305.797 132.442C306.115 133.002 306.273 133.637 306.273 134.346C306.273 135.055 306.115 135.695 305.797 136.264C305.48 136.824 305.041 137.263 304.481 137.58C303.931 137.897 303.31 138.056 302.619 138.056ZM302.619 137.426C303.179 137.426 303.679 137.295 304.117 137.034C304.565 136.773 304.915 136.409 305.167 135.942C305.429 135.475 305.559 134.943 305.559 134.346C305.559 133.749 305.429 133.217 305.167 132.75C304.915 132.283 304.565 131.919 304.117 131.658C303.679 131.397 303.179 131.266 302.619 131.266C302.059 131.266 301.555 131.397 301.107 131.658C300.669 131.919 300.319 132.283 300.057 132.75C299.805 133.217 299.679 133.749 299.679 134.346C299.679 134.943 299.805 135.475 300.057 135.942C300.319 136.409 300.669 136.773 301.107 137.034C301.555 137.295 302.059 137.426 302.619 137.426ZM309.117 132.288C309.341 131.756 309.691 131.35 310.167 131.07C310.643 130.781 311.222 130.636 311.903 130.636V131.322L311.735 131.308C310.923 131.308 310.288 131.565 309.831 132.078C309.374 132.582 309.145 133.287 309.145 134.192V138H308.445V130.692H309.117V132.288ZM315.748 138.056C315.16 138.056 314.6 137.967 314.068 137.79C313.536 137.613 313.121 137.389 312.822 137.118L313.144 136.558C313.443 136.81 313.825 137.02 314.292 137.188C314.768 137.356 315.263 137.44 315.776 137.44C316.513 137.44 317.055 137.319 317.4 137.076C317.755 136.833 317.932 136.497 317.932 136.068C317.932 135.76 317.834 135.517 317.638 135.34C317.451 135.163 317.218 135.032 316.938 134.948C316.658 134.864 316.271 134.775 315.776 134.682C315.197 134.579 314.731 134.467 314.376 134.346C314.021 134.225 313.718 134.029 313.466 133.758C313.214 133.487 313.088 133.114 313.088 132.638C313.088 132.059 313.326 131.583 313.802 131.21C314.287 130.827 314.973 130.636 315.86 130.636C316.327 130.636 316.789 130.701 317.246 130.832C317.703 130.963 318.077 131.135 318.366 131.35L318.044 131.91C317.745 131.695 317.405 131.532 317.022 131.42C316.639 131.308 316.247 131.252 315.846 131.252C315.165 131.252 314.651 131.378 314.306 131.63C313.961 131.882 313.788 132.213 313.788 132.624C313.788 132.951 313.886 133.207 314.082 133.394C314.278 133.571 314.516 133.707 314.796 133.8C315.085 133.884 315.487 133.977 316 134.08C316.569 134.183 317.027 134.295 317.372 134.416C317.727 134.528 318.025 134.715 318.268 134.976C318.511 135.237 318.632 135.597 318.632 136.054C318.632 136.661 318.38 137.146 317.876 137.51C317.372 137.874 316.663 138.056 315.748 138.056ZM320.502 136.866C320.67 136.866 320.81 136.927 320.922 137.048C321.034 137.16 321.09 137.295 321.09 137.454C321.09 137.547 321.076 137.645 321.048 137.748C321.029 137.851 321.001 137.967 320.964 138.098L320.418 140.002H319.914L320.376 138.028C320.236 137.991 320.124 137.925 320.04 137.832C319.956 137.729 319.914 137.603 319.914 137.454C319.914 137.286 319.97 137.146 320.082 137.034C320.194 136.922 320.334 136.866 320.502 136.866ZM7.658 155.514H1.372C1.39067 156.083 1.53533 156.592 1.806 157.04C2.07667 157.479 2.44067 157.819 2.898 158.062C3.36467 158.305 3.88733 158.426 4.466 158.426C4.942 158.426 5.38067 158.342 5.782 158.174C6.19267 157.997 6.53333 157.74 6.804 157.404L7.21 157.866C6.89267 158.249 6.49133 158.543 6.006 158.748C5.53 158.953 5.012 159.056 4.452 159.056C3.724 159.056 3.07533 158.897 2.506 158.58C1.93667 158.263 1.48867 157.824 1.162 157.264C0.844667 156.704 0.686 156.065 0.686 155.346C0.686 154.637 0.835333 154.002 1.134 153.442C1.442 152.873 1.862 152.429 2.394 152.112C2.926 151.795 3.52333 151.636 4.186 151.636C4.84867 151.636 5.44133 151.795 5.964 152.112C6.496 152.42 6.91133 152.854 7.21 153.414C7.518 153.974 7.672 154.609 7.672 155.318L7.658 155.514ZM4.186 152.252C3.67267 152.252 3.21067 152.369 2.8 152.602C2.38933 152.826 2.058 153.148 1.806 153.568C1.56333 153.979 1.42333 154.445 1.386 154.968H6.986C6.958 154.445 6.818 153.979 6.566 153.568C6.314 153.157 5.98267 152.835 5.572 152.602C5.16133 152.369 4.69933 152.252 4.186 152.252ZM14.2804 159L11.7744 155.738L9.26844 159H8.47044L11.3684 155.234L8.62444 151.692H9.42244L11.7744 154.73L14.1264 151.692H14.9104L12.1664 155.234L15.1064 159H14.2804ZM20.5602 151.636C21.2415 151.636 21.8575 151.795 22.4082 152.112C22.9589 152.429 23.3882 152.868 23.6962 153.428C24.0135 153.988 24.1722 154.627 24.1722 155.346C24.1722 156.065 24.0135 156.709 23.6962 157.278C23.3882 157.838 22.9589 158.277 22.4082 158.594C21.8575 158.902 21.2415 159.056 20.5602 159.056C19.9162 159.056 19.3329 158.907 18.8102 158.608C18.2875 158.3 17.8815 157.875 17.5922 157.334V161.716H16.8922V151.692H17.5642V153.414C17.8535 152.854 18.2595 152.42 18.7822 152.112C19.3142 151.795 19.9069 151.636 20.5602 151.636ZM20.5182 158.426C21.0782 158.426 21.5822 158.295 22.0302 158.034C22.4782 157.773 22.8282 157.409 23.0802 156.942C23.3415 156.475 23.4722 155.943 23.4722 155.346C23.4722 154.749 23.3415 154.217 23.0802 153.75C22.8282 153.283 22.4782 152.919 22.0302 152.658C21.5822 152.397 21.0782 152.266 20.5182 152.266C19.9582 152.266 19.4542 152.397 19.0062 152.658C18.5675 152.919 18.2175 153.283 17.9562 153.75C17.7042 154.217 17.5782 154.749 17.5782 155.346C17.5782 155.943 17.7042 156.475 17.9562 156.942C18.2175 157.409 18.5675 157.773 19.0062 158.034C19.4542 158.295 19.9582 158.426 20.5182 158.426ZM32.5135 155.514H26.2275C26.2461 156.083 26.3908 156.592 26.6615 157.04C26.9321 157.479 27.2961 157.819 27.7535 158.062C28.2201 158.305 28.7428 158.426 29.3215 158.426C29.7975 158.426 30.2361 158.342 30.6375 158.174C31.0481 157.997 31.3888 157.74 31.6595 157.404L32.0655 157.866C31.7481 158.249 31.3468 158.543 30.8615 158.748C30.3855 158.953 29.8675 159.056 29.3075 159.056C28.5795 159.056 27.9308 158.897 27.3615 158.58C26.7921 158.263 26.3441 157.824 26.0175 157.264C25.7001 156.704 25.5415 156.065 25.5415 155.346C25.5415 154.637 25.6908 154.002 25.9895 153.442C26.2975 152.873 26.7175 152.429 27.2495 152.112C27.7815 151.795 28.3788 151.636 29.0415 151.636C29.7041 151.636 30.2968 151.795 30.8195 152.112C31.3515 152.42 31.7668 152.854 32.0655 153.414C32.3735 153.974 32.5275 154.609 32.5275 155.318L32.5135 155.514ZM29.0415 152.252C28.5281 152.252 28.0661 152.369 27.6555 152.602C27.2448 152.826 26.9135 153.148 26.6615 153.568C26.4188 153.979 26.2788 154.445 26.2415 154.968H31.8415C31.8135 154.445 31.6735 153.979 31.4215 153.568C31.1695 153.157 30.8381 152.835 30.4275 152.602C30.0168 152.369 29.5548 152.252 29.0415 152.252ZM38.263 151.636C39.1777 151.636 39.901 151.902 40.433 152.434C40.965 152.966 41.231 153.731 41.231 154.73V159H40.531V154.786C40.531 153.965 40.321 153.339 39.901 152.91C39.4903 152.481 38.9117 152.266 38.165 152.266C37.3063 152.266 36.6297 152.523 36.135 153.036C35.6403 153.549 35.393 154.24 35.393 155.108V159H34.693V151.692H35.365V153.274C35.617 152.761 35.9903 152.359 36.485 152.07C36.989 151.781 37.5817 151.636 38.263 151.636ZM45.9609 159.056C45.3729 159.056 44.8129 158.967 44.2809 158.79C43.7489 158.613 43.3336 158.389 43.0349 158.118L43.3569 157.558C43.6556 157.81 44.0382 158.02 44.5049 158.188C44.9809 158.356 45.4756 158.44 45.9889 158.44C46.7262 158.44 47.2676 158.319 47.6129 158.076C47.9676 157.833 48.1449 157.497 48.1449 157.068C48.1449 156.76 48.0469 156.517 47.8509 156.34C47.6642 156.163 47.4309 156.032 47.1509 155.948C46.8709 155.864 46.4836 155.775 45.9889 155.682C45.4102 155.579 44.9436 155.467 44.5889 155.346C44.2342 155.225 43.9309 155.029 43.6789 154.758C43.4269 154.487 43.3009 154.114 43.3009 153.638C43.3009 153.059 43.5389 152.583 44.0149 152.21C44.5002 151.827 45.1862 151.636 46.0729 151.636C46.5396 151.636 47.0016 151.701 47.4589 151.832C47.9162 151.963 48.2896 152.135 48.5789 152.35L48.2569 152.91C47.9582 152.695 47.6176 152.532 47.2349 152.42C46.8522 152.308 46.4602 152.252 46.0589 152.252C45.3776 152.252 44.8642 152.378 44.5189 152.63C44.1736 152.882 44.0009 153.213 44.0009 153.624C44.0009 153.951 44.0989 154.207 44.2949 154.394C44.4909 154.571 44.7289 154.707 45.0089 154.8C45.2982 154.884 45.6996 154.977 46.2129 155.08C46.7822 155.183 47.2396 155.295 47.5849 155.416C47.9396 155.528 48.2382 155.715 48.4809 155.976C48.7236 156.237 48.8449 156.597 48.8449 157.054C48.8449 157.661 48.5929 158.146 48.0889 158.51C47.5849 158.874 46.8756 159.056 45.9609 159.056ZM50.7985 151.692H51.4985V159H50.7985V151.692ZM51.1485 149.914C50.9898 149.914 50.8545 149.863 50.7425 149.76C50.6305 149.648 50.5745 149.513 50.5745 149.354C50.5745 149.195 50.6305 149.06 50.7425 148.948C50.8545 148.836 50.9898 148.78 51.1485 148.78C51.3071 148.78 51.4425 148.836 51.5545 148.948C51.6665 149.051 51.7225 149.181 51.7225 149.34C51.7225 149.499 51.6665 149.634 51.5545 149.746C51.4425 149.858 51.3071 149.914 51.1485 149.914ZM60.3148 151.692L57.0108 159H56.2968L53.0068 151.692H53.7488L56.6608 158.23L59.6008 151.692H60.3148ZM67.8143 155.514H61.5283C61.5469 156.083 61.6916 156.592 61.9623 157.04C62.2329 157.479 62.5969 157.819 63.0543 158.062C63.5209 158.305 64.0436 158.426 64.6223 158.426C65.0983 158.426 65.5369 158.342 65.9383 158.174C66.3489 157.997 66.6896 157.74 66.9603 157.404L67.3663 157.866C67.0489 158.249 66.6476 158.543 66.1623 158.748C65.6863 158.953 65.1683 159.056 64.6083 159.056C63.8803 159.056 63.2316 158.897 62.6623 158.58C62.0929 158.263 61.6449 157.824 61.3183 157.264C61.0009 156.704 60.8423 156.065 60.8423 155.346C60.8423 154.637 60.9916 154.002 61.2903 153.442C61.5983 152.873 62.0183 152.429 62.5503 152.112C63.0823 151.795 63.6796 151.636 64.3423 151.636C65.0049 151.636 65.5976 151.795 66.1203 152.112C66.6523 152.42 67.0676 152.854 67.3663 153.414C67.6743 153.974 67.8283 154.609 67.8283 155.318L67.8143 155.514ZM64.3423 152.252C63.8289 152.252 63.3669 152.369 62.9563 152.602C62.5456 152.826 62.2143 153.148 61.9623 153.568C61.7196 153.979 61.5796 154.445 61.5423 154.968H67.1423C67.1143 154.445 66.9743 153.979 66.7223 153.568C66.4703 153.157 66.1389 152.835 65.7283 152.602C65.3176 152.369 64.8556 152.252 64.3423 152.252ZM82.6895 151.636C83.5948 151.636 84.3041 151.902 84.8175 152.434C85.3401 152.966 85.6015 153.731 85.6015 154.73V159H84.9015V154.786C84.9015 153.965 84.7008 153.339 84.2995 152.91C83.8981 152.481 83.3381 152.266 82.6195 152.266C81.7981 152.266 81.1448 152.523 80.6595 153.036C80.1835 153.549 79.9455 154.24 79.9455 155.108V159H79.2455V154.786C79.2455 153.965 79.0448 153.339 78.6435 152.91C78.2421 152.481 77.6821 152.266 76.9635 152.266C76.1421 152.266 75.4888 152.523 75.0035 153.036C74.5275 153.549 74.2895 154.24 74.2895 155.108V159H73.5895V151.692H74.2615V153.26C74.5041 152.747 74.8635 152.35 75.3395 152.07C75.8248 151.781 76.3988 151.636 77.0615 151.636C77.7241 151.636 78.2841 151.785 78.7415 152.084C79.2081 152.383 79.5395 152.821 79.7355 153.4C79.9781 152.859 80.3561 152.429 80.8695 152.112C81.3921 151.795 81.9988 151.636 82.6895 151.636ZM90.9558 151.636C91.8611 151.636 92.5565 151.869 93.0418 152.336C93.5271 152.793 93.7698 153.47 93.7698 154.366V159H93.0978V157.698C92.8645 158.127 92.5238 158.463 92.0758 158.706C91.6278 158.939 91.0911 159.056 90.4658 159.056C89.6538 159.056 89.0098 158.865 88.5338 158.482C88.0671 158.099 87.8338 157.595 87.8338 156.97C87.8338 156.363 88.0485 155.873 88.4778 155.5C88.9165 155.117 89.6118 154.926 90.5638 154.926H93.0698V154.338C93.0698 153.657 92.8831 153.139 92.5098 152.784C92.1458 152.429 91.6091 152.252 90.8998 152.252C90.4145 152.252 89.9478 152.336 89.4998 152.504C89.0611 152.672 88.6878 152.896 88.3798 153.176L88.0298 152.672C88.3938 152.345 88.8325 152.093 89.3458 151.916C89.8591 151.729 90.3958 151.636 90.9558 151.636ZM90.5638 158.482C91.1705 158.482 91.6838 158.342 92.1038 158.062C92.5331 157.782 92.8551 157.376 93.0698 156.844V155.472H90.5778C89.8591 155.472 89.3365 155.603 89.0098 155.864C88.6925 156.125 88.5338 156.485 88.5338 156.942C88.5338 157.418 88.7111 157.796 89.0658 158.076C89.4205 158.347 89.9198 158.482 90.5638 158.482ZM100.28 158.538C100.103 158.706 99.8786 158.837 99.6079 158.93C99.3466 159.014 99.0713 159.056 98.7819 159.056C98.1473 159.056 97.6573 158.883 97.3119 158.538C96.9666 158.183 96.7939 157.693 96.7939 157.068V152.294H95.4499V151.692H96.7939V150.096H97.4939V151.692H99.8179V152.294H97.4939V156.998C97.4939 157.474 97.6059 157.838 97.8299 158.09C98.0633 158.333 98.4039 158.454 98.8519 158.454C99.3093 158.454 99.6873 158.319 99.9859 158.048L100.28 158.538ZM108.146 155.514H101.86C101.879 156.083 102.024 156.592 102.294 157.04C102.565 157.479 102.929 157.819 103.386 158.062C103.853 158.305 104.376 158.426 104.954 158.426C105.43 158.426 105.869 158.342 106.27 158.174C106.681 157.997 107.022 157.74 107.292 157.404L107.698 157.866C107.381 158.249 106.98 158.543 106.494 158.748C106.018 158.953 105.5 159.056 104.94 159.056C104.212 159.056 103.564 158.897 102.994 158.58C102.425 158.263 101.977 157.824 101.65 157.264C101.333 156.704 101.174 156.065 101.174 155.346C101.174 154.637 101.324 154.002 101.622 153.442C101.93 152.873 102.35 152.429 102.882 152.112C103.414 151.795 104.012 151.636 104.674 151.636C105.337 151.636 105.93 151.795 106.452 152.112C106.984 152.42 107.4 152.854 107.698 153.414C108.006 153.974 108.16 154.609 108.16 155.318L108.146 155.514ZM104.674 152.252C104.161 152.252 103.699 152.369 103.288 152.602C102.878 152.826 102.546 153.148 102.294 153.568C102.052 153.979 101.912 154.445 101.874 154.968H107.474C107.446 154.445 107.306 153.979 107.054 153.568C106.802 153.157 106.471 152.835 106.06 152.602C105.65 152.369 105.188 152.252 104.674 152.252ZM110.998 153.288C111.222 152.756 111.572 152.35 112.048 152.07C112.524 151.781 113.102 151.636 113.784 151.636V152.322L113.616 152.308C112.804 152.308 112.169 152.565 111.712 153.078C111.254 153.582 111.026 154.287 111.026 155.192V159H110.326V151.692H110.998V153.288ZM115.713 151.692H116.413V159H115.713V151.692ZM116.063 149.914C115.904 149.914 115.769 149.863 115.657 149.76C115.545 149.648 115.489 149.513 115.489 149.354C115.489 149.195 115.545 149.06 115.657 148.948C115.769 148.836 115.904 148.78 116.063 148.78C116.221 148.78 116.357 148.836 116.469 148.948C116.581 149.051 116.637 149.181 116.637 149.34C116.637 149.499 116.581 149.634 116.469 149.746C116.357 149.858 116.221 149.914 116.063 149.914ZM121.827 151.636C122.732 151.636 123.428 151.869 123.913 152.336C124.398 152.793 124.641 153.47 124.641 154.366V159H123.969V157.698C123.736 158.127 123.395 158.463 122.947 158.706C122.499 158.939 121.962 159.056 121.337 159.056C120.525 159.056 119.881 158.865 119.405 158.482C118.938 158.099 118.705 157.595 118.705 156.97C118.705 156.363 118.92 155.873 119.349 155.5C119.788 155.117 120.483 154.926 121.435 154.926H123.941V154.338C123.941 153.657 123.754 153.139 123.381 152.784C123.017 152.429 122.48 152.252 121.771 152.252C121.286 152.252 120.819 152.336 120.371 152.504C119.932 152.672 119.559 152.896 119.251 153.176L118.901 152.672C119.265 152.345 119.704 152.093 120.217 151.916C120.73 151.729 121.267 151.636 121.827 151.636ZM121.435 158.482C122.042 158.482 122.555 158.342 122.975 158.062C123.404 157.782 123.726 157.376 123.941 156.844V155.472H121.449C120.73 155.472 120.208 155.603 119.881 155.864C119.564 156.125 119.405 156.485 119.405 156.942C119.405 157.418 119.582 157.796 119.937 158.076C120.292 158.347 120.791 158.482 121.435 158.482ZM127.525 148.612H128.225V159H127.525V148.612ZM133.023 159.056C132.435 159.056 131.875 158.967 131.343 158.79C130.811 158.613 130.396 158.389 130.097 158.118L130.419 157.558C130.718 157.81 131.101 158.02 131.567 158.188C132.043 158.356 132.538 158.44 133.051 158.44C133.789 158.44 134.33 158.319 134.675 158.076C135.03 157.833 135.207 157.497 135.207 157.068C135.207 156.76 135.109 156.517 134.913 156.34C134.727 156.163 134.493 156.032 134.213 155.948C133.933 155.864 133.546 155.775 133.051 155.682C132.473 155.579 132.006 155.467 131.651 155.346C131.297 155.225 130.993 155.029 130.741 154.758C130.489 154.487 130.363 154.114 130.363 153.638C130.363 153.059 130.601 152.583 131.077 152.21C131.563 151.827 132.249 151.636 133.135 151.636C133.602 151.636 134.064 151.701 134.521 151.832C134.979 151.963 135.352 152.135 135.641 152.35L135.319 152.91C135.021 152.695 134.68 152.532 134.297 152.42C133.915 152.308 133.523 152.252 133.121 152.252C132.44 152.252 131.927 152.378 131.581 152.63C131.236 152.882 131.063 153.213 131.063 153.624C131.063 153.951 131.161 154.207 131.357 154.394C131.553 154.571 131.791 154.707 132.071 154.8C132.361 154.884 132.762 154.977 133.275 155.08C133.845 155.183 134.302 155.295 134.647 155.416C135.002 155.528 135.301 155.715 135.543 155.976C135.786 156.237 135.907 156.597 135.907 157.054C135.907 157.661 135.655 158.146 135.151 158.51C134.647 158.874 133.938 159.056 133.023 159.056ZM137.777 157.866C137.945 157.866 138.085 157.927 138.197 158.048C138.309 158.16 138.365 158.295 138.365 158.454C138.365 158.547 138.351 158.645 138.323 158.748C138.304 158.851 138.276 158.967 138.239 159.098L137.693 161.002H137.189L137.651 159.028C137.511 158.991 137.399 158.925 137.315 158.832C137.231 158.729 137.189 158.603 137.189 158.454C137.189 158.286 137.245 158.146 137.357 158.034C137.469 157.922 137.609 157.866 137.777 157.866ZM147.927 151.636C148.609 151.636 149.225 151.795 149.775 152.112C150.326 152.429 150.755 152.868 151.063 153.428C151.381 153.988 151.539 154.627 151.539 155.346C151.539 156.065 151.381 156.709 151.063 157.278C150.755 157.838 150.326 158.277 149.775 158.594C149.225 158.902 148.609 159.056 147.927 159.056C147.283 159.056 146.7 158.907 146.177 158.608C145.655 158.3 145.249 157.875 144.959 157.334V161.716H144.259V151.692H144.931V153.414C145.221 152.854 145.627 152.42 146.149 152.112C146.681 151.795 147.274 151.636 147.927 151.636ZM147.885 158.426C148.445 158.426 148.949 158.295 149.397 158.034C149.845 157.773 150.195 157.409 150.447 156.942C150.709 156.475 150.839 155.943 150.839 155.346C150.839 154.749 150.709 154.217 150.447 153.75C150.195 153.283 149.845 152.919 149.397 152.658C148.949 152.397 148.445 152.266 147.885 152.266C147.325 152.266 146.821 152.397 146.373 152.658C145.935 152.919 145.585 153.283 145.323 153.75C145.071 154.217 144.945 154.749 144.945 155.346C144.945 155.943 145.071 156.475 145.323 156.942C145.585 157.409 145.935 157.773 146.373 158.034C146.821 158.295 147.325 158.426 147.885 158.426ZM154.379 153.288C154.603 152.756 154.953 152.35 155.429 152.07C155.905 151.781 156.483 151.636 157.165 151.636V152.322L156.997 152.308C156.185 152.308 155.55 152.565 155.093 153.078C154.635 153.582 154.407 154.287 154.407 155.192V159H153.707V151.692H154.379V153.288ZM165.199 155.514H158.913C158.932 156.083 159.076 156.592 159.347 157.04C159.618 157.479 159.982 157.819 160.439 158.062C160.906 158.305 161.428 158.426 162.007 158.426C162.483 158.426 162.922 158.342 163.323 158.174C163.734 157.997 164.074 157.74 164.345 157.404L164.751 157.866C164.434 158.249 164.032 158.543 163.547 158.748C163.071 158.953 162.553 159.056 161.993 159.056C161.265 159.056 160.616 158.897 160.047 158.58C159.478 158.263 159.03 157.824 158.703 157.264C158.386 156.704 158.227 156.065 158.227 155.346C158.227 154.637 158.376 154.002 158.675 153.442C158.983 152.873 159.403 152.429 159.935 152.112C160.467 151.795 161.064 151.636 161.727 151.636C162.39 151.636 162.982 151.795 163.505 152.112C164.037 152.42 164.452 152.854 164.751 153.414C165.059 153.974 165.213 154.609 165.213 155.318L165.199 155.514ZM161.727 152.252C161.214 152.252 160.752 152.369 160.341 152.602C159.93 152.826 159.599 153.148 159.347 153.568C159.104 153.979 158.964 154.445 158.927 154.968H164.527C164.499 154.445 164.359 153.979 164.107 153.568C163.855 153.157 163.524 152.835 163.113 152.602C162.702 152.369 162.24 152.252 161.727 152.252ZM170.277 159.056C169.567 159.056 168.933 158.897 168.373 158.58C167.813 158.263 167.374 157.824 167.057 157.264C166.739 156.695 166.581 156.055 166.581 155.346C166.581 154.627 166.739 153.988 167.057 153.428C167.374 152.859 167.813 152.42 168.373 152.112C168.933 151.795 169.567 151.636 170.277 151.636C170.865 151.636 171.397 151.753 171.873 151.986C172.358 152.21 172.75 152.541 173.049 152.98L172.531 153.358C172.269 152.994 171.943 152.723 171.551 152.546C171.168 152.359 170.743 152.266 170.277 152.266C169.707 152.266 169.194 152.397 168.737 152.658C168.289 152.91 167.934 153.269 167.673 153.736C167.421 154.203 167.295 154.739 167.295 155.346C167.295 155.953 167.421 156.489 167.673 156.956C167.934 157.423 168.289 157.787 168.737 158.048C169.194 158.3 169.707 158.426 170.277 158.426C170.743 158.426 171.168 158.337 171.551 158.16C171.943 157.973 172.269 157.698 172.531 157.334L173.049 157.712C172.75 158.151 172.358 158.487 171.873 158.72C171.397 158.944 170.865 159.056 170.277 159.056ZM175.144 151.692H175.844V159H175.144V151.692ZM175.494 149.914C175.335 149.914 175.2 149.863 175.088 149.76C174.976 149.648 174.92 149.513 174.92 149.354C174.92 149.195 174.976 149.06 175.088 148.948C175.2 148.836 175.335 148.78 175.494 148.78C175.653 148.78 175.788 148.836 175.9 148.948C176.012 149.051 176.068 149.181 176.068 149.34C176.068 149.499 176.012 149.634 175.9 149.746C175.788 149.858 175.653 149.914 175.494 149.914ZM181.651 159.056C180.96 159.056 180.335 158.897 179.775 158.58C179.224 158.263 178.79 157.824 178.473 157.264C178.155 156.695 177.997 156.055 177.997 155.346C177.997 154.637 178.155 154.002 178.473 153.442C178.79 152.873 179.224 152.429 179.775 152.112C180.335 151.795 180.96 151.636 181.651 151.636C182.341 151.636 182.962 151.795 183.513 152.112C184.073 152.429 184.511 152.873 184.829 153.442C185.146 154.002 185.305 154.637 185.305 155.346C185.305 156.055 185.146 156.695 184.829 157.264C184.511 157.824 184.073 158.263 183.513 158.58C182.962 158.897 182.341 159.056 181.651 159.056ZM181.651 158.426C182.211 158.426 182.71 158.295 183.149 158.034C183.597 157.773 183.947 157.409 184.199 156.942C184.46 156.475 184.591 155.943 184.591 155.346C184.591 154.749 184.46 154.217 184.199 153.75C183.947 153.283 183.597 152.919 183.149 152.658C182.71 152.397 182.211 152.266 181.651 152.266C181.091 152.266 180.587 152.397 180.139 152.658C179.7 152.919 179.35 153.283 179.089 153.75C178.837 154.217 178.711 154.749 178.711 155.346C178.711 155.943 178.837 156.475 179.089 156.942C179.35 157.409 179.7 157.773 180.139 158.034C180.587 158.295 181.091 158.426 181.651 158.426ZM193.874 151.692V159H193.202V157.432C192.96 157.945 192.6 158.347 192.124 158.636C191.648 158.916 191.088 159.056 190.444 159.056C189.492 159.056 188.746 158.79 188.204 158.258C187.663 157.726 187.392 156.961 187.392 155.962V151.692H188.092V155.906C188.092 156.727 188.302 157.353 188.722 157.782C189.142 158.211 189.735 158.426 190.5 158.426C191.322 158.426 191.97 158.169 192.446 157.656C192.932 157.143 193.174 156.452 193.174 155.584V151.692H193.874ZM198.689 159.056C198.101 159.056 197.541 158.967 197.009 158.79C196.477 158.613 196.062 158.389 195.763 158.118L196.085 157.558C196.384 157.81 196.767 158.02 197.233 158.188C197.709 158.356 198.204 158.44 198.717 158.44C199.455 158.44 199.996 158.319 200.341 158.076C200.696 157.833 200.873 157.497 200.873 157.068C200.873 156.76 200.775 156.517 200.579 156.34C200.393 156.163 200.159 156.032 199.879 155.948C199.599 155.864 199.212 155.775 198.717 155.682C198.139 155.579 197.672 155.467 197.317 155.346C196.963 155.225 196.659 155.029 196.407 154.758C196.155 154.487 196.029 154.114 196.029 153.638C196.029 153.059 196.267 152.583 196.743 152.21C197.229 151.827 197.915 151.636 198.801 151.636C199.268 151.636 199.73 151.701 200.187 151.832C200.645 151.963 201.018 152.135 201.307 152.35L200.985 152.91C200.687 152.695 200.346 152.532 199.963 152.42C199.581 152.308 199.189 152.252 198.787 152.252C198.106 152.252 197.593 152.378 197.247 152.63C196.902 152.882 196.729 153.213 196.729 153.624C196.729 153.951 196.827 154.207 197.023 154.394C197.219 154.571 197.457 154.707 197.737 154.8C198.027 154.884 198.428 154.977 198.941 155.08C199.511 155.183 199.968 155.295 200.313 155.416C200.668 155.528 200.967 155.715 201.209 155.976C201.452 156.237 201.573 156.597 201.573 157.054C201.573 157.661 201.321 158.146 200.817 158.51C200.313 158.874 199.604 159.056 198.689 159.056ZM208.971 159.056C208.383 159.056 207.823 158.967 207.291 158.79C206.759 158.613 206.343 158.389 206.045 158.118L206.367 157.558C206.665 157.81 207.048 158.02 207.515 158.188C207.991 158.356 208.485 158.44 208.999 158.44C209.736 158.44 210.277 158.319 210.623 158.076C210.977 157.833 211.155 157.497 211.155 157.068C211.155 156.76 211.057 156.517 210.861 156.34C210.674 156.163 210.441 156.032 210.161 155.948C209.881 155.864 209.493 155.775 208.999 155.682C208.42 155.579 207.953 155.467 207.599 155.346C207.244 155.225 206.941 155.029 206.689 154.758C206.437 154.487 206.311 154.114 206.311 153.638C206.311 153.059 206.549 152.583 207.025 152.21C207.51 151.827 208.196 151.636 209.083 151.636C209.549 151.636 210.011 151.701 210.469 151.832C210.926 151.963 211.299 152.135 211.589 152.35L211.267 152.91C210.968 152.695 210.627 152.532 210.245 152.42C209.862 152.308 209.47 152.252 209.069 152.252C208.387 152.252 207.874 152.378 207.529 152.63C207.183 152.882 207.011 153.213 207.011 153.624C207.011 153.951 207.109 154.207 207.305 154.394C207.501 154.571 207.739 154.707 208.019 154.8C208.308 154.884 208.709 154.977 209.223 155.08C209.792 155.183 210.249 155.295 210.595 155.416C210.949 155.528 211.248 155.715 211.491 155.976C211.733 156.237 211.855 156.597 211.855 157.054C211.855 157.661 211.603 158.146 211.099 158.51C210.595 158.874 209.885 159.056 208.971 159.056ZM217.434 158.538C217.257 158.706 217.033 158.837 216.762 158.93C216.501 159.014 216.226 159.056 215.936 159.056C215.302 159.056 214.812 158.883 214.466 158.538C214.121 158.183 213.948 157.693 213.948 157.068V152.294H212.604V151.692H213.948V150.096H214.648V151.692H216.972V152.294H214.648V156.998C214.648 157.474 214.76 157.838 214.984 158.09C215.218 158.333 215.558 158.454 216.006 158.454C216.464 158.454 216.842 158.319 217.14 158.048L217.434 158.538ZM221.983 159.056C221.292 159.056 220.667 158.897 220.107 158.58C219.556 158.263 219.122 157.824 218.805 157.264C218.487 156.695 218.329 156.055 218.329 155.346C218.329 154.637 218.487 154.002 218.805 153.442C219.122 152.873 219.556 152.429 220.107 152.112C220.667 151.795 221.292 151.636 221.983 151.636C222.673 151.636 223.294 151.795 223.845 152.112C224.405 152.429 224.843 152.873 225.161 153.442C225.478 154.002 225.637 154.637 225.637 155.346C225.637 156.055 225.478 156.695 225.161 157.264C224.843 157.824 224.405 158.263 223.845 158.58C223.294 158.897 222.673 159.056 221.983 159.056ZM221.983 158.426C222.543 158.426 223.042 158.295 223.481 158.034C223.929 157.773 224.279 157.409 224.531 156.942C224.792 156.475 224.923 155.943 224.923 155.346C224.923 154.749 224.792 154.217 224.531 153.75C224.279 153.283 223.929 152.919 223.481 152.658C223.042 152.397 222.543 152.266 221.983 152.266C221.423 152.266 220.919 152.397 220.471 152.658C220.032 152.919 219.682 153.283 219.421 153.75C219.169 154.217 219.043 154.749 219.043 155.346C219.043 155.943 219.169 156.475 219.421 156.942C219.682 157.409 220.032 157.773 220.471 158.034C220.919 158.295 221.423 158.426 221.983 158.426ZM231.378 151.636C232.293 151.636 233.016 151.902 233.548 152.434C234.08 152.966 234.346 153.731 234.346 154.73V159H233.646V154.786C233.646 153.965 233.436 153.339 233.016 152.91C232.606 152.481 232.027 152.266 231.28 152.266C230.422 152.266 229.745 152.523 229.25 153.036C228.756 153.549 228.508 154.24 228.508 155.108V159H227.808V151.692H228.48V153.274C228.732 152.761 229.106 152.359 229.6 152.07C230.104 151.781 230.697 151.636 231.378 151.636ZM243.416 155.514H237.13C237.148 156.083 237.293 156.592 237.564 157.04C237.834 157.479 238.198 157.819 238.656 158.062C239.122 158.305 239.645 158.426 240.224 158.426C240.7 158.426 241.138 158.342 241.54 158.174C241.95 157.997 242.291 157.74 242.562 157.404L242.968 157.866C242.65 158.249 242.249 158.543 241.764 158.748C241.288 158.953 240.77 159.056 240.21 159.056C239.482 159.056 238.833 158.897 238.264 158.58C237.694 158.263 237.246 157.824 236.92 157.264C236.602 156.704 236.444 156.065 236.444 155.346C236.444 154.637 236.593 154.002 236.892 153.442C237.2 152.873 237.62 152.429 238.152 152.112C238.684 151.795 239.281 151.636 239.944 151.636C240.606 151.636 241.199 151.795 241.722 152.112C242.254 152.42 242.669 152.854 242.968 153.414C243.276 153.974 243.43 154.609 243.43 155.318L243.416 155.514ZM239.944 152.252C239.43 152.252 238.968 152.369 238.558 152.602C238.147 152.826 237.816 153.148 237.564 153.568C237.321 153.979 237.181 154.445 237.144 154.968H242.744C242.716 154.445 242.576 153.979 242.324 153.568C242.072 153.157 241.74 152.835 241.33 152.602C240.919 152.369 240.457 152.252 239.944 152.252ZM247.443 159.056C246.855 159.056 246.295 158.967 245.763 158.79C245.231 158.613 244.816 158.389 244.517 158.118L244.839 157.558C245.138 157.81 245.521 158.02 245.987 158.188C246.463 158.356 246.958 158.44 247.471 158.44C248.209 158.44 248.75 158.319 249.095 158.076C249.45 157.833 249.627 157.497 249.627 157.068C249.627 156.76 249.529 156.517 249.333 156.34C249.147 156.163 248.913 156.032 248.633 155.948C248.353 155.864 247.966 155.775 247.471 155.682C246.893 155.579 246.426 155.467 246.071 155.346C245.717 155.225 245.413 155.029 245.161 154.758C244.909 154.487 244.783 154.114 244.783 153.638C244.783 153.059 245.021 152.583 245.497 152.21C245.983 151.827 246.669 151.636 247.555 151.636C248.022 151.636 248.484 151.701 248.941 151.832C249.399 151.963 249.772 152.135 250.061 152.35L249.739 152.91C249.441 152.695 249.1 152.532 248.717 152.42C248.335 152.308 247.943 152.252 247.541 152.252C246.86 152.252 246.347 152.378 246.001 152.63C245.656 152.882 245.483 153.213 245.483 153.624C245.483 153.951 245.581 154.207 245.777 154.394C245.973 154.571 246.211 154.707 246.491 154.8C246.781 154.884 247.182 154.977 247.695 155.08C248.265 155.183 248.722 155.295 249.067 155.416C249.422 155.528 249.721 155.715 249.963 155.976C250.206 156.237 250.327 156.597 250.327 157.054C250.327 157.661 250.075 158.146 249.571 158.51C249.067 158.874 248.358 159.056 247.443 159.056ZM252.197 157.866C252.365 157.866 252.505 157.927 252.617 158.048C252.729 158.16 252.785 158.295 252.785 158.454C252.785 158.547 252.771 158.645 252.743 158.748C252.724 158.851 252.696 158.967 252.659 159.098L252.113 161.002H251.609L252.071 159.028C251.931 158.991 251.819 158.925 251.735 158.832C251.651 158.729 251.609 158.603 251.609 158.454C251.609 158.286 251.665 158.146 251.777 158.034C251.889 157.922 252.029 157.866 252.197 157.866ZM264.853 155.514H258.567C258.586 156.083 258.731 156.592 259.001 157.04C259.272 157.479 259.636 157.819 260.093 158.062C260.56 158.305 261.083 158.426 261.661 158.426C262.137 158.426 262.576 158.342 262.977 158.174C263.388 157.997 263.729 157.74 263.999 157.404L264.405 157.866C264.088 158.249 263.687 158.543 263.201 158.748C262.725 158.953 262.207 159.056 261.647 159.056C260.919 159.056 260.271 158.897 259.701 158.58C259.132 158.263 258.684 157.824 258.357 157.264C258.04 156.704 257.881 156.065 257.881 155.346C257.881 154.637 258.031 154.002 258.329 153.442C258.637 152.873 259.057 152.429 259.589 152.112C260.121 151.795 260.719 151.636 261.381 151.636C262.044 151.636 262.637 151.795 263.159 152.112C263.691 152.42 264.107 152.854 264.405 153.414C264.713 153.974 264.867 154.609 264.867 155.318L264.853 155.514ZM261.381 152.252C260.868 152.252 260.406 152.369 259.995 152.602C259.585 152.826 259.253 153.148 259.001 153.568C258.759 153.979 258.619 154.445 258.581 154.968H264.181C264.153 154.445 264.013 153.979 263.761 153.568C263.509 153.157 263.178 152.835 262.767 152.602C262.357 152.369 261.895 152.252 261.381 152.252ZM270.659 158.538C270.481 158.706 270.257 158.837 269.987 158.93C269.725 159.014 269.45 159.056 269.161 159.056C268.526 159.056 268.036 158.883 267.691 158.538C267.345 158.183 267.173 157.693 267.173 157.068V152.294H265.829V151.692H267.173V150.096H267.873V151.692H270.197V152.294H267.873V156.998C267.873 157.474 267.985 157.838 268.209 158.09C268.442 158.333 268.783 158.454 269.231 158.454C269.688 158.454 270.066 158.319 270.365 158.048L270.659 158.538ZM275.249 159.056C274.54 159.056 273.905 158.897 273.345 158.58C272.785 158.263 272.347 157.824 272.029 157.264C271.712 156.695 271.553 156.055 271.553 155.346C271.553 154.627 271.712 153.988 272.029 153.428C272.347 152.859 272.785 152.42 273.345 152.112C273.905 151.795 274.54 151.636 275.249 151.636C275.837 151.636 276.369 151.753 276.845 151.986C277.331 152.21 277.723 152.541 278.021 152.98L277.503 153.358C277.242 152.994 276.915 152.723 276.523 152.546C276.141 152.359 275.716 152.266 275.249 152.266C274.68 152.266 274.167 152.397 273.709 152.658C273.261 152.91 272.907 153.269 272.645 153.736C272.393 154.203 272.267 154.739 272.267 155.346C272.267 155.953 272.393 156.489 272.645 156.956C272.907 157.423 273.261 157.787 273.709 158.048C274.167 158.3 274.68 158.426 275.249 158.426C275.716 158.426 276.141 158.337 276.523 158.16C276.915 157.973 277.242 157.698 277.503 157.334L278.021 157.712C277.723 158.151 277.331 158.487 276.845 158.72C276.369 158.944 275.837 159.056 275.249 159.056ZM280.306 159.056C280.148 159.056 280.008 159 279.886 158.888C279.774 158.767 279.718 158.622 279.718 158.454C279.718 158.286 279.774 158.146 279.886 158.034C280.008 157.922 280.148 157.866 280.306 157.866C280.465 157.866 280.6 157.922 280.712 158.034C280.834 158.146 280.894 158.286 280.894 158.454C280.894 158.622 280.834 158.767 280.712 158.888C280.6 159 280.465 159.056 280.306 159.056Z" fill="white"/>
<path d="M9.464 108.692V116H8.82V109.812L5.642 115.062H5.32L2.156 109.826V116H1.512V108.692H2.198L5.502 114.222L8.82 108.692H9.464ZM15.4025 116.056C14.7118 116.056 14.0865 115.897 13.5265 115.58C12.9758 115.263 12.5418 114.824 12.2245 114.264C11.9072 113.695 11.7485 113.055 11.7485 112.346C11.7485 111.637 11.9072 111.002 12.2245 110.442C12.5418 109.873 12.9758 109.429 13.5265 109.112C14.0865 108.795 14.7118 108.636 15.4025 108.636C16.0932 108.636 16.7138 108.795 17.2645 109.112C17.8245 109.429 18.2632 109.873 18.5805 110.442C18.8978 111.002 19.0565 111.637 19.0565 112.346C19.0565 113.055 18.8978 113.695 18.5805 114.264C18.2632 114.824 17.8245 115.263 17.2645 115.58C16.7138 115.897 16.0932 116.056 15.4025 116.056ZM15.4025 115.426C15.9625 115.426 16.4618 115.295 16.9005 115.034C17.3485 114.773 17.6985 114.409 17.9505 113.942C18.2118 113.475 18.3425 112.943 18.3425 112.346C18.3425 111.749 18.2118 111.217 17.9505 110.75C17.6985 110.283 17.3485 109.919 16.9005 109.658C16.4618 109.397 15.9625 109.266 15.4025 109.266C14.8425 109.266 14.3385 109.397 13.8905 109.658C13.4518 109.919 13.1018 110.283 12.8405 110.75C12.5885 111.217 12.4625 111.749 12.4625 112.346C12.4625 112.943 12.5885 113.475 12.8405 113.942C13.1018 114.409 13.4518 114.773 13.8905 115.034C14.3385 115.295 14.8425 115.426 15.4025 115.426ZM28.1829 115.384V117.82H27.5249V116H20.6089V117.82H19.9369V115.384H20.3709C20.8655 115.356 21.2015 114.973 21.3789 114.236C21.5655 113.489 21.6962 112.444 21.7709 111.1L21.8689 108.692H27.0069V115.384H28.1829ZM22.4149 111.142C22.3682 112.253 22.2749 113.177 22.1349 113.914C21.9949 114.651 21.7429 115.141 21.3789 115.384H26.3069V109.322H22.4989L22.4149 111.142ZM36.4803 112.514H30.1943C30.2129 113.083 30.3576 113.592 30.6283 114.04C30.8989 114.479 31.2629 114.819 31.7203 115.062C32.1869 115.305 32.7096 115.426 33.2883 115.426C33.7643 115.426 34.2029 115.342 34.6043 115.174C35.0149 114.997 35.3556 114.74 35.6263 114.404L36.0323 114.866C35.7149 115.249 35.3136 115.543 34.8283 115.748C34.3523 115.953 33.8343 116.056 33.2743 116.056C32.5463 116.056 31.8976 115.897 31.3283 115.58C30.7589 115.263 30.3109 114.824 29.9843 114.264C29.6669 113.704 29.5083 113.065 29.5083 112.346C29.5083 111.637 29.6576 111.002 29.9563 110.442C30.2643 109.873 30.6843 109.429 31.2163 109.112C31.7483 108.795 32.3456 108.636 33.0083 108.636C33.6709 108.636 34.2636 108.795 34.7863 109.112C35.3183 109.42 35.7336 109.854 36.0323 110.414C36.3403 110.974 36.4943 111.609 36.4943 112.318L36.4803 112.514ZM33.0083 109.252C32.4949 109.252 32.0329 109.369 31.6223 109.602C31.2116 109.826 30.8803 110.148 30.6283 110.568C30.3856 110.979 30.2456 111.445 30.2083 111.968H35.8083C35.7803 111.445 35.6403 110.979 35.3883 110.568C35.1363 110.157 34.8049 109.835 34.3943 109.602C33.9836 109.369 33.5216 109.252 33.0083 109.252ZM44.3158 108.692V116H43.6158V109.322H39.8078L39.7098 111.268C39.6538 112.276 39.5698 113.121 39.4578 113.802C39.3458 114.483 39.1545 115.034 38.8838 115.454C38.6131 115.874 38.2398 116.084 37.7638 116.084C37.6238 116.084 37.4231 116.051 37.1618 115.986L37.2318 115.384C37.3811 115.421 37.4931 115.44 37.5678 115.44C37.9598 115.44 38.2585 115.249 38.4638 114.866C38.6691 114.483 38.8091 114.007 38.8838 113.438C38.9585 112.869 39.0191 112.127 39.0658 111.212L39.1918 108.692H44.3158ZM47.3401 108.692H48.0401V114.922L53.2481 108.692H53.8641V116H53.1641V109.77L47.9561 116H47.3401V108.692ZM66.8628 108.692V116H66.1628V109.322H61.1788V116H60.4788V108.692H66.8628ZM72.797 116.056C72.1064 116.056 71.481 115.897 70.921 115.58C70.3704 115.263 69.9364 114.824 69.619 114.264C69.3017 113.695 69.143 113.055 69.143 112.346C69.143 111.637 69.3017 111.002 69.619 110.442C69.9364 109.873 70.3704 109.429 70.921 109.112C71.481 108.795 72.1064 108.636 72.797 108.636C73.4877 108.636 74.1084 108.795 74.659 109.112C75.219 109.429 75.6577 109.873 75.975 110.442C76.2924 111.002 76.451 111.637 76.451 112.346C76.451 113.055 76.2924 113.695 75.975 114.264C75.6577 114.824 75.219 115.263 74.659 115.58C74.1084 115.897 73.4877 116.056 72.797 116.056ZM72.797 115.426C73.357 115.426 73.8564 115.295 74.295 115.034C74.743 114.773 75.093 114.409 75.345 113.942C75.6064 113.475 75.737 112.943 75.737 112.346C75.737 111.749 75.6064 111.217 75.345 110.75C75.093 110.283 74.743 109.919 74.295 109.658C73.8564 109.397 73.357 109.266 72.797 109.266C72.237 109.266 71.733 109.397 71.285 109.658C70.8464 109.919 70.4964 110.283 70.235 110.75C69.983 111.217 69.857 111.749 69.857 112.346C69.857 112.943 69.983 113.475 70.235 113.942C70.4964 114.409 70.8464 114.773 71.285 115.034C71.733 115.295 72.237 115.426 72.797 115.426ZM88.7105 108.692V116H88.0105V109.322H83.0265V116H82.3265V108.692H88.7105ZM95.4147 108.636C96.096 108.636 96.712 108.795 97.2627 109.112C97.8134 109.429 98.2427 109.868 98.5507 110.428C98.868 110.988 99.0267 111.627 99.0267 112.346C99.0267 113.065 98.868 113.709 98.5507 114.278C98.2427 114.838 97.8134 115.277 97.2627 115.594C96.712 115.902 96.096 116.056 95.4147 116.056C94.7707 116.056 94.1874 115.907 93.6647 115.608C93.142 115.3 92.736 114.875 92.4467 114.334V118.716H91.7467V108.692H92.4187V110.414C92.708 109.854 93.114 109.42 93.6367 109.112C94.1687 108.795 94.7614 108.636 95.4147 108.636ZM95.3727 115.426C95.9327 115.426 96.4367 115.295 96.8847 115.034C97.3327 114.773 97.6827 114.409 97.9347 113.942C98.196 113.475 98.3267 112.943 98.3267 112.346C98.3267 111.749 98.196 111.217 97.9347 110.75C97.6827 110.283 97.3327 109.919 96.8847 109.658C96.4367 109.397 95.9327 109.266 95.3727 109.266C94.8127 109.266 94.3087 109.397 93.8607 109.658C93.422 109.919 93.072 110.283 92.8107 110.75C92.5587 111.217 92.4327 111.749 92.4327 112.346C92.4327 112.943 92.5587 113.475 92.8107 113.942C93.072 114.409 93.422 114.773 93.8607 115.034C94.3087 115.295 94.8127 115.426 95.3727 115.426ZM107.533 112.514H101.247C101.266 113.083 101.41 113.592 101.681 114.04C101.952 114.479 102.316 114.819 102.773 115.062C103.24 115.305 103.762 115.426 104.341 115.426C104.817 115.426 105.256 115.342 105.657 115.174C106.068 114.997 106.408 114.74 106.679 114.404L107.085 114.866C106.768 115.249 106.366 115.543 105.881 115.748C105.405 115.953 104.887 116.056 104.327 116.056C103.599 116.056 102.95 115.897 102.381 115.58C101.812 115.263 101.364 114.824 101.037 114.264C100.72 113.704 100.561 113.065 100.561 112.346C100.561 111.637 100.71 111.002 101.009 110.442C101.317 109.873 101.737 109.429 102.269 109.112C102.801 108.795 103.398 108.636 104.061 108.636C104.724 108.636 105.316 108.795 105.839 109.112C106.371 109.42 106.786 109.854 107.085 110.414C107.393 110.974 107.547 111.609 107.547 112.318L107.533 112.514ZM104.061 109.252C103.548 109.252 103.086 109.369 102.675 109.602C102.264 109.826 101.933 110.148 101.681 110.568C101.438 110.979 101.298 111.445 101.261 111.968H106.861C106.833 111.445 106.693 110.979 106.441 110.568C106.189 110.157 105.858 109.835 105.447 109.602C105.036 109.369 104.574 109.252 104.061 109.252ZM116.531 115.384V117.82H115.873V116H108.957V117.82H108.285V115.384H108.719C109.213 115.356 109.549 114.973 109.727 114.236C109.913 113.489 110.044 112.444 110.119 111.1L110.217 108.692H115.355V115.384H116.531ZM110.763 111.142C110.716 112.253 110.623 113.177 110.483 113.914C110.343 114.651 110.091 115.141 109.727 115.384H114.655V109.322H110.847L110.763 111.142ZM121.654 112.192C122.196 112.295 122.611 112.5 122.9 112.808C123.199 113.107 123.348 113.475 123.348 113.914C123.348 114.343 123.204 114.721 122.914 115.048C122.634 115.375 122.252 115.627 121.766 115.804C121.281 115.981 120.754 116.07 120.184 116.07C119.662 116.07 119.148 115.991 118.644 115.832C118.15 115.664 117.716 115.426 117.342 115.118L117.622 114.6C117.949 114.88 118.336 115.095 118.784 115.244C119.242 115.393 119.704 115.468 120.17 115.468C120.861 115.468 121.444 115.323 121.92 115.034C122.396 114.735 122.634 114.343 122.634 113.858C122.634 113.429 122.434 113.093 122.032 112.85C121.64 112.598 121.108 112.472 120.436 112.472H119.26V111.94H120.408C120.996 111.94 121.477 111.823 121.85 111.59C122.233 111.357 122.424 111.044 122.424 110.652C122.424 110.195 122.214 109.845 121.794 109.602C121.384 109.35 120.856 109.224 120.212 109.224C119.391 109.224 118.616 109.434 117.888 109.854L117.678 109.294C118.5 108.837 119.372 108.608 120.296 108.608C121.108 108.608 121.785 108.785 122.326 109.14C122.868 109.485 123.138 109.957 123.138 110.554C123.138 110.937 123.003 111.273 122.732 111.562C122.462 111.851 122.102 112.061 121.654 112.192ZM128.211 108.636C129.117 108.636 129.812 108.869 130.297 109.336C130.783 109.793 131.025 110.47 131.025 111.366V116H130.353V114.698C130.12 115.127 129.779 115.463 129.331 115.706C128.883 115.939 128.347 116.056 127.721 116.056C126.909 116.056 126.265 115.865 125.789 115.482C125.323 115.099 125.089 114.595 125.089 113.97C125.089 113.363 125.304 112.873 125.733 112.5C126.172 112.117 126.867 111.926 127.819 111.926H130.325V111.338C130.325 110.657 130.139 110.139 129.765 109.784C129.401 109.429 128.865 109.252 128.155 109.252C127.67 109.252 127.203 109.336 126.755 109.504C126.317 109.672 125.943 109.896 125.635 110.176L125.285 109.672C125.649 109.345 126.088 109.093 126.601 108.916C127.115 108.729 127.651 108.636 128.211 108.636ZM127.819 115.482C128.426 115.482 128.939 115.342 129.359 115.062C129.789 114.782 130.111 114.376 130.325 113.844V112.472H127.833C127.115 112.472 126.592 112.603 126.265 112.864C125.948 113.125 125.789 113.485 125.789 113.942C125.789 114.418 125.967 114.796 126.321 115.076C126.676 115.347 127.175 115.482 127.819 115.482ZM136.347 112.612H134.569V116H133.869V108.692H134.569V112.01H136.347L139.105 108.692H139.875L136.907 112.234L140.099 116H139.259L136.347 112.612ZM144.112 108.636C145.017 108.636 145.712 108.869 146.198 109.336C146.683 109.793 146.926 110.47 146.926 111.366V116H146.254V114.698C146.02 115.127 145.68 115.463 145.232 115.706C144.784 115.939 144.247 116.056 143.622 116.056C142.81 116.056 142.166 115.865 141.69 115.482C141.223 115.099 140.99 114.595 140.99 113.97C140.99 113.363 141.204 112.873 141.634 112.5C142.072 112.117 142.768 111.926 143.72 111.926H146.226V111.338C146.226 110.657 146.039 110.139 145.666 109.784C145.302 109.429 144.765 109.252 144.056 109.252C143.57 109.252 143.104 109.336 142.656 109.504C142.217 109.672 141.844 109.896 141.536 110.176L141.186 109.672C141.55 109.345 141.988 109.093 142.502 108.916C143.015 108.729 143.552 108.636 144.112 108.636ZM143.72 115.482C144.326 115.482 144.84 115.342 145.26 115.062C145.689 114.782 146.011 114.376 146.226 113.844V112.472H143.734C143.015 112.472 142.492 112.603 142.166 112.864C141.848 113.125 141.69 113.485 141.69 113.942C141.69 114.418 141.867 114.796 142.222 115.076C142.576 115.347 143.076 115.482 143.72 115.482ZM152.826 112.192C153.367 112.295 153.783 112.5 154.072 112.808C154.371 113.107 154.52 113.475 154.52 113.914C154.52 114.343 154.375 114.721 154.086 115.048C153.806 115.375 153.423 115.627 152.938 115.804C152.453 115.981 151.925 116.07 151.356 116.07C150.833 116.07 150.32 115.991 149.816 115.832C149.321 115.664 148.887 115.426 148.514 115.118L148.794 114.6C149.121 114.88 149.508 115.095 149.956 115.244C150.413 115.393 150.875 115.468 151.342 115.468C152.033 115.468 152.616 115.323 153.092 115.034C153.568 114.735 153.806 114.343 153.806 113.858C153.806 113.429 153.605 113.093 153.204 112.85C152.812 112.598 152.28 112.472 151.608 112.472H150.432V111.94H151.58C152.168 111.94 152.649 111.823 153.022 111.59C153.405 111.357 153.596 111.044 153.596 110.652C153.596 110.195 153.386 109.845 152.966 109.602C152.555 109.35 152.028 109.224 151.384 109.224C150.563 109.224 149.788 109.434 149.06 109.854L148.85 109.294C149.671 108.837 150.544 108.608 151.468 108.608C152.28 108.608 152.957 108.785 153.498 109.14C154.039 109.485 154.31 109.957 154.31 110.554C154.31 110.937 154.175 111.273 153.904 111.562C153.633 111.851 153.274 112.061 152.826 112.192ZM162.911 108.692L159.159 116.994C158.879 117.638 158.553 118.095 158.179 118.366C157.815 118.637 157.381 118.772 156.877 118.772C156.541 118.772 156.224 118.716 155.925 118.604C155.636 118.492 155.389 118.329 155.183 118.114L155.533 117.582C155.907 117.965 156.359 118.156 156.891 118.156C157.246 118.156 157.549 118.058 157.801 117.862C158.053 117.666 158.287 117.33 158.501 116.854L158.893 115.972L155.603 108.692H156.345L159.271 115.23L162.197 108.692H162.911Z" fill="white"/>
<defs>
<linearGradient id="paint0_linear_393_2589" x1="-10.3052" y1="39.2919" x2="365.504" y2="76.79" gradientUnits="userSpaceOnUse">
<stop stop-color="#A9A9A9"/>
<stop offset="0.552083" stop-color="#548FC1" stop-opacity="0.51"/>
<stop offset="1" stop-opacity="0.25"/>
</linearGradient>
</defs>
</svg>
