<svg width="883" height="134" viewBox="0 0 883 134" fill="none" xmlns="http://www.w3.org/2000/svg">
<path d="M49.3486 100.17L21.5286 12.55H21.0086V95.75H35.3086V99H1.63861V95.75H15.9386V4.23H1.63861V0.979999H36.8686L57.5386 69.62H58.0586L79.2486 0.979999H113.439V4.23H99.1386V95.75H113.439V99H67.4186V95.75H81.7186V12.55H81.1986L54.0286 100.17H49.3486ZM151.501 100.56C147.255 100.56 143.268 99.6933 139.541 97.96C135.901 96.2267 132.651 93.93 129.791 91.07C127.018 88.1233 124.851 84.83 123.291 81.19C121.731 77.4633 120.951 73.65 120.951 69.75C120.951 65.85 121.731 62.08 123.291 58.44C124.851 54.7133 127.018 51.42 129.791 48.56C132.651 45.6133 135.901 43.2733 139.541 41.54C143.268 39.8067 147.255 38.94 151.501 38.94C155.748 38.94 159.691 39.8067 163.331 41.54C167.058 43.2733 170.308 45.6133 173.081 48.56C175.941 51.42 178.151 54.7133 179.711 58.44C181.271 62.08 182.051 65.85 182.051 69.75C182.051 73.65 181.271 77.4633 179.711 81.19C178.151 84.83 175.941 88.1233 173.081 91.07C170.308 93.93 167.058 96.2267 163.331 97.96C159.691 99.6933 155.748 100.56 151.501 100.56ZM151.501 96.66C154.795 96.66 157.438 95.9233 159.431 94.45C161.425 92.9767 162.855 90.3333 163.721 86.52C164.675 82.62 165.151 77.03 165.151 69.75C165.151 62.47 164.675 56.88 163.721 52.98C162.855 49.08 161.425 46.4367 159.431 45.05C157.438 43.5767 154.795 42.84 151.501 42.84C148.208 42.84 145.565 43.5767 143.571 45.05C141.578 46.4367 140.105 49.08 139.151 52.98C138.285 56.88 137.851 62.47 137.851 69.75C137.851 77.03 138.285 82.62 139.151 86.52C140.105 90.3333 141.578 92.9767 143.571 94.45C145.565 95.9233 148.208 96.66 151.501 96.66ZM219.429 100.56C215.096 100.56 210.979 99.3033 207.079 96.79C203.266 94.19 200.146 90.5933 197.719 86C195.379 81.32 194.209 75.9033 194.209 69.75C194.209 63.5967 195.379 58.2233 197.719 53.63C200.146 48.95 203.266 45.3533 207.079 42.84C210.893 40.24 214.966 38.94 219.299 38.94C223.373 38.94 226.926 39.8067 229.959 41.54C233.079 43.2733 235.333 45.44 236.719 48.04H239.839L237.239 67.8C237.239 59.3067 235.679 53.11 232.559 49.21C229.526 45.31 225.669 43.36 220.989 43.36C218.563 43.36 216.613 44.0967 215.139 45.57C213.666 46.9567 212.583 49.5567 211.889 53.37C211.196 57.1833 210.849 62.6867 210.849 69.88C210.849 76.9867 211.153 82.4467 211.759 86.26C212.453 90.0733 213.536 92.6733 215.009 94.06C216.483 95.4467 218.433 96.14 220.859 96.14C225.539 96.14 229.439 94.19 232.559 90.29C235.679 86.3033 237.239 80.1067 237.239 71.7L239.839 91.46H236.719C235.333 94.06 233.123 96.2267 230.089 97.96C227.056 99.6933 223.503 100.56 219.429 100.56ZM237.239 99V95.75H260.379V99H237.239ZM237.239 97.05V3.06H251.539V97.05H237.239ZM224.369 4.23V0.979999H251.539V4.23H224.369ZM297.476 100.56C293.316 100.56 289.373 99.7367 285.646 98.09C282.006 96.3567 278.799 94.06 276.026 91.2C273.253 88.2533 271.086 84.96 269.526 81.32C267.966 77.5933 267.186 73.7367 267.186 69.75C267.186 64.4633 268.399 59.48 270.826 54.8C273.339 50.12 276.806 46.3067 281.226 43.36C285.646 40.4133 290.846 38.94 296.826 38.94C301.506 38.94 305.709 40.0233 309.436 42.19C313.249 44.27 316.239 47.2167 318.406 51.03C320.573 54.8433 321.656 59.22 321.656 64.16V64.94H279.146V61.69H306.576V54.28C306.576 46.3933 303.109 42.45 296.176 42.45C293.316 42.45 290.976 43.3167 289.156 45.05C287.423 46.6967 286.123 49.5133 285.256 53.5C284.476 57.4867 284.086 62.9033 284.086 69.75C284.086 76.77 284.519 82.23 285.386 86.13C286.253 90.03 287.683 92.76 289.676 94.32C291.756 95.88 294.486 96.66 297.866 96.66C302.459 96.66 306.446 95.49 309.826 93.15C313.206 90.81 316.066 86.7367 318.406 80.93H322.046C320.313 86.9967 317.236 91.8067 312.816 95.36C308.483 98.8267 303.369 100.56 297.476 100.56ZM339.451 97.05V3.06H353.751V97.05H339.451ZM329.181 99V95.75H364.151V99H329.181ZM329.181 4.23V0.979999H353.751V4.23H329.181ZM397.028 100.56C393.474 100.56 390.008 99.9533 386.628 98.74C383.334 97.5267 380.648 95.9233 378.568 93.93L376.618 99H372.848V79.11H377.008L377.658 81.58C378.871 86.26 381.038 89.8133 384.158 92.24C387.364 94.6667 391.611 95.88 396.898 95.88C401.231 95.88 404.264 95.1433 405.998 93.67C407.731 92.11 408.598 89.9 408.598 87.04C408.598 84.18 407.428 82.1 405.088 80.8C402.748 79.4133 399.151 78.2 394.298 77.16C390.138 76.2933 386.498 75.21 383.378 73.91C380.344 72.5233 377.961 70.6167 376.228 68.19C374.494 65.6767 373.628 62.2533 373.628 57.92C373.628 51.7667 375.404 47.0867 378.958 43.88C382.511 40.5867 387.581 38.94 394.168 38.94C397.894 38.94 401.101 39.46 403.788 40.5C406.561 41.54 408.511 42.97 409.638 44.79L411.068 40.5H414.448V59.35H410.418L410.028 57.4C409.074 52.5467 407.384 49.0367 404.958 46.87C402.618 44.7033 399.108 43.62 394.428 43.62C390.268 43.62 387.148 44.4433 385.068 46.09C383.074 47.65 382.078 49.86 382.078 52.72C382.078 54.1067 382.468 55.3633 383.248 56.49C384.028 57.53 385.458 58.4833 387.538 59.35C389.704 60.2167 392.694 61.0833 396.508 61.95C400.928 62.9033 404.654 64.1167 407.688 65.59C410.721 67.0633 413.018 69.0133 414.578 71.44C416.224 73.8667 417.048 77.03 417.048 80.93C417.048 86.91 415.228 91.6767 411.588 95.23C407.948 98.7833 403.094 100.56 397.028 100.56Z" fill="url(#paint0_linear_68_2623)"/>
<path d="M470.386 77.8084C469.65 77.8084 469.085 77.6057 468.69 77.2004C468.306 76.7951 468.114 76.2404 468.114 75.5364V67.5684H468.914V75.4564C468.914 75.9897 469.048 76.4004 469.314 76.6884C469.581 76.9764 469.965 77.1204 470.466 77.1204C470.989 77.1204 471.421 76.9657 471.762 76.6564L472.098 77.2164C471.885 77.4191 471.624 77.5684 471.314 77.6644C471.016 77.7604 470.706 77.8084 470.386 77.8084ZM466.578 70.0804V69.3924H471.57V70.0804H466.578ZM477.424 77.8084C476.582 77.8084 475.835 77.6271 475.184 77.2644C474.544 76.9017 474.038 76.4004 473.664 75.7604C473.302 75.1204 473.12 74.3897 473.12 73.5684C473.12 72.7364 473.291 72.0057 473.632 71.3764C473.984 70.7364 474.464 70.2351 475.072 69.8724C475.68 69.5097 476.363 69.3284 477.12 69.3284C477.878 69.3284 478.555 69.5044 479.152 69.8564C479.76 70.2084 480.235 70.7044 480.576 71.3444C480.928 71.9737 481.104 72.7044 481.104 73.5364C481.104 73.5684 481.099 73.6057 481.088 73.6484C481.088 73.6804 481.088 73.7177 481.088 73.7604H473.712V73.1364H480.656L480.336 73.4404C480.347 72.7897 480.208 72.2084 479.92 71.6964C479.643 71.1737 479.264 70.7684 478.784 70.4804C478.304 70.1817 477.75 70.0324 477.12 70.0324C476.502 70.0324 475.947 70.1817 475.456 70.4804C474.976 70.7684 474.598 71.1737 474.32 71.6964C474.043 72.2084 473.904 72.7951 473.904 73.4564V73.6004C473.904 74.2831 474.054 74.8911 474.352 75.4244C474.662 75.9471 475.083 76.3577 475.616 76.6564C476.15 76.9444 476.758 77.0884 477.44 77.0884C477.974 77.0884 478.47 76.9924 478.928 76.8004C479.398 76.6084 479.792 76.3151 480.112 75.9204L480.576 76.4484C480.214 76.8964 479.755 77.2377 479.2 77.4724C478.656 77.6964 478.064 77.8084 477.424 77.8084ZM482.017 77.7444L485.489 73.2324L485.473 73.6164L482.193 69.3924H483.105L485.969 73.0884H485.633L488.481 69.3924H489.377L486.065 73.6644L486.081 73.2324L489.601 77.7444H488.657L485.633 73.8084L485.937 73.8404L482.929 77.7444H482.017ZM494.074 77.8084C493.338 77.8084 492.772 77.6057 492.378 77.2004C491.994 76.7951 491.802 76.2404 491.802 75.5364V67.5684H492.602V75.4564C492.602 75.9897 492.735 76.4004 493.002 76.6884C493.268 76.9764 493.652 77.1204 494.154 77.1204C494.676 77.1204 495.108 76.9657 495.45 76.6564L495.786 77.2164C495.572 77.4191 495.311 77.5684 495.002 77.6644C494.703 77.7604 494.394 77.8084 494.074 77.8084ZM490.266 70.0804V69.3924H495.258V70.0804H490.266ZM507.39 77.7444V75.8404L507.358 75.5524V72.4164C507.358 71.6377 507.145 71.0457 506.718 70.6404C506.302 70.2351 505.689 70.0324 504.878 70.0324C504.302 70.0324 503.764 70.1337 503.262 70.3364C502.772 70.5284 502.35 70.7791 501.998 71.0884L501.598 70.5124C502.014 70.1391 502.516 69.8511 503.102 69.6484C503.689 69.4351 504.302 69.3284 504.942 69.3284C505.977 69.3284 506.772 69.5897 507.326 70.1124C507.881 70.6351 508.158 71.4137 508.158 72.4484V77.7444H507.39ZM504.382 77.8084C503.764 77.8084 503.225 77.7124 502.766 77.5204C502.318 77.3177 501.972 77.0351 501.726 76.6724C501.492 76.3097 501.374 75.8937 501.374 75.4244C501.374 74.9977 501.47 74.6137 501.662 74.2724C501.865 73.9204 502.196 73.6377 502.654 73.4244C503.113 73.2004 503.726 73.0884 504.494 73.0884H507.566V73.7124H504.51C503.646 73.7124 503.038 73.8724 502.686 74.1924C502.345 74.5124 502.174 74.9124 502.174 75.3924C502.174 75.9257 502.377 76.3524 502.782 76.6724C503.188 76.9924 503.758 77.1524 504.494 77.1524C505.198 77.1524 505.79 76.9924 506.27 76.6724C506.761 76.3524 507.124 75.8884 507.358 75.2804L507.582 75.8244C507.358 76.4324 506.974 76.9177 506.43 77.2804C505.897 77.6324 505.214 77.8084 504.382 77.8084ZM515.646 77.8084C514.91 77.8084 514.244 77.6377 513.646 77.2964C513.06 76.9551 512.59 76.4644 512.238 75.8244C511.897 75.1844 511.726 74.4324 511.726 73.5684C511.726 72.6831 511.897 71.9257 512.238 71.2964C512.59 70.6671 513.06 70.1817 513.646 69.8404C514.244 69.4991 514.91 69.3284 515.646 69.3284C516.436 69.3284 517.14 69.5097 517.758 69.8724C518.388 70.2244 518.878 70.7204 519.23 71.3604C519.593 71.9897 519.774 72.7257 519.774 73.5684C519.774 74.4004 519.593 75.1364 519.23 75.7764C518.878 76.4164 518.388 76.9177 517.758 77.2804C517.14 77.6324 516.436 77.8084 515.646 77.8084ZM511.454 77.7444V65.8724H512.254V72.0964L512.094 73.5524L512.222 75.0084V77.7444H511.454ZM515.598 77.0884C516.238 77.0884 516.814 76.9444 517.326 76.6564C517.838 76.3577 518.238 75.9417 518.526 75.4084C518.825 74.8751 518.974 74.2617 518.974 73.5684C518.974 72.8644 518.825 72.2511 518.526 71.7284C518.238 71.1951 517.838 70.7844 517.326 70.4964C516.814 70.1977 516.238 70.0484 515.598 70.0484C514.958 70.0484 514.382 70.1977 513.87 70.4964C513.369 70.7844 512.969 71.1951 512.67 71.7284C512.382 72.2511 512.238 72.8644 512.238 73.5684C512.238 74.2617 512.382 74.8751 512.67 75.4084C512.969 75.9417 513.369 76.3577 513.87 76.6564C514.382 76.9444 514.958 77.0884 515.598 77.0884ZM525.515 77.8084C524.715 77.8084 524.001 77.6271 523.371 77.2644C522.753 76.9017 522.257 76.4004 521.883 75.7604C521.521 75.1204 521.339 74.3897 521.339 73.5684C521.339 72.7364 521.521 72.0057 521.883 71.3764C522.257 70.7364 522.753 70.2351 523.371 69.8724C524.001 69.5097 524.715 69.3284 525.515 69.3284C526.315 69.3284 527.03 69.5097 527.659 69.8724C528.289 70.2351 528.785 70.7364 529.147 71.3764C529.51 72.0057 529.691 72.7364 529.691 73.5684C529.691 74.3897 529.51 75.1204 529.147 75.7604C528.785 76.4004 528.289 76.9017 527.659 77.2644C527.03 77.6271 526.315 77.8084 525.515 77.8084ZM525.515 77.0884C526.155 77.0884 526.731 76.9444 527.243 76.6564C527.755 76.3577 528.155 75.9417 528.443 75.4084C528.731 74.8751 528.875 74.2617 528.875 73.5684C528.875 72.8644 528.731 72.2511 528.443 71.7284C528.155 71.1951 527.755 70.7844 527.243 70.4964C526.731 70.1977 526.155 70.0484 525.515 70.0484C524.875 70.0484 524.299 70.1977 523.787 70.4964C523.286 70.7844 522.886 71.1951 522.587 71.7284C522.299 72.2511 522.155 72.8644 522.155 73.5684C522.155 74.2617 522.299 74.8751 522.587 75.4084C522.886 75.9417 523.286 76.3577 523.787 76.6564C524.299 76.9444 524.875 77.0884 525.515 77.0884ZM535.565 77.8084C534.85 77.8084 534.232 77.6804 533.709 77.4244C533.186 77.1577 532.781 76.7631 532.493 76.2404C532.216 75.7071 532.077 75.0511 532.077 74.2724V69.3924H532.877V74.2084C532.877 75.1471 533.117 75.8617 533.597 76.3524C534.077 76.8431 534.754 77.0884 535.629 77.0884C536.258 77.0884 536.802 76.9551 537.261 76.6884C537.72 76.4217 538.072 76.0484 538.317 75.5684C538.562 75.0777 538.685 74.5017 538.685 73.8404V69.3924H539.485V77.7444H538.717V75.4244L538.829 75.6964C538.584 76.3471 538.173 76.8644 537.597 77.2484C537.032 77.6217 536.354 77.8084 535.565 77.8084ZM545.308 77.8084C544.572 77.8084 544.007 77.6057 543.612 77.2004C543.228 76.7951 543.036 76.2404 543.036 75.5364V67.5684H543.836V75.4564C543.836 75.9897 543.97 76.4004 544.236 76.6884C544.503 76.9764 544.887 77.1204 545.388 77.1204C545.911 77.1204 546.343 76.9657 546.684 76.6564L547.02 77.2164C546.807 77.4191 546.546 77.5684 546.236 77.6644C545.938 77.7604 545.628 77.8084 545.308 77.8084ZM541.5 70.0804V69.3924H546.492V70.0804H541.5ZM554.993 77.7444L551.825 69.3924H552.593L555.537 77.2964H555.201L558.225 69.3924H558.913L561.921 77.2964H561.569L564.561 69.3924H565.297L562.129 77.7444H561.377L558.433 70.1604H558.689L555.729 77.7444H554.993ZM572.171 77.7444V75.8404L572.139 75.5524V72.4164C572.139 71.6377 571.926 71.0457 571.499 70.6404C571.083 70.2351 570.47 70.0324 569.659 70.0324C569.083 70.0324 568.545 70.1337 568.043 70.3364C567.553 70.5284 567.131 70.7791 566.779 71.0884L566.379 70.5124C566.795 70.1391 567.297 69.8511 567.883 69.6484C568.47 69.4351 569.083 69.3284 569.723 69.3284C570.758 69.3284 571.553 69.5897 572.107 70.1124C572.662 70.6351 572.939 71.4137 572.939 72.4484V77.7444H572.171ZM569.163 77.8084C568.545 77.8084 568.006 77.7124 567.547 77.5204C567.099 77.3177 566.753 77.0351 566.507 76.6724C566.273 76.3097 566.155 75.8937 566.155 75.4244C566.155 74.9977 566.251 74.6137 566.443 74.2724C566.646 73.9204 566.977 73.6377 567.435 73.4244C567.894 73.2004 568.507 73.0884 569.275 73.0884H572.347V73.7124H569.291C568.427 73.7124 567.819 73.8724 567.467 74.1924C567.126 74.5124 566.955 74.9124 566.955 75.3924C566.955 75.9257 567.158 76.3524 567.563 76.6724C567.969 76.9924 568.539 77.1524 569.275 77.1524C569.979 77.1524 570.571 76.9924 571.051 76.6724C571.542 76.3524 571.905 75.8884 572.139 75.2804L572.363 75.8244C572.139 76.4324 571.755 76.9177 571.211 77.2804C570.678 77.6324 569.995 77.8084 569.163 77.8084ZM578.668 77.8084C577.932 77.8084 577.366 77.6057 576.972 77.2004C576.588 76.7951 576.396 76.2404 576.396 75.5364V67.5684H577.196V75.4564C577.196 75.9897 577.329 76.4004 577.596 76.6884C577.862 76.9764 578.246 77.1204 578.748 77.1204C579.27 77.1204 579.702 76.9657 580.044 76.6564L580.38 77.2164C580.166 77.4191 579.905 77.5684 579.596 77.6644C579.297 77.7604 578.988 77.8084 578.668 77.8084ZM574.86 70.0804V69.3924H579.852V70.0804H574.86ZM585.626 77.8084C584.815 77.8084 584.09 77.6271 583.45 77.2644C582.82 76.9017 582.319 76.4004 581.946 75.7604C581.583 75.1204 581.402 74.3897 581.402 73.5684C581.402 72.7364 581.583 72.0004 581.946 71.3604C582.319 70.7204 582.82 70.2244 583.45 69.8724C584.09 69.5097 584.815 69.3284 585.626 69.3284C586.298 69.3284 586.906 69.4564 587.45 69.7124C588.004 69.9684 588.452 70.3524 588.794 70.8644L588.202 71.2964C587.903 70.8697 587.53 70.5551 587.082 70.3524C586.634 70.1497 586.148 70.0484 585.626 70.0484C584.975 70.0484 584.388 70.1977 583.866 70.4964C583.354 70.7844 582.948 71.1951 582.65 71.7284C582.362 72.2511 582.218 72.8644 582.218 73.5684C582.218 74.2724 582.362 74.8911 582.65 75.4244C582.948 75.9471 583.354 76.3577 583.866 76.6564C584.388 76.9444 584.975 77.0884 585.626 77.0884C586.148 77.0884 586.634 76.9871 587.082 76.7844C587.53 76.5817 587.903 76.2671 588.202 75.8404L588.794 76.2724C588.452 76.7844 588.004 77.1684 587.45 77.4244C586.906 77.6804 586.298 77.8084 585.626 77.8084ZM595.128 69.3284C595.811 69.3284 596.403 69.4617 596.904 69.7284C597.416 69.9844 597.811 70.3791 598.088 70.9124C598.376 71.4351 598.52 72.0857 598.52 72.8644V77.7444H597.72V72.9284C597.72 71.9897 597.48 71.2751 597 70.7844C596.531 70.2937 595.869 70.0484 595.016 70.0484C594.365 70.0484 593.8 70.1817 593.32 70.4484C592.84 70.7151 592.472 71.0884 592.216 71.5684C591.971 72.0484 591.848 72.6244 591.848 73.2964V77.7444H591.048V65.8724H591.848V71.7124L591.704 71.4564C591.96 70.7951 592.381 70.2777 592.968 69.9044C593.555 69.5204 594.275 69.3284 595.128 69.3284ZM609.139 77.8084C608.36 77.8084 607.656 77.6324 607.027 77.2804C606.408 76.9177 605.918 76.4164 605.555 75.7764C605.192 75.1364 605.011 74.4004 605.011 73.5684C605.011 72.7257 605.192 71.9897 605.555 71.3604C605.918 70.7204 606.408 70.2244 607.027 69.8724C607.656 69.5097 608.36 69.3284 609.139 69.3284C609.875 69.3284 610.536 69.4991 611.123 69.8404C611.72 70.1817 612.19 70.6671 612.531 71.2964C612.883 71.9257 613.059 72.6831 613.059 73.5684C613.059 74.4324 612.888 75.1844 612.547 75.8244C612.206 76.4644 611.736 76.9551 611.139 77.2964C610.552 77.6377 609.886 77.8084 609.139 77.8084ZM609.187 77.0884C609.827 77.0884 610.398 76.9444 610.899 76.6564C611.411 76.3577 611.811 75.9417 612.099 75.4084C612.398 74.8751 612.547 74.2617 612.547 73.5684C612.547 72.8644 612.398 72.2511 612.099 71.7284C611.811 71.1951 611.411 70.7844 610.899 70.4964C610.398 70.1977 609.827 70.0484 609.187 70.0484C608.547 70.0484 607.971 70.1977 607.459 70.4964C606.958 70.7844 606.558 71.1951 606.259 71.7284C605.971 72.2511 605.827 72.8644 605.827 73.5684C605.827 74.2617 605.971 74.8751 606.259 75.4084C606.558 75.9417 606.958 76.3577 607.459 76.6564C607.971 76.9444 608.547 77.0884 609.187 77.0884ZM612.563 77.7444V75.0084L612.707 73.5524L612.547 72.0964V65.8724H613.347V77.7444H612.563ZM620.112 77.8084C619.269 77.8084 618.523 77.6271 617.872 77.2644C617.232 76.9017 616.725 76.4004 616.352 75.7604C615.989 75.1204 615.808 74.3897 615.808 73.5684C615.808 72.7364 615.979 72.0057 616.32 71.3764C616.672 70.7364 617.152 70.2351 617.76 69.8724C618.368 69.5097 619.051 69.3284 619.808 69.3284C620.565 69.3284 621.243 69.5044 621.84 69.8564C622.448 70.2084 622.923 70.7044 623.264 71.3444C623.616 71.9737 623.792 72.7044 623.792 73.5364C623.792 73.5684 623.787 73.6057 623.776 73.6484C623.776 73.6804 623.776 73.7177 623.776 73.7604H616.4V73.1364H623.344L623.024 73.4404C623.035 72.7897 622.896 72.2084 622.608 71.6964C622.331 71.1737 621.952 70.7684 621.472 70.4804C620.992 70.1817 620.437 70.0324 619.808 70.0324C619.189 70.0324 618.635 70.1817 618.144 70.4804C617.664 70.7684 617.285 71.1737 617.008 71.6964C616.731 72.2084 616.592 72.7951 616.592 73.4564V73.6004C616.592 74.2831 616.741 74.8911 617.04 75.4244C617.349 75.9471 617.771 76.3577 618.304 76.6564C618.837 76.9444 619.445 77.0884 620.128 77.0884C620.661 77.0884 621.157 76.9924 621.616 76.8004C622.085 76.6084 622.48 76.3151 622.8 75.9204L623.264 76.4484C622.901 76.8964 622.443 77.2377 621.888 77.4724C621.344 77.6964 620.752 77.8084 620.112 77.8084ZM628.379 77.8084C627.685 77.8084 627.035 77.7071 626.427 77.5044C625.829 77.3017 625.365 77.0457 625.035 76.7364L625.403 76.0964C625.723 76.3737 626.149 76.6137 626.683 76.8164C627.216 77.0084 627.792 77.1044 628.411 77.1044C629.285 77.1044 629.915 76.9604 630.299 76.6724C630.683 76.3844 630.875 76.0057 630.875 75.5364C630.875 75.1951 630.773 74.9284 630.571 74.7364C630.379 74.5337 630.117 74.3791 629.787 74.2724C629.456 74.1657 629.093 74.0804 628.699 74.0164C628.304 73.9417 627.909 73.8617 627.515 73.7764C627.12 73.6911 626.757 73.5684 626.427 73.4084C626.096 73.2484 625.829 73.0297 625.627 72.7524C625.435 72.4644 625.339 72.0857 625.339 71.6164C625.339 71.1897 625.456 70.8057 625.691 70.4644C625.925 70.1231 626.277 69.8511 626.747 69.6484C627.216 69.4351 627.803 69.3284 628.507 69.3284C629.029 69.3284 629.552 69.4031 630.075 69.5524C630.608 69.7017 631.04 69.8991 631.371 70.1444L631.003 70.7844C630.651 70.5177 630.256 70.3257 629.819 70.2084C629.381 70.0911 628.939 70.0324 628.491 70.0324C627.68 70.0324 627.083 70.1817 626.699 70.4804C626.325 70.7791 626.139 71.1524 626.139 71.6004C626.139 71.9524 626.235 72.2351 626.427 72.4484C626.629 72.6511 626.896 72.8111 627.227 72.9284C627.557 73.0351 627.92 73.1257 628.315 73.2004C628.709 73.2644 629.104 73.3391 629.499 73.4244C629.893 73.5097 630.256 73.6324 630.587 73.7924C630.917 73.9417 631.179 74.1551 631.371 74.4324C631.573 74.6991 631.675 75.0617 631.675 75.5204C631.675 75.9791 631.547 76.3791 631.291 76.7204C631.045 77.0617 630.677 77.3284 630.187 77.5204C629.696 77.7124 629.093 77.8084 628.379 77.8084ZM633.907 77.7444V69.3924H634.707V77.7444H633.907ZM634.307 67.3604C634.126 67.3604 633.971 67.2964 633.843 67.1684C633.715 67.0404 633.651 66.8911 633.651 66.7204C633.651 66.5391 633.715 66.3844 633.843 66.2564C633.971 66.1284 634.126 66.0644 634.307 66.0644C634.499 66.0644 634.654 66.1284 634.771 66.2564C634.899 66.3737 634.963 66.5231 634.963 66.7044C634.963 66.8857 634.899 67.0404 634.771 67.1684C634.654 67.2964 634.499 67.3604 634.307 67.3604ZM641.551 80.9124C640.794 80.9124 640.074 80.7951 639.391 80.5604C638.709 80.3257 638.154 80.0004 637.727 79.5844L638.159 78.9764C638.575 79.3604 639.071 79.6591 639.647 79.8724C640.234 80.0857 640.863 80.1924 641.535 80.1924C642.655 80.1924 643.477 79.9311 643.999 79.4084C644.533 78.8857 644.799 78.0644 644.799 76.9444V74.6244L644.959 73.3764L644.831 72.1284V69.3924H645.599V76.8484C645.599 78.2457 645.258 79.2697 644.575 79.9204C643.903 80.5817 642.895 80.9124 641.551 80.9124ZM641.327 77.4404C640.538 77.4404 639.829 77.2697 639.199 76.9284C638.581 76.5764 638.085 76.0964 637.711 75.4884C637.349 74.8697 637.167 74.1657 637.167 73.3764C637.167 72.5764 637.349 71.8724 637.711 71.2644C638.085 70.6564 638.581 70.1817 639.199 69.8404C639.829 69.4991 640.538 69.3284 641.327 69.3284C642.085 69.3284 642.762 69.4937 643.359 69.8244C643.967 70.1444 644.447 70.6084 644.799 71.2164C645.151 71.8137 645.327 72.5337 645.327 73.3764C645.327 74.2084 645.151 74.9284 644.799 75.5364C644.447 76.1444 643.967 76.6137 643.359 76.9444C642.762 77.2751 642.085 77.4404 641.327 77.4404ZM641.391 76.7204C642.063 76.7204 642.655 76.5817 643.167 76.3044C643.679 76.0164 644.079 75.6217 644.367 75.1204C644.666 74.6084 644.815 74.0271 644.815 73.3764C644.815 72.7151 644.666 72.1337 644.367 71.6324C644.079 71.1311 643.679 70.7417 643.167 70.4644C642.655 70.1871 642.063 70.0484 641.391 70.0484C640.741 70.0484 640.154 70.1871 639.631 70.4644C639.119 70.7417 638.714 71.1311 638.415 71.6324C638.127 72.1337 637.983 72.7151 637.983 73.3764C637.983 74.0271 638.127 74.6084 638.415 75.1204C638.714 75.6217 639.119 76.0164 639.631 76.3044C640.154 76.5817 640.741 76.7204 641.391 76.7204ZM653.066 69.3284C653.748 69.3284 654.34 69.4617 654.842 69.7284C655.354 69.9844 655.748 70.3791 656.026 70.9124C656.314 71.4351 656.458 72.0857 656.458 72.8644V77.7444H655.658V72.9284C655.658 71.9897 655.418 71.2751 654.938 70.7844C654.468 70.2937 653.807 70.0484 652.954 70.0484C652.303 70.0484 651.738 70.1817 651.258 70.4484C650.778 70.7151 650.41 71.0884 650.154 71.5684C649.908 72.0484 649.786 72.6244 649.786 73.2964V77.7444H648.986V69.3924H649.754V71.7124L649.642 71.4564C649.898 70.7951 650.319 70.2777 650.906 69.9044C651.492 69.5204 652.212 69.3284 653.066 69.3284ZM667.125 77.8084C666.325 77.8084 665.61 77.6271 664.981 77.2644C664.362 76.9017 663.866 76.4004 663.493 75.7604C663.13 75.1204 662.949 74.3897 662.949 73.5684C662.949 72.7364 663.13 72.0057 663.493 71.3764C663.866 70.7364 664.362 70.2351 664.981 69.8724C665.61 69.5097 666.325 69.3284 667.125 69.3284C667.925 69.3284 668.639 69.5097 669.269 69.8724C669.898 70.2351 670.394 70.7364 670.757 71.3764C671.119 72.0057 671.301 72.7364 671.301 73.5684C671.301 74.3897 671.119 75.1204 670.757 75.7604C670.394 76.4004 669.898 76.9017 669.269 77.2644C668.639 77.6271 667.925 77.8084 667.125 77.8084ZM667.125 77.0884C667.765 77.0884 668.341 76.9444 668.853 76.6564C669.365 76.3577 669.765 75.9417 670.053 75.4084C670.341 74.8751 670.485 74.2617 670.485 73.5684C670.485 72.8644 670.341 72.2511 670.053 71.7284C669.765 71.1951 669.365 70.7844 668.853 70.4964C668.341 70.1977 667.765 70.0484 667.125 70.0484C666.485 70.0484 665.909 70.1977 665.397 70.4964C664.895 70.7844 664.495 71.1951 664.197 71.7284C663.909 72.2511 663.765 72.8644 663.765 73.5684C663.765 74.2617 663.909 74.8751 664.197 75.4084C664.495 75.9417 664.895 76.3577 665.397 76.6564C665.909 76.9444 666.485 77.0884 667.125 77.0884ZM677.974 77.8084C677.238 77.8084 676.572 77.6377 675.974 77.2964C675.388 76.9551 674.918 76.4697 674.566 75.8404C674.225 75.2004 674.054 74.4431 674.054 73.5684C674.054 72.6937 674.225 71.9417 674.566 71.3124C674.918 70.6724 675.388 70.1817 675.974 69.8404C676.572 69.4991 677.238 69.3284 677.974 69.3284C678.764 69.3284 679.468 69.5097 680.086 69.8724C680.716 70.2244 681.206 70.7204 681.558 71.3604C681.921 72.0004 682.102 72.7364 682.102 73.5684C682.102 74.4004 681.921 75.1364 681.558 75.7764C681.206 76.4164 680.716 76.9177 680.086 77.2804C679.468 77.6324 678.764 77.8084 677.974 77.8084ZM673.782 80.8484V69.3924H674.55V72.1284L674.422 73.5844L674.582 75.0404V80.8484H673.782ZM677.926 77.0884C678.566 77.0884 679.142 76.9444 679.654 76.6564C680.166 76.3577 680.566 75.9417 680.854 75.4084C681.153 74.8751 681.302 74.2617 681.302 73.5684C681.302 72.8644 681.153 72.2511 680.854 71.7284C680.566 71.1951 680.166 70.7844 679.654 70.4964C679.142 70.1977 678.566 70.0484 677.926 70.0484C677.286 70.0484 676.71 70.1977 676.198 70.4964C675.697 70.7844 675.297 71.1951 674.998 71.7284C674.71 72.2511 674.566 72.8644 674.566 73.5684C674.566 74.2617 674.71 74.8751 674.998 75.4084C675.297 75.9417 675.697 76.3577 676.198 76.6564C676.71 76.9444 677.286 77.0884 677.926 77.0884ZM687.011 77.8084C686.275 77.8084 685.71 77.6057 685.315 77.2004C684.931 76.7951 684.739 76.2404 684.739 75.5364V67.5684H685.539V75.4564C685.539 75.9897 685.673 76.4004 685.939 76.6884C686.206 76.9764 686.59 77.1204 687.091 77.1204C687.614 77.1204 688.046 76.9657 688.387 76.6564L688.723 77.2164C688.51 77.4191 688.249 77.5684 687.939 77.6644C687.641 77.7604 687.331 77.8084 687.011 77.8084ZM683.203 70.0804V69.3924H688.195V70.0804H683.203ZM690.954 77.7444V69.3924H691.754V77.7444H690.954ZM691.354 67.3604C691.173 67.3604 691.018 67.2964 690.89 67.1684C690.762 67.0404 690.698 66.8911 690.698 66.7204C690.698 66.5391 690.762 66.3844 690.89 66.2564C691.018 66.1284 691.173 66.0644 691.354 66.0644C691.546 66.0644 691.701 66.1284 691.818 66.2564C691.946 66.3737 692.01 66.5231 692.01 66.7044C692.01 66.8857 691.946 67.0404 691.818 67.1684C691.701 67.2964 691.546 67.3604 691.354 67.3604ZM698.39 77.8084C697.59 77.8084 696.876 77.6271 696.246 77.2644C695.628 76.9017 695.132 76.4004 694.758 75.7604C694.396 75.1204 694.214 74.3897 694.214 73.5684C694.214 72.7364 694.396 72.0057 694.758 71.3764C695.132 70.7364 695.628 70.2351 696.246 69.8724C696.876 69.5097 697.59 69.3284 698.39 69.3284C699.19 69.3284 699.905 69.5097 700.534 69.8724C701.164 70.2351 701.66 70.7364 702.022 71.3764C702.385 72.0057 702.566 72.7364 702.566 73.5684C702.566 74.3897 702.385 75.1204 702.022 75.7604C701.66 76.4004 701.164 76.9017 700.534 77.2644C699.905 77.6271 699.19 77.8084 698.39 77.8084ZM698.39 77.0884C699.03 77.0884 699.606 76.9444 700.118 76.6564C700.63 76.3577 701.03 75.9417 701.318 75.4084C701.606 74.8751 701.75 74.2617 701.75 73.5684C701.75 72.8644 701.606 72.2511 701.318 71.7284C701.03 71.1951 700.63 70.7844 700.118 70.4964C699.606 70.1977 699.03 70.0484 698.39 70.0484C697.75 70.0484 697.174 70.1977 696.662 70.4964C696.161 70.7844 695.761 71.1951 695.462 71.7284C695.174 72.2511 695.03 72.8644 695.03 73.5684C695.03 74.2617 695.174 74.8751 695.462 75.4084C695.761 75.9417 696.161 76.3577 696.662 76.6564C697.174 76.9444 697.75 77.0884 698.39 77.0884ZM709.128 69.3284C709.811 69.3284 710.403 69.4617 710.904 69.7284C711.416 69.9844 711.811 70.3791 712.088 70.9124C712.376 71.4351 712.52 72.0857 712.52 72.8644V77.7444H711.72V72.9284C711.72 71.9897 711.48 71.2751 711 70.7844C710.531 70.2937 709.869 70.0484 709.016 70.0484C708.365 70.0484 707.8 70.1817 707.32 70.4484C706.84 70.7151 706.472 71.0884 706.216 71.5684C705.971 72.0484 705.848 72.6244 705.848 73.2964V77.7444H705.048V69.3924H705.816V71.7124L705.704 71.4564C705.96 70.7951 706.381 70.2777 706.968 69.9044C707.555 69.5204 708.275 69.3284 709.128 69.3284ZM717.926 77.8084C717.232 77.8084 716.582 77.7071 715.974 77.5044C715.376 77.3017 714.912 77.0457 714.582 76.7364L714.95 76.0964C715.27 76.3737 715.696 76.6137 716.23 76.8164C716.763 77.0084 717.339 77.1044 717.958 77.1044C718.832 77.1044 719.462 76.9604 719.846 76.6724C720.23 76.3844 720.422 76.0057 720.422 75.5364C720.422 75.1951 720.32 74.9284 720.118 74.7364C719.926 74.5337 719.664 74.3791 719.334 74.2724C719.003 74.1657 718.64 74.0804 718.246 74.0164C717.851 73.9417 717.456 73.8617 717.062 73.7764C716.667 73.6911 716.304 73.5684 715.974 73.4084C715.643 73.2484 715.376 73.0297 715.174 72.7524C714.982 72.4644 714.886 72.0857 714.886 71.6164C714.886 71.1897 715.003 70.8057 715.238 70.4644C715.472 70.1231 715.824 69.8511 716.294 69.6484C716.763 69.4351 717.35 69.3284 718.054 69.3284C718.576 69.3284 719.099 69.4031 719.622 69.5524C720.155 69.7017 720.587 69.8991 720.918 70.1444L720.55 70.7844C720.198 70.5177 719.803 70.3257 719.366 70.2084C718.928 70.0911 718.486 70.0324 718.038 70.0324C717.227 70.0324 716.63 70.1817 716.246 70.4804C715.872 70.7791 715.686 71.1524 715.686 71.6004C715.686 71.9524 715.782 72.2351 715.974 72.4484C716.176 72.6511 716.443 72.8111 716.774 72.9284C717.104 73.0351 717.467 73.1257 717.862 73.2004C718.256 73.2644 718.651 73.3391 719.046 73.4244C719.44 73.5097 719.803 73.6324 720.134 73.7924C720.464 73.9417 720.726 74.1551 720.918 74.4324C721.12 74.6991 721.222 75.0617 721.222 75.5204C721.222 75.9791 721.094 76.3791 720.838 76.7204C720.592 77.0617 720.224 77.3284 719.734 77.5204C719.243 77.7124 718.64 77.8084 717.926 77.8084ZM723.358 70.6884C723.177 70.6884 723.017 70.6244 722.878 70.4964C722.75 70.3577 722.686 70.1924 722.686 70.0004C722.686 69.8084 722.75 69.6484 722.878 69.5204C723.017 69.3924 723.177 69.3284 723.358 69.3284C723.54 69.3284 723.694 69.3924 723.822 69.5204C723.961 69.6484 724.03 69.8084 724.03 70.0004C724.03 70.1924 723.961 70.3577 723.822 70.4964C723.694 70.6244 723.54 70.6884 723.358 70.6884ZM723.358 77.8084C723.177 77.8084 723.017 77.7444 722.878 77.6164C722.75 77.4777 722.686 77.3124 722.686 77.1204C722.686 76.9284 722.75 76.7684 722.878 76.6404C723.017 76.5124 723.177 76.4484 723.358 76.4484C723.54 76.4484 723.694 76.5124 723.822 76.6404C723.961 76.7684 724.03 76.9284 724.03 77.1204C724.03 77.3124 723.961 77.4777 723.822 77.6164C723.694 77.7444 723.54 77.8084 723.358 77.8084ZM732.879 77.8084C732.185 77.8084 731.535 77.7071 730.927 77.5044C730.329 77.3017 729.865 77.0457 729.535 76.7364L729.903 76.0964C730.223 76.3737 730.649 76.6137 731.183 76.8164C731.716 77.0084 732.292 77.1044 732.911 77.1044C733.785 77.1044 734.415 76.9604 734.799 76.6724C735.183 76.3844 735.375 76.0057 735.375 75.5364C735.375 75.1951 735.273 74.9284 735.071 74.7364C734.879 74.5337 734.617 74.3791 734.287 74.2724C733.956 74.1657 733.593 74.0804 733.199 74.0164C732.804 73.9417 732.409 73.8617 732.015 73.7764C731.62 73.6911 731.257 73.5684 730.927 73.4084C730.596 73.2484 730.329 73.0297 730.127 72.7524C729.935 72.4644 729.839 72.0857 729.839 71.6164C729.839 71.1897 729.956 70.8057 730.191 70.4644C730.425 70.1231 730.777 69.8511 731.247 69.6484C731.716 69.4351 732.303 69.3284 733.007 69.3284C733.529 69.3284 734.052 69.4031 734.575 69.5524C735.108 69.7017 735.54 69.8991 735.871 70.1444L735.503 70.7844C735.151 70.5177 734.756 70.3257 734.319 70.2084C733.881 70.0911 733.439 70.0324 732.991 70.0324C732.18 70.0324 731.583 70.1817 731.199 70.4804C730.825 70.7791 730.639 71.1524 730.639 71.6004C730.639 71.9524 730.735 72.2351 730.927 72.4484C731.129 72.6511 731.396 72.8111 731.727 72.9284C732.057 73.0351 732.42 73.1257 732.815 73.2004C733.209 73.2644 733.604 73.3391 733.999 73.4244C734.393 73.5097 734.756 73.6324 735.087 73.7924C735.417 73.9417 735.679 74.1551 735.871 74.4324C736.073 74.6991 736.175 75.0617 736.175 75.5204C736.175 75.9791 736.047 76.3791 735.791 76.7204C735.545 77.0617 735.177 77.3284 734.687 77.5204C734.196 77.7124 733.593 77.8084 732.879 77.8084ZM740.839 77.8084C740.103 77.8084 739.538 77.6057 739.143 77.2004C738.759 76.7951 738.567 76.2404 738.567 75.5364V67.5684H739.367V75.4564C739.367 75.9897 739.501 76.4004 739.767 76.6884C740.034 76.9764 740.418 77.1204 740.919 77.1204C741.442 77.1204 741.874 76.9657 742.215 76.6564L742.551 77.2164C742.338 77.4191 742.077 77.5684 741.767 77.6644C741.469 77.7604 741.159 77.8084 740.839 77.8084ZM737.031 70.0804V69.3924H742.023V70.0804H737.031ZM744.782 77.7444V69.3924H745.55V71.6804L745.47 71.4244C745.705 70.7524 746.1 70.2351 746.654 69.8724C747.209 69.5097 747.902 69.3284 748.734 69.3284V70.1124C748.702 70.1124 748.67 70.1124 748.638 70.1124C748.606 70.1017 748.574 70.0964 748.542 70.0964C747.614 70.0964 746.889 70.3897 746.366 70.9764C745.844 71.5524 745.582 72.3577 745.582 73.3924V77.7444H744.782ZM755.578 77.7444V75.8404L755.546 75.5524V72.4164C755.546 71.6377 755.332 71.0457 754.906 70.6404C754.49 70.2351 753.876 70.0324 753.066 70.0324C752.49 70.0324 751.951 70.1337 751.45 70.3364C750.959 70.5284 750.538 70.7791 750.186 71.0884L749.786 70.5124C750.202 70.1391 750.703 69.8511 751.29 69.6484C751.876 69.4351 752.49 69.3284 753.13 69.3284C754.164 69.3284 754.959 69.5897 755.514 70.1124C756.068 70.6351 756.346 71.4137 756.346 72.4484V77.7444H755.578ZM752.57 77.8084C751.951 77.8084 751.412 77.7124 750.954 77.5204C750.506 77.3177 750.159 77.0351 749.914 76.6724C749.679 76.3097 749.562 75.8937 749.562 75.4244C749.562 74.9977 749.658 74.6137 749.85 74.2724C750.052 73.9204 750.383 73.6377 750.842 73.4244C751.3 73.2004 751.914 73.0884 752.682 73.0884H755.754V73.7124H752.698C751.834 73.7124 751.226 73.8724 750.874 74.1924C750.532 74.5124 750.362 74.9124 750.362 75.3924C750.362 75.9257 750.564 76.3524 750.97 76.6724C751.375 76.9924 751.946 77.1524 752.682 77.1524C753.386 77.1524 753.978 76.9924 754.458 76.6724C754.948 76.3524 755.311 75.8884 755.546 75.2804L755.77 75.8244C755.546 76.4324 755.162 76.9177 754.618 77.2804C754.084 77.6324 753.402 77.8084 752.57 77.8084ZM763.834 77.8084C763.098 77.8084 762.431 77.6377 761.834 77.2964C761.247 76.9551 760.778 76.4697 760.426 75.8404C760.084 75.2004 759.914 74.4431 759.914 73.5684C759.914 72.6937 760.084 71.9417 760.426 71.3124C760.778 70.6724 761.247 70.1817 761.834 69.8404C762.431 69.4991 763.098 69.3284 763.834 69.3284C764.623 69.3284 765.327 69.5097 765.946 69.8724C766.575 70.2244 767.066 70.7204 767.418 71.3604C767.78 72.0004 767.962 72.7364 767.962 73.5684C767.962 74.4004 767.78 75.1364 767.418 75.7764C767.066 76.4164 766.575 76.9177 765.946 77.2804C765.327 77.6324 764.623 77.8084 763.834 77.8084ZM759.642 80.8484V69.3924H760.41V72.1284L760.282 73.5844L760.442 75.0404V80.8484H759.642ZM763.786 77.0884C764.426 77.0884 765.002 76.9444 765.514 76.6564C766.026 76.3577 766.426 75.9417 766.714 75.4084C767.012 74.8751 767.162 74.2617 767.162 73.5684C767.162 72.8644 767.012 72.2511 766.714 71.7284C766.426 71.1951 766.026 70.7844 765.514 70.4964C765.002 70.1977 764.426 70.0484 763.786 70.0484C763.146 70.0484 762.57 70.1977 762.058 70.4964C761.556 70.7844 761.156 71.1951 760.858 71.7284C760.57 72.2511 760.426 72.8644 760.426 73.5684C760.426 74.2617 760.57 74.8751 760.858 75.4084C761.156 75.9417 761.556 76.3577 762.058 76.6564C762.57 76.9444 763.146 77.0884 763.786 77.0884ZM772.551 77.8084C771.857 77.8084 771.207 77.7071 770.599 77.5044C770.001 77.3017 769.537 77.0457 769.207 76.7364L769.575 76.0964C769.895 76.3737 770.321 76.6137 770.855 76.8164C771.388 77.0084 771.964 77.1044 772.583 77.1044C773.457 77.1044 774.087 76.9604 774.471 76.6724C774.855 76.3844 775.047 76.0057 775.047 75.5364C775.047 75.1951 774.945 74.9284 774.743 74.7364C774.551 74.5337 774.289 74.3791 773.959 74.2724C773.628 74.1657 773.265 74.0804 772.871 74.0164C772.476 73.9417 772.081 73.8617 771.687 73.7764C771.292 73.6911 770.929 73.5684 770.599 73.4084C770.268 73.2484 770.001 73.0297 769.799 72.7524C769.607 72.4644 769.511 72.0857 769.511 71.6164C769.511 71.1897 769.628 70.8057 769.863 70.4644C770.097 70.1231 770.449 69.8511 770.919 69.6484C771.388 69.4351 771.975 69.3284 772.679 69.3284C773.201 69.3284 773.724 69.4031 774.247 69.5524C774.78 69.7017 775.212 69.8991 775.543 70.1444L775.175 70.7844C774.823 70.5177 774.428 70.3257 773.991 70.2084C773.553 70.0911 773.111 70.0324 772.663 70.0324C771.852 70.0324 771.255 70.1817 770.871 70.4804C770.497 70.7791 770.311 71.1524 770.311 71.6004C770.311 71.9524 770.407 72.2351 770.599 72.4484C770.801 72.6511 771.068 72.8111 771.399 72.9284C771.729 73.0351 772.092 73.1257 772.487 73.2004C772.881 73.2644 773.276 73.3391 773.671 73.4244C774.065 73.5097 774.428 73.6324 774.759 73.7924C775.089 73.9417 775.351 74.1551 775.543 74.4324C775.745 74.6991 775.847 75.0617 775.847 75.5204C775.847 75.9791 775.719 76.3791 775.463 76.7204C775.217 77.0617 774.849 77.3284 774.359 77.5204C773.868 77.7124 773.265 77.8084 772.551 77.8084ZM777.311 80.0324L777.935 77.3284L778.015 77.7924C777.813 77.7924 777.642 77.7284 777.503 77.6004C777.375 77.4724 777.311 77.3124 777.311 77.1204C777.311 76.9284 777.375 76.7684 777.503 76.6404C777.642 76.5124 777.802 76.4484 777.983 76.4484C778.186 76.4484 778.346 76.5177 778.463 76.6564C778.591 76.7844 778.655 76.9391 778.655 77.1204C778.655 77.1951 778.65 77.2697 778.639 77.3444C778.629 77.4191 778.613 77.4937 778.591 77.5684C778.57 77.6431 778.543 77.7391 778.511 77.8564L777.887 80.0324H777.311ZM788.704 77.8084C787.893 77.8084 787.168 77.6271 786.528 77.2644C785.898 76.9017 785.397 76.4004 785.024 75.7604C784.661 75.1204 784.48 74.3897 784.48 73.5684C784.48 72.7364 784.661 72.0004 785.024 71.3604C785.397 70.7204 785.898 70.2244 786.528 69.8724C787.168 69.5097 787.893 69.3284 788.704 69.3284C789.376 69.3284 789.984 69.4564 790.528 69.7124C791.082 69.9684 791.53 70.3524 791.872 70.8644L791.28 71.2964C790.981 70.8697 790.608 70.5551 790.16 70.3524C789.712 70.1497 789.226 70.0484 788.704 70.0484C788.053 70.0484 787.466 70.1977 786.944 70.4964C786.432 70.7844 786.026 71.1951 785.728 71.7284C785.44 72.2511 785.296 72.8644 785.296 73.5684C785.296 74.2724 785.44 74.8911 785.728 75.4244C786.026 75.9471 786.432 76.3577 786.944 76.6564C787.466 76.9444 788.053 77.0884 788.704 77.0884C789.226 77.0884 789.712 76.9871 790.16 76.7844C790.608 76.5817 790.981 76.2671 791.28 75.8404L791.872 76.2724C791.53 76.7844 791.082 77.1684 790.528 77.4244C789.984 77.6804 789.376 77.8084 788.704 77.8084ZM797.39 77.8084C796.59 77.8084 795.876 77.6271 795.246 77.2644C794.628 76.9017 794.132 76.4004 793.758 75.7604C793.396 75.1204 793.214 74.3897 793.214 73.5684C793.214 72.7364 793.396 72.0057 793.758 71.3764C794.132 70.7364 794.628 70.2351 795.246 69.8724C795.876 69.5097 796.59 69.3284 797.39 69.3284C798.19 69.3284 798.905 69.5097 799.534 69.8724C800.164 70.2351 800.66 70.7364 801.022 71.3764C801.385 72.0057 801.566 72.7364 801.566 73.5684C801.566 74.3897 801.385 75.1204 801.022 75.7604C800.66 76.4004 800.164 76.9017 799.534 77.2644C798.905 77.6271 798.19 77.8084 797.39 77.8084ZM797.39 77.0884C798.03 77.0884 798.606 76.9444 799.118 76.6564C799.63 76.3577 800.03 75.9417 800.318 75.4084C800.606 74.8751 800.75 74.2617 800.75 73.5684C800.75 72.8644 800.606 72.2511 800.318 71.7284C800.03 71.1951 799.63 70.7844 799.118 70.4964C798.606 70.1977 798.03 70.0484 797.39 70.0484C796.75 70.0484 796.174 70.1977 795.662 70.4964C795.161 70.7844 794.761 71.1951 794.462 71.7284C794.174 72.2511 794.03 72.8644 794.03 73.5684C794.03 74.2617 794.174 74.8751 794.462 75.4084C794.761 75.9417 795.161 76.3577 795.662 76.6564C796.174 76.9444 796.75 77.0884 797.39 77.0884ZM804.048 77.7444V65.8724H804.848V77.7444H804.048ZM811.484 77.8084C810.684 77.8084 809.969 77.6271 809.34 77.2644C808.721 76.9017 808.225 76.4004 807.852 75.7604C807.489 75.1204 807.308 74.3897 807.308 73.5684C807.308 72.7364 807.489 72.0057 807.852 71.3764C808.225 70.7364 808.721 70.2351 809.34 69.8724C809.969 69.5097 810.684 69.3284 811.484 69.3284C812.284 69.3284 812.999 69.5097 813.628 69.8724C814.257 70.2351 814.753 70.7364 815.116 71.3764C815.479 72.0057 815.66 72.7364 815.66 73.5684C815.66 74.3897 815.479 75.1204 815.116 75.7604C814.753 76.4004 814.257 76.9017 813.628 77.2644C812.999 77.6271 812.284 77.8084 811.484 77.8084ZM811.484 77.0884C812.124 77.0884 812.7 76.9444 813.212 76.6564C813.724 76.3577 814.124 75.9417 814.412 75.4084C814.7 74.8751 814.844 74.2617 814.844 73.5684C814.844 72.8644 814.7 72.2511 814.412 71.7284C814.124 71.1951 813.724 70.7844 813.212 70.4964C812.7 70.1977 812.124 70.0484 811.484 70.0484C810.844 70.0484 810.268 70.1977 809.756 70.4964C809.255 70.7844 808.855 71.1951 808.556 71.7284C808.268 72.2511 808.124 72.8644 808.124 73.5684C808.124 74.2617 808.268 74.8751 808.556 75.4084C808.855 75.9417 809.255 76.3577 809.756 76.6564C810.268 76.9444 810.844 77.0884 811.484 77.0884ZM818.142 77.7444V69.3924H818.91V71.6804L818.83 71.4244C819.064 70.7524 819.459 70.2351 820.014 69.8724C820.568 69.5097 821.262 69.3284 822.094 69.3284V70.1124C822.062 70.1124 822.03 70.1124 821.998 70.1124C821.966 70.1017 821.934 70.0964 821.902 70.0964C820.974 70.0964 820.248 70.3897 819.726 70.9764C819.203 71.5524 818.942 72.3577 818.942 73.3924V77.7444H818.142ZM826.504 77.8084C825.81 77.8084 825.16 77.7071 824.552 77.5044C823.954 77.3017 823.49 77.0457 823.16 76.7364L823.528 76.0964C823.848 76.3737 824.274 76.6137 824.808 76.8164C825.341 77.0084 825.917 77.1044 826.536 77.1044C827.41 77.1044 828.04 76.9604 828.424 76.6724C828.808 76.3844 829 76.0057 829 75.5364C829 75.1951 828.898 74.9284 828.696 74.7364C828.504 74.5337 828.242 74.3791 827.912 74.2724C827.581 74.1657 827.218 74.0804 826.824 74.0164C826.429 73.9417 826.034 73.8617 825.64 73.7764C825.245 73.6911 824.882 73.5684 824.552 73.4084C824.221 73.2484 823.954 73.0297 823.752 72.7524C823.56 72.4644 823.464 72.0857 823.464 71.6164C823.464 71.1897 823.581 70.8057 823.816 70.4644C824.05 70.1231 824.402 69.8511 824.872 69.6484C825.341 69.4351 825.928 69.3284 826.632 69.3284C827.154 69.3284 827.677 69.4031 828.2 69.5524C828.733 69.7017 829.165 69.8991 829.496 70.1444L829.128 70.7844C828.776 70.5177 828.381 70.3257 827.944 70.2084C827.506 70.0911 827.064 70.0324 826.616 70.0324C825.805 70.0324 825.208 70.1817 824.824 70.4804C824.45 70.7791 824.264 71.1524 824.264 71.6004C824.264 71.9524 824.36 72.2351 824.552 72.4484C824.754 72.6511 825.021 72.8111 825.352 72.9284C825.682 73.0351 826.045 73.1257 826.44 73.2004C826.834 73.2644 827.229 73.3391 827.624 73.4244C828.018 73.5097 828.381 73.6324 828.712 73.7924C829.042 73.9417 829.304 74.1551 829.496 74.4324C829.698 74.6991 829.8 75.0617 829.8 75.5204C829.8 75.9791 829.672 76.3791 829.416 76.7204C829.17 77.0617 828.802 77.3284 828.312 77.5204C827.821 77.7124 827.218 77.8084 826.504 77.8084ZM831.264 80.0324L831.888 77.3284L831.968 77.7924C831.766 77.7924 831.595 77.7284 831.456 77.6004C831.328 77.4724 831.264 77.3124 831.264 77.1204C831.264 76.9284 831.328 76.7684 831.456 76.6404C831.595 76.5124 831.755 76.4484 831.936 76.4484C832.139 76.4484 832.299 76.5177 832.416 76.6564C832.544 76.7844 832.608 76.9391 832.608 77.1204C832.608 77.1951 832.603 77.2697 832.592 77.3444C832.582 77.4191 832.566 77.4937 832.544 77.5684C832.523 77.6431 832.496 77.7391 832.464 77.8564L831.84 80.0324H831.264ZM471.346 101.808C470.504 101.808 469.757 101.627 469.106 101.264C468.466 100.902 467.96 100.4 467.586 99.7604C467.224 99.1204 467.042 98.3897 467.042 97.5684C467.042 96.7364 467.213 96.0057 467.554 95.3764C467.906 94.7364 468.386 94.2351 468.994 93.8724C469.602 93.5097 470.285 93.3284 471.042 93.3284C471.8 93.3284 472.477 93.5044 473.074 93.8564C473.682 94.2084 474.157 94.7044 474.498 95.3444C474.85 95.9737 475.026 96.7044 475.026 97.5364C475.026 97.5684 475.021 97.6057 475.01 97.6484C475.01 97.6804 475.01 97.7177 475.01 97.7604H467.634V97.1364H474.578L474.258 97.4404C474.269 96.7897 474.13 96.2084 473.842 95.6964C473.565 95.1737 473.186 94.7684 472.706 94.4804C472.226 94.1817 471.672 94.0324 471.042 94.0324C470.424 94.0324 469.869 94.1817 469.378 94.4804C468.898 94.7684 468.52 95.1737 468.242 95.6964C467.965 96.2084 467.826 96.7951 467.826 97.4564V97.6004C467.826 98.2831 467.976 98.8911 468.274 99.4244C468.584 99.9471 469.005 100.358 469.538 100.656C470.072 100.944 470.68 101.088 471.362 101.088C471.896 101.088 472.392 100.992 472.85 100.8C473.32 100.608 473.714 100.315 474.034 99.9204L474.498 100.448C474.136 100.896 473.677 101.238 473.122 101.472C472.578 101.696 471.986 101.808 471.346 101.808ZM475.939 101.744L479.411 97.2324L479.395 97.6164L476.115 93.3924H477.027L479.891 97.0884H479.555L482.403 93.3924H483.299L479.987 97.6644L480.003 97.2324L483.523 101.744H482.579L479.555 97.8084L479.859 97.8404L476.851 101.744H475.939ZM489.756 101.808C489.02 101.808 488.353 101.638 487.756 101.296C487.169 100.955 486.7 100.47 486.348 99.8404C486.006 99.2004 485.836 98.4431 485.836 97.5684C485.836 96.6937 486.006 95.9417 486.348 95.3124C486.7 94.6724 487.169 94.1817 487.756 93.8404C488.353 93.4991 489.02 93.3284 489.756 93.3284C490.545 93.3284 491.249 93.5097 491.868 93.8724C492.497 94.2244 492.988 94.7204 493.34 95.3604C493.702 96.0004 493.884 96.7364 493.884 97.5684C493.884 98.4004 493.702 99.1364 493.34 99.7764C492.988 100.416 492.497 100.918 491.868 101.28C491.249 101.632 490.545 101.808 489.756 101.808ZM485.564 104.848V93.3924H486.332V96.1284L486.204 97.5844L486.364 99.0404V104.848H485.564ZM489.708 101.088C490.348 101.088 490.924 100.944 491.436 100.656C491.948 100.358 492.348 99.9417 492.636 99.4084C492.934 98.8751 493.084 98.2617 493.084 97.5684C493.084 96.8644 492.934 96.2511 492.636 95.7284C492.348 95.1951 491.948 94.7844 491.436 94.4964C490.924 94.1977 490.348 94.0484 489.708 94.0484C489.068 94.0484 488.492 94.1977 487.98 94.4964C487.478 94.7844 487.078 95.1951 486.78 95.7284C486.492 96.2511 486.348 96.8644 486.348 97.5684C486.348 98.2617 486.492 98.8751 486.78 99.4084C487.078 99.9417 487.478 100.358 487.98 100.656C488.492 100.944 489.068 101.088 489.708 101.088ZM499.753 101.808C498.91 101.808 498.163 101.627 497.513 101.264C496.873 100.902 496.366 100.4 495.993 99.7604C495.63 99.1204 495.449 98.3897 495.449 97.5684C495.449 96.7364 495.619 96.0057 495.961 95.3764C496.313 94.7364 496.793 94.2351 497.401 93.8724C498.009 93.5097 498.691 93.3284 499.449 93.3284C500.206 93.3284 500.883 93.5044 501.481 93.8564C502.089 94.2084 502.563 94.7044 502.905 95.3444C503.257 95.9737 503.433 96.7044 503.433 97.5364C503.433 97.5684 503.427 97.6057 503.417 97.6484C503.417 97.6804 503.417 97.7177 503.417 97.7604H496.041V97.1364H502.985L502.665 97.4404C502.675 96.7897 502.537 96.2084 502.249 95.6964C501.971 95.1737 501.593 94.7684 501.113 94.4804C500.633 94.1817 500.078 94.0324 499.449 94.0324C498.83 94.0324 498.275 94.1817 497.785 94.4804C497.305 94.7684 496.926 95.1737 496.649 95.6964C496.371 96.2084 496.233 96.7951 496.233 97.4564V97.6004C496.233 98.2831 496.382 98.8911 496.681 99.4244C496.99 99.9471 497.411 100.358 497.945 100.656C498.478 100.944 499.086 101.088 499.769 101.088C500.302 101.088 500.798 100.992 501.257 100.8C501.726 100.608 502.121 100.315 502.441 99.9204L502.905 100.448C502.542 100.896 502.083 101.238 501.529 101.472C500.985 101.696 500.393 101.808 499.753 101.808ZM509.987 93.3284C510.67 93.3284 511.262 93.4617 511.763 93.7284C512.275 93.9844 512.67 94.3791 512.947 94.9124C513.235 95.4351 513.379 96.0857 513.379 96.8644V101.744H512.579V96.9284C512.579 95.9897 512.339 95.2751 511.859 94.7844C511.39 94.2937 510.729 94.0484 509.875 94.0484C509.225 94.0484 508.659 94.1817 508.179 94.4484C507.699 94.7151 507.331 95.0884 507.075 95.5684C506.83 96.0484 506.707 96.6244 506.707 97.2964V101.744H505.907V93.3924H506.675V95.7124L506.563 95.4564C506.819 94.7951 507.241 94.2777 507.827 93.9044C508.414 93.5204 509.134 93.3284 509.987 93.3284ZM518.785 101.808C518.092 101.808 517.441 101.707 516.833 101.504C516.236 101.302 515.772 101.046 515.441 100.736L515.809 100.096C516.129 100.374 516.556 100.614 517.089 100.816C517.622 101.008 518.198 101.104 518.817 101.104C519.692 101.104 520.321 100.96 520.705 100.672C521.089 100.384 521.281 100.006 521.281 99.5364C521.281 99.1951 521.18 98.9284 520.977 98.7364C520.785 98.5337 520.524 98.3791 520.193 98.2724C519.862 98.1657 519.5 98.0804 519.105 98.0164C518.71 97.9417 518.316 97.8617 517.921 97.7764C517.526 97.6911 517.164 97.5684 516.833 97.4084C516.502 97.2484 516.236 97.0297 516.033 96.7524C515.841 96.4644 515.745 96.0857 515.745 95.6164C515.745 95.1897 515.862 94.8057 516.097 94.4644C516.332 94.1231 516.684 93.8511 517.153 93.6484C517.622 93.4351 518.209 93.3284 518.913 93.3284C519.436 93.3284 519.958 93.4031 520.481 93.5524C521.014 93.7017 521.446 93.8991 521.777 94.1444L521.409 94.7844C521.057 94.5177 520.662 94.3257 520.225 94.2084C519.788 94.0911 519.345 94.0324 518.897 94.0324C518.086 94.0324 517.489 94.1817 517.105 94.4804C516.732 94.7791 516.545 95.1524 516.545 95.6004C516.545 95.9524 516.641 96.2351 516.833 96.4484C517.036 96.6511 517.302 96.8111 517.633 96.9284C517.964 97.0351 518.326 97.1257 518.721 97.2004C519.116 97.2644 519.51 97.3391 519.905 97.4244C520.3 97.5097 520.662 97.6324 520.993 97.7924C521.324 97.9417 521.585 98.1551 521.777 98.4324C521.98 98.6991 522.081 99.0617 522.081 99.5204C522.081 99.9791 521.953 100.379 521.697 100.72C521.452 101.062 521.084 101.328 520.593 101.52C520.102 101.712 519.5 101.808 518.785 101.808ZM524.314 101.744V93.3924H525.114V101.744H524.314ZM524.714 91.3604C524.532 91.3604 524.378 91.2964 524.25 91.1684C524.122 91.0404 524.058 90.8911 524.058 90.7204C524.058 90.5391 524.122 90.3844 524.25 90.2564C524.378 90.1284 524.532 90.0644 524.714 90.0644C524.906 90.0644 525.06 90.1284 525.178 90.2564C525.306 90.3737 525.37 90.5231 525.37 90.7044C525.37 90.8857 525.306 91.0404 525.178 91.1684C525.06 91.2964 524.906 91.3604 524.714 91.3604ZM530.598 101.744L526.838 93.3924H527.686L531.206 101.296H530.822L534.374 93.3924H535.19L531.414 101.744H530.598ZM540.096 101.808C539.254 101.808 538.507 101.627 537.856 101.264C537.216 100.902 536.71 100.4 536.336 99.7604C535.974 99.1204 535.792 98.3897 535.792 97.5684C535.792 96.7364 535.963 96.0057 536.304 95.3764C536.656 94.7364 537.136 94.2351 537.744 93.8724C538.352 93.5097 539.035 93.3284 539.792 93.3284C540.55 93.3284 541.227 93.5044 541.824 93.8564C542.432 94.2084 542.907 94.7044 543.248 95.3444C543.6 95.9737 543.776 96.7044 543.776 97.5364C543.776 97.5684 543.771 97.6057 543.76 97.6484C543.76 97.6804 543.76 97.7177 543.76 97.7604H536.384V97.1364H543.328L543.008 97.4404C543.019 96.7897 542.88 96.2084 542.592 95.6964C542.315 95.1737 541.936 94.7684 541.456 94.4804C540.976 94.1817 540.422 94.0324 539.792 94.0324C539.174 94.0324 538.619 94.1817 538.128 94.4804C537.648 94.7684 537.27 95.1737 536.992 95.6964C536.715 96.2084 536.576 96.7951 536.576 97.4564V97.6004C536.576 98.2831 536.726 98.8911 537.024 99.4244C537.334 99.9471 537.755 100.358 538.288 100.656C538.822 100.944 539.43 101.088 540.112 101.088C540.646 101.088 541.142 100.992 541.6 100.8C542.07 100.608 542.464 100.315 542.784 99.9204L543.248 100.448C542.886 100.896 542.427 101.238 541.872 101.472C541.328 101.696 540.736 101.808 540.096 101.808ZM560.761 93.3284C561.433 93.3284 562.014 93.4617 562.505 93.7284C563.006 93.9844 563.395 94.3791 563.673 94.9124C563.95 95.4351 564.089 96.0857 564.089 96.8644V101.744H563.289V96.9284C563.289 95.9897 563.059 95.2751 562.601 94.7844C562.142 94.2937 561.502 94.0484 560.681 94.0484C560.051 94.0484 559.507 94.1817 559.049 94.4484C558.59 94.7151 558.238 95.0884 557.993 95.5684C557.747 96.0484 557.625 96.6244 557.625 97.2964V101.744H556.825V96.9284C556.825 95.9897 556.595 95.2751 556.137 94.7844C555.678 94.2937 555.038 94.0484 554.217 94.0484C553.587 94.0484 553.043 94.1817 552.585 94.4484C552.126 94.7151 551.774 95.0884 551.529 95.5684C551.283 96.0484 551.161 96.6244 551.161 97.2964V101.744H550.361V93.3924H551.129V95.6964L551.017 95.4404C551.262 94.7897 551.673 94.2777 552.249 93.9044C552.825 93.5204 553.518 93.3284 554.329 93.3284C555.161 93.3284 555.859 93.5417 556.425 93.9684C557.001 94.3844 557.363 95.0084 557.513 95.8404L557.241 95.7284C557.465 95.0137 557.886 94.4377 558.505 94.0004C559.123 93.5524 559.875 93.3284 560.761 93.3284ZM572.656 101.744V99.8404L572.624 99.5524V96.4164C572.624 95.6377 572.41 95.0457 571.984 94.6404C571.568 94.2351 570.954 94.0324 570.144 94.0324C569.568 94.0324 569.029 94.1337 568.528 94.3364C568.037 94.5284 567.616 94.7791 567.264 95.0884L566.864 94.5124C567.28 94.1391 567.781 93.8511 568.368 93.6484C568.954 93.4351 569.568 93.3284 570.208 93.3284C571.242 93.3284 572.037 93.5897 572.592 94.1124C573.146 94.6351 573.424 95.4137 573.424 96.4484V101.744H572.656ZM569.648 101.808C569.029 101.808 568.49 101.712 568.032 101.52C567.584 101.318 567.237 101.035 566.992 100.672C566.757 100.31 566.64 99.8937 566.64 99.4244C566.64 98.9977 566.736 98.6137 566.928 98.2724C567.13 97.9204 567.461 97.6377 567.92 97.4244C568.378 97.2004 568.992 97.0884 569.76 97.0884H572.832V97.7124H569.776C568.912 97.7124 568.304 97.8724 567.952 98.1924C567.61 98.5124 567.44 98.9124 567.44 99.3924C567.44 99.9257 567.642 100.352 568.048 100.672C568.453 100.992 569.024 101.152 569.76 101.152C570.464 101.152 571.056 100.992 571.536 100.672C572.026 100.352 572.389 99.8884 572.624 99.2804L572.848 99.8244C572.624 100.432 572.24 100.918 571.696 101.28C571.162 101.632 570.48 101.808 569.648 101.808ZM579.152 101.808C578.416 101.808 577.851 101.606 577.456 101.2C577.072 100.795 576.88 100.24 576.88 99.5364V91.5684H577.68V99.4564C577.68 99.9897 577.813 100.4 578.08 100.688C578.347 100.976 578.731 101.12 579.232 101.12C579.755 101.12 580.187 100.966 580.528 100.656L580.864 101.216C580.651 101.419 580.389 101.568 580.08 101.664C579.781 101.76 579.472 101.808 579.152 101.808ZM575.344 94.0804V93.3924H580.336V94.0804H575.344ZM586.19 101.808C585.347 101.808 584.601 101.627 583.95 101.264C583.31 100.902 582.803 100.4 582.43 99.7604C582.067 99.1204 581.886 98.3897 581.886 97.5684C581.886 96.7364 582.057 96.0057 582.398 95.3764C582.75 94.7364 583.23 94.2351 583.838 93.8724C584.446 93.5097 585.129 93.3284 585.886 93.3284C586.643 93.3284 587.321 93.5044 587.918 93.8564C588.526 94.2084 589.001 94.7044 589.342 95.3444C589.694 95.9737 589.87 96.7044 589.87 97.5364C589.87 97.5684 589.865 97.6057 589.854 97.6484C589.854 97.6804 589.854 97.7177 589.854 97.7604H582.478V97.1364H589.422L589.102 97.4404C589.113 96.7897 588.974 96.2084 588.686 95.6964C588.409 95.1737 588.03 94.7684 587.55 94.4804C587.07 94.1817 586.515 94.0324 585.886 94.0324C585.267 94.0324 584.713 94.1817 584.222 94.4804C583.742 94.7684 583.363 95.1737 583.086 95.6964C582.809 96.2084 582.67 96.7951 582.67 97.4564V97.6004C582.67 98.2831 582.819 98.8911 583.118 99.4244C583.427 99.9471 583.849 100.358 584.382 100.656C584.915 100.944 585.523 101.088 586.206 101.088C586.739 101.088 587.235 100.992 587.694 100.8C588.163 100.608 588.558 100.315 588.878 99.9204L589.342 100.448C588.979 100.896 588.521 101.238 587.966 101.472C587.422 101.696 586.83 101.808 586.19 101.808ZM592.345 101.744V93.3924H593.113V95.6804L593.033 95.4244C593.268 94.7524 593.662 94.2351 594.217 93.8724C594.772 93.5097 595.465 93.3284 596.297 93.3284V94.1124C596.265 94.1124 596.233 94.1124 596.201 94.1124C596.169 94.1017 596.137 94.0964 596.105 94.0964C595.177 94.0964 594.452 94.3897 593.929 94.9764C593.406 95.5524 593.145 96.3577 593.145 97.3924V101.744H592.345ZM598.501 101.744V93.3924H599.301V101.744H598.501ZM598.901 91.3604C598.72 91.3604 598.565 91.2964 598.437 91.1684C598.309 91.0404 598.245 90.8911 598.245 90.7204C598.245 90.5391 598.309 90.3844 598.437 90.2564C598.565 90.1284 598.72 90.0644 598.901 90.0644C599.093 90.0644 599.248 90.1284 599.365 90.2564C599.493 90.3737 599.557 90.5231 599.557 90.7044C599.557 90.8857 599.493 91.0404 599.365 91.1684C599.248 91.2964 599.093 91.3604 598.901 91.3604ZM607.937 101.744V99.8404L607.905 99.5524V96.4164C607.905 95.6377 607.692 95.0457 607.265 94.6404C606.849 94.2351 606.236 94.0324 605.425 94.0324C604.849 94.0324 604.31 94.1337 603.809 94.3364C603.318 94.5284 602.897 94.7791 602.545 95.0884L602.145 94.5124C602.561 94.1391 603.062 93.8511 603.649 93.6484C604.236 93.4351 604.849 93.3284 605.489 93.3284C606.524 93.3284 607.318 93.5897 607.873 94.1124C608.428 94.6351 608.705 95.4137 608.705 96.4484V101.744H607.937ZM604.929 101.808C604.31 101.808 603.772 101.712 603.313 101.52C602.865 101.318 602.518 101.035 602.273 100.672C602.038 100.31 601.921 99.8937 601.921 99.4244C601.921 98.9977 602.017 98.6137 602.209 98.2724C602.412 97.9204 602.742 97.6377 603.201 97.4244C603.66 97.2004 604.273 97.0884 605.041 97.0884H608.113V97.7124H605.057C604.193 97.7124 603.585 97.8724 603.233 98.1924C602.892 98.5124 602.721 98.9124 602.721 99.3924C602.721 99.9257 602.924 100.352 603.329 100.672C603.734 100.992 604.305 101.152 605.041 101.152C605.745 101.152 606.337 100.992 606.817 100.672C607.308 100.352 607.67 99.8884 607.905 99.2804L608.129 99.8244C607.905 100.432 607.521 100.918 606.977 101.28C606.444 101.632 605.761 101.808 604.929 101.808ZM612.001 101.744V89.8724H612.801V101.744H612.001ZM618.285 101.808C617.592 101.808 616.941 101.707 616.333 101.504C615.736 101.302 615.272 101.046 614.941 100.736L615.309 100.096C615.629 100.374 616.056 100.614 616.589 100.816C617.122 101.008 617.698 101.104 618.317 101.104C619.192 101.104 619.821 100.96 620.205 100.672C620.589 100.384 620.781 100.006 620.781 99.5364C620.781 99.1951 620.68 98.9284 620.477 98.7364C620.285 98.5337 620.024 98.3791 619.693 98.2724C619.362 98.1657 619 98.0804 618.605 98.0164C618.21 97.9417 617.816 97.8617 617.421 97.7764C617.026 97.6911 616.664 97.5684 616.333 97.4084C616.002 97.2484 615.736 97.0297 615.533 96.7524C615.341 96.4644 615.245 96.0857 615.245 95.6164C615.245 95.1897 615.362 94.8057 615.597 94.4644C615.832 94.1231 616.184 93.8511 616.653 93.6484C617.122 93.4351 617.709 93.3284 618.413 93.3284C618.936 93.3284 619.458 93.4031 619.981 93.5524C620.514 93.7017 620.946 93.8991 621.277 94.1444L620.909 94.7844C620.557 94.5177 620.162 94.3257 619.725 94.2084C619.288 94.0911 618.845 94.0324 618.397 94.0324C617.586 94.0324 616.989 94.1817 616.605 94.4804C616.232 94.7791 616.045 95.1524 616.045 95.6004C616.045 95.9524 616.141 96.2351 616.333 96.4484C616.536 96.6511 616.802 96.8111 617.133 96.9284C617.464 97.0351 617.826 97.1257 618.221 97.2004C618.616 97.2644 619.01 97.3391 619.405 97.4244C619.8 97.5097 620.162 97.6324 620.493 97.7924C620.824 97.9417 621.085 98.1551 621.277 98.4324C621.48 98.6991 621.581 99.0617 621.581 99.5204C621.581 99.9791 621.453 100.379 621.197 100.72C620.952 101.062 620.584 101.328 620.093 101.52C619.602 101.712 619 101.808 618.285 101.808ZM623.046 104.032L623.67 101.328L623.75 101.792C623.547 101.792 623.376 101.728 623.238 101.6C623.11 101.472 623.046 101.312 623.046 101.12C623.046 100.928 623.11 100.768 623.238 100.64C623.376 100.512 623.536 100.448 623.718 100.448C623.92 100.448 624.08 100.518 624.198 100.656C624.326 100.784 624.39 100.939 624.39 101.12C624.39 101.195 624.384 101.27 624.374 101.344C624.363 101.419 624.347 101.494 624.326 101.568C624.304 101.643 624.278 101.739 624.246 101.856L623.622 104.032H623.046ZM635.318 101.808C634.582 101.808 633.916 101.638 633.318 101.296C632.732 100.955 632.262 100.47 631.91 99.8404C631.569 99.2004 631.398 98.4431 631.398 97.5684C631.398 96.6937 631.569 95.9417 631.91 95.3124C632.262 94.6724 632.732 94.1817 633.318 93.8404C633.916 93.4991 634.582 93.3284 635.318 93.3284C636.108 93.3284 636.812 93.5097 637.43 93.8724C638.06 94.2244 638.55 94.7204 638.902 95.3604C639.265 96.0004 639.446 96.7364 639.446 97.5684C639.446 98.4004 639.265 99.1364 638.902 99.7764C638.55 100.416 638.06 100.918 637.43 101.28C636.812 101.632 636.108 101.808 635.318 101.808ZM631.126 104.848V93.3924H631.894V96.1284L631.766 97.5844L631.926 99.0404V104.848H631.126ZM635.27 101.088C635.91 101.088 636.486 100.944 636.998 100.656C637.51 100.358 637.91 99.9417 638.198 99.4084C638.497 98.8751 638.646 98.2617 638.646 97.5684C638.646 96.8644 638.497 96.2511 638.198 95.7284C637.91 95.1951 637.51 94.7844 636.998 94.4964C636.486 94.1977 635.91 94.0484 635.27 94.0484C634.63 94.0484 634.054 94.1977 633.542 94.4964C633.041 94.7844 632.641 95.1951 632.342 95.7284C632.054 96.2511 631.91 96.8644 631.91 97.5684C631.91 98.2617 632.054 98.8751 632.342 99.4084C632.641 99.9417 633.041 100.358 633.542 100.656C634.054 100.944 634.63 101.088 635.27 101.088ZM641.923 101.744V93.3924H642.691V95.6804L642.611 95.4244C642.846 94.7524 643.24 94.2351 643.795 93.8724C644.35 93.5097 645.043 93.3284 645.875 93.3284V94.1124C645.843 94.1124 645.811 94.1124 645.779 94.1124C645.747 94.1017 645.715 94.0964 645.683 94.0964C644.755 94.0964 644.03 94.3897 643.507 94.9764C642.984 95.5524 642.723 96.3577 642.723 97.3924V101.744H641.923ZM651.393 101.808C650.551 101.808 649.804 101.627 649.153 101.264C648.513 100.902 648.007 100.4 647.633 99.7604C647.271 99.1204 647.089 98.3897 647.089 97.5684C647.089 96.7364 647.26 96.0057 647.601 95.3764C647.953 94.7364 648.433 94.2351 649.041 93.8724C649.649 93.5097 650.332 93.3284 651.089 93.3284C651.847 93.3284 652.524 93.5044 653.121 93.8564C653.729 94.2084 654.204 94.7044 654.545 95.3444C654.897 95.9737 655.073 96.7044 655.073 97.5364C655.073 97.5684 655.068 97.6057 655.057 97.6484C655.057 97.6804 655.057 97.7177 655.057 97.7604H647.681V97.1364H654.625L654.305 97.4404C654.316 96.7897 654.177 96.2084 653.889 95.6964C653.612 95.1737 653.233 94.7684 652.753 94.4804C652.273 94.1817 651.719 94.0324 651.089 94.0324C650.471 94.0324 649.916 94.1817 649.425 94.4804C648.945 94.7684 648.567 95.1737 648.289 95.6964C648.012 96.2084 647.873 96.7951 647.873 97.4564V97.6004C647.873 98.2831 648.023 98.8911 648.321 99.4244C648.631 99.9471 649.052 100.358 649.585 100.656C650.119 100.944 650.727 101.088 651.409 101.088C651.943 101.088 652.439 100.992 652.897 100.8C653.367 100.608 653.761 100.315 654.081 99.9204L654.545 100.448C654.183 100.896 653.724 101.238 653.169 101.472C652.625 101.696 652.033 101.808 651.393 101.808ZM660.86 101.808C660.049 101.808 659.324 101.627 658.684 101.264C658.055 100.902 657.553 100.4 657.18 99.7604C656.817 99.1204 656.636 98.3897 656.636 97.5684C656.636 96.7364 656.817 96.0004 657.18 95.3604C657.553 94.7204 658.055 94.2244 658.684 93.8724C659.324 93.5097 660.049 93.3284 660.86 93.3284C661.532 93.3284 662.14 93.4564 662.684 93.7124C663.239 93.9684 663.687 94.3524 664.028 94.8644L663.436 95.2964C663.137 94.8697 662.764 94.5551 662.316 94.3524C661.868 94.1497 661.383 94.0484 660.86 94.0484C660.209 94.0484 659.623 94.1977 659.1 94.4964C658.588 94.7844 658.183 95.1951 657.884 95.7284C657.596 96.2511 657.452 96.8644 657.452 97.5684C657.452 98.2724 657.596 98.8911 657.884 99.4244C658.183 99.9471 658.588 100.358 659.1 100.656C659.623 100.944 660.209 101.088 660.86 101.088C661.383 101.088 661.868 100.987 662.316 100.784C662.764 100.582 663.137 100.267 663.436 99.8404L664.028 100.272C663.687 100.784 663.239 101.168 662.684 101.424C662.14 101.68 661.532 101.808 660.86 101.808ZM666.282 101.744V93.3924H667.082V101.744H666.282ZM666.682 91.3604C666.501 91.3604 666.346 91.2964 666.218 91.1684C666.09 91.0404 666.026 90.8911 666.026 90.7204C666.026 90.5391 666.09 90.3844 666.218 90.2564C666.346 90.1284 666.501 90.0644 666.682 90.0644C666.874 90.0644 667.029 90.1284 667.146 90.2564C667.274 90.3737 667.338 90.5231 667.338 90.7044C667.338 90.8857 667.274 91.0404 667.146 91.1684C667.029 91.2964 666.874 91.3604 666.682 91.3604ZM673.718 101.808C672.918 101.808 672.204 101.627 671.574 101.264C670.956 100.902 670.46 100.4 670.086 99.7604C669.724 99.1204 669.542 98.3897 669.542 97.5684C669.542 96.7364 669.724 96.0057 670.086 95.3764C670.46 94.7364 670.956 94.2351 671.574 93.8724C672.204 93.5097 672.918 93.3284 673.718 93.3284C674.518 93.3284 675.233 93.5097 675.862 93.8724C676.492 94.2351 676.988 94.7364 677.35 95.3764C677.713 96.0057 677.894 96.7364 677.894 97.5684C677.894 98.3897 677.713 99.1204 677.35 99.7604C676.988 100.4 676.492 100.902 675.862 101.264C675.233 101.627 674.518 101.808 673.718 101.808ZM673.718 101.088C674.358 101.088 674.934 100.944 675.446 100.656C675.958 100.358 676.358 99.9417 676.646 99.4084C676.934 98.8751 677.078 98.2617 677.078 97.5684C677.078 96.8644 676.934 96.2511 676.646 95.7284C676.358 95.1951 675.958 94.7844 675.446 94.4964C674.934 94.1977 674.358 94.0484 673.718 94.0484C673.078 94.0484 672.502 94.1977 671.99 94.4964C671.489 94.7844 671.089 95.1951 670.79 95.7284C670.502 96.2511 670.358 96.8644 670.358 97.5684C670.358 98.2617 670.502 98.8751 670.79 99.4084C671.089 99.9417 671.489 100.358 671.99 100.656C672.502 100.944 673.078 101.088 673.718 101.088ZM683.768 101.808C683.054 101.808 682.435 101.68 681.912 101.424C681.39 101.158 680.984 100.763 680.696 100.24C680.419 99.7071 680.28 99.0511 680.28 98.2724V93.3924H681.08V98.2084C681.08 99.1471 681.32 99.8617 681.8 100.352C682.28 100.843 682.958 101.088 683.832 101.088C684.462 101.088 685.006 100.955 685.464 100.688C685.923 100.422 686.275 100.048 686.52 99.5684C686.766 99.0777 686.888 98.5017 686.888 97.8404V93.3924H687.688V101.744H686.92V99.4244L687.032 99.6964C686.787 100.347 686.376 100.864 685.8 101.248C685.235 101.622 684.558 101.808 683.768 101.808ZM693.191 101.808C692.498 101.808 691.847 101.707 691.239 101.504C690.642 101.302 690.178 101.046 689.847 100.736L690.215 100.096C690.535 100.374 690.962 100.614 691.495 100.816C692.029 101.008 692.605 101.104 693.223 101.104C694.098 101.104 694.727 100.96 695.111 100.672C695.495 100.384 695.687 100.006 695.687 99.5364C695.687 99.1951 695.586 98.9284 695.383 98.7364C695.191 98.5337 694.93 98.3791 694.599 98.2724C694.269 98.1657 693.906 98.0804 693.511 98.0164C693.117 97.9417 692.722 97.8617 692.327 97.7764C691.933 97.6911 691.57 97.5684 691.239 97.4084C690.909 97.2484 690.642 97.0297 690.439 96.7524C690.247 96.4644 690.151 96.0857 690.151 95.6164C690.151 95.1897 690.269 94.8057 690.503 94.4644C690.738 94.1231 691.09 93.8511 691.559 93.6484C692.029 93.4351 692.615 93.3284 693.319 93.3284C693.842 93.3284 694.365 93.4031 694.887 93.5524C695.421 93.7017 695.853 93.8991 696.183 94.1444L695.815 94.7844C695.463 94.5177 695.069 94.3257 694.631 94.2084C694.194 94.0911 693.751 94.0324 693.303 94.0324C692.493 94.0324 691.895 94.1817 691.511 94.4804C691.138 94.7791 690.951 95.1524 690.951 95.6004C690.951 95.9524 691.047 96.2351 691.239 96.4484C691.442 96.6511 691.709 96.8111 692.039 96.9284C692.37 97.0351 692.733 97.1257 693.127 97.2004C693.522 97.2644 693.917 97.3391 694.311 97.4244C694.706 97.5097 695.069 97.6324 695.399 97.7924C695.73 97.9417 695.991 98.1551 696.183 98.4324C696.386 98.6991 696.487 99.0617 696.487 99.5204C696.487 99.9791 696.359 100.379 696.103 100.72C695.858 101.062 695.49 101.328 694.999 101.52C694.509 101.712 693.906 101.808 693.191 101.808ZM704.941 101.808C704.248 101.808 703.597 101.707 702.989 101.504C702.392 101.302 701.928 101.046 701.597 100.736L701.965 100.096C702.285 100.374 702.712 100.614 703.245 100.816C703.779 101.008 704.355 101.104 704.973 101.104C705.848 101.104 706.477 100.96 706.861 100.672C707.245 100.384 707.437 100.006 707.437 99.5364C707.437 99.1951 707.336 98.9284 707.133 98.7364C706.941 98.5337 706.68 98.3791 706.349 98.2724C706.019 98.1657 705.656 98.0804 705.261 98.0164C704.867 97.9417 704.472 97.8617 704.077 97.7764C703.683 97.6911 703.32 97.5684 702.989 97.4084C702.659 97.2484 702.392 97.0297 702.189 96.7524C701.997 96.4644 701.901 96.0857 701.901 95.6164C701.901 95.1897 702.019 94.8057 702.253 94.4644C702.488 94.1231 702.84 93.8511 703.309 93.6484C703.779 93.4351 704.365 93.3284 705.069 93.3284C705.592 93.3284 706.115 93.4031 706.637 93.5524C707.171 93.7017 707.603 93.8991 707.933 94.1444L707.565 94.7844C707.213 94.5177 706.819 94.3257 706.381 94.2084C705.944 94.0911 705.501 94.0324 705.053 94.0324C704.243 94.0324 703.645 94.1817 703.261 94.4804C702.888 94.7791 702.701 95.1524 702.701 95.6004C702.701 95.9524 702.797 96.2351 702.989 96.4484C703.192 96.6511 703.459 96.8111 703.789 96.9284C704.12 97.0351 704.483 97.1257 704.877 97.2004C705.272 97.2644 705.667 97.3391 706.061 97.4244C706.456 97.5097 706.819 97.6324 707.149 97.7924C707.48 97.9417 707.741 98.1551 707.933 98.4324C708.136 98.6991 708.237 99.0617 708.237 99.5204C708.237 99.9791 708.109 100.379 707.853 100.72C707.608 101.062 707.24 101.328 706.749 101.52C706.259 101.712 705.656 101.808 704.941 101.808ZM712.902 101.808C712.166 101.808 711.601 101.606 711.206 101.2C710.822 100.795 710.63 100.24 710.63 99.5364V91.5684H711.43V99.4564C711.43 99.9897 711.563 100.4 711.83 100.688C712.097 100.976 712.481 101.12 712.982 101.12C713.505 101.12 713.937 100.966 714.278 100.656L714.614 101.216C714.401 101.419 714.139 101.568 713.83 101.664C713.531 101.76 713.222 101.808 712.902 101.808ZM709.094 94.0804V93.3924H714.086V94.0804H709.094ZM719.812 101.808C719.012 101.808 718.297 101.627 717.668 101.264C717.049 100.902 716.553 100.4 716.18 99.7604C715.817 99.1204 715.636 98.3897 715.636 97.5684C715.636 96.7364 715.817 96.0057 716.18 95.3764C716.553 94.7364 717.049 94.2351 717.668 93.8724C718.297 93.5097 719.012 93.3284 719.812 93.3284C720.612 93.3284 721.327 93.5097 721.956 93.8724C722.585 94.2351 723.081 94.7364 723.444 95.3764C723.807 96.0057 723.988 96.7364 723.988 97.5684C723.988 98.3897 723.807 99.1204 723.444 99.7604C723.081 100.4 722.585 100.902 721.956 101.264C721.327 101.627 720.612 101.808 719.812 101.808ZM719.812 101.088C720.452 101.088 721.028 100.944 721.54 100.656C722.052 100.358 722.452 99.9417 722.74 99.4084C723.028 98.8751 723.172 98.2617 723.172 97.5684C723.172 96.8644 723.028 96.2511 722.74 95.7284C722.452 95.1951 722.052 94.7844 721.54 94.4964C721.028 94.1977 720.452 94.0484 719.812 94.0484C719.172 94.0484 718.596 94.1977 718.084 94.4964C717.583 94.7844 717.183 95.1951 716.884 95.7284C716.596 96.2511 716.452 96.8644 716.452 97.5684C716.452 98.2617 716.596 98.8751 716.884 99.4084C717.183 99.9417 717.583 100.358 718.084 100.656C718.596 100.944 719.172 101.088 719.812 101.088ZM730.55 93.3284C731.233 93.3284 731.825 93.4617 732.326 93.7284C732.838 93.9844 733.233 94.3791 733.51 94.9124C733.798 95.4351 733.942 96.0857 733.942 96.8644V101.744H733.142V96.9284C733.142 95.9897 732.902 95.2751 732.422 94.7844C731.953 94.2937 731.291 94.0484 730.438 94.0484C729.787 94.0484 729.222 94.1817 728.742 94.4484C728.262 94.7151 727.894 95.0884 727.638 95.5684C727.393 96.0484 727.27 96.6244 727.27 97.2964V101.744H726.47V93.3924H727.238V95.7124L727.126 95.4564C727.382 94.7951 727.803 94.2777 728.39 93.9044C728.977 93.5204 729.697 93.3284 730.55 93.3284ZM740.628 101.808C739.785 101.808 739.038 101.627 738.388 101.264C737.748 100.902 737.241 100.4 736.868 99.7604C736.505 99.1204 736.324 98.3897 736.324 97.5684C736.324 96.7364 736.494 96.0057 736.836 95.3764C737.188 94.7364 737.668 94.2351 738.276 93.8724C738.884 93.5097 739.566 93.3284 740.324 93.3284C741.081 93.3284 741.758 93.5044 742.356 93.8564C742.964 94.2084 743.438 94.7044 743.78 95.3444C744.132 95.9737 744.308 96.7044 744.308 97.5364C744.308 97.5684 744.302 97.6057 744.292 97.6484C744.292 97.6804 744.292 97.7177 744.292 97.7604H736.916V97.1364H743.86L743.54 97.4404C743.55 96.7897 743.412 96.2084 743.124 95.6964C742.846 95.1737 742.468 94.7684 741.988 94.4804C741.508 94.1817 740.953 94.0324 740.324 94.0324C739.705 94.0324 739.15 94.1817 738.66 94.4804C738.18 94.7684 737.801 95.1737 737.524 95.6964C737.246 96.2084 737.108 96.7951 737.108 97.4564V97.6004C737.108 98.2831 737.257 98.8911 737.556 99.4244C737.865 99.9471 738.286 100.358 738.82 100.656C739.353 100.944 739.961 101.088 740.644 101.088C741.177 101.088 741.673 100.992 742.132 100.8C742.601 100.608 742.996 100.315 743.316 99.9204L743.78 100.448C743.417 100.896 742.958 101.238 742.404 101.472C741.86 101.696 741.268 101.808 740.628 101.808ZM748.894 101.808C748.201 101.808 747.55 101.707 746.942 101.504C746.345 101.302 745.881 101.046 745.55 100.736L745.918 100.096C746.238 100.374 746.665 100.614 747.198 100.816C747.732 101.008 748.308 101.104 748.926 101.104C749.801 101.104 750.43 100.96 750.814 100.672C751.198 100.384 751.39 100.006 751.39 99.5364C751.39 99.1951 751.289 98.9284 751.086 98.7364C750.894 98.5337 750.633 98.3791 750.302 98.2724C749.972 98.1657 749.609 98.0804 749.214 98.0164C748.82 97.9417 748.425 97.8617 748.03 97.7764C747.636 97.6911 747.273 97.5684 746.942 97.4084C746.612 97.2484 746.345 97.0297 746.142 96.7524C745.95 96.4644 745.854 96.0857 745.854 95.6164C745.854 95.1897 745.972 94.8057 746.206 94.4644C746.441 94.1231 746.793 93.8511 747.262 93.6484C747.732 93.4351 748.318 93.3284 749.022 93.3284C749.545 93.3284 750.068 93.4031 750.59 93.5524C751.124 93.7017 751.556 93.8991 751.886 94.1444L751.518 94.7844C751.166 94.5177 750.772 94.3257 750.334 94.2084C749.897 94.0911 749.454 94.0324 749.006 94.0324C748.196 94.0324 747.598 94.1817 747.214 94.4804C746.841 94.7791 746.654 95.1524 746.654 95.6004C746.654 95.9524 746.75 96.2351 746.942 96.4484C747.145 96.6511 747.412 96.8111 747.742 96.9284C748.073 97.0351 748.436 97.1257 748.83 97.2004C749.225 97.2644 749.62 97.3391 750.014 97.4244C750.409 97.5097 750.772 97.6324 751.102 97.7924C751.433 97.9417 751.694 98.1551 751.886 98.4324C752.089 98.6991 752.19 99.0617 752.19 99.5204C752.19 99.9791 752.062 100.379 751.806 100.72C751.561 101.062 751.193 101.328 750.702 101.52C750.212 101.712 749.609 101.808 748.894 101.808ZM753.655 104.032L754.279 101.328L754.359 101.792C754.156 101.792 753.986 101.728 753.847 101.6C753.719 101.472 753.655 101.312 753.655 101.12C753.655 100.928 753.719 100.768 753.847 100.64C753.986 100.512 754.146 100.448 754.327 100.448C754.53 100.448 754.69 100.518 754.807 100.656C754.935 100.784 754.999 100.939 754.999 101.12C754.999 101.195 754.994 101.27 754.983 101.344C754.972 101.419 754.956 101.494 754.935 101.568C754.914 101.643 754.887 101.739 754.855 101.856L754.231 104.032H753.655ZM765.128 101.808C764.285 101.808 763.538 101.627 762.888 101.264C762.248 100.902 761.741 100.4 761.368 99.7604C761.005 99.1204 760.824 98.3897 760.824 97.5684C760.824 96.7364 760.994 96.0057 761.336 95.3764C761.688 94.7364 762.168 94.2351 762.776 93.8724C763.384 93.5097 764.066 93.3284 764.824 93.3284C765.581 93.3284 766.258 93.5044 766.856 93.8564C767.464 94.2084 767.938 94.7044 768.28 95.3444C768.632 95.9737 768.808 96.7044 768.808 97.5364C768.808 97.5684 768.802 97.6057 768.792 97.6484C768.792 97.6804 768.792 97.7177 768.792 97.7604H761.416V97.1364H768.36L768.04 97.4404C768.05 96.7897 767.912 96.2084 767.624 95.6964C767.346 95.1737 766.968 94.7684 766.488 94.4804C766.008 94.1817 765.453 94.0324 764.824 94.0324C764.205 94.0324 763.65 94.1817 763.16 94.4804C762.68 94.7684 762.301 95.1737 762.024 95.6964C761.746 96.2084 761.608 96.7951 761.608 97.4564V97.6004C761.608 98.2831 761.757 98.8911 762.056 99.4244C762.365 99.9471 762.786 100.358 763.32 100.656C763.853 100.944 764.461 101.088 765.144 101.088C765.677 101.088 766.173 100.992 766.632 100.8C767.101 100.608 767.496 100.315 767.816 99.9204L768.28 100.448C767.917 100.896 767.458 101.238 766.904 101.472C766.36 101.696 765.768 101.808 765.128 101.808ZM773.714 101.808C772.978 101.808 772.413 101.606 772.018 101.2C771.634 100.795 771.442 100.24 771.442 99.5364V91.5684H772.242V99.4564C772.242 99.9897 772.376 100.4 772.642 100.688C772.909 100.976 773.293 101.12 773.794 101.12C774.317 101.12 774.749 100.966 775.09 100.656L775.426 101.216C775.213 101.419 774.952 101.568 774.642 101.664C774.344 101.76 774.034 101.808 773.714 101.808ZM769.906 94.0804V93.3924H774.898V94.0804H769.906ZM780.673 101.808C779.862 101.808 779.137 101.627 778.497 101.264C777.867 100.902 777.366 100.4 776.993 99.7604C776.63 99.1204 776.449 98.3897 776.449 97.5684C776.449 96.7364 776.63 96.0004 776.993 95.3604C777.366 94.7204 777.867 94.2244 778.497 93.8724C779.137 93.5097 779.862 93.3284 780.673 93.3284C781.345 93.3284 781.953 93.4564 782.497 93.7124C783.051 93.9684 783.499 94.3524 783.841 94.8644L783.249 95.2964C782.95 94.8697 782.577 94.5551 782.129 94.3524C781.681 94.1497 781.195 94.0484 780.673 94.0484C780.022 94.0484 779.435 94.1977 778.913 94.4964C778.401 94.7844 777.995 95.1951 777.697 95.7284C777.409 96.2511 777.265 96.8644 777.265 97.5684C777.265 98.2724 777.409 98.8911 777.697 99.4244C777.995 99.9471 778.401 100.358 778.913 100.656C779.435 100.944 780.022 101.088 780.673 101.088C781.195 101.088 781.681 100.987 782.129 100.784C782.577 100.582 782.95 100.267 783.249 99.8404L783.841 100.272C783.499 100.784 783.051 101.168 782.497 101.424C781.953 101.68 781.345 101.808 780.673 101.808ZM786.452 101.808C786.271 101.808 786.111 101.744 785.972 101.616C785.844 101.478 785.78 101.312 785.78 101.12C785.78 100.928 785.844 100.768 785.972 100.64C786.111 100.512 786.271 100.448 786.452 100.448C786.633 100.448 786.788 100.512 786.916 100.64C787.055 100.768 787.124 100.928 787.124 101.12C787.124 101.312 787.055 101.478 786.916 101.616C786.788 101.744 786.633 101.808 786.452 101.808Z" fill="white"/>
<path d="M476.816 43.648V52H476.08V44.928L472.448 50.928H472.08L468.464 44.944V52H467.728V43.648H468.512L472.288 49.968L476.08 43.648H476.816ZM483.603 52.064C482.814 52.064 482.099 51.8827 481.459 51.52C480.83 51.1573 480.334 50.656 479.971 50.016C479.608 49.3653 479.427 48.6347 479.427 47.824C479.427 47.0133 479.608 46.288 479.971 45.648C480.334 44.9973 480.83 44.4907 481.459 44.128C482.099 43.7653 482.814 43.584 483.603 43.584C484.392 43.584 485.102 43.7653 485.731 44.128C486.371 44.4907 486.872 44.9973 487.235 45.648C487.598 46.288 487.779 47.0133 487.779 47.824C487.779 48.6347 487.598 49.3653 487.235 50.016C486.872 50.656 486.371 51.1573 485.731 51.52C485.102 51.8827 484.392 52.064 483.603 52.064ZM483.603 51.344C484.243 51.344 484.814 51.1947 485.315 50.896C485.827 50.5973 486.227 50.1813 486.515 49.648C486.814 49.1147 486.963 48.5067 486.963 47.824C486.963 47.1413 486.814 46.5333 486.515 46C486.227 45.4667 485.827 45.0507 485.315 44.752C484.814 44.4533 484.243 44.304 483.603 44.304C482.963 44.304 482.387 44.4533 481.875 44.752C481.374 45.0507 480.974 45.4667 480.675 46C480.387 46.5333 480.243 47.1413 480.243 47.824C480.243 48.5067 480.387 49.1147 480.675 49.648C480.974 50.1813 481.374 50.5973 481.875 50.896C482.387 51.1947 482.963 51.344 483.603 51.344ZM498.209 51.296V54.08H497.457V52H489.553V54.08H488.785V51.296H489.281C489.846 51.264 490.23 50.8267 490.433 49.984C490.646 49.1307 490.796 47.936 490.881 46.4L490.993 43.648H496.865V51.296H498.209ZM491.617 46.448C491.564 47.7173 491.457 48.7733 491.297 49.616C491.137 50.4587 490.849 51.0187 490.433 51.296H496.065V44.368H491.713L491.617 46.448ZM507.692 48.016H500.508C500.529 48.6667 500.694 49.248 501.004 49.76C501.313 50.2613 501.729 50.6507 502.252 50.928C502.785 51.2053 503.382 51.344 504.044 51.344C504.588 51.344 505.089 51.248 505.548 51.056C506.017 50.8533 506.406 50.56 506.716 50.176L507.18 50.704C506.817 51.1413 506.358 51.4773 505.804 51.712C505.26 51.9467 504.668 52.064 504.028 52.064C503.196 52.064 502.454 51.8827 501.804 51.52C501.153 51.1573 500.641 50.656 500.268 50.016C499.905 49.376 499.724 48.6453 499.724 47.824C499.724 47.0133 499.894 46.288 500.236 45.648C500.588 44.9973 501.068 44.4907 501.676 44.128C502.284 43.7653 502.966 43.584 503.724 43.584C504.481 43.584 505.158 43.7653 505.756 44.128C506.364 44.48 506.838 44.976 507.18 45.616C507.532 46.256 507.708 46.9813 507.708 47.792L507.692 48.016ZM503.724 44.288C503.137 44.288 502.609 44.4213 502.14 44.688C501.67 44.944 501.292 45.312 501.004 45.792C500.726 46.2613 500.566 46.7947 500.524 47.392H506.924C506.892 46.7947 506.732 46.2613 506.444 45.792C506.156 45.3227 505.777 44.9547 505.308 44.688C504.838 44.4213 504.31 44.288 503.724 44.288ZM516.647 43.648V52H515.847V44.368H511.495L511.383 46.592C511.319 47.744 511.223 48.7093 511.095 49.488C510.967 50.2667 510.748 50.896 510.439 51.376C510.129 51.856 509.703 52.096 509.159 52.096C508.999 52.096 508.769 52.0587 508.471 51.984L508.551 51.296C508.721 51.3387 508.849 51.36 508.935 51.36C509.383 51.36 509.724 51.1413 509.959 50.704C510.193 50.2667 510.353 49.7227 510.439 49.072C510.524 48.4213 510.593 47.5733 510.647 46.528L510.791 43.648H516.647ZM520.103 43.648H520.903V50.768L526.855 43.648H527.559V52H526.759V44.88L520.807 52H520.103V43.648ZM542.415 43.648V52H541.615V44.368H535.919V52H535.119V43.648H542.415ZM549.197 52.064C548.407 52.064 547.693 51.8827 547.053 51.52C546.423 51.1573 545.927 50.656 545.565 50.016C545.202 49.3653 545.021 48.6347 545.021 47.824C545.021 47.0133 545.202 46.288 545.565 45.648C545.927 44.9973 546.423 44.4907 547.053 44.128C547.693 43.7653 548.407 43.584 549.197 43.584C549.986 43.584 550.695 43.7653 551.325 44.128C551.965 44.4907 552.466 44.9973 552.829 45.648C553.191 46.288 553.373 47.0133 553.373 47.824C553.373 48.6347 553.191 49.3653 552.829 50.016C552.466 50.656 551.965 51.1573 551.325 51.52C550.695 51.8827 549.986 52.064 549.197 52.064ZM549.197 51.344C549.837 51.344 550.407 51.1947 550.909 50.896C551.421 50.5973 551.821 50.1813 552.109 49.648C552.407 49.1147 552.557 48.5067 552.557 47.824C552.557 47.1413 552.407 46.5333 552.109 46C551.821 45.4667 551.421 45.0507 550.909 44.752C550.407 44.4533 549.837 44.304 549.197 44.304C548.557 44.304 547.981 44.4533 547.469 44.752C546.967 45.0507 546.567 45.4667 546.269 46C545.981 46.5333 545.837 47.1413 545.837 47.824C545.837 48.5067 545.981 49.1147 546.269 49.648C546.567 50.1813 546.967 50.5973 547.469 50.896C547.981 51.1947 548.557 51.344 549.197 51.344ZM567.383 43.648V52H566.583V44.368H560.887V52H560.087V43.648H567.383ZM575.045 43.584C575.824 43.584 576.528 43.7653 577.157 44.128C577.787 44.4907 578.277 44.992 578.629 45.632C578.992 46.272 579.173 47.0027 579.173 47.824C579.173 48.6453 578.992 49.3813 578.629 50.032C578.277 50.672 577.787 51.1733 577.157 51.536C576.528 51.888 575.824 52.064 575.045 52.064C574.309 52.064 573.643 51.8933 573.045 51.552C572.448 51.2 571.984 50.7147 571.653 50.096V55.104H570.853V43.648H571.621V45.616C571.952 44.976 572.416 44.48 573.013 44.128C573.621 43.7653 574.299 43.584 575.045 43.584ZM574.997 51.344C575.637 51.344 576.213 51.1947 576.725 50.896C577.237 50.5973 577.637 50.1813 577.925 49.648C578.224 49.1147 578.373 48.5067 578.373 47.824C578.373 47.1413 578.224 46.5333 577.925 46C577.637 45.4667 577.237 45.0507 576.725 44.752C576.213 44.4533 575.637 44.304 574.997 44.304C574.357 44.304 573.781 44.4533 573.269 44.752C572.768 45.0507 572.368 45.4667 572.069 46C571.781 46.5333 571.637 47.1413 571.637 47.824C571.637 48.5067 571.781 49.1147 572.069 49.648C572.368 50.1813 572.768 50.5973 573.269 50.896C573.781 51.1947 574.357 51.344 574.997 51.344ZM588.895 48.016H581.711C581.732 48.6667 581.898 49.248 582.207 49.76C582.516 50.2613 582.932 50.6507 583.455 50.928C583.988 51.2053 584.586 51.344 585.247 51.344C585.791 51.344 586.292 51.248 586.751 51.056C587.22 50.8533 587.61 50.56 587.919 50.176L588.383 50.704C588.02 51.1413 587.562 51.4773 587.007 51.712C586.463 51.9467 585.871 52.064 585.231 52.064C584.399 52.064 583.658 51.8827 583.007 51.52C582.356 51.1573 581.844 50.656 581.471 50.016C581.108 49.376 580.927 48.6453 580.927 47.824C580.927 47.0133 581.098 46.288 581.439 45.648C581.791 44.9973 582.271 44.4907 582.879 44.128C583.487 43.7653 584.17 43.584 584.927 43.584C585.684 43.584 586.362 43.7653 586.959 44.128C587.567 44.48 588.042 44.976 588.383 45.616C588.735 46.256 588.911 46.9813 588.911 47.792L588.895 48.016ZM584.927 44.288C584.34 44.288 583.812 44.4213 583.343 44.688C582.874 44.944 582.495 45.312 582.207 45.792C581.93 46.2613 581.77 46.7947 581.727 47.392H588.127C588.095 46.7947 587.935 46.2613 587.647 45.792C587.359 45.3227 586.98 44.9547 586.511 44.688C586.042 44.4213 585.514 44.288 584.927 44.288ZM599.178 51.296V54.08H598.426V52H590.522V54.08H589.754V51.296H590.25C590.815 51.264 591.199 50.8267 591.402 49.984C591.615 49.1307 591.764 47.936 591.85 46.4L591.962 43.648H597.834V51.296H599.178ZM592.586 46.448C592.532 47.7173 592.426 48.7733 592.266 49.616C592.106 50.4587 591.818 51.0187 591.402 51.296H597.034V44.368H592.682L592.586 46.448ZM605.033 47.648C605.652 47.7653 606.127 48 606.457 48.352C606.799 48.6933 606.969 49.1147 606.969 49.616C606.969 50.1067 606.804 50.5387 606.473 50.912C606.153 51.2853 605.716 51.5733 605.161 51.776C604.607 51.9787 604.004 52.08 603.353 52.08C602.756 52.08 602.169 51.9893 601.593 51.808C601.028 51.616 600.532 51.344 600.105 50.992L600.425 50.4C600.799 50.72 601.241 50.9653 601.753 51.136C602.276 51.3067 602.804 51.392 603.337 51.392C604.127 51.392 604.793 51.2267 605.337 50.896C605.881 50.5547 606.153 50.1067 606.153 49.552C606.153 49.0613 605.924 48.6773 605.465 48.4C605.017 48.112 604.409 47.968 603.641 47.968H602.297V47.36H603.609C604.281 47.36 604.831 47.2267 605.257 46.96C605.695 46.6933 605.913 46.336 605.913 45.888C605.913 45.3653 605.673 44.9653 605.193 44.688C604.724 44.4 604.121 44.256 603.385 44.256C602.447 44.256 601.561 44.496 600.729 44.976L600.489 44.336C601.428 43.8133 602.425 43.552 603.481 43.552C604.409 43.552 605.183 43.7547 605.801 44.16C606.42 44.5547 606.729 45.0933 606.729 45.776C606.729 46.2133 606.575 46.5973 606.265 46.928C605.956 47.2587 605.545 47.4987 605.033 47.648ZM612.527 43.584C613.562 43.584 614.357 43.8507 614.911 44.384C615.466 44.9067 615.743 45.68 615.743 46.704V52H614.975V50.512C614.709 51.0027 614.319 51.3867 613.807 51.664C613.295 51.9307 612.682 52.064 611.967 52.064C611.039 52.064 610.303 51.8453 609.759 51.408C609.226 50.9707 608.959 50.3947 608.959 49.68C608.959 48.9867 609.205 48.4267 609.695 48C610.197 47.5627 610.991 47.344 612.079 47.344H614.943V46.672C614.943 45.8933 614.73 45.3013 614.303 44.896C613.887 44.4907 613.274 44.288 612.463 44.288C611.909 44.288 611.375 44.384 610.863 44.576C610.362 44.768 609.935 45.024 609.583 45.344L609.183 44.768C609.599 44.3947 610.101 44.1067 610.687 43.904C611.274 43.6907 611.887 43.584 612.527 43.584ZM612.079 51.408C612.773 51.408 613.359 51.248 613.839 50.928C614.33 50.608 614.698 50.144 614.943 49.536V47.968H612.095C611.274 47.968 610.677 48.1173 610.303 48.416C609.941 48.7147 609.759 49.1253 609.759 49.648C609.759 50.192 609.962 50.624 610.367 50.944C610.773 51.2533 611.343 51.408 612.079 51.408ZM621.826 48.128H619.794V52H618.994V43.648H619.794V47.44H621.826L624.978 43.648H625.858L622.466 47.696L626.114 52H625.154L621.826 48.128ZM630.699 43.584C631.734 43.584 632.528 43.8507 633.083 44.384C633.638 44.9067 633.915 45.68 633.915 46.704V52H633.147V50.512C632.88 51.0027 632.491 51.3867 631.979 51.664C631.467 51.9307 630.854 52.064 630.139 52.064C629.211 52.064 628.475 51.8453 627.931 51.408C627.398 50.9707 627.131 50.3947 627.131 49.68C627.131 48.9867 627.376 48.4267 627.867 48C628.368 47.5627 629.163 47.344 630.251 47.344H633.115V46.672C633.115 45.8933 632.902 45.3013 632.475 44.896C632.059 44.4907 631.446 44.288 630.635 44.288C630.08 44.288 629.547 44.384 629.035 44.576C628.534 44.768 628.107 45.024 627.755 45.344L627.355 44.768C627.771 44.3947 628.272 44.1067 628.859 43.904C629.446 43.6907 630.059 43.584 630.699 43.584ZM630.251 51.408C630.944 51.408 631.531 51.248 632.011 50.928C632.502 50.608 632.87 50.144 633.115 49.536V47.968H630.267C629.446 47.968 628.848 48.1173 628.475 48.416C628.112 48.7147 627.931 49.1253 627.931 49.648C627.931 50.192 628.134 50.624 628.539 50.944C628.944 51.2533 629.515 51.408 630.251 51.408ZM640.658 47.648C641.277 47.7653 641.752 48 642.082 48.352C642.424 48.6933 642.594 49.1147 642.594 49.616C642.594 50.1067 642.429 50.5387 642.098 50.912C641.778 51.2853 641.341 51.5733 640.786 51.776C640.232 51.9787 639.629 52.08 638.978 52.08C638.381 52.08 637.794 51.9893 637.218 51.808C636.653 51.616 636.157 51.344 635.73 50.992L636.05 50.4C636.424 50.72 636.866 50.9653 637.378 51.136C637.901 51.3067 638.429 51.392 638.962 51.392C639.752 51.392 640.418 51.2267 640.962 50.896C641.506 50.5547 641.778 50.1067 641.778 49.552C641.778 49.0613 641.549 48.6773 641.09 48.4C640.642 48.112 640.034 47.968 639.266 47.968H637.922V47.36H639.234C639.906 47.36 640.456 47.2267 640.882 46.96C641.32 46.6933 641.538 46.336 641.538 45.888C641.538 45.3653 641.298 44.9653 640.818 44.688C640.349 44.4 639.746 44.256 639.01 44.256C638.072 44.256 637.186 44.496 636.354 44.976L636.114 44.336C637.053 43.8133 638.05 43.552 639.106 43.552C640.034 43.552 640.808 43.7547 641.426 44.16C642.045 44.5547 642.354 45.0933 642.354 45.776C642.354 46.2133 642.2 46.5973 641.89 46.928C641.581 47.2587 641.17 47.4987 640.658 47.648ZM652.184 43.648L647.896 53.136C647.576 53.872 647.203 54.3947 646.776 54.704C646.36 55.0133 645.864 55.168 645.288 55.168C644.904 55.168 644.542 55.104 644.2 54.976C643.87 54.848 643.587 54.6613 643.352 54.416L643.752 53.808C644.179 54.2453 644.696 54.464 645.304 54.464C645.71 54.464 646.056 54.352 646.344 54.128C646.632 53.904 646.899 53.52 647.144 52.976L647.592 51.968L643.832 43.648H644.68L648.024 51.12L651.368 43.648H652.184Z" fill="white"/>
<defs>
<linearGradient id="paint0_linear_68_2623" x1="-12.7651" y1="67.3186" x2="457.784" y2="101.623" gradientUnits="userSpaceOnUse">
<stop stop-color="#A9A9A9"/>
<stop offset="0.552083" stop-color="#548FC1" stop-opacity="0.51"/>
<stop offset="1" stop-opacity="0.25"/>
</linearGradient>
</defs>
</svg>
