<svg width="385" height="320" viewBox="0 0 385 320" fill="none" xmlns="http://www.w3.org/2000/svg">
<path d="M16.12 62V59.95H26.78V2.222H20.548C17.9787 2.33133 15.792 3.26066 13.988 5.01C12.184 6.70466 10.79 8.89133 9.806 11.57C8.822 14.2487 8.30267 17.146 8.248 20.262H5.378V0.171999H58.514V20.262H55.644C55.5893 17.0367 55.0427 14.0573 54.004 11.324C52.9653 8.59066 51.4893 6.404 49.576 4.764C47.7173 3.06933 45.4213 2.222 42.688 2.222H37.768V59.95H48.428V62H16.12ZM91.6868 60.77V33.054C91.6868 30.9767 91.2222 29.446 90.2928 28.462C89.4182 27.4233 88.1608 26.904 86.5208 26.904C84.6622 26.904 82.9402 27.642 81.3548 29.118C79.8242 30.594 78.5942 32.6167 77.6648 35.186C76.7902 37.7007 76.3528 40.5707 76.3528 43.796L74.7128 31.906H76.6808C77.8835 29.6647 79.4962 27.806 81.5188 26.33C83.5415 24.854 86.1655 24.116 89.3908 24.116C92.7255 24.116 95.4315 24.9907 97.5088 26.74C99.6408 28.4347 100.707 30.5393 100.707 33.054V60.77H91.6868ZM60.8548 62V59.95H81.6828V62H60.8548ZM85.4548 62V59.95H106.283V62H85.4548ZM67.3328 60.77V1.484H76.3528V60.77H67.3328ZM60.8548 2.222V0.171999H76.3528V2.222H60.8548ZM130.531 62.984C127.907 62.984 125.419 62.4647 123.069 61.426C120.773 60.3327 118.75 58.884 117.001 57.08C115.251 55.2213 113.885 53.144 112.901 50.848C111.917 48.4973 111.425 46.0647 111.425 43.55C111.425 40.2153 112.19 37.072 113.721 34.12C115.306 31.168 117.493 28.7627 120.281 26.904C123.069 25.0453 126.349 24.116 130.121 24.116C133.073 24.116 135.724 24.7993 138.075 26.166C140.48 27.478 142.366 29.3367 143.733 31.742C145.099 34.1473 145.783 36.908 145.783 40.024V40.516H118.969V38.466H136.271V33.792C136.271 28.8173 134.084 26.33 129.71 26.33C127.907 26.33 126.431 26.8767 125.283 27.97C124.189 29.0087 123.369 30.7853 122.823 33.3C122.331 35.8147 122.085 39.2313 122.085 43.55C122.085 47.978 122.358 51.422 122.905 53.882C123.451 56.342 124.353 58.064 125.611 59.048C126.923 60.032 128.645 60.524 130.777 60.524C133.674 60.524 136.189 59.786 138.321 58.31C140.453 56.834 142.257 54.2647 143.733 50.602H146.029C144.935 54.4287 142.995 57.4627 140.207 59.704C137.473 61.8907 134.248 62.984 130.531 62.984ZM2.508 136V133.95H30.88C33.4493 133.95 35.636 133.567 37.44 132.802C39.2987 131.982 40.72 130.479 41.704 128.292C42.688 126.105 43.18 122.962 43.18 118.862C43.18 115.145 42.7153 112.275 41.786 110.252C40.8567 108.175 39.326 106.726 37.194 105.906C35.062 105.086 32.1373 104.676 28.42 104.676L25.96 102.216C31.6453 102.216 36.7293 102.845 41.212 104.102C45.6947 105.305 49.2207 107.163 51.79 109.678C54.414 112.193 55.726 115.391 55.726 119.272C55.726 122.552 54.7693 125.449 52.856 127.964C50.9973 130.479 48.428 132.447 45.148 133.868C41.9227 135.289 38.26 136 34.16 136H2.508ZM11.528 134.77V74.172H22.516V134.77H11.528ZM19.974 104.676V102.216H30.88C33.3947 102.216 35.4173 101.888 36.948 101.232C38.5333 100.521 39.6813 99.264 40.392 97.46C41.1573 95.6013 41.54 92.9227 41.54 89.424C41.54 85.7067 41.1573 82.9187 40.392 81.06C39.6267 79.1467 38.4513 77.862 36.866 77.206C35.2807 76.55 33.2853 76.222 30.88 76.222H2.508V74.172H34.16C37.768 74.172 41.0207 74.828 43.918 76.14C46.8153 77.3973 49.1113 79.1467 50.806 81.388C52.5553 83.6293 53.43 86.1987 53.43 89.096C53.43 92.1573 52.4187 94.8633 50.396 97.214C48.3733 99.5647 45.6673 101.396 42.278 102.708C38.8887 104.02 35.0893 104.676 30.88 104.676H19.974ZM74.0223 136.984C71.0703 136.984 68.6649 136.137 66.8063 134.442C64.9476 132.747 64.0183 130.533 64.0183 127.8C64.0183 125.176 64.8929 122.935 66.6423 121.076C68.4463 119.217 70.9883 117.796 74.2683 116.812C77.5483 115.773 81.4296 115.254 85.9123 115.254V105.25C85.9123 103.829 85.3656 102.708 84.2723 101.888C83.1789 101.068 81.6756 100.658 79.7623 100.658C78.1223 100.658 76.7829 100.931 75.7443 101.478C74.7056 102.025 74.1863 102.735 74.1863 103.61C74.1863 104.157 74.3776 104.649 74.7603 105.086C75.1429 105.523 75.3343 106.207 75.3343 107.136C75.3343 108.284 74.8969 109.241 74.0223 110.006C73.2023 110.717 72.1363 111.072 70.8243 111.072C69.5123 111.072 68.4736 110.689 67.7083 109.924C66.9429 109.104 66.5603 108.093 66.5603 106.89C66.5603 105.25 67.2163 103.774 68.5283 102.462C69.8403 101.095 71.6169 100.029 73.8583 99.264C76.0996 98.4987 78.6143 98.116 81.4023 98.116C85.3929 98.116 88.6456 98.9087 91.1603 100.494C93.6749 102.025 94.9323 104.047 94.9323 106.562V131.49C94.9323 132.037 95.0963 132.501 95.4243 132.884C95.8069 133.212 96.2443 133.376 96.7363 133.376C97.2283 133.376 97.8023 133.13 98.4583 132.638C99.1143 132.091 99.9343 131.271 100.918 130.178L102.066 131.49C99.4969 135.153 96.6269 136.984 93.4563 136.984C91.5429 136.984 89.9576 136.465 88.7003 135.426C87.4976 134.333 86.6776 132.829 86.2403 130.916H85.9123C84.8736 132.665 83.2336 134.114 80.9923 135.262C78.7509 136.41 76.4276 136.984 74.0223 136.984ZM78.9423 132.474C81.0196 132.474 82.6869 131.709 83.9443 130.178C85.2563 128.593 85.9123 126.543 85.9123 124.028V117.386C81.8123 117.386 78.7236 118.151 76.6463 119.682C74.5689 121.158 73.5303 123.345 73.5303 126.242C73.5303 128.21 73.9949 129.741 74.9243 130.834C75.9083 131.927 77.2476 132.474 78.9423 132.474ZM133.789 134.77L119.193 115.582L126.737 110.908L145.515 134.77H133.789ZM103.121 136V133.95H123.129V136H103.121ZM128.213 136V133.95H148.385V136H128.213ZM109.599 134.77V75.484H118.619V134.77H109.599ZM122.719 115.582H119.193L134.199 100.494H137.725L122.719 115.582ZM103.121 76.222V74.172H118.619V76.222H103.121ZM125.507 101.15V99.1H144.531V101.15H125.507ZM176.631 134.77L162.035 115.582L169.579 110.908L188.357 134.77H176.631ZM145.963 136V133.95H165.971V136H145.963ZM171.055 136V133.95H191.227V136H171.055ZM152.441 134.77V75.484H161.461V134.77H152.441ZM165.561 115.582H162.035L177.041 100.494H180.567L165.561 115.582ZM145.963 76.222V74.172H161.461V76.222H145.963ZM168.349 101.15V99.1H187.373V101.15H168.349ZM209.901 136.984C207.223 136.984 204.708 136.437 202.357 135.344C200.061 134.251 198.011 132.802 196.207 130.998C194.458 129.139 193.091 127.062 192.107 124.766C191.123 122.415 190.631 120.01 190.631 117.55C190.631 115.09 191.123 112.712 192.107 110.416C193.091 108.065 194.458 105.988 196.207 104.184C198.011 102.325 200.061 100.849 202.357 99.756C204.708 98.6627 207.223 98.116 209.901 98.116C212.58 98.116 215.067 98.6627 217.363 99.756C219.714 100.849 221.764 102.325 223.513 104.184C225.317 105.988 226.711 108.065 227.695 110.416C228.679 112.712 229.171 115.09 229.171 117.55C229.171 120.01 228.679 122.415 227.695 124.766C226.711 127.062 225.317 129.139 223.513 130.998C221.764 132.802 219.714 134.251 217.363 135.344C215.067 136.437 212.58 136.984 209.901 136.984ZM209.901 134.524C211.979 134.524 213.646 134.059 214.903 133.13C216.161 132.201 217.063 130.533 217.609 128.128C218.211 125.668 218.511 122.142 218.511 117.55C218.511 112.958 218.211 109.432 217.609 106.972C217.063 104.512 216.161 102.845 214.903 101.97C213.646 101.041 211.979 100.576 209.901 100.576C207.824 100.576 206.157 101.041 204.899 101.97C203.642 102.845 202.713 104.512 202.111 106.972C201.565 109.432 201.291 112.958 201.291 117.55C201.291 122.142 201.565 125.668 202.111 128.128C202.713 130.533 203.642 132.201 204.899 133.13C206.157 134.059 207.824 134.524 209.901 134.524ZM250.616 136.984C247.446 136.984 244.849 136.137 242.826 134.442C240.858 132.693 239.874 130.561 239.874 128.046V100.33H248.894V127.8C248.894 129.823 249.304 131.353 250.124 132.392C250.944 133.431 252.065 133.95 253.486 133.95C255.181 133.95 256.739 133.212 258.16 131.736C259.636 130.26 260.812 128.265 261.686 125.75C262.616 123.235 263.08 120.42 263.08 117.304L264.72 129.604H262.752C261.55 131.736 259.992 133.513 258.078 134.934C256.165 136.301 253.678 136.984 250.616 136.984ZM263.08 136V133.95H278.578V136H263.08ZM233.478 101.15V99.1H248.894V101.15H233.478ZM263.08 134.688V100.33H272.1V134.688H263.08ZM256.356 101.15V99.1H272.1V101.15H256.356ZM281.966 136V133.95H288.444V101.15H281.966V99.1H297.464V105.578H297.792C299.159 102.626 300.717 100.658 302.466 99.674C304.27 98.6353 305.937 98.116 307.468 98.116C309.217 98.116 310.584 98.6353 311.568 99.674C312.607 100.658 313.126 102.079 313.126 103.938C313.126 105.633 312.607 106.89 311.568 107.71C310.584 108.475 309.463 108.858 308.206 108.858C307.167 108.858 306.211 108.585 305.336 108.038C304.516 107.437 304.106 106.617 304.106 105.578C304.106 105.25 304.133 104.977 304.188 104.758C304.297 104.485 304.352 104.211 304.352 103.938C304.352 103.665 304.27 103.419 304.106 103.2C303.942 102.981 303.587 102.872 303.04 102.872C302.329 102.872 301.537 103.446 300.662 104.594C299.787 105.687 299.022 107.191 298.366 109.104C297.765 110.963 297.464 113.04 297.464 115.336V133.95H304.844V136H281.966ZM328.11 136.984C325.158 136.984 322.753 136.137 320.894 134.442C319.035 132.747 318.106 130.533 318.106 127.8C318.106 125.176 318.981 122.935 320.73 121.076C322.534 119.217 325.076 117.796 328.356 116.812C331.636 115.773 335.517 115.254 340 115.254V105.25C340 103.829 339.453 102.708 338.36 101.888C337.267 101.068 335.763 100.658 333.85 100.658C332.21 100.658 330.871 100.931 329.832 101.478C328.793 102.025 328.274 102.735 328.274 103.61C328.274 104.157 328.465 104.649 328.848 105.086C329.231 105.523 329.422 106.207 329.422 107.136C329.422 108.284 328.985 109.241 328.11 110.006C327.29 110.717 326.224 111.072 324.912 111.072C323.6 111.072 322.561 110.689 321.796 109.924C321.031 109.104 320.648 108.093 320.648 106.89C320.648 105.25 321.304 103.774 322.616 102.462C323.928 101.095 325.705 100.029 327.946 99.264C330.187 98.4987 332.702 98.116 335.49 98.116C339.481 98.116 342.733 98.9087 345.248 100.494C347.763 102.025 349.02 104.047 349.02 106.562V131.49C349.02 132.037 349.184 132.501 349.512 132.884C349.895 133.212 350.332 133.376 350.824 133.376C351.316 133.376 351.89 133.13 352.546 132.638C353.202 132.091 354.022 131.271 355.006 130.178L356.154 131.49C353.585 135.153 350.715 136.984 347.544 136.984C345.631 136.984 344.045 136.465 342.788 135.426C341.585 134.333 340.765 132.829 340.328 130.916H340C338.961 132.665 337.321 134.114 335.08 135.262C332.839 136.41 330.515 136.984 328.11 136.984ZM333.03 132.474C335.107 132.474 336.775 131.709 338.032 130.178C339.344 128.593 340 126.543 340 124.028V117.386C335.9 117.386 332.811 118.151 330.734 119.682C328.657 121.158 327.618 123.345 327.618 126.242C327.618 128.21 328.083 129.741 329.012 130.834C329.996 131.927 331.335 132.474 333.03 132.474ZM3.902 210V207.95H31.372C34.7613 207.95 37.6313 207.54 39.982 206.72C42.3327 205.9 44.246 204.451 45.722 202.374C47.198 200.242 48.264 197.29 48.92 193.518C49.6307 189.746 49.986 184.935 49.986 179.086C49.986 173.237 49.6307 168.426 48.92 164.654C48.264 160.882 47.1707 157.957 45.64 155.88C44.164 153.748 42.2507 152.272 39.9 151.452C37.5493 150.632 34.6793 150.222 31.29 150.222H3.902V148.172H33.914C38.014 148.172 41.8133 149.019 45.312 150.714C48.8653 152.354 51.9813 154.623 54.66 157.52C57.3387 160.417 59.416 163.725 60.892 167.442C62.368 171.159 63.106 175.041 63.106 179.086C63.106 183.131 62.3407 187.013 60.81 190.73C59.334 194.447 57.2567 197.755 54.578 200.652C51.954 203.549 48.8653 205.845 45.312 207.54C41.7587 209.18 37.932 210 33.832 210H3.902ZM12.922 208.77V148.172H23.91V208.77H12.922ZM72.9742 236.732C71.6075 236.732 70.5415 236.459 69.7762 235.912C69.0109 235.365 68.4642 234.709 68.1362 233.944C67.8629 233.179 67.7262 232.468 67.7262 231.812C67.7262 230.5 68.1089 229.434 68.8742 228.614C69.6942 227.849 70.7055 227.466 71.9082 227.466C73.0015 227.466 73.8489 227.712 74.4502 228.204C75.0515 228.751 75.5435 229.27 75.9262 229.762C76.3635 230.309 76.8282 230.582 77.3202 230.582C77.7575 230.582 78.0855 230.391 78.3042 230.008C78.5775 229.625 78.7962 229.188 78.9602 228.696L98.3942 174.576H101.346L81.6662 227.712C80.2995 231.375 78.8782 233.78 77.4022 234.928C75.9262 236.131 74.4502 236.732 72.9742 236.732ZM86.2582 208.77L70.1042 173.92L80.0262 173.428L90.1122 196.962H90.6042L86.2582 208.77ZM65.8402 175.15V173.1H86.1762V175.15H65.8402ZM92.0802 175.15V173.1H107.496V175.15H92.0802ZM139.257 208.77V181.054C139.257 176.954 137.617 174.904 134.337 174.904C132.533 174.904 130.866 175.642 129.335 177.118C127.859 178.594 126.656 180.617 125.727 183.186C124.852 185.701 124.415 188.571 124.415 191.796L122.775 179.906H124.743C125.891 177.665 127.449 175.806 129.417 174.33C131.44 172.854 134.036 172.116 137.207 172.116C140.432 172.116 143.084 172.991 145.161 174.74C147.238 176.435 148.277 178.539 148.277 181.054V208.77H139.257ZM108.917 210V207.95H129.745V210H108.917ZM115.395 208.77V174.412H124.415V208.77H115.395ZM133.025 210V207.95H153.853V210H133.025ZM108.917 175.15V173.1H124.415V175.15H108.917ZM168.835 210.984C165.883 210.984 163.477 210.137 161.619 208.442C159.76 206.747 158.831 204.533 158.831 201.8C158.831 199.176 159.705 196.935 161.455 195.076C163.259 193.217 165.801 191.796 169.081 190.812C172.361 189.773 176.242 189.254 180.725 189.254V179.25C180.725 177.829 180.178 176.708 179.085 175.888C177.991 175.068 176.488 174.658 174.575 174.658C172.935 174.658 171.595 174.931 170.557 175.478C169.518 176.025 168.999 176.735 168.999 177.61C168.999 178.157 169.19 178.649 169.573 179.086C169.955 179.523 170.147 180.207 170.147 181.136C170.147 182.284 169.709 183.241 168.835 184.006C168.015 184.717 166.949 185.072 165.637 185.072C164.325 185.072 163.286 184.689 162.521 183.924C161.755 183.104 161.373 182.093 161.373 180.89C161.373 179.25 162.029 177.774 163.341 176.462C164.653 175.095 166.429 174.029 168.671 173.264C170.912 172.499 173.427 172.116 176.215 172.116C180.205 172.116 183.458 172.909 185.973 174.494C188.487 176.025 189.745 178.047 189.745 180.562V205.49C189.745 206.037 189.909 206.501 190.237 206.884C190.619 207.212 191.057 207.376 191.549 207.376C192.041 207.376 192.615 207.13 193.271 206.638C193.927 206.091 194.747 205.271 195.731 204.178L196.879 205.49C194.309 209.153 191.439 210.984 188.269 210.984C186.355 210.984 184.77 210.465 183.513 209.426C182.31 208.333 181.49 206.829 181.053 204.916H180.725C179.686 206.665 178.046 208.114 175.805 209.262C173.563 210.41 171.24 210.984 168.835 210.984ZM173.755 206.474C175.832 206.474 177.499 205.709 178.757 204.178C180.069 202.593 180.725 200.543 180.725 198.028V191.386C176.625 191.386 173.536 192.151 171.459 193.682C169.381 195.158 168.343 197.345 168.343 200.242C168.343 202.21 168.807 203.741 169.737 204.834C170.721 205.927 172.06 206.474 173.755 206.474ZM216.547 210.984C214.306 210.984 212.119 210.601 209.987 209.836C207.91 209.071 206.215 208.059 204.903 206.802L203.673 210H201.295V197.454H203.919L204.329 199.012C205.095 201.964 206.461 204.205 208.429 205.736C210.452 207.267 213.131 208.032 216.465 208.032C219.199 208.032 221.112 207.567 222.205 206.638C223.299 205.654 223.845 204.26 223.845 202.456C223.845 200.652 223.107 199.34 221.631 198.52C220.155 197.645 217.887 196.88 214.825 196.224C212.201 195.677 209.905 194.994 207.937 194.174C206.024 193.299 204.521 192.097 203.427 190.566C202.334 188.981 201.787 186.821 201.787 184.088C201.787 180.207 202.908 177.255 205.149 175.232C207.391 173.155 210.589 172.116 214.743 172.116C217.094 172.116 219.117 172.444 220.811 173.1C222.561 173.756 223.791 174.658 224.501 175.806L225.403 173.1H227.535V184.99H224.993L224.747 183.76C224.146 180.699 223.08 178.485 221.549 177.118C220.073 175.751 217.859 175.068 214.907 175.068C212.283 175.068 210.315 175.587 209.003 176.626C207.746 177.61 207.117 179.004 207.117 180.808C207.117 181.683 207.363 182.475 207.855 183.186C208.347 183.842 209.249 184.443 210.561 184.99C211.928 185.537 213.814 186.083 216.219 186.63C219.007 187.231 221.358 187.997 223.271 188.926C225.185 189.855 226.633 191.085 227.617 192.616C228.656 194.147 229.175 196.142 229.175 198.602C229.175 202.374 228.027 205.381 225.731 207.622C223.435 209.863 220.374 210.984 216.547 210.984ZM249.617 211.066C246.774 211.066 244.642 210.492 243.221 209.344C241.854 208.196 241.171 206.474 241.171 204.178V175.232H234.529V173.182C236.442 173.018 238.219 172.28 239.859 170.968C241.554 169.601 243.084 167.879 244.451 165.802C245.872 163.725 247.02 161.456 247.895 158.996H250.191V173.182H259.621V175.232H250.191V203.604C250.191 206.064 251.202 207.294 253.225 207.294C254.373 207.294 255.412 206.911 256.341 206.146C257.325 205.326 258.336 203.987 259.375 202.128L261.015 203.03C259.648 206.037 258.09 208.141 256.341 209.344C254.592 210.492 252.35 211.066 249.617 211.066ZM268.765 236.732C267.399 236.732 266.333 236.459 265.567 235.912C264.802 235.365 264.255 234.709 263.927 233.944C263.654 233.179 263.517 232.468 263.517 231.812C263.517 230.5 263.9 229.434 264.665 228.614C265.485 227.849 266.497 227.466 267.699 227.466C268.793 227.466 269.64 227.712 270.241 228.204C270.843 228.751 271.335 229.27 271.717 229.762C272.155 230.309 272.619 230.582 273.111 230.582C273.549 230.582 273.877 230.391 274.095 230.008C274.369 229.625 274.587 229.188 274.751 228.696L294.185 174.576H297.137L277.457 227.712C276.091 231.375 274.669 233.78 273.193 234.928C271.717 236.131 270.241 236.732 268.765 236.732ZM282.049 208.77L265.895 173.92L275.817 173.428L285.903 196.962H286.395L282.049 208.77ZM261.631 175.15V173.1H281.967V175.15H261.631ZM287.871 175.15V173.1H303.287V175.15H287.871Z" fill="url(#paint0_linear_396_3884)"/>
<path d="M3.584 256.844H0.056V256.2H7.826V256.844H4.298V266H3.584V256.844ZM12.9427 258.636C13.8573 258.636 14.5807 258.902 15.1127 259.434C15.6447 259.966 15.9107 260.731 15.9107 261.73V266H15.2107V261.786C15.2107 260.965 15.0007 260.339 14.5807 259.91C14.17 259.481 13.5913 259.266 12.8447 259.266C11.986 259.266 11.3093 259.523 10.8147 260.036C10.32 260.549 10.0727 261.24 10.0727 262.108V266H9.37267V255.612H10.0727V260.218C10.3247 259.714 10.698 259.327 11.1927 259.056C11.6873 258.776 12.2707 258.636 12.9427 258.636ZM24.9803 262.514H18.6943C18.7129 263.083 18.8576 263.592 19.1283 264.04C19.3989 264.479 19.7629 264.819 20.2203 265.062C20.6869 265.305 21.2096 265.426 21.7883 265.426C22.2643 265.426 22.7029 265.342 23.1043 265.174C23.5149 264.997 23.8556 264.74 24.1263 264.404L24.5323 264.866C24.2149 265.249 23.8136 265.543 23.3283 265.748C22.8523 265.953 22.3343 266.056 21.7743 266.056C21.0463 266.056 20.3976 265.897 19.8283 265.58C19.2589 265.263 18.8109 264.824 18.4843 264.264C18.1669 263.704 18.0083 263.065 18.0083 262.346C18.0083 261.637 18.1576 261.002 18.4563 260.442C18.7643 259.873 19.1843 259.429 19.7163 259.112C20.2483 258.795 20.8456 258.636 21.5083 258.636C22.1709 258.636 22.7636 258.795 23.2863 259.112C23.8183 259.42 24.2336 259.854 24.5323 260.414C24.8403 260.974 24.9943 261.609 24.9943 262.318L24.9803 262.514ZM21.5083 259.252C20.9949 259.252 20.5329 259.369 20.1223 259.602C19.7116 259.826 19.3803 260.148 19.1283 260.568C18.8856 260.979 18.7456 261.445 18.7083 261.968H24.3083C24.2803 261.445 24.1403 260.979 23.8883 260.568C23.6363 260.157 23.3049 259.835 22.8943 259.602C22.4836 259.369 22.0216 259.252 21.5083 259.252ZM41.1995 258.692L38.4275 266H37.7695L35.3055 259.658L32.8275 266H32.1835L29.4115 258.692H30.0835L32.5195 265.216L35.0115 258.692H35.6135L38.0915 265.202L40.5555 258.692H41.1995ZM42.8278 258.692H43.5278V266H42.8278V258.692ZM43.1778 256.914C43.0191 256.914 42.8838 256.863 42.7718 256.76C42.6598 256.648 42.6038 256.513 42.6038 256.354C42.6038 256.195 42.6598 256.06 42.7718 255.948C42.8838 255.836 43.0191 255.78 43.1778 255.78C43.3364 255.78 43.4718 255.836 43.5838 255.948C43.6958 256.051 43.7518 256.181 43.7518 256.34C43.7518 256.499 43.6958 256.634 43.5838 256.746C43.4718 256.858 43.3364 256.914 43.1778 256.914ZM50.0481 258.636C50.9628 258.636 51.6861 258.902 52.2181 259.434C52.7501 259.966 53.0161 260.731 53.0161 261.73V266H52.3161V261.786C52.3161 260.965 52.1061 260.339 51.6861 259.91C51.2755 259.481 50.6968 259.266 49.9501 259.266C49.0915 259.266 48.4148 259.523 47.9201 260.036C47.4255 260.549 47.1781 261.24 47.1781 262.108V266H46.4781V258.692H47.1501V260.274C47.4021 259.761 47.7755 259.359 48.2701 259.07C48.7741 258.781 49.3668 258.636 50.0481 258.636ZM58.5021 262.094L56.5981 263.83V266H55.8981V255.612H56.5981V262.962L61.2741 258.692H62.1701L59.0201 261.646L62.4781 266H61.6101L58.5021 262.094ZM70.6222 266.056C69.9129 266.056 69.2782 265.897 68.7182 265.58C68.1582 265.263 67.7196 264.824 67.4022 264.264C67.0849 263.695 66.9262 263.055 66.9262 262.346C66.9262 261.627 67.0849 260.988 67.4022 260.428C67.7196 259.859 68.1582 259.42 68.7182 259.112C69.2782 258.795 69.9129 258.636 70.6222 258.636C71.2102 258.636 71.7422 258.753 72.2182 258.986C72.7036 259.21 73.0956 259.541 73.3942 259.98L72.8762 260.358C72.6149 259.994 72.2882 259.723 71.8962 259.546C71.5136 259.359 71.0889 259.266 70.6222 259.266C70.0529 259.266 69.5396 259.397 69.0822 259.658C68.6342 259.91 68.2796 260.269 68.0182 260.736C67.7662 261.203 67.6402 261.739 67.6402 262.346C67.6402 262.953 67.7662 263.489 68.0182 263.956C68.2796 264.423 68.6342 264.787 69.0822 265.048C69.5396 265.3 70.0529 265.426 70.6222 265.426C71.0889 265.426 71.5136 265.337 71.8962 265.16C72.2882 264.973 72.6149 264.698 72.8762 264.334L73.3942 264.712C73.0956 265.151 72.7036 265.487 72.2182 265.72C71.7422 265.944 71.2102 266.056 70.6222 266.056ZM78.2228 266.056C77.5321 266.056 76.9068 265.897 76.3468 265.58C75.7961 265.263 75.3621 264.824 75.0448 264.264C74.7275 263.695 74.5688 263.055 74.5688 262.346C74.5688 261.637 74.7275 261.002 75.0448 260.442C75.3621 259.873 75.7961 259.429 76.3468 259.112C76.9068 258.795 77.5321 258.636 78.2228 258.636C78.9135 258.636 79.5341 258.795 80.0848 259.112C80.6448 259.429 81.0835 259.873 81.4008 260.442C81.7181 261.002 81.8768 261.637 81.8768 262.346C81.8768 263.055 81.7181 263.695 81.4008 264.264C81.0835 264.824 80.6448 265.263 80.0848 265.58C79.5341 265.897 78.9135 266.056 78.2228 266.056ZM78.2228 265.426C78.7828 265.426 79.2821 265.295 79.7208 265.034C80.1688 264.773 80.5188 264.409 80.7708 263.942C81.0321 263.475 81.1628 262.943 81.1628 262.346C81.1628 261.749 81.0321 261.217 80.7708 260.75C80.5188 260.283 80.1688 259.919 79.7208 259.658C79.2821 259.397 78.7828 259.266 78.2228 259.266C77.6628 259.266 77.1588 259.397 76.7108 259.658C76.2721 259.919 75.9221 260.283 75.6608 260.75C75.4088 261.217 75.2828 261.749 75.2828 262.346C75.2828 262.943 75.4088 263.475 75.6608 263.942C75.9221 264.409 76.2721 264.773 76.7108 265.034C77.1588 265.295 77.6628 265.426 78.2228 265.426ZM84.0485 255.612H84.7485V266H84.0485V255.612ZM87.6988 255.612H88.3988V266H87.6988V255.612ZM97.5232 262.514H91.2372C91.2559 263.083 91.4006 263.592 91.6712 264.04C91.9419 264.479 92.3059 264.819 92.7632 265.062C93.2299 265.305 93.7526 265.426 94.3312 265.426C94.8072 265.426 95.2459 265.342 95.6472 265.174C96.0579 264.997 96.3986 264.74 96.6692 264.404L97.0752 264.866C96.7579 265.249 96.3566 265.543 95.8712 265.748C95.3952 265.953 94.8772 266.056 94.3172 266.056C93.5892 266.056 92.9406 265.897 92.3712 265.58C91.8019 265.263 91.3539 264.824 91.0272 264.264C90.7099 263.704 90.5512 263.065 90.5512 262.346C90.5512 261.637 90.7006 261.002 90.9992 260.442C91.3072 259.873 91.7272 259.429 92.2592 259.112C92.7912 258.795 93.3886 258.636 94.0512 258.636C94.7139 258.636 95.3066 258.795 95.8292 259.112C96.3612 259.42 96.7766 259.854 97.0752 260.414C97.3832 260.974 97.5372 261.609 97.5372 262.318L97.5232 262.514ZM94.0512 259.252C93.5379 259.252 93.0759 259.369 92.6652 259.602C92.2546 259.826 91.9232 260.148 91.6712 260.568C91.4286 260.979 91.2886 261.445 91.2512 261.968H96.8512C96.8232 261.445 96.6832 260.979 96.4312 260.568C96.1792 260.157 95.8479 259.835 95.4372 259.602C95.0266 259.369 94.5646 259.252 94.0512 259.252ZM102.601 266.056C101.891 266.056 101.257 265.897 100.697 265.58C100.137 265.263 99.6981 264.824 99.3808 264.264C99.0634 263.695 98.9048 263.055 98.9048 262.346C98.9048 261.627 99.0634 260.988 99.3808 260.428C99.6981 259.859 100.137 259.42 100.697 259.112C101.257 258.795 101.891 258.636 102.601 258.636C103.189 258.636 103.721 258.753 104.197 258.986C104.682 259.21 105.074 259.541 105.373 259.98L104.855 260.358C104.593 259.994 104.267 259.723 103.875 259.546C103.492 259.359 103.067 259.266 102.601 259.266C102.031 259.266 101.518 259.397 101.061 259.658C100.613 259.91 100.258 260.269 99.9968 260.736C99.7448 261.203 99.6188 261.739 99.6188 262.346C99.6188 262.953 99.7448 263.489 99.9968 263.956C100.258 264.423 100.613 264.787 101.061 265.048C101.518 265.3 102.031 265.426 102.601 265.426C103.067 265.426 103.492 265.337 103.875 265.16C104.267 264.973 104.593 264.698 104.855 264.334L105.373 264.712C105.074 265.151 104.682 265.487 104.197 265.72C103.721 265.944 103.189 266.056 102.601 266.056ZM111.176 265.538C110.999 265.706 110.775 265.837 110.504 265.93C110.243 266.014 109.968 266.056 109.678 266.056C109.044 266.056 108.554 265.883 108.208 265.538C107.863 265.183 107.69 264.693 107.69 264.068V259.294H106.346V258.692H107.69V257.096H108.39V258.692H110.714V259.294H108.39V263.998C108.39 264.474 108.502 264.838 108.726 265.09C108.96 265.333 109.3 265.454 109.748 265.454C110.206 265.454 110.584 265.319 110.882 265.048L111.176 265.538ZM113.129 258.692H113.829V266H113.129V258.692ZM113.479 256.914C113.32 256.914 113.185 256.863 113.073 256.76C112.961 256.648 112.905 256.513 112.905 256.354C112.905 256.195 112.961 256.06 113.073 255.948C113.185 255.836 113.32 255.78 113.479 255.78C113.637 255.78 113.773 255.836 113.885 255.948C113.997 256.051 114.053 256.181 114.053 256.34C114.053 256.499 113.997 256.634 113.885 256.746C113.773 256.858 113.637 256.914 113.479 256.914ZM119.635 266.056C118.944 266.056 118.319 265.897 117.759 265.58C117.208 265.263 116.774 264.824 116.457 264.264C116.14 263.695 115.981 263.055 115.981 262.346C115.981 261.637 116.14 261.002 116.457 260.442C116.774 259.873 117.208 259.429 117.759 259.112C118.319 258.795 118.944 258.636 119.635 258.636C120.326 258.636 120.946 258.795 121.497 259.112C122.057 259.429 122.496 259.873 122.813 260.442C123.13 261.002 123.289 261.637 123.289 262.346C123.289 263.055 123.13 263.695 122.813 264.264C122.496 264.824 122.057 265.263 121.497 265.58C120.946 265.897 120.326 266.056 119.635 266.056ZM119.635 265.426C120.195 265.426 120.694 265.295 121.133 265.034C121.581 264.773 121.931 264.409 122.183 263.942C122.444 263.475 122.575 262.943 122.575 262.346C122.575 261.749 122.444 261.217 122.183 260.75C121.931 260.283 121.581 259.919 121.133 259.658C120.694 259.397 120.195 259.266 119.635 259.266C119.075 259.266 118.571 259.397 118.123 259.658C117.684 259.919 117.334 260.283 117.073 260.75C116.821 261.217 116.695 261.749 116.695 262.346C116.695 262.943 116.821 263.475 117.073 263.942C117.334 264.409 117.684 264.773 118.123 265.034C118.571 265.295 119.075 265.426 119.635 265.426ZM129.031 258.636C129.945 258.636 130.669 258.902 131.201 259.434C131.733 259.966 131.999 260.731 131.999 261.73V266H131.299V261.786C131.299 260.965 131.089 260.339 130.669 259.91C130.258 259.481 129.679 259.266 128.933 259.266C128.074 259.266 127.397 259.523 126.903 260.036C126.408 260.549 126.161 261.24 126.161 262.108V266H125.461V258.692H126.133V260.274C126.385 259.761 126.758 259.359 127.253 259.07C127.757 258.781 128.349 258.636 129.031 258.636ZM142.144 258.636C142.826 258.636 143.442 258.795 143.992 259.112C144.543 259.42 144.972 259.859 145.28 260.428C145.598 260.988 145.756 261.627 145.756 262.346C145.756 263.065 145.598 263.704 145.28 264.264C144.972 264.824 144.543 265.263 143.992 265.58C143.442 265.897 142.826 266.056 142.144 266.056C141.491 266.056 140.898 265.902 140.366 265.594C139.844 265.277 139.438 264.838 139.148 264.278V266H138.476V255.612H139.176V260.358C139.466 259.817 139.872 259.397 140.394 259.098C140.917 258.79 141.5 258.636 142.144 258.636ZM142.102 265.426C142.662 265.426 143.166 265.295 143.614 265.034C144.062 264.773 144.412 264.409 144.664 263.942C144.926 263.475 145.056 262.943 145.056 262.346C145.056 261.749 144.926 261.217 144.664 260.75C144.412 260.283 144.062 259.919 143.614 259.658C143.166 259.397 142.662 259.266 142.102 259.266C141.542 259.266 141.038 259.397 140.59 259.658C140.152 259.919 139.802 260.283 139.54 260.75C139.288 261.217 139.162 261.749 139.162 262.346C139.162 262.943 139.288 263.475 139.54 263.942C139.802 264.409 140.152 264.773 140.59 265.034C141.038 265.295 141.542 265.426 142.102 265.426ZM153.584 258.692L149.832 266.994C149.552 267.638 149.226 268.095 148.852 268.366C148.488 268.637 148.054 268.772 147.55 268.772C147.214 268.772 146.897 268.716 146.598 268.604C146.309 268.492 146.062 268.329 145.856 268.114L146.206 267.582C146.58 267.965 147.032 268.156 147.564 268.156C147.919 268.156 148.222 268.058 148.474 267.862C148.726 267.666 148.96 267.33 149.174 266.854L149.566 265.972L146.276 258.692H147.018L149.944 265.23L152.87 258.692H153.584ZM164.759 260.946C165.459 261.077 165.991 261.352 166.355 261.772C166.728 262.192 166.915 262.738 166.915 263.41C166.915 264.241 166.611 264.88 166.005 265.328C165.398 265.776 164.497 266 163.303 266H158.935V256.2H163.023C164.087 256.2 164.913 256.419 165.501 256.858C166.098 257.287 166.397 257.903 166.397 258.706C166.397 259.266 166.247 259.737 165.949 260.12C165.659 260.503 165.263 260.778 164.759 260.946ZM159.649 256.816V260.722H162.995C163.853 260.722 164.511 260.559 164.969 260.232C165.435 259.896 165.669 259.406 165.669 258.762C165.669 258.127 165.435 257.647 164.969 257.32C164.511 256.984 163.853 256.816 162.995 256.816H159.649ZM163.303 265.384C164.255 265.384 164.973 265.221 165.459 264.894C165.953 264.558 166.201 264.045 166.201 263.354C166.201 262.663 165.953 262.155 165.459 261.828C164.973 261.501 164.255 261.338 163.303 261.338H159.649V265.384H163.303ZM171.702 258.636C172.607 258.636 173.303 258.869 173.788 259.336C174.273 259.793 174.516 260.47 174.516 261.366V266H173.844V264.698C173.611 265.127 173.27 265.463 172.822 265.706C172.374 265.939 171.837 266.056 171.212 266.056C170.4 266.056 169.756 265.865 169.28 265.482C168.813 265.099 168.58 264.595 168.58 263.97C168.58 263.363 168.795 262.873 169.224 262.5C169.663 262.117 170.358 261.926 171.31 261.926H173.816V261.338C173.816 260.657 173.629 260.139 173.256 259.784C172.892 259.429 172.355 259.252 171.646 259.252C171.161 259.252 170.694 259.336 170.246 259.504C169.807 259.672 169.434 259.896 169.126 260.176L168.776 259.672C169.14 259.345 169.579 259.093 170.092 258.916C170.605 258.729 171.142 258.636 171.702 258.636ZM171.31 265.482C171.917 265.482 172.43 265.342 172.85 265.062C173.279 264.782 173.601 264.376 173.816 263.844V262.472H171.324C170.605 262.472 170.083 262.603 169.756 262.864C169.439 263.125 169.28 263.485 169.28 263.942C169.28 264.418 169.457 264.796 169.812 265.076C170.167 265.347 170.666 265.482 171.31 265.482ZM180.004 262.094L178.1 263.83V266H177.4V255.612H178.1V262.962L182.776 258.692H183.672L180.522 261.646L183.98 266H183.112L180.004 262.094ZM188.234 262.094L186.33 263.83V266H185.63V255.612H186.33V262.962L191.006 258.692H191.902L188.752 261.646L192.21 266H191.342L188.234 262.094ZM196.416 266.056C195.726 266.056 195.1 265.897 194.54 265.58C193.99 265.263 193.556 264.824 193.238 264.264C192.921 263.695 192.762 263.055 192.762 262.346C192.762 261.637 192.921 261.002 193.238 260.442C193.556 259.873 193.99 259.429 194.54 259.112C195.1 258.795 195.726 258.636 196.416 258.636C197.107 258.636 197.728 258.795 198.278 259.112C198.838 259.429 199.277 259.873 199.594 260.442C199.912 261.002 200.07 261.637 200.07 262.346C200.07 263.055 199.912 263.695 199.594 264.264C199.277 264.824 198.838 265.263 198.278 265.58C197.728 265.897 197.107 266.056 196.416 266.056ZM196.416 265.426C196.976 265.426 197.476 265.295 197.914 265.034C198.362 264.773 198.712 264.409 198.964 263.942C199.226 263.475 199.356 262.943 199.356 262.346C199.356 261.749 199.226 261.217 198.964 260.75C198.712 260.283 198.362 259.919 197.914 259.658C197.476 259.397 196.976 259.266 196.416 259.266C195.856 259.266 195.352 259.397 194.904 259.658C194.466 259.919 194.116 260.283 193.854 260.75C193.602 261.217 193.476 261.749 193.476 262.346C193.476 262.943 193.602 263.475 193.854 263.942C194.116 264.409 194.466 264.773 194.904 265.034C195.352 265.295 195.856 265.426 196.416 265.426ZM208.64 258.692V266H207.968V264.432C207.725 264.945 207.366 265.347 206.89 265.636C206.414 265.916 205.854 266.056 205.21 266.056C204.258 266.056 203.511 265.79 202.97 265.258C202.428 264.726 202.158 263.961 202.158 262.962V258.692H202.858V262.906C202.858 263.727 203.068 264.353 203.488 264.782C203.908 265.211 204.5 265.426 205.266 265.426C206.087 265.426 206.736 265.169 207.212 264.656C207.697 264.143 207.94 263.452 207.94 262.584V258.692H208.64ZM212.279 260.288C212.503 259.756 212.853 259.35 213.329 259.07C213.805 258.781 214.384 258.636 215.065 258.636V259.322L214.897 259.308C214.085 259.308 213.45 259.565 212.993 260.078C212.536 260.582 212.307 261.287 212.307 262.192V266H211.607V258.692H212.279V260.288ZM219.458 258.636C220.363 258.636 221.058 258.869 221.544 259.336C222.029 259.793 222.272 260.47 222.272 261.366V266H221.6V264.698C221.366 265.127 221.026 265.463 220.578 265.706C220.13 265.939 219.593 266.056 218.968 266.056C218.156 266.056 217.512 265.865 217.036 265.482C216.569 265.099 216.336 264.595 216.336 263.97C216.336 263.363 216.55 262.873 216.98 262.5C217.418 262.117 218.114 261.926 219.066 261.926H221.572V261.338C221.572 260.657 221.385 260.139 221.012 259.784C220.648 259.429 220.111 259.252 219.402 259.252C218.916 259.252 218.45 259.336 218.002 259.504C217.563 259.672 217.19 259.896 216.882 260.176L216.532 259.672C216.896 259.345 217.334 259.093 217.848 258.916C218.361 258.729 218.898 258.636 219.458 258.636ZM219.066 265.482C219.672 265.482 220.186 265.342 220.606 265.062C221.035 264.782 221.357 264.376 221.572 263.844V262.472H219.08C218.361 262.472 217.838 262.603 217.512 262.864C217.194 263.125 217.036 263.485 217.036 263.942C217.036 264.418 217.213 264.796 217.568 265.076C217.922 265.347 218.422 265.482 219.066 265.482ZM228.752 258.692H229.452V266H228.752V258.692ZM229.102 256.914C228.943 256.914 228.808 256.863 228.696 256.76C228.584 256.648 228.528 256.513 228.528 256.354C228.528 256.195 228.584 256.06 228.696 255.948C228.808 255.836 228.943 255.78 229.102 255.78C229.26 255.78 229.396 255.836 229.508 255.948C229.62 256.051 229.676 256.181 229.676 256.34C229.676 256.499 229.62 256.634 229.508 256.746C229.396 256.858 229.26 256.914 229.102 256.914ZM234.25 266.056C233.662 266.056 233.102 265.967 232.57 265.79C232.038 265.613 231.623 265.389 231.324 265.118L231.646 264.558C231.945 264.81 232.327 265.02 232.794 265.188C233.27 265.356 233.765 265.44 234.278 265.44C235.015 265.44 235.557 265.319 235.902 265.076C236.257 264.833 236.434 264.497 236.434 264.068C236.434 263.76 236.336 263.517 236.14 263.34C235.953 263.163 235.72 263.032 235.44 262.948C235.16 262.864 234.773 262.775 234.278 262.682C233.699 262.579 233.233 262.467 232.878 262.346C232.523 262.225 232.22 262.029 231.968 261.758C231.716 261.487 231.59 261.114 231.59 260.638C231.59 260.059 231.828 259.583 232.304 259.21C232.789 258.827 233.475 258.636 234.362 258.636C234.829 258.636 235.291 258.701 235.748 258.832C236.205 258.963 236.579 259.135 236.868 259.35L236.546 259.91C236.247 259.695 235.907 259.532 235.524 259.42C235.141 259.308 234.749 259.252 234.348 259.252C233.667 259.252 233.153 259.378 232.808 259.63C232.463 259.882 232.29 260.213 232.29 260.624C232.29 260.951 232.388 261.207 232.584 261.394C232.78 261.571 233.018 261.707 233.298 261.8C233.587 261.884 233.989 261.977 234.502 262.08C235.071 262.183 235.529 262.295 235.874 262.416C236.229 262.528 236.527 262.715 236.77 262.976C237.013 263.237 237.134 263.597 237.134 264.054C237.134 264.661 236.882 265.146 236.378 265.51C235.874 265.874 235.165 266.056 234.25 266.056ZM246.309 265.538C246.132 265.706 245.908 265.837 245.637 265.93C245.376 266.014 245.101 266.056 244.811 266.056C244.177 266.056 243.687 265.883 243.341 265.538C242.996 265.183 242.823 264.693 242.823 264.068V259.294H241.479V258.692H242.823V257.096H243.523V258.692H245.847V259.294H243.523V263.998C243.523 264.474 243.635 264.838 243.859 265.09C244.093 265.333 244.433 265.454 244.881 265.454C245.339 265.454 245.717 265.319 246.015 265.048L246.309 265.538ZM251.831 258.636C252.746 258.636 253.469 258.902 254.001 259.434C254.533 259.966 254.799 260.731 254.799 261.73V266H254.099V261.786C254.099 260.965 253.889 260.339 253.469 259.91C253.059 259.481 252.48 259.266 251.733 259.266C250.875 259.266 250.198 259.523 249.703 260.036C249.209 260.549 248.961 261.24 248.961 262.108V266H248.261V255.612H248.961V260.218C249.213 259.714 249.587 259.327 250.081 259.056C250.576 258.776 251.159 258.636 251.831 258.636ZM263.869 262.514H257.583C257.602 263.083 257.746 263.592 258.017 264.04C258.288 264.479 258.652 264.819 259.109 265.062C259.576 265.305 260.098 265.426 260.677 265.426C261.153 265.426 261.592 265.342 261.993 265.174C262.404 264.997 262.744 264.74 263.015 264.404L263.421 264.866C263.104 265.249 262.702 265.543 262.217 265.748C261.741 265.953 261.223 266.056 260.663 266.056C259.935 266.056 259.286 265.897 258.717 265.58C258.148 265.263 257.7 264.824 257.373 264.264C257.056 263.704 256.897 263.065 256.897 262.346C256.897 261.637 257.046 261.002 257.345 260.442C257.653 259.873 258.073 259.429 258.605 259.112C259.137 258.795 259.734 258.636 260.397 258.636C261.06 258.636 261.652 258.795 262.175 259.112C262.707 259.42 263.122 259.854 263.421 260.414C263.729 260.974 263.883 261.609 263.883 262.318L263.869 262.514ZM260.397 259.252C259.884 259.252 259.422 259.369 259.011 259.602C258.6 259.826 258.269 260.148 258.017 260.568C257.774 260.979 257.634 261.445 257.597 261.968H263.197C263.169 261.445 263.029 260.979 262.777 260.568C262.525 260.157 262.194 259.835 261.783 259.602C261.372 259.369 260.91 259.252 260.397 259.252ZM273.312 258.636C273.993 258.636 274.609 258.795 275.16 259.112C275.711 259.429 276.14 259.868 276.448 260.428C276.765 260.988 276.924 261.627 276.924 262.346C276.924 263.065 276.765 263.709 276.448 264.278C276.14 264.838 275.711 265.277 275.16 265.594C274.609 265.902 273.993 266.056 273.312 266.056C272.668 266.056 272.085 265.907 271.562 265.608C271.039 265.3 270.633 264.875 270.344 264.334V268.716H269.644V258.692H270.316V260.414C270.605 259.854 271.011 259.42 271.534 259.112C272.066 258.795 272.659 258.636 273.312 258.636ZM273.27 265.426C273.83 265.426 274.334 265.295 274.782 265.034C275.23 264.773 275.58 264.409 275.832 263.942C276.093 263.475 276.224 262.943 276.224 262.346C276.224 261.749 276.093 261.217 275.832 260.75C275.58 260.283 275.23 259.919 274.782 259.658C274.334 259.397 273.83 259.266 273.27 259.266C272.71 259.266 272.206 259.397 271.758 259.658C271.319 259.919 270.969 260.283 270.708 260.75C270.456 261.217 270.33 261.749 270.33 262.346C270.33 262.943 270.456 263.475 270.708 263.942C270.969 264.409 271.319 264.773 271.758 265.034C272.206 265.295 272.71 265.426 273.27 265.426ZM281.528 258.636C282.433 258.636 283.129 258.869 283.614 259.336C284.099 259.793 284.342 260.47 284.342 261.366V266H283.67V264.698C283.437 265.127 283.096 265.463 282.648 265.706C282.2 265.939 281.663 266.056 281.038 266.056C280.226 266.056 279.582 265.865 279.106 265.482C278.639 265.099 278.406 264.595 278.406 263.97C278.406 263.363 278.621 262.873 279.05 262.5C279.489 262.117 280.184 261.926 281.136 261.926H283.642V261.338C283.642 260.657 283.455 260.139 283.082 259.784C282.718 259.429 282.181 259.252 281.472 259.252C280.987 259.252 280.52 259.336 280.072 259.504C279.633 259.672 279.26 259.896 278.952 260.176L278.602 259.672C278.966 259.345 279.405 259.093 279.918 258.916C280.431 258.729 280.968 258.636 281.528 258.636ZM281.136 265.482C281.743 265.482 282.256 265.342 282.676 265.062C283.105 264.782 283.427 264.376 283.642 263.844V262.472H281.15C280.431 262.472 279.909 262.603 279.582 262.864C279.265 263.125 279.106 263.485 279.106 263.942C279.106 264.418 279.283 264.796 279.638 265.076C279.993 265.347 280.492 265.482 281.136 265.482ZM287.898 260.288C288.122 259.756 288.472 259.35 288.948 259.07C289.424 258.781 290.003 258.636 290.684 258.636V259.322L290.516 259.308C289.704 259.308 289.07 259.565 288.612 260.078C288.155 260.582 287.926 261.287 287.926 262.192V266H287.226V258.692H287.898V260.288ZM296.567 265.538C296.39 265.706 296.166 265.837 295.895 265.93C295.634 266.014 295.358 266.056 295.069 266.056C294.434 266.056 293.944 265.883 293.599 265.538C293.254 265.183 293.081 264.693 293.081 264.068V259.294H291.737V258.692H293.081V257.096H293.781V258.692H296.105V259.294H293.781V263.998C293.781 264.474 293.893 264.838 294.117 265.09C294.35 265.333 294.691 265.454 295.139 265.454C295.596 265.454 295.974 265.319 296.273 265.048L296.567 265.538ZM304.248 258.692L300.496 266.994C300.216 267.638 299.89 268.095 299.516 268.366C299.152 268.637 298.718 268.772 298.214 268.772C297.878 268.772 297.561 268.716 297.262 268.604C296.973 268.492 296.726 268.329 296.52 268.114L296.87 267.582C297.244 267.965 297.696 268.156 298.228 268.156C298.583 268.156 298.886 268.058 299.138 267.862C299.39 267.666 299.624 267.33 299.838 266.854L300.23 265.972L296.94 258.692H297.682L300.608 265.23L303.534 258.692H304.248ZM312.231 266.056C311.54 266.056 310.915 265.897 310.355 265.58C309.804 265.263 309.37 264.824 309.053 264.264C308.735 263.695 308.577 263.055 308.577 262.346C308.577 261.637 308.735 261.002 309.053 260.442C309.37 259.873 309.804 259.429 310.355 259.112C310.915 258.795 311.54 258.636 312.231 258.636C312.921 258.636 313.542 258.795 314.093 259.112C314.653 259.429 315.091 259.873 315.409 260.442C315.726 261.002 315.885 261.637 315.885 262.346C315.885 263.055 315.726 263.695 315.409 264.264C315.091 264.824 314.653 265.263 314.093 265.58C313.542 265.897 312.921 266.056 312.231 266.056ZM312.231 265.426C312.791 265.426 313.29 265.295 313.729 265.034C314.177 264.773 314.527 264.409 314.779 263.942C315.04 263.475 315.171 262.943 315.171 262.346C315.171 261.749 315.04 261.217 314.779 260.75C314.527 260.283 314.177 259.919 313.729 259.658C313.29 259.397 312.791 259.266 312.231 259.266C311.671 259.266 311.167 259.397 310.719 259.658C310.28 259.919 309.93 260.283 309.669 260.75C309.417 261.217 309.291 261.749 309.291 262.346C309.291 262.943 309.417 263.475 309.669 263.942C309.93 264.409 310.28 264.773 310.719 265.034C311.167 265.295 311.671 265.426 312.231 265.426ZM320.254 256.158C319.34 256.158 318.882 256.648 318.882 257.628V258.692H321.22V259.294H318.896V266H318.196V259.294H316.852V258.692H318.196V257.572C318.196 256.956 318.374 256.466 318.728 256.102C319.083 255.738 319.582 255.556 320.226 255.556C320.506 255.556 320.772 255.598 321.024 255.682C321.286 255.757 321.5 255.873 321.668 256.032L321.388 256.564C321.09 256.293 320.712 256.158 320.254 256.158ZM329.872 265.538C329.694 265.706 329.47 265.837 329.2 265.93C328.938 266.014 328.663 266.056 328.374 266.056C327.739 266.056 327.249 265.883 326.904 265.538C326.558 265.183 326.386 264.693 326.386 264.068V259.294H325.042V258.692H326.386V257.096H327.086V258.692H329.41V259.294H327.086V263.998C327.086 264.474 327.198 264.838 327.422 265.09C327.655 265.333 327.996 265.454 328.444 265.454C328.901 265.454 329.279 265.319 329.578 265.048L329.872 265.538ZM335.394 258.636C336.309 258.636 337.032 258.902 337.564 259.434C338.096 259.966 338.362 260.731 338.362 261.73V266H337.662V261.786C337.662 260.965 337.452 260.339 337.032 259.91C336.621 259.481 336.043 259.266 335.296 259.266C334.437 259.266 333.761 259.523 333.266 260.036C332.771 260.549 332.524 261.24 332.524 262.108V266H331.824V255.612H332.524V260.218C332.776 259.714 333.149 259.327 333.644 259.056C334.139 258.776 334.722 258.636 335.394 258.636ZM347.431 262.514H341.145C341.164 263.083 341.309 263.592 341.579 264.04C341.85 264.479 342.214 264.819 342.671 265.062C343.138 265.305 343.661 265.426 344.239 265.426C344.715 265.426 345.154 265.342 345.555 265.174C345.966 264.997 346.307 264.74 346.577 264.404L346.983 264.866C346.666 265.249 346.265 265.543 345.779 265.748C345.303 265.953 344.785 266.056 344.225 266.056C343.497 266.056 342.849 265.897 342.279 265.58C341.71 265.263 341.262 264.824 340.935 264.264C340.618 263.704 340.459 263.065 340.459 262.346C340.459 261.637 340.609 261.002 340.907 260.442C341.215 259.873 341.635 259.429 342.167 259.112C342.699 258.795 343.297 258.636 343.959 258.636C344.622 258.636 345.215 258.795 345.737 259.112C346.269 259.42 346.685 259.854 346.983 260.414C347.291 260.974 347.445 261.609 347.445 262.318L347.431 262.514ZM343.959 259.252C343.446 259.252 342.984 259.369 342.573 259.602C342.163 259.826 341.831 260.148 341.579 260.568C341.337 260.979 341.197 261.445 341.159 261.968H346.759C346.731 261.445 346.591 260.979 346.339 260.568C346.087 260.157 345.756 259.835 345.345 259.602C344.935 259.369 344.473 259.252 343.959 259.252ZM7.532 281.946C8.232 282.077 8.764 282.352 9.128 282.772C9.50133 283.192 9.688 283.738 9.688 284.41C9.688 285.241 9.38467 285.88 8.778 286.328C8.17133 286.776 7.27067 287 6.076 287H1.708V277.2H5.796C6.86 277.2 7.686 277.419 8.274 277.858C8.87133 278.287 9.17 278.903 9.17 279.706C9.17 280.266 9.02067 280.737 8.722 281.12C8.43267 281.503 8.036 281.778 7.532 281.946ZM2.422 277.816V281.722H5.768C6.62667 281.722 7.28467 281.559 7.742 281.232C8.20867 280.896 8.442 280.406 8.442 279.762C8.442 279.127 8.20867 278.647 7.742 278.32C7.28467 277.984 6.62667 277.816 5.768 277.816H2.422ZM6.076 286.384C7.028 286.384 7.74667 286.221 8.232 285.894C8.72667 285.558 8.974 285.045 8.974 284.354C8.974 283.663 8.72667 283.155 8.232 282.828C7.74667 282.501 7.028 282.338 6.076 282.338H2.422V286.384H6.076ZM14.4753 279.636C15.3807 279.636 16.076 279.869 16.5613 280.336C17.0467 280.793 17.2893 281.47 17.2893 282.366V287H16.6173V285.698C16.384 286.127 16.0433 286.463 15.5953 286.706C15.1473 286.939 14.6107 287.056 13.9853 287.056C13.1733 287.056 12.5293 286.865 12.0533 286.482C11.5867 286.099 11.3533 285.595 11.3533 284.97C11.3533 284.363 11.568 283.873 11.9973 283.5C12.436 283.117 13.1313 282.926 14.0833 282.926H16.5893V282.338C16.5893 281.657 16.4027 281.139 16.0293 280.784C15.6653 280.429 15.1287 280.252 14.4193 280.252C13.934 280.252 13.4673 280.336 13.0193 280.504C12.5807 280.672 12.2073 280.896 11.8993 281.176L11.5493 280.672C11.9133 280.345 12.352 280.093 12.8653 279.916C13.3787 279.729 13.9153 279.636 14.4753 279.636ZM14.0833 286.482C14.69 286.482 15.2033 286.342 15.6233 286.062C16.0527 285.782 16.3747 285.376 16.5893 284.844V283.472H14.0973C13.3787 283.472 12.856 283.603 12.5293 283.864C12.212 284.125 12.0533 284.485 12.0533 284.942C12.0533 285.418 12.2307 285.796 12.5853 286.076C12.94 286.347 13.4393 286.482 14.0833 286.482ZM22.7775 283.094L20.8735 284.83V287H20.1735V276.612H20.8735V283.962L25.5495 279.692H26.4455L23.2955 282.646L26.7535 287H25.8855L22.7775 283.094ZM31.0079 283.094L29.1039 284.83V287H28.4039V276.612H29.1039V283.962L33.7799 279.692H34.6759L31.5259 282.646L34.9839 287H34.1159L31.0079 283.094ZM39.1896 287.056C38.4989 287.056 37.8736 286.897 37.3136 286.58C36.7629 286.263 36.3289 285.824 36.0116 285.264C35.6943 284.695 35.5356 284.055 35.5356 283.346C35.5356 282.637 35.6943 282.002 36.0116 281.442C36.3289 280.873 36.7629 280.429 37.3136 280.112C37.8736 279.795 38.4989 279.636 39.1896 279.636C39.8803 279.636 40.5009 279.795 41.0516 280.112C41.6116 280.429 42.0503 280.873 42.3676 281.442C42.6849 282.002 42.8436 282.637 42.8436 283.346C42.8436 284.055 42.6849 284.695 42.3676 285.264C42.0503 285.824 41.6116 286.263 41.0516 286.58C40.5009 286.897 39.8803 287.056 39.1896 287.056ZM39.1896 286.426C39.7496 286.426 40.2489 286.295 40.6876 286.034C41.1356 285.773 41.4856 285.409 41.7376 284.942C41.9989 284.475 42.1296 283.943 42.1296 283.346C42.1296 282.749 41.9989 282.217 41.7376 281.75C41.4856 281.283 41.1356 280.919 40.6876 280.658C40.2489 280.397 39.7496 280.266 39.1896 280.266C38.6296 280.266 38.1256 280.397 37.6776 280.658C37.2389 280.919 36.8889 281.283 36.6276 281.75C36.3756 282.217 36.2496 282.749 36.2496 283.346C36.2496 283.943 36.3756 284.475 36.6276 284.942C36.8889 285.409 37.2389 285.773 37.6776 286.034C38.1256 286.295 38.6296 286.426 39.1896 286.426ZM51.4133 279.692V287H50.7413V285.432C50.4986 285.945 50.1393 286.347 49.6633 286.636C49.1873 286.916 48.6273 287.056 47.9833 287.056C47.0313 287.056 46.2846 286.79 45.7433 286.258C45.2019 285.726 44.9313 284.961 44.9313 283.962V279.692H45.6313V283.906C45.6313 284.727 45.8413 285.353 46.2613 285.782C46.6813 286.211 47.2739 286.426 48.0393 286.426C48.8606 286.426 49.5093 286.169 49.9853 285.656C50.4706 285.143 50.7133 284.452 50.7133 283.584V279.692H51.4133ZM55.0525 281.288C55.2765 280.756 55.6265 280.35 56.1025 280.07C56.5785 279.781 57.1572 279.636 57.8385 279.636V280.322L57.6705 280.308C56.8585 280.308 56.2238 280.565 55.7665 281.078C55.3092 281.582 55.0805 282.287 55.0805 283.192V287H54.3805V279.692H55.0525V281.288ZM62.2312 279.636C63.1365 279.636 63.8319 279.869 64.3172 280.336C64.8025 280.793 65.0452 281.47 65.0452 282.366V287H64.3732V285.698C64.1399 286.127 63.7992 286.463 63.3512 286.706C62.9032 286.939 62.3665 287.056 61.7412 287.056C60.9292 287.056 60.2852 286.865 59.8092 286.482C59.3425 286.099 59.1092 285.595 59.1092 284.97C59.1092 284.363 59.3239 283.873 59.7532 283.5C60.1919 283.117 60.8872 282.926 61.8392 282.926H64.3452V282.338C64.3452 281.657 64.1585 281.139 63.7852 280.784C63.4212 280.429 62.8845 280.252 62.1752 280.252C61.6899 280.252 61.2232 280.336 60.7752 280.504C60.3365 280.672 59.9632 280.896 59.6552 281.176L59.3052 280.672C59.6692 280.345 60.1079 280.093 60.6212 279.916C61.1345 279.729 61.6712 279.636 62.2312 279.636ZM61.8392 286.482C62.4459 286.482 62.9592 286.342 63.3792 286.062C63.8085 285.782 64.1305 285.376 64.3452 284.844V283.472H61.8532C61.1345 283.472 60.6119 283.603 60.2852 283.864C59.9679 284.125 59.8092 284.485 59.8092 284.942C59.8092 285.418 59.9865 285.796 60.3412 286.076C60.6959 286.347 61.1952 286.482 61.8392 286.482ZM78.021 276.612V287H77.335V285.278C77.0457 285.847 76.6397 286.286 76.117 286.594C75.5943 286.902 75.0017 287.056 74.339 287.056C73.6577 287.056 73.0417 286.897 72.491 286.58C71.9403 286.263 71.5063 285.824 71.189 285.264C70.881 284.704 70.727 284.065 70.727 283.346C70.727 282.627 70.881 281.988 71.189 281.428C71.5063 280.859 71.9403 280.42 72.491 280.112C73.0417 279.795 73.6577 279.636 74.339 279.636C74.9923 279.636 75.5757 279.79 76.089 280.098C76.6117 280.406 77.0223 280.835 77.321 281.386V276.612H78.021ZM74.381 286.426C74.941 286.426 75.4403 286.295 75.879 286.034C76.327 285.773 76.677 285.409 76.929 284.942C77.1903 284.475 77.321 283.943 77.321 283.346C77.321 282.749 77.1903 282.217 76.929 281.75C76.677 281.283 76.327 280.919 75.879 280.658C75.4403 280.397 74.941 280.266 74.381 280.266C73.821 280.266 73.317 280.397 72.869 280.658C72.4303 280.919 72.0803 281.283 71.819 281.75C71.567 282.217 71.441 282.749 71.441 283.346C71.441 283.943 71.567 284.475 71.819 284.942C72.0803 285.409 72.4303 285.773 72.869 286.034C73.317 286.295 73.821 286.426 74.381 286.426ZM86.8383 279.692L83.0863 287.994C82.8063 288.638 82.4796 289.095 82.1063 289.366C81.7423 289.637 81.3083 289.772 80.8043 289.772C80.4683 289.772 80.1509 289.716 79.8523 289.604C79.5629 289.492 79.3156 289.329 79.1103 289.114L79.4603 288.582C79.8336 288.965 80.2863 289.156 80.8183 289.156C81.1729 289.156 81.4763 289.058 81.7283 288.862C81.9803 288.666 82.2136 288.33 82.4283 287.854L82.8203 286.972L79.5303 279.692H80.2723L83.1983 286.23L86.1243 279.692H86.8383ZM91.9388 279.636C92.8534 279.636 93.5768 279.902 94.1088 280.434C94.6408 280.966 94.9068 281.731 94.9068 282.73V287H94.2068V282.786C94.2068 281.965 93.9968 281.339 93.5768 280.91C93.1661 280.481 92.5874 280.266 91.8408 280.266C90.9821 280.266 90.3054 280.523 89.8108 281.036C89.3161 281.549 89.0688 282.24 89.0688 283.108V287H88.3688V279.692H89.0408V281.274C89.2928 280.761 89.6661 280.359 90.1608 280.07C90.6648 279.781 91.2574 279.636 91.9388 279.636ZM100.253 279.636C101.158 279.636 101.853 279.869 102.339 280.336C102.824 280.793 103.067 281.47 103.067 282.366V287H102.395V285.698C102.161 286.127 101.821 286.463 101.373 286.706C100.925 286.939 100.388 287.056 99.7627 287.056C98.9507 287.056 98.3067 286.865 97.8307 286.482C97.364 286.099 97.1307 285.595 97.1307 284.97C97.1307 284.363 97.3454 283.873 97.7747 283.5C98.2134 283.117 98.9087 282.926 99.8607 282.926H102.367V282.338C102.367 281.657 102.18 281.139 101.807 280.784C101.443 280.429 100.906 280.252 100.197 280.252C99.7114 280.252 99.2447 280.336 98.7967 280.504C98.358 280.672 97.9847 280.896 97.6767 281.176L97.3267 280.672C97.6907 280.345 98.1294 280.093 98.6427 279.916C99.156 279.729 99.6927 279.636 100.253 279.636ZM99.8607 286.482C100.467 286.482 100.981 286.342 101.401 286.062C101.83 285.782 102.152 285.376 102.367 284.844V283.472H99.8747C99.156 283.472 98.6334 283.603 98.3067 283.864C97.9894 284.125 97.8307 284.485 97.8307 284.942C97.8307 285.418 98.008 285.796 98.3627 286.076C98.7174 286.347 99.2167 286.482 99.8607 286.482ZM107.799 287.056C107.211 287.056 106.651 286.967 106.119 286.79C105.587 286.613 105.171 286.389 104.873 286.118L105.195 285.558C105.493 285.81 105.876 286.02 106.343 286.188C106.819 286.356 107.313 286.44 107.827 286.44C108.564 286.44 109.105 286.319 109.451 286.076C109.805 285.833 109.983 285.497 109.983 285.068C109.983 284.76 109.885 284.517 109.689 284.34C109.502 284.163 109.269 284.032 108.989 283.948C108.709 283.864 108.321 283.775 107.827 283.682C107.248 283.579 106.781 283.467 106.427 283.346C106.072 283.225 105.769 283.029 105.517 282.758C105.265 282.487 105.139 282.114 105.139 281.638C105.139 281.059 105.377 280.583 105.853 280.21C106.338 279.827 107.024 279.636 107.911 279.636C108.377 279.636 108.839 279.701 109.297 279.832C109.754 279.963 110.127 280.135 110.417 280.35L110.095 280.91C109.796 280.695 109.455 280.532 109.073 280.42C108.69 280.308 108.298 280.252 107.897 280.252C107.215 280.252 106.702 280.378 106.357 280.63C106.011 280.882 105.839 281.213 105.839 281.624C105.839 281.951 105.937 282.207 106.133 282.394C106.329 282.571 106.567 282.707 106.847 282.8C107.136 282.884 107.537 282.977 108.051 283.08C108.62 283.183 109.077 283.295 109.423 283.416C109.777 283.528 110.076 283.715 110.319 283.976C110.561 284.237 110.683 284.597 110.683 285.054C110.683 285.661 110.431 286.146 109.927 286.51C109.423 286.874 108.713 287.056 107.799 287.056ZM116.262 286.538C116.085 286.706 115.861 286.837 115.59 286.93C115.329 287.014 115.054 287.056 114.764 287.056C114.13 287.056 113.64 286.883 113.294 286.538C112.949 286.183 112.776 285.693 112.776 285.068V280.294H111.432V279.692H112.776V278.096H113.476V279.692H115.8V280.294H113.476V284.998C113.476 285.474 113.588 285.838 113.812 286.09C114.046 286.333 114.386 286.454 114.834 286.454C115.292 286.454 115.67 286.319 115.968 286.048L116.262 286.538ZM123.944 279.692L120.192 287.994C119.912 288.638 119.585 289.095 119.212 289.366C118.848 289.637 118.414 289.772 117.91 289.772C117.574 289.772 117.256 289.716 116.958 289.604C116.668 289.492 116.421 289.329 116.216 289.114L116.566 288.582C116.939 288.965 117.392 289.156 117.924 289.156C118.278 289.156 118.582 289.058 118.834 288.862C119.086 288.666 119.319 288.33 119.534 287.854L119.926 286.972L116.636 279.692H117.378L120.304 286.23L123.23 279.692H123.944ZM3.584 298.844H0.056V298.2H7.826V298.844H4.298V308H3.584V298.844ZM12.9427 300.636C13.8573 300.636 14.5807 300.902 15.1127 301.434C15.6447 301.966 15.9107 302.731 15.9107 303.73V308H15.2107V303.786C15.2107 302.965 15.0007 302.339 14.5807 301.91C14.17 301.481 13.5913 301.266 12.8447 301.266C11.986 301.266 11.3093 301.523 10.8147 302.036C10.32 302.549 10.0727 303.24 10.0727 304.108V308H9.37267V297.612H10.0727V302.218C10.3247 301.714 10.698 301.327 11.1927 301.056C11.6873 300.776 12.2707 300.636 12.9427 300.636ZM18.7926 300.692H19.4926V308H18.7926V300.692ZM19.1426 298.914C18.9839 298.914 18.8486 298.863 18.7366 298.76C18.6246 298.648 18.5686 298.513 18.5686 298.354C18.5686 298.195 18.6246 298.06 18.7366 297.948C18.8486 297.836 18.9839 297.78 19.1426 297.78C19.3013 297.78 19.4366 297.836 19.5486 297.948C19.6606 298.051 19.7166 298.181 19.7166 298.34C19.7166 298.499 19.6606 298.634 19.5486 298.746C19.4366 298.858 19.3013 298.914 19.1426 298.914ZM24.291 308.056C23.703 308.056 23.143 307.967 22.611 307.79C22.079 307.613 21.6637 307.389 21.365 307.118L21.687 306.558C21.9857 306.81 22.3683 307.02 22.835 307.188C23.311 307.356 23.8057 307.44 24.319 307.44C25.0563 307.44 25.5977 307.319 25.943 307.076C26.2977 306.833 26.475 306.497 26.475 306.068C26.475 305.76 26.377 305.517 26.181 305.34C25.9943 305.163 25.761 305.032 25.481 304.948C25.201 304.864 24.8137 304.775 24.319 304.682C23.7403 304.579 23.2737 304.467 22.919 304.346C22.5643 304.225 22.261 304.029 22.009 303.758C21.757 303.487 21.631 303.114 21.631 302.638C21.631 302.059 21.869 301.583 22.345 301.21C22.8303 300.827 23.5163 300.636 24.403 300.636C24.8697 300.636 25.3317 300.701 25.789 300.832C26.2463 300.963 26.6197 301.135 26.909 301.35L26.587 301.91C26.2883 301.695 25.9477 301.532 25.565 301.42C25.1823 301.308 24.7903 301.252 24.389 301.252C23.7077 301.252 23.1943 301.378 22.849 301.63C22.5037 301.882 22.331 302.213 22.331 302.624C22.331 302.951 22.429 303.207 22.625 303.394C22.821 303.571 23.059 303.707 23.339 303.8C23.6283 303.884 24.0297 303.977 24.543 304.08C25.1123 304.183 25.5697 304.295 25.915 304.416C26.2697 304.528 26.5683 304.715 26.811 304.976C27.0537 305.237 27.175 305.597 27.175 306.054C27.175 306.661 26.923 307.146 26.419 307.51C25.915 307.874 25.2057 308.056 24.291 308.056ZM36.3502 307.538C36.1729 307.706 35.9489 307.837 35.6782 307.93C35.4169 308.014 35.1416 308.056 34.8522 308.056C34.2176 308.056 33.7276 307.883 33.3822 307.538C33.0369 307.183 32.8642 306.693 32.8642 306.068V301.294H31.5202V300.692H32.8642V299.096H33.5642V300.692H35.8882V301.294H33.5642V305.998C33.5642 306.474 33.6762 306.838 33.9002 307.09C34.1336 307.333 34.4742 307.454 34.9222 307.454C35.3796 307.454 35.7576 307.319 36.0562 307.048L36.3502 307.538ZM41.8724 300.636C42.787 300.636 43.5104 300.902 44.0424 301.434C44.5744 301.966 44.8404 302.731 44.8404 303.73V308H44.1404V303.786C44.1404 302.965 43.9304 302.339 43.5104 301.91C43.0997 301.481 42.521 301.266 41.7744 301.266C40.9157 301.266 40.239 301.523 39.7444 302.036C39.2497 302.549 39.0024 303.24 39.0024 304.108V308H38.3024V297.612H39.0024V302.218C39.2544 301.714 39.6277 301.327 40.1224 301.056C40.617 300.776 41.2004 300.636 41.8724 300.636ZM53.91 304.514H47.624C47.6426 305.083 47.7873 305.592 48.058 306.04C48.3286 306.479 48.6926 306.819 49.15 307.062C49.6166 307.305 50.1393 307.426 50.718 307.426C51.194 307.426 51.6326 307.342 52.034 307.174C52.4446 306.997 52.7853 306.74 53.056 306.404L53.462 306.866C53.1446 307.249 52.7433 307.543 52.258 307.748C51.782 307.953 51.264 308.056 50.704 308.056C49.976 308.056 49.3273 307.897 48.758 307.58C48.1886 307.263 47.7406 306.824 47.414 306.264C47.0966 305.704 46.938 305.065 46.938 304.346C46.938 303.637 47.0873 303.002 47.386 302.442C47.694 301.873 48.114 301.429 48.646 301.112C49.178 300.795 49.7753 300.636 50.438 300.636C51.1006 300.636 51.6933 300.795 52.216 301.112C52.748 301.42 53.1633 301.854 53.462 302.414C53.77 302.974 53.924 303.609 53.924 304.318L53.91 304.514ZM50.438 301.252C49.9246 301.252 49.4626 301.369 49.052 301.602C48.6413 301.826 48.31 302.148 48.058 302.568C47.8153 302.979 47.6753 303.445 47.638 303.968H53.238C53.21 303.445 53.07 302.979 52.818 302.568C52.566 302.157 52.2346 301.835 51.824 301.602C51.4133 301.369 50.9513 301.252 50.438 301.252ZM63.3112 307.538C63.1338 307.706 62.9098 307.837 62.6392 307.93C62.3778 308.014 62.1025 308.056 61.8132 308.056C61.1785 308.056 60.6885 307.883 60.3432 307.538C59.9978 307.183 59.8252 306.693 59.8252 306.068V301.294H58.4812V300.692H59.8252V299.096H60.5252V300.692H62.8492V301.294H60.5252V305.998C60.5252 306.474 60.6372 306.838 60.8612 307.09C61.0945 307.333 61.4352 307.454 61.8832 307.454C62.3405 307.454 62.7185 307.319 63.0172 307.048L63.3112 307.538ZM68.8333 300.636C69.748 300.636 70.4713 300.902 71.0033 301.434C71.5353 301.966 71.8013 302.731 71.8013 303.73V308H71.1013V303.786C71.1013 302.965 70.8913 302.339 70.4713 301.91C70.0606 301.481 69.482 301.266 68.7353 301.266C67.8766 301.266 67.2 301.523 66.7053 302.036C66.2106 302.549 65.9633 303.24 65.9633 304.108V308H65.2633V297.612H65.9633V302.218C66.2153 301.714 66.5886 301.327 67.0833 301.056C67.578 300.776 68.1613 300.636 68.8333 300.636ZM80.8709 304.514H74.5849C74.6036 305.083 74.7482 305.592 75.0189 306.04C75.2896 306.479 75.6536 306.819 76.1109 307.062C76.5776 307.305 77.1002 307.426 77.6789 307.426C78.1549 307.426 78.5936 307.342 78.9949 307.174C79.4056 306.997 79.7462 306.74 80.0169 306.404L80.4229 306.866C80.1056 307.249 79.7042 307.543 79.2189 307.748C78.7429 307.953 78.2249 308.056 77.6649 308.056C76.9369 308.056 76.2882 307.897 75.7189 307.58C75.1496 307.263 74.7016 306.824 74.3749 306.264C74.0576 305.704 73.8989 305.065 73.8989 304.346C73.8989 303.637 74.0482 303.002 74.3469 302.442C74.6549 301.873 75.0749 301.429 75.6069 301.112C76.1389 300.795 76.7362 300.636 77.3989 300.636C78.0616 300.636 78.6542 300.795 79.1769 301.112C79.7089 301.42 80.1242 301.854 80.4229 302.414C80.7309 302.974 80.8849 303.609 80.8849 304.318L80.8709 304.514ZM77.3989 301.252C76.8856 301.252 76.4236 301.369 76.0129 301.602C75.6022 301.826 75.2709 302.148 75.0189 302.568C74.7762 302.979 74.6362 303.445 74.5989 303.968H80.1989C80.1709 303.445 80.0309 302.979 79.7789 302.568C79.5269 302.157 79.1956 301.835 78.7849 301.602C78.3742 301.369 77.9122 301.252 77.3989 301.252ZM88.8441 298.158C87.9294 298.158 87.4721 298.648 87.4721 299.628V300.692H89.8101V301.294H87.4861V308H86.7861V301.294H85.4421V300.692H86.7861V299.572C86.7861 298.956 86.9634 298.466 87.3181 298.102C87.6728 297.738 88.1721 297.556 88.8161 297.556C89.0961 297.556 89.3621 297.598 89.6141 297.682C89.8754 297.757 90.0901 297.873 90.2581 298.032L89.9781 298.564C89.6794 298.293 89.3014 298.158 88.8441 298.158ZM93.5671 300.636C94.4725 300.636 95.1678 300.869 95.6531 301.336C96.1385 301.793 96.3811 302.47 96.3811 303.366V308H95.7091V306.698C95.4758 307.127 95.1351 307.463 94.6871 307.706C94.2391 307.939 93.7025 308.056 93.0771 308.056C92.2651 308.056 91.6211 307.865 91.1451 307.482C90.6785 307.099 90.4451 306.595 90.4451 305.97C90.4451 305.363 90.6598 304.873 91.0891 304.5C91.5278 304.117 92.2231 303.926 93.1751 303.926H95.6811V303.338C95.6811 302.657 95.4945 302.139 95.1211 301.784C94.7571 301.429 94.2205 301.252 93.5111 301.252C93.0258 301.252 92.5591 301.336 92.1111 301.504C91.6725 301.672 91.2991 301.896 90.9911 302.176L90.6411 301.672C91.0051 301.345 91.4438 301.093 91.9571 300.916C92.4705 300.729 93.0071 300.636 93.5671 300.636ZM93.1751 307.482C93.7818 307.482 94.2951 307.342 94.7151 307.062C95.1445 306.782 95.4665 306.376 95.6811 305.844V304.472H93.1891C92.4705 304.472 91.9478 304.603 91.6211 304.864C91.3038 305.125 91.1451 305.485 91.1451 305.942C91.1451 306.418 91.3225 306.796 91.6771 307.076C92.0318 307.347 92.5311 307.482 93.1751 307.482ZM108.365 300.636C109.271 300.636 109.98 300.902 110.493 301.434C111.016 301.966 111.277 302.731 111.277 303.73V308H110.577V303.786C110.577 302.965 110.377 302.339 109.975 301.91C109.574 301.481 109.014 301.266 108.295 301.266C107.474 301.266 106.821 301.523 106.335 302.036C105.859 302.549 105.621 303.24 105.621 304.108V308H104.921V303.786C104.921 302.965 104.721 302.339 104.319 301.91C103.918 301.481 103.358 301.266 102.639 301.266C101.818 301.266 101.165 301.523 100.679 302.036C100.203 302.549 99.9653 303.24 99.9653 304.108V308H99.2653V300.692H99.9373V302.26C100.18 301.747 100.539 301.35 101.015 301.07C101.501 300.781 102.075 300.636 102.737 300.636C103.4 300.636 103.96 300.785 104.417 301.084C104.884 301.383 105.215 301.821 105.411 302.4C105.654 301.859 106.032 301.429 106.545 301.112C107.068 300.795 107.675 300.636 108.365 300.636ZM114.168 300.692H114.868V308H114.168V300.692ZM114.518 298.914C114.359 298.914 114.224 298.863 114.112 298.76C114 298.648 113.944 298.513 113.944 298.354C113.944 298.195 114 298.06 114.112 297.948C114.224 297.836 114.359 297.78 114.518 297.78C114.676 297.78 114.812 297.836 114.924 297.948C115.036 298.051 115.092 298.181 115.092 298.34C115.092 298.499 115.036 298.634 114.924 298.746C114.812 298.858 114.676 298.914 114.518 298.914ZM117.818 297.612H118.518V308H117.818V297.612ZM127.334 300.692L123.582 308.994C123.302 309.638 122.976 310.095 122.602 310.366C122.238 310.637 121.804 310.772 121.3 310.772C120.964 310.772 120.647 310.716 120.348 310.604C120.059 310.492 119.812 310.329 119.606 310.114L119.956 309.582C120.33 309.965 120.782 310.156 121.314 310.156C121.669 310.156 121.972 310.058 122.224 309.862C122.476 309.666 122.71 309.33 122.924 308.854L123.316 307.972L120.026 300.692H120.768L123.694 307.23L126.62 300.692H127.334ZM135.317 308.056C134.626 308.056 134.001 307.897 133.441 307.58C132.89 307.263 132.456 306.824 132.139 306.264C131.821 305.695 131.663 305.055 131.663 304.346C131.663 303.637 131.821 303.002 132.139 302.442C132.456 301.873 132.89 301.429 133.441 301.112C134.001 300.795 134.626 300.636 135.317 300.636C136.007 300.636 136.628 300.795 137.179 301.112C137.739 301.429 138.177 301.873 138.495 302.442C138.812 303.002 138.971 303.637 138.971 304.346C138.971 305.055 138.812 305.695 138.495 306.264C138.177 306.824 137.739 307.263 137.179 307.58C136.628 307.897 136.007 308.056 135.317 308.056ZM135.317 307.426C135.877 307.426 136.376 307.295 136.815 307.034C137.263 306.773 137.613 306.409 137.865 305.942C138.126 305.475 138.257 304.943 138.257 304.346C138.257 303.749 138.126 303.217 137.865 302.75C137.613 302.283 137.263 301.919 136.815 301.658C136.376 301.397 135.877 301.266 135.317 301.266C134.757 301.266 134.253 301.397 133.805 301.658C133.366 301.919 133.016 302.283 132.755 302.75C132.503 303.217 132.377 303.749 132.377 304.346C132.377 304.943 132.503 305.475 132.755 305.942C133.016 306.409 133.366 306.773 133.805 307.034C134.253 307.295 134.757 307.426 135.317 307.426ZM143.34 298.158C142.426 298.158 141.968 298.648 141.968 299.628V300.692H144.306V301.294H141.982V308H141.282V301.294H139.938V300.692H141.282V299.572C141.282 298.956 141.46 298.466 141.814 298.102C142.169 297.738 142.668 297.556 143.312 297.556C143.592 297.556 143.858 297.598 144.11 297.682C144.372 297.757 144.586 297.873 144.754 298.032L144.474 298.564C144.176 298.293 143.798 298.158 143.34 298.158ZM153 300.636C153.681 300.636 154.297 300.795 154.848 301.112C155.398 301.42 155.828 301.859 156.136 302.428C156.453 302.988 156.612 303.627 156.612 304.346C156.612 305.065 156.453 305.704 156.136 306.264C155.828 306.824 155.398 307.263 154.848 307.58C154.297 307.897 153.681 308.056 153 308.056C152.346 308.056 151.754 307.902 151.222 307.594C150.699 307.277 150.293 306.838 150.004 306.278V308H149.332V297.612H150.032V302.358C150.321 301.817 150.727 301.397 151.25 301.098C151.772 300.79 152.356 300.636 153 300.636ZM152.958 307.426C153.518 307.426 154.022 307.295 154.47 307.034C154.918 306.773 155.268 306.409 155.52 305.942C155.781 305.475 155.912 304.943 155.912 304.346C155.912 303.749 155.781 303.217 155.52 302.75C155.268 302.283 154.918 301.919 154.47 301.658C154.022 301.397 153.518 301.266 152.958 301.266C152.398 301.266 151.894 301.397 151.446 301.658C151.007 301.919 150.657 302.283 150.396 302.75C150.144 303.217 150.018 303.749 150.018 304.346C150.018 304.943 150.144 305.475 150.396 305.942C150.657 306.409 151.007 306.773 151.446 307.034C151.894 307.295 152.398 307.426 152.958 307.426ZM159.451 302.288C159.675 301.756 160.025 301.35 160.501 301.07C160.977 300.781 161.556 300.636 162.237 300.636V301.322L162.069 301.308C161.257 301.308 160.622 301.565 160.165 302.078C159.708 302.582 159.479 303.287 159.479 304.192V308H158.779V300.692H159.451V302.288ZM166.63 300.636C167.535 300.636 168.23 300.869 168.716 301.336C169.201 301.793 169.444 302.47 169.444 303.366V308H168.772V306.698C168.538 307.127 168.198 307.463 167.75 307.706C167.302 307.939 166.765 308.056 166.14 308.056C165.328 308.056 164.684 307.865 164.208 307.482C163.741 307.099 163.508 306.595 163.508 305.97C163.508 305.363 163.722 304.873 164.152 304.5C164.59 304.117 165.286 303.926 166.238 303.926H168.744V303.338C168.744 302.657 168.557 302.139 168.184 301.784C167.82 301.429 167.283 301.252 166.574 301.252C166.088 301.252 165.622 301.336 165.174 301.504C164.735 301.672 164.362 301.896 164.054 302.176L163.704 301.672C164.068 301.345 164.506 301.093 165.02 300.916C165.533 300.729 166.07 300.636 166.63 300.636ZM166.238 307.482C166.844 307.482 167.358 307.342 167.778 307.062C168.207 306.782 168.529 306.376 168.744 305.844V304.472H166.252C165.533 304.472 165.01 304.603 164.684 304.864C164.366 305.125 164.208 305.485 164.208 305.942C164.208 306.418 164.385 306.796 164.74 307.076C165.094 307.347 165.594 307.482 166.238 307.482ZM175.898 300.636C176.812 300.636 177.536 300.902 178.068 301.434C178.6 301.966 178.866 302.731 178.866 303.73V308H178.166V303.786C178.166 302.965 177.956 302.339 177.536 301.91C177.125 301.481 176.546 301.266 175.8 301.266C174.941 301.266 174.264 301.523 173.77 302.036C173.275 302.549 173.028 303.24 173.028 304.108V308H172.328V300.692H173V302.274C173.252 301.761 173.625 301.359 174.12 301.07C174.624 300.781 175.216 300.636 175.898 300.636ZM188.257 297.612V308H187.571V306.278C187.282 306.847 186.876 307.286 186.353 307.594C185.831 307.902 185.238 308.056 184.575 308.056C183.894 308.056 183.278 307.897 182.727 307.58C182.177 307.263 181.743 306.824 181.425 306.264C181.117 305.704 180.963 305.065 180.963 304.346C180.963 303.627 181.117 302.988 181.425 302.428C181.743 301.859 182.177 301.42 182.727 301.112C183.278 300.795 183.894 300.636 184.575 300.636C185.229 300.636 185.812 300.79 186.325 301.098C186.848 301.406 187.259 301.835 187.557 302.386V297.612H188.257ZM184.617 307.426C185.177 307.426 185.677 307.295 186.115 307.034C186.563 306.773 186.913 306.409 187.165 305.942C187.427 305.475 187.557 304.943 187.557 304.346C187.557 303.749 187.427 303.217 187.165 302.75C186.913 302.283 186.563 301.919 186.115 301.658C185.677 301.397 185.177 301.266 184.617 301.266C184.057 301.266 183.553 301.397 183.105 301.658C182.667 301.919 182.317 302.283 182.055 302.75C181.803 303.217 181.677 303.749 181.677 304.346C181.677 304.943 181.803 305.475 182.055 305.942C182.317 306.409 182.667 306.773 183.105 307.034C183.553 307.295 184.057 307.426 184.617 307.426ZM193.057 308.056C192.469 308.056 191.909 307.967 191.377 307.79C190.845 307.613 190.429 307.389 190.131 307.118L190.453 306.558C190.751 306.81 191.134 307.02 191.601 307.188C192.077 307.356 192.571 307.44 193.085 307.44C193.822 307.44 194.363 307.319 194.709 307.076C195.063 306.833 195.241 306.497 195.241 306.068C195.241 305.76 195.143 305.517 194.947 305.34C194.76 305.163 194.527 305.032 194.247 304.948C193.967 304.864 193.579 304.775 193.085 304.682C192.506 304.579 192.039 304.467 191.685 304.346C191.33 304.225 191.027 304.029 190.775 303.758C190.523 303.487 190.397 303.114 190.397 302.638C190.397 302.059 190.635 301.583 191.111 301.21C191.596 300.827 192.282 300.636 193.169 300.636C193.635 300.636 194.097 300.701 194.555 300.832C195.012 300.963 195.385 301.135 195.675 301.35L195.353 301.91C195.054 301.695 194.713 301.532 194.331 301.42C193.948 301.308 193.556 301.252 193.155 301.252C192.473 301.252 191.96 301.378 191.615 301.63C191.269 301.882 191.097 302.213 191.097 302.624C191.097 302.951 191.195 303.207 191.391 303.394C191.587 303.571 191.825 303.707 192.105 303.8C192.394 303.884 192.795 303.977 193.309 304.08C193.878 304.183 194.335 304.295 194.681 304.416C195.035 304.528 195.334 304.715 195.577 304.976C195.819 305.237 195.941 305.597 195.941 306.054C195.941 306.661 195.689 307.146 195.185 307.51C194.681 307.874 193.971 308.056 193.057 308.056ZM197.81 308.056C197.651 308.056 197.511 308 197.39 307.888C197.278 307.767 197.222 307.622 197.222 307.454C197.222 307.286 197.278 307.146 197.39 307.034C197.511 306.922 197.651 306.866 197.81 306.866C197.969 306.866 198.104 306.922 198.216 307.034C198.337 307.146 198.398 307.286 198.398 307.454C198.398 307.622 198.337 307.767 198.216 307.888C198.104 308 197.969 308.056 197.81 308.056ZM200.613 308.056C200.454 308.056 200.314 308 200.193 307.888C200.081 307.767 200.025 307.622 200.025 307.454C200.025 307.286 200.081 307.146 200.193 307.034C200.314 306.922 200.454 306.866 200.613 306.866C200.772 306.866 200.907 306.922 201.019 307.034C201.14 307.146 201.201 307.286 201.201 307.454C201.201 307.622 201.14 307.767 201.019 307.888C200.907 308 200.772 308.056 200.613 308.056ZM203.416 308.056C203.257 308.056 203.117 308 202.996 307.888C202.884 307.767 202.828 307.622 202.828 307.454C202.828 307.286 202.884 307.146 202.996 307.034C203.117 306.922 203.257 306.866 203.416 306.866C203.574 306.866 203.71 306.922 203.822 307.034C203.943 307.146 204.004 307.286 204.004 307.454C204.004 307.622 203.943 307.767 203.822 307.888C203.71 308 203.574 308.056 203.416 308.056Z" fill="white"/>
<defs>
<linearGradient id="paint0_linear_396_3884" x1="-8.2866" y1="123.827" x2="406.938" y2="137.859" gradientUnits="userSpaceOnUse">
<stop stop-color="#A9A9A9"/>
<stop offset="0.552083" stop-color="#548FC1" stop-opacity="0.51"/>
<stop offset="1" stop-opacity="0.25"/>
</linearGradient>
</defs>
</svg>
