<svg width="311" height="305" viewBox="0 0 311 305" fill="none" xmlns="http://www.w3.org/2000/svg">
<path d="M12.2 53V51.25H21.3V1.97H15.98C13.7867 2.06333 11.92 2.85666 10.38 4.35C8.84 5.79666 7.65 7.66333 6.81 9.95C5.97 12.2367 5.52667 14.71 5.48 17.37H3.03V0.219999H48.39V17.37H45.94C45.8933 14.6167 45.4267 12.0733 44.54 9.74C43.6533 7.40666 42.3933 5.54 40.76 4.14C39.1733 2.69333 37.2133 1.97 34.88 1.97H30.68V51.25H39.78V53H12.2ZM76.7083 51.95V28.29C76.7083 26.5167 76.3116 25.21 75.5183 24.37C74.7716 23.4833 73.6983 23.04 72.2983 23.04C70.7116 23.04 69.2416 23.67 67.8883 24.93C66.5816 26.19 65.5316 27.9167 64.7383 30.11C63.9916 32.2567 63.6183 34.7067 63.6183 37.46L62.2183 27.31H63.8983C64.9249 25.3967 66.3016 23.81 68.0283 22.55C69.7549 21.29 71.9949 20.66 74.7483 20.66C77.5949 20.66 79.9049 21.4067 81.6783 22.9C83.4983 24.3467 84.4083 26.1433 84.4083 28.29V51.95H76.7083ZM50.3883 53V51.25H68.1683V53H50.3883ZM71.3883 53V51.25H89.1683V53H71.3883ZM55.9183 51.95V1.34H63.6183V51.95H55.9183ZM50.3883 1.97V0.219999H63.6183V1.97H50.3883ZM109.868 53.84C107.628 53.84 105.504 53.3967 103.498 52.51C101.538 51.5767 99.8108 50.34 98.3175 48.8C96.8242 47.2133 95.6575 45.44 94.8175 43.48C93.9775 41.4733 93.5575 39.3967 93.5575 37.25C93.5575 34.4033 94.2108 31.72 95.5175 29.2C96.8708 26.68 98.7375 24.6267 101.118 23.04C103.498 21.4533 106.298 20.66 109.518 20.66C112.038 20.66 114.301 21.2433 116.308 22.41C118.361 23.53 119.971 25.1167 121.138 27.17C122.304 29.2233 122.888 31.58 122.888 34.24V34.66H99.9975V32.91H114.768V28.92C114.768 24.6733 112.901 22.55 109.167 22.55C107.628 22.55 106.368 23.0167 105.388 23.95C104.454 24.8367 103.754 26.3533 103.288 28.5C102.868 30.6467 102.658 33.5633 102.658 37.25C102.658 41.03 102.891 43.97 103.358 46.07C103.824 48.17 104.594 49.64 105.668 50.48C106.788 51.32 108.258 51.74 110.078 51.74C112.551 51.74 114.698 51.11 116.518 49.85C118.338 48.59 119.878 46.3967 121.138 43.27H123.098C122.164 46.5367 120.508 49.1267 118.128 51.04C115.794 52.9067 113.041 53.84 109.868 53.84ZM0.58 116V114.25H24.8C26.9933 114.25 28.86 113.923 30.4 113.27C31.9867 112.57 33.2 111.287 34.04 109.42C34.88 107.553 35.3 104.87 35.3 101.37C35.3 98.1967 34.9033 95.7467 34.11 94.02C33.3167 92.2467 32.01 91.01 30.19 90.31C28.37 89.61 25.8733 89.26 22.7 89.26L20.6 87.16C25.4533 87.16 29.7933 87.6967 33.62 88.77C37.4467 89.7967 40.4567 91.3833 42.65 93.53C44.89 95.6767 46.01 98.4067 46.01 101.72C46.01 104.52 45.1933 106.993 43.56 109.14C41.9733 111.287 39.78 112.967 36.98 114.18C34.2267 115.393 31.1 116 27.6 116H0.58ZM8.28 114.95V63.22H17.66V114.95H8.28ZM15.49 89.26V87.16H24.8C26.9467 87.16 28.6733 86.88 29.98 86.32C31.3333 85.7133 32.3133 84.64 32.92 83.1C33.5733 81.5133 33.9 79.2267 33.9 76.24C33.9 73.0667 33.5733 70.6867 32.92 69.1C32.2667 67.4667 31.2633 66.37 29.91 65.81C28.5567 65.25 26.8533 64.97 24.8 64.97H0.58V63.22H27.6C30.68 63.22 33.4567 63.78 35.93 64.9C38.4033 65.9733 40.3633 67.4667 41.81 69.38C43.3033 71.2933 44.05 73.4867 44.05 75.96C44.05 78.5733 43.1867 80.8833 41.46 82.89C39.7333 84.8967 37.4233 86.46 34.53 87.58C31.6367 88.7 28.3933 89.26 24.8 89.26H15.49ZM61.6288 116.84C59.1088 116.84 57.0554 116.117 55.4688 114.67C53.8821 113.223 53.0888 111.333 53.0888 109C53.0888 106.76 53.8354 104.847 55.3288 103.26C56.8688 101.673 59.0388 100.46 61.8388 99.62C64.6388 98.7333 67.9521 98.29 71.7788 98.29V89.75C71.7788 88.5367 71.3121 87.58 70.3788 86.88C69.4454 86.18 68.1621 85.83 66.5288 85.83C65.1288 85.83 63.9854 86.0633 63.0988 86.53C62.2121 86.9967 61.7688 87.6033 61.7688 88.35C61.7688 88.8167 61.9321 89.2367 62.2588 89.61C62.5854 89.9833 62.7488 90.5667 62.7488 91.36C62.7488 92.34 62.3754 93.1567 61.6288 93.81C60.9288 94.4167 60.0188 94.72 58.8988 94.72C57.7788 94.72 56.8921 94.3933 56.2388 93.74C55.5854 93.04 55.2588 92.1767 55.2588 91.15C55.2588 89.75 55.8188 88.49 56.9388 87.37C58.0588 86.2033 59.5754 85.2933 61.4888 84.64C63.4021 83.9867 65.5488 83.66 67.9288 83.66C71.3354 83.66 74.1121 84.3367 76.2588 85.69C78.4054 86.9967 79.4788 88.7233 79.4788 90.87V112.15C79.4788 112.617 79.6188 113.013 79.8988 113.34C80.2254 113.62 80.5988 113.76 81.0188 113.76C81.4388 113.76 81.9288 113.55 82.4888 113.13C83.0488 112.663 83.7488 111.963 84.5888 111.03L85.5687 112.15C83.3754 115.277 80.9254 116.84 78.2188 116.84C76.5854 116.84 75.2321 116.397 74.1588 115.51C73.1321 114.577 72.4321 113.293 72.0588 111.66H71.7788C70.8921 113.153 69.4921 114.39 67.5788 115.37C65.6654 116.35 63.6821 116.84 61.6288 116.84ZM65.8288 112.99C67.6021 112.99 69.0254 112.337 70.0988 111.03C71.2188 109.677 71.7788 107.927 71.7788 105.78V100.11C68.2788 100.11 65.6421 100.763 63.8688 102.07C62.0954 103.33 61.2088 105.197 61.2088 107.67C61.2088 109.35 61.6054 110.657 62.3988 111.59C63.2388 112.523 64.3821 112.99 65.8288 112.99ZM112.649 114.95L100.189 98.57L106.629 94.58L122.659 114.95H112.649ZM86.4689 116V114.25H103.549V116H86.4689ZM107.889 116V114.25H125.109V116H107.889ZM91.9989 114.95V64.34H99.6989V114.95H91.9989ZM103.199 98.57H100.189L112.999 85.69H116.009L103.199 98.57ZM86.4689 64.97V63.22H99.6989V64.97H86.4689ZM105.579 86.25V84.5H121.819V86.25H105.579ZM149.221 114.95L136.761 98.57L143.201 94.58L159.231 114.95H149.221ZM123.041 116V114.25H140.121V116H123.041ZM144.461 116V114.25H161.681V116H144.461ZM128.571 114.95V64.34H136.271V114.95H128.571ZM139.771 98.57H136.761L149.571 85.69H152.581L139.771 98.57ZM123.041 64.97V63.22H136.271V64.97H123.041ZM142.151 86.25V84.5H158.391V86.25H142.151ZM177.623 116.84C175.336 116.84 173.19 116.373 171.183 115.44C169.223 114.507 167.473 113.27 165.933 111.73C164.44 110.143 163.273 108.37 162.433 106.41C161.593 104.403 161.173 102.35 161.173 100.25C161.173 98.15 161.593 96.12 162.433 94.16C163.273 92.1533 164.44 90.38 165.933 88.84C167.473 87.2533 169.223 85.9933 171.183 85.06C173.19 84.1267 175.336 83.66 177.623 83.66C179.91 83.66 182.033 84.1267 183.993 85.06C186 85.9933 187.75 87.2533 189.243 88.84C190.783 90.38 191.973 92.1533 192.813 94.16C193.653 96.12 194.073 98.15 194.073 100.25C194.073 102.35 193.653 104.403 192.813 106.41C191.973 108.37 190.783 110.143 189.243 111.73C187.75 113.27 186 114.507 183.993 115.44C182.033 116.373 179.91 116.84 177.623 116.84ZM177.623 114.74C179.396 114.74 180.82 114.343 181.893 113.55C182.966 112.757 183.736 111.333 184.203 109.28C184.716 107.18 184.973 104.17 184.973 100.25C184.973 96.33 184.716 93.32 184.203 91.22C183.736 89.12 182.966 87.6967 181.893 86.95C180.82 86.1567 179.396 85.76 177.623 85.76C175.85 85.76 174.426 86.1567 173.353 86.95C172.28 87.6967 171.486 89.12 170.973 91.22C170.506 93.32 170.273 96.33 170.273 100.25C170.273 104.17 170.506 107.18 170.973 109.28C171.486 111.333 172.28 112.757 173.353 113.55C174.426 114.343 175.85 114.74 177.623 114.74ZM212.38 116.84C209.673 116.84 207.456 116.117 205.73 114.67C204.05 113.177 203.21 111.357 203.21 109.21V85.55H210.91V109C210.91 110.727 211.26 112.033 211.96 112.92C212.66 113.807 213.616 114.25 214.83 114.25C216.276 114.25 217.606 113.62 218.82 112.36C220.08 111.1 221.083 109.397 221.83 107.25C222.623 105.103 223.02 102.7 223.02 100.04L224.42 110.54H222.74C221.713 112.36 220.383 113.877 218.75 115.09C217.116 116.257 214.993 116.84 212.38 116.84ZM223.02 116V114.25H236.25V116H223.02ZM197.75 86.25V84.5H210.91V86.25H197.75ZM223.02 114.88V85.55H230.72V114.88H223.02ZM217.28 86.25V84.5H230.72V86.25H217.28ZM239.142 116V114.25H244.672V86.25H239.142V84.5H252.372V90.03H252.652C253.818 87.51 255.148 85.83 256.642 84.99C258.182 84.1033 259.605 83.66 260.912 83.66C262.405 83.66 263.572 84.1033 264.412 84.99C265.298 85.83 265.742 87.0433 265.742 88.63C265.742 90.0767 265.298 91.15 264.412 91.85C263.572 92.5033 262.615 92.83 261.542 92.83C260.655 92.83 259.838 92.5967 259.092 92.13C258.392 91.6167 258.042 90.9167 258.042 90.03C258.042 89.75 258.065 89.5167 258.112 89.33C258.205 89.0967 258.252 88.8633 258.252 88.63C258.252 88.3967 258.182 88.1867 258.042 88C257.902 87.8133 257.598 87.72 257.132 87.72C256.525 87.72 255.848 88.21 255.102 89.19C254.355 90.1233 253.702 91.4067 253.142 93.04C252.628 94.6267 252.372 96.4 252.372 98.36V114.25H258.672V116H239.142ZM278.533 116.84C276.013 116.84 273.96 116.117 272.373 114.67C270.786 113.223 269.993 111.333 269.993 109C269.993 106.76 270.74 104.847 272.233 103.26C273.773 101.673 275.943 100.46 278.743 99.62C281.543 98.7333 284.856 98.29 288.683 98.29V89.75C288.683 88.5367 288.216 87.58 287.283 86.88C286.35 86.18 285.066 85.83 283.433 85.83C282.033 85.83 280.89 86.0633 280.003 86.53C279.116 86.9967 278.673 87.6033 278.673 88.35C278.673 88.8167 278.836 89.2367 279.163 89.61C279.49 89.9833 279.653 90.5667 279.653 91.36C279.653 92.34 279.28 93.1567 278.533 93.81C277.833 94.4167 276.923 94.72 275.803 94.72C274.683 94.72 273.796 94.3933 273.143 93.74C272.49 93.04 272.163 92.1767 272.163 91.15C272.163 89.75 272.723 88.49 273.843 87.37C274.963 86.2033 276.48 85.2933 278.393 84.64C280.306 83.9867 282.453 83.66 284.833 83.66C288.24 83.66 291.016 84.3367 293.163 85.69C295.31 86.9967 296.383 88.7233 296.383 90.87V112.15C296.383 112.617 296.523 113.013 296.803 113.34C297.13 113.62 297.503 113.76 297.923 113.76C298.343 113.76 298.833 113.55 299.393 113.13C299.953 112.663 300.653 111.963 301.493 111.03L302.473 112.15C300.28 115.277 297.83 116.84 295.123 116.84C293.49 116.84 292.136 116.397 291.063 115.51C290.036 114.577 289.336 113.293 288.963 111.66H288.683C287.796 113.153 286.396 114.39 284.483 115.37C282.57 116.35 280.586 116.84 278.533 116.84ZM282.733 112.99C284.506 112.99 285.93 112.337 287.003 111.03C288.123 109.677 288.683 107.927 288.683 105.78V100.11C285.183 100.11 282.546 100.763 280.773 102.07C279 103.33 278.113 105.197 278.113 107.67C278.113 109.35 278.51 110.657 279.303 111.59C280.143 112.523 281.286 112.99 282.733 112.99ZM1.77 179V177.25H25.22C28.1133 177.25 30.5633 176.9 32.57 176.2C34.5767 175.5 36.21 174.263 37.47 172.49C38.73 170.67 39.64 168.15 40.2 164.93C40.8067 161.71 41.11 157.603 41.11 152.61C41.11 147.617 40.8067 143.51 40.2 140.29C39.64 137.07 38.7067 134.573 37.4 132.8C36.14 130.98 34.5067 129.72 32.5 129.02C30.4933 128.32 28.0433 127.97 25.15 127.97H1.77V126.22H27.39C30.89 126.22 34.1333 126.943 37.12 128.39C40.1533 129.79 42.8133 131.727 45.1 134.2C47.3867 136.673 49.16 139.497 50.42 142.67C51.68 145.843 52.31 149.157 52.31 152.61C52.31 156.063 51.6567 159.377 50.35 162.55C49.09 165.723 47.3167 168.547 45.03 171.02C42.79 173.493 40.1533 175.453 37.12 176.9C34.0867 178.3 30.82 179 27.32 179H1.77ZM9.47 177.95V126.22H18.85V177.95H9.47ZM60.7341 201.82C59.5674 201.82 58.6574 201.587 58.0041 201.12C57.3507 200.653 56.8841 200.093 56.6041 199.44C56.3707 198.787 56.2541 198.18 56.2541 197.62C56.2541 196.5 56.5807 195.59 57.2341 194.89C57.9341 194.237 58.7974 193.91 59.8241 193.91C60.7574 193.91 61.4807 194.12 61.9941 194.54C62.5074 195.007 62.9274 195.45 63.2541 195.87C63.6274 196.337 64.0241 196.57 64.4441 196.57C64.8174 196.57 65.0974 196.407 65.2841 196.08C65.5174 195.753 65.7041 195.38 65.8441 194.96L82.4341 148.76H84.9541L68.1541 194.12C66.9874 197.247 65.7741 199.3 64.5141 200.28C63.2541 201.307 61.9941 201.82 60.7341 201.82ZM72.0741 177.95L58.2841 148.2L66.7541 147.78L75.3641 167.87H75.7841L72.0741 177.95ZM54.6441 149.25V147.5H72.0041V149.25H54.6441ZM77.0441 149.25V147.5H90.2041V149.25H77.0441ZM117.317 177.95V154.29C117.317 150.79 115.917 149.04 113.117 149.04C111.577 149.04 110.154 149.67 108.847 150.93C107.587 152.19 106.56 153.917 105.767 156.11C105.02 158.257 104.647 160.707 104.647 163.46L103.247 153.31H104.927C105.907 151.397 107.237 149.81 108.917 148.55C110.644 147.29 112.86 146.66 115.567 146.66C118.32 146.66 120.584 147.407 122.357 148.9C124.13 150.347 125.017 152.143 125.017 154.29V177.95H117.317ZM91.417 179V177.25H109.197V179H91.417ZM96.947 177.95V148.62H104.647V177.95H96.947ZM111.997 179V177.25H129.777V179H111.997ZM91.417 149.25V147.5H104.647V149.25H91.417ZM142.566 179.84C140.046 179.84 137.993 179.117 136.406 177.67C134.82 176.223 134.026 174.333 134.026 172C134.026 169.76 134.773 167.847 136.266 166.26C137.806 164.673 139.976 163.46 142.776 162.62C145.576 161.733 148.89 161.29 152.716 161.29V152.75C152.716 151.537 152.25 150.58 151.316 149.88C150.383 149.18 149.1 148.83 147.466 148.83C146.066 148.83 144.923 149.063 144.036 149.53C143.15 149.997 142.706 150.603 142.706 151.35C142.706 151.817 142.87 152.237 143.196 152.61C143.523 152.983 143.686 153.567 143.686 154.36C143.686 155.34 143.313 156.157 142.566 156.81C141.866 157.417 140.956 157.72 139.836 157.72C138.716 157.72 137.83 157.393 137.176 156.74C136.523 156.04 136.196 155.177 136.196 154.15C136.196 152.75 136.756 151.49 137.876 150.37C138.996 149.203 140.513 148.293 142.426 147.64C144.34 146.987 146.486 146.66 148.866 146.66C152.273 146.66 155.05 147.337 157.196 148.69C159.343 149.997 160.416 151.723 160.416 153.87V175.15C160.416 175.617 160.556 176.013 160.836 176.34C161.163 176.62 161.536 176.76 161.956 176.76C162.376 176.76 162.866 176.55 163.426 176.13C163.986 175.663 164.686 174.963 165.526 174.03L166.506 175.15C164.313 178.277 161.863 179.84 159.156 179.84C157.523 179.84 156.17 179.397 155.096 178.51C154.07 177.577 153.37 176.293 152.996 174.66H152.716C151.83 176.153 150.43 177.39 148.516 178.37C146.603 179.35 144.62 179.84 142.566 179.84ZM146.766 175.99C148.54 175.99 149.963 175.337 151.036 174.03C152.156 172.677 152.716 170.927 152.716 168.78V163.11C149.216 163.11 146.58 163.763 144.806 165.07C143.033 166.33 142.146 168.197 142.146 170.67C142.146 172.35 142.543 173.657 143.336 174.59C144.176 175.523 145.32 175.99 146.766 175.99ZM183.296 179.84C181.383 179.84 179.516 179.513 177.696 178.86C175.923 178.207 174.476 177.343 173.356 176.27L172.306 179H170.276V168.29H172.516L172.866 169.62C173.52 172.14 174.686 174.053 176.366 175.36C178.093 176.667 180.38 177.32 183.226 177.32C185.56 177.32 187.193 176.923 188.126 176.13C189.06 175.29 189.526 174.1 189.526 172.56C189.526 171.02 188.896 169.9 187.636 169.2C186.376 168.453 184.44 167.8 181.826 167.24C179.586 166.773 177.626 166.19 175.946 165.49C174.313 164.743 173.03 163.717 172.096 162.41C171.163 161.057 170.696 159.213 170.696 156.88C170.696 153.567 171.653 151.047 173.566 149.32C175.48 147.547 178.21 146.66 181.756 146.66C183.763 146.66 185.49 146.94 186.936 147.5C188.43 148.06 189.48 148.83 190.086 149.81L190.856 147.5H192.676V157.65H190.506L190.296 156.6C189.783 153.987 188.873 152.097 187.566 150.93C186.306 149.763 184.416 149.18 181.896 149.18C179.656 149.18 177.976 149.623 176.856 150.51C175.783 151.35 175.246 152.54 175.246 154.08C175.246 154.827 175.456 155.503 175.876 156.11C176.296 156.67 177.066 157.183 178.186 157.65C179.353 158.117 180.963 158.583 183.016 159.05C185.396 159.563 187.403 160.217 189.036 161.01C190.67 161.803 191.906 162.853 192.746 164.16C193.633 165.467 194.076 167.17 194.076 169.27C194.076 172.49 193.096 175.057 191.136 176.97C189.176 178.883 186.563 179.84 183.296 179.84ZM211.527 179.91C209.1 179.91 207.28 179.42 206.067 178.44C204.9 177.46 204.317 175.99 204.317 174.03V149.32H198.647V147.57C200.28 147.43 201.797 146.8 203.197 145.68C204.643 144.513 205.95 143.043 207.117 141.27C208.33 139.497 209.31 137.56 210.057 135.46H212.017V147.57H220.067V149.32H212.017V173.54C212.017 175.64 212.88 176.69 214.607 176.69C215.587 176.69 216.473 176.363 217.267 175.71C218.107 175.01 218.97 173.867 219.857 172.28L221.257 173.05C220.09 175.617 218.76 177.413 217.267 178.44C215.773 179.42 213.86 179.91 211.527 179.91ZM227.873 201.82C226.706 201.82 225.796 201.587 225.143 201.12C224.489 200.653 224.023 200.093 223.743 199.44C223.509 198.787 223.393 198.18 223.393 197.62C223.393 196.5 223.719 195.59 224.373 194.89C225.073 194.237 225.936 193.91 226.963 193.91C227.896 193.91 228.619 194.12 229.133 194.54C229.646 195.007 230.066 195.45 230.393 195.87C230.766 196.337 231.163 196.57 231.583 196.57C231.956 196.57 232.236 196.407 232.423 196.08C232.656 195.753 232.843 195.38 232.983 194.96L249.573 148.76H252.093L235.293 194.12C234.126 197.247 232.913 199.3 231.653 200.28C230.393 201.307 229.133 201.82 227.873 201.82ZM239.213 177.95L225.423 148.2L233.893 147.78L242.503 167.87H242.923L239.213 177.95ZM221.783 149.25V147.5H239.143V149.25H221.783ZM244.183 149.25V147.5H257.343V149.25H244.183Z" fill="url(#paint0_linear_1903_10728)"/>
<path d="M5.98174 237V226.536H1.94974V225.8H10.8297V226.536H6.79774V237H5.98174ZM16.6774 228.584C17.36 228.584 17.952 228.717 18.4534 228.984C18.9654 229.24 19.36 229.635 19.6374 230.168C19.9254 230.691 20.0694 231.341 20.0694 232.12V237H19.2694V232.184C19.2694 231.245 19.0294 230.531 18.5494 230.04C18.08 229.549 17.4187 229.304 16.5654 229.304C15.9147 229.304 15.3494 229.437 14.8694 229.704C14.3894 229.971 14.0214 230.344 13.7654 230.824C13.52 231.304 13.3974 231.88 13.3974 232.552V237H12.5974V225.128H13.3974V230.968L13.2534 230.712C13.5094 230.051 13.9307 229.533 14.5174 229.16C15.104 228.776 15.824 228.584 16.6774 228.584ZM26.755 237.064C25.9123 237.064 25.1657 236.883 24.515 236.52C23.875 236.157 23.3683 235.656 22.995 235.016C22.6323 234.376 22.451 233.645 22.451 232.824C22.451 231.992 22.6217 231.261 22.963 230.632C23.315 229.992 23.795 229.491 24.403 229.128C25.011 228.765 25.6937 228.584 26.451 228.584C27.2083 228.584 27.8857 228.76 28.483 229.112C29.091 229.464 29.5657 229.96 29.907 230.6C30.259 231.229 30.435 231.96 30.435 232.792C30.435 232.824 30.4297 232.861 30.419 232.904C30.419 232.936 30.419 232.973 30.419 233.016H23.043V232.392H29.987L29.667 232.696C29.6777 232.045 29.539 231.464 29.251 230.952C28.9737 230.429 28.595 230.024 28.115 229.736C27.635 229.437 27.0803 229.288 26.451 229.288C25.8323 229.288 25.2777 229.437 24.787 229.736C24.307 230.024 23.9283 230.429 23.651 230.952C23.3737 231.464 23.235 232.051 23.235 232.712V232.856C23.235 233.539 23.3843 234.147 23.683 234.68C23.9923 235.203 24.4137 235.613 24.947 235.912C25.4803 236.2 26.0883 236.344 26.771 236.344C27.3043 236.344 27.8003 236.248 28.259 236.056C28.7283 235.864 29.123 235.571 29.443 235.176L29.907 235.704C29.5443 236.152 29.0857 236.493 28.531 236.728C27.987 236.952 27.395 237.064 26.755 237.064ZM38.6512 237L35.4832 228.648H36.2512L39.1952 236.552H38.8592L41.8832 228.648H42.5712L45.5792 236.552H45.2272L48.2192 228.648H48.9552L45.7872 237H45.0352L42.0912 229.416H42.3472L39.3872 237H38.6512ZM50.8161 237V228.648H51.6161V237H50.8161ZM51.2161 226.616C51.0348 226.616 50.8801 226.552 50.7521 226.424C50.6241 226.296 50.5601 226.147 50.5601 225.976C50.5601 225.795 50.6241 225.64 50.7521 225.512C50.8801 225.384 51.0348 225.32 51.2161 225.32C51.4081 225.32 51.5628 225.384 51.6801 225.512C51.8081 225.629 51.8721 225.779 51.8721 225.96C51.8721 226.141 51.8081 226.296 51.6801 226.424C51.5628 226.552 51.4081 226.616 51.2161 226.616ZM59.068 228.584C59.7507 228.584 60.3427 228.717 60.844 228.984C61.356 229.24 61.7507 229.635 62.028 230.168C62.316 230.691 62.46 231.341 62.46 232.12V237H61.66V232.184C61.66 231.245 61.42 230.531 60.94 230.04C60.4707 229.549 59.8093 229.304 58.956 229.304C58.3053 229.304 57.74 229.437 57.26 229.704C56.78 229.971 56.412 230.344 56.156 230.824C55.9107 231.304 55.788 231.88 55.788 232.552V237H54.988V228.648H55.756V230.968L55.644 230.712C55.9 230.051 56.3213 229.533 56.908 229.16C57.4947 228.776 58.2147 228.584 59.068 228.584ZM66.3616 234.696L66.3776 233.688L71.8976 228.648H72.9216L69.2576 232.088L68.7776 232.488L66.3616 234.696ZM65.7536 237V225.128H66.5536V237H65.7536ZM72.2816 237L68.6336 232.424L69.1776 231.832L73.2736 237H72.2816ZM82.5812 237.064C81.7706 237.064 81.0452 236.883 80.4052 236.52C79.7759 236.157 79.2746 235.656 78.9012 235.016C78.5386 234.376 78.3572 233.645 78.3572 232.824C78.3572 231.992 78.5386 231.256 78.9012 230.616C79.2746 229.976 79.7759 229.48 80.4052 229.128C81.0452 228.765 81.7706 228.584 82.5812 228.584C83.2532 228.584 83.8612 228.712 84.4052 228.968C84.9599 229.224 85.4079 229.608 85.7492 230.12L85.1572 230.552C84.8586 230.125 84.4852 229.811 84.0372 229.608C83.5892 229.405 83.1039 229.304 82.5812 229.304C81.9306 229.304 81.3439 229.453 80.8212 229.752C80.3092 230.04 79.9039 230.451 79.6052 230.984C79.3172 231.507 79.1732 232.12 79.1732 232.824C79.1732 233.528 79.3172 234.147 79.6052 234.68C79.9039 235.203 80.3092 235.613 80.8212 235.912C81.3439 236.2 81.9306 236.344 82.5812 236.344C83.1039 236.344 83.5892 236.243 84.0372 236.04C84.4852 235.837 84.8586 235.523 85.1572 235.096L85.7492 235.528C85.4079 236.04 84.9599 236.424 84.4052 236.68C83.8612 236.936 83.2532 237.064 82.5812 237.064ZM91.2676 237.064C90.4676 237.064 89.753 236.883 89.1236 236.52C88.505 236.157 88.009 235.656 87.6356 235.016C87.273 234.376 87.0916 233.645 87.0916 232.824C87.0916 231.992 87.273 231.261 87.6356 230.632C88.009 229.992 88.505 229.491 89.1236 229.128C89.753 228.765 90.4676 228.584 91.2676 228.584C92.0676 228.584 92.7823 228.765 93.4116 229.128C94.041 229.491 94.537 229.992 94.8996 230.632C95.2623 231.261 95.4436 231.992 95.4436 232.824C95.4436 233.645 95.2623 234.376 94.8996 235.016C94.537 235.656 94.041 236.157 93.4116 236.52C92.7823 236.883 92.0676 237.064 91.2676 237.064ZM91.2676 236.344C91.9076 236.344 92.4836 236.2 92.9956 235.912C93.5076 235.613 93.9076 235.197 94.1956 234.664C94.4836 234.131 94.6276 233.517 94.6276 232.824C94.6276 232.12 94.4836 231.507 94.1956 230.984C93.9076 230.451 93.5076 230.04 92.9956 229.752C92.4836 229.453 91.9076 229.304 91.2676 229.304C90.6276 229.304 90.0516 229.453 89.5396 229.752C89.0383 230.04 88.6383 230.451 88.3396 230.984C88.0516 231.507 87.9076 232.12 87.9076 232.824C87.9076 233.517 88.0516 234.131 88.3396 234.664C88.6383 235.197 89.0383 235.613 89.5396 235.912C90.0516 236.2 90.6276 236.344 91.2676 236.344ZM97.9255 237V225.128H98.7255V237H97.9255ZM102.097 237V225.128H102.897V237H102.097ZM109.661 237.064C108.819 237.064 108.072 236.883 107.421 236.52C106.781 236.157 106.275 235.656 105.901 235.016C105.539 234.376 105.357 233.645 105.357 232.824C105.357 231.992 105.528 231.261 105.869 230.632C106.221 229.992 106.701 229.491 107.309 229.128C107.917 228.765 108.6 228.584 109.357 228.584C110.115 228.584 110.792 228.76 111.389 229.112C111.997 229.464 112.472 229.96 112.813 230.6C113.165 231.229 113.341 231.96 113.341 232.792C113.341 232.824 113.336 232.861 113.325 232.904C113.325 232.936 113.325 232.973 113.325 233.016H105.949V232.392H112.893L112.573 232.696C112.584 232.045 112.445 231.464 112.157 230.952C111.88 230.429 111.501 230.024 111.021 229.736C110.541 229.437 109.987 229.288 109.357 229.288C108.739 229.288 108.184 229.437 107.693 229.736C107.213 230.024 106.835 230.429 106.557 230.952C106.28 231.464 106.141 232.051 106.141 232.712V232.856C106.141 233.539 106.291 234.147 106.589 234.68C106.899 235.203 107.32 235.613 107.853 235.912C108.387 236.2 108.995 236.344 109.677 236.344C110.211 236.344 110.707 236.248 111.165 236.056C111.635 235.864 112.029 235.571 112.349 235.176L112.813 235.704C112.451 236.152 111.992 236.493 111.437 236.728C110.893 236.952 110.301 237.064 109.661 237.064ZM119.128 237.064C118.317 237.064 117.592 236.883 116.952 236.52C116.323 236.157 115.821 235.656 115.448 235.016C115.085 234.376 114.904 233.645 114.904 232.824C114.904 231.992 115.085 231.256 115.448 230.616C115.821 229.976 116.323 229.48 116.952 229.128C117.592 228.765 118.317 228.584 119.128 228.584C119.8 228.584 120.408 228.712 120.952 228.968C121.507 229.224 121.955 229.608 122.296 230.12L121.704 230.552C121.405 230.125 121.032 229.811 120.584 229.608C120.136 229.405 119.651 229.304 119.128 229.304C118.477 229.304 117.891 229.453 117.368 229.752C116.856 230.04 116.451 230.451 116.152 230.984C115.864 231.507 115.72 232.12 115.72 232.824C115.72 233.528 115.864 234.147 116.152 234.68C116.451 235.203 116.856 235.613 117.368 235.912C117.891 236.2 118.477 236.344 119.128 236.344C119.651 236.344 120.136 236.243 120.584 236.04C121.032 235.837 121.405 235.523 121.704 235.096L122.296 235.528C121.955 236.04 121.507 236.424 120.952 236.68C120.408 236.936 119.8 237.064 119.128 237.064ZM127.217 237.064C126.481 237.064 125.916 236.861 125.521 236.456C125.137 236.051 124.945 235.496 124.945 234.792V226.824H125.745V234.712C125.745 235.245 125.878 235.656 126.145 235.944C126.412 236.232 126.796 236.376 127.297 236.376C127.82 236.376 128.252 236.221 128.593 235.912L128.929 236.472C128.716 236.675 128.454 236.824 128.145 236.92C127.846 237.016 127.537 237.064 127.217 237.064ZM123.409 229.336V228.648H128.401V229.336H123.409ZM131.16 237V228.648H131.96V237H131.16ZM131.56 226.616C131.379 226.616 131.224 226.552 131.096 226.424C130.968 226.296 130.904 226.147 130.904 225.976C130.904 225.795 130.968 225.64 131.096 225.512C131.224 225.384 131.379 225.32 131.56 225.32C131.752 225.32 131.907 225.384 132.024 225.512C132.152 225.629 132.216 225.779 132.216 225.96C132.216 226.141 132.152 226.296 132.024 226.424C131.907 226.552 131.752 226.616 131.56 226.616ZM138.596 237.064C137.796 237.064 137.081 236.883 136.452 236.52C135.833 236.157 135.337 235.656 134.964 235.016C134.601 234.376 134.42 233.645 134.42 232.824C134.42 231.992 134.601 231.261 134.964 230.632C135.337 229.992 135.833 229.491 136.452 229.128C137.081 228.765 137.796 228.584 138.596 228.584C139.396 228.584 140.11 228.765 140.74 229.128C141.369 229.491 141.865 229.992 142.228 230.632C142.59 231.261 142.772 231.992 142.772 232.824C142.772 233.645 142.59 234.376 142.228 235.016C141.865 235.656 141.369 236.157 140.74 236.52C140.11 236.883 139.396 237.064 138.596 237.064ZM138.596 236.344C139.236 236.344 139.812 236.2 140.324 235.912C140.836 235.613 141.236 235.197 141.524 234.664C141.812 234.131 141.956 233.517 141.956 232.824C141.956 232.12 141.812 231.507 141.524 230.984C141.236 230.451 140.836 230.04 140.324 229.752C139.812 229.453 139.236 229.304 138.596 229.304C137.956 229.304 137.38 229.453 136.868 229.752C136.366 230.04 135.966 230.451 135.668 230.984C135.38 231.507 135.236 232.12 135.236 232.824C135.236 233.517 135.38 234.131 135.668 234.664C135.966 235.197 136.366 235.613 136.868 235.912C137.38 236.2 137.956 236.344 138.596 236.344ZM149.334 228.584C150.016 228.584 150.608 228.717 151.11 228.984C151.622 229.24 152.016 229.635 152.294 230.168C152.582 230.691 152.726 231.341 152.726 232.12V237H151.926V232.184C151.926 231.245 151.686 230.531 151.206 230.04C150.736 229.549 150.075 229.304 149.222 229.304C148.571 229.304 148.006 229.437 147.526 229.704C147.046 229.971 146.678 230.344 146.422 230.824C146.176 231.304 146.054 231.88 146.054 232.552V237H145.254V228.648H146.022V230.968L145.91 230.712C146.166 230.051 146.587 229.533 147.174 229.16C147.76 228.776 148.48 228.584 149.334 228.584ZM164.321 237.064C163.585 237.064 162.918 236.893 162.321 236.552C161.734 236.211 161.265 235.72 160.913 235.08C160.571 234.44 160.401 233.688 160.401 232.824C160.401 231.939 160.571 231.181 160.913 230.552C161.265 229.923 161.734 229.437 162.321 229.096C162.918 228.755 163.585 228.584 164.321 228.584C165.11 228.584 165.814 228.765 166.433 229.128C167.062 229.48 167.553 229.976 167.905 230.616C168.267 231.245 168.449 231.981 168.449 232.824C168.449 233.656 168.267 234.392 167.905 235.032C167.553 235.672 167.062 236.173 166.433 236.536C165.814 236.888 165.11 237.064 164.321 237.064ZM160.129 237V225.128H160.929V231.352L160.769 232.808L160.897 234.264V237H160.129ZM164.273 236.344C164.913 236.344 165.489 236.2 166.001 235.912C166.513 235.613 166.913 235.197 167.201 234.664C167.499 234.131 167.649 233.517 167.649 232.824C167.649 232.12 167.499 231.507 167.201 230.984C166.913 230.451 166.513 230.04 166.001 229.752C165.489 229.453 164.913 229.304 164.273 229.304C163.633 229.304 163.057 229.453 162.545 229.752C162.043 230.04 161.643 230.451 161.345 230.984C161.057 231.507 160.913 232.12 160.913 232.824C160.913 233.517 161.057 234.131 161.345 234.664C161.643 235.197 162.043 235.613 162.545 235.912C163.057 236.2 163.633 236.344 164.273 236.344ZM170.499 240.168C170.115 240.168 169.752 240.104 169.411 239.976C169.08 239.848 168.798 239.661 168.563 239.416L168.963 238.808C169.176 239.032 169.406 239.197 169.651 239.304C169.907 239.411 170.195 239.464 170.515 239.464C170.899 239.464 171.235 239.357 171.523 239.144C171.822 238.931 172.099 238.541 172.355 237.976L172.931 236.696L173.043 236.552L176.579 228.648H177.395L173.107 238.136C172.883 238.648 172.638 239.048 172.371 239.336C172.115 239.635 171.832 239.848 171.523 239.976C171.214 240.104 170.872 240.168 170.499 240.168ZM172.915 237.208L169.043 228.648H169.891L173.411 236.504L172.915 237.208ZM183.51 237V225.8H188.182C189.387 225.8 190.331 226.045 191.014 226.536C191.696 227.027 192.038 227.736 192.038 228.664C192.038 229.272 191.894 229.784 191.606 230.2C191.318 230.616 190.918 230.931 190.406 231.144C189.904 231.347 189.339 231.448 188.71 231.448L188.998 231.128C189.766 231.128 190.422 231.24 190.966 231.464C191.51 231.688 191.92 232.013 192.198 232.44C192.486 232.867 192.63 233.4 192.63 234.04C192.63 234.979 192.288 235.709 191.606 236.232C190.923 236.744 189.888 237 188.502 237H183.51ZM184.326 236.296H188.502C189.579 236.296 190.4 236.115 190.966 235.752C191.531 235.379 191.814 234.787 191.814 233.976C191.814 233.176 191.531 232.595 190.966 232.232C190.4 231.859 189.579 231.672 188.502 231.672H184.23V230.968H188.15C189.12 230.968 189.872 230.781 190.406 230.408C190.939 230.035 191.206 229.475 191.206 228.728C191.206 227.992 190.939 227.437 190.406 227.064C189.872 226.691 189.12 226.504 188.15 226.504H184.326V236.296ZM200.549 237V235.096L200.517 234.808V231.672C200.517 230.893 200.304 230.301 199.877 229.896C199.461 229.491 198.848 229.288 198.037 229.288C197.461 229.288 196.922 229.389 196.421 229.592C195.93 229.784 195.509 230.035 195.157 230.344L194.757 229.768C195.173 229.395 195.674 229.107 196.261 228.904C196.848 228.691 197.461 228.584 198.101 228.584C199.136 228.584 199.93 228.845 200.485 229.368C201.04 229.891 201.317 230.669 201.317 231.704V237H200.549ZM197.541 237.064C196.922 237.064 196.384 236.968 195.925 236.776C195.477 236.573 195.13 236.291 194.885 235.928C194.65 235.565 194.533 235.149 194.533 234.68C194.533 234.253 194.629 233.869 194.821 233.528C195.024 233.176 195.354 232.893 195.813 232.68C196.272 232.456 196.885 232.344 197.653 232.344H200.725V232.968H197.669C196.805 232.968 196.197 233.128 195.845 233.448C195.504 233.768 195.333 234.168 195.333 234.648C195.333 235.181 195.536 235.608 195.941 235.928C196.346 236.248 196.917 236.408 197.653 236.408C198.357 236.408 198.949 236.248 199.429 235.928C199.92 235.608 200.282 235.144 200.517 234.536L200.741 235.08C200.517 235.688 200.133 236.173 199.589 236.536C199.056 236.888 198.373 237.064 197.541 237.064ZM205.221 234.696L205.237 233.688L210.757 228.648H211.781L208.117 232.088L207.637 232.488L205.221 234.696ZM204.613 237V225.128H205.413V237H204.613ZM211.141 237L207.493 232.424L208.037 231.832L212.133 237H211.141ZM214.627 234.696L214.643 233.688L220.163 228.648H221.187L217.523 232.088L217.043 232.488L214.627 234.696ZM214.019 237V225.128H214.819V237H214.019ZM220.547 237L216.899 232.424L217.443 231.832L221.539 237H220.547ZM226.361 237.064C225.561 237.064 224.847 236.883 224.217 236.52C223.599 236.157 223.103 235.656 222.729 235.016C222.367 234.376 222.185 233.645 222.185 232.824C222.185 231.992 222.367 231.261 222.729 230.632C223.103 229.992 223.599 229.491 224.217 229.128C224.847 228.765 225.561 228.584 226.361 228.584C227.161 228.584 227.876 228.765 228.505 229.128C229.135 229.491 229.631 229.992 229.993 230.632C230.356 231.261 230.537 231.992 230.537 232.824C230.537 233.645 230.356 234.376 229.993 235.016C229.631 235.656 229.135 236.157 228.505 236.52C227.876 236.883 227.161 237.064 226.361 237.064ZM226.361 236.344C227.001 236.344 227.577 236.2 228.089 235.912C228.601 235.613 229.001 235.197 229.289 234.664C229.577 234.131 229.721 233.517 229.721 232.824C229.721 232.12 229.577 231.507 229.289 230.984C229.001 230.451 228.601 230.04 228.089 229.752C227.577 229.453 227.001 229.304 226.361 229.304C225.721 229.304 225.145 229.453 224.633 229.752C224.132 230.04 223.732 230.451 223.433 230.984C223.145 231.507 223.001 232.12 223.001 232.824C223.001 233.517 223.145 234.131 223.433 234.664C223.732 235.197 224.132 235.613 224.633 235.912C225.145 236.2 225.721 236.344 226.361 236.344ZM236.411 237.064C235.697 237.064 235.078 236.936 234.555 236.68C234.033 236.413 233.627 236.019 233.339 235.496C233.062 234.963 232.923 234.307 232.923 233.528V228.648H233.723V233.464C233.723 234.403 233.963 235.117 234.443 235.608C234.923 236.099 235.601 236.344 236.475 236.344C237.105 236.344 237.649 236.211 238.107 235.944C238.566 235.677 238.918 235.304 239.163 234.824C239.409 234.333 239.531 233.757 239.531 233.096V228.648H240.331V237H239.563V234.68L239.675 234.952C239.43 235.603 239.019 236.12 238.443 236.504C237.878 236.877 237.201 237.064 236.411 237.064ZM243.722 237V228.648H244.49V230.936L244.41 230.68C244.645 230.008 245.04 229.491 245.594 229.128C246.149 228.765 246.842 228.584 247.674 228.584V229.368C247.642 229.368 247.61 229.368 247.578 229.368C247.546 229.357 247.514 229.352 247.482 229.352C246.554 229.352 245.829 229.645 245.306 230.232C244.784 230.808 244.522 231.613 244.522 232.648V237H243.722ZM254.518 237V235.096L254.486 234.808V231.672C254.486 230.893 254.272 230.301 253.846 229.896C253.43 229.491 252.816 229.288 252.006 229.288C251.43 229.288 250.891 229.389 250.39 229.592C249.899 229.784 249.478 230.035 249.126 230.344L248.726 229.768C249.142 229.395 249.643 229.107 250.23 228.904C250.816 228.691 251.43 228.584 252.07 228.584C253.104 228.584 253.899 228.845 254.454 229.368C255.008 229.891 255.286 230.669 255.286 231.704V237H254.518ZM251.51 237.064C250.891 237.064 250.352 236.968 249.894 236.776C249.446 236.573 249.099 236.291 248.854 235.928C248.619 235.565 248.502 235.149 248.502 234.68C248.502 234.253 248.598 233.869 248.79 233.528C248.992 233.176 249.323 232.893 249.782 232.68C250.24 232.456 250.854 232.344 251.622 232.344H254.694V232.968H251.638C250.774 232.968 250.166 233.128 249.814 233.448C249.472 233.768 249.302 234.168 249.302 234.648C249.302 235.181 249.504 235.608 249.91 235.928C250.315 236.248 250.886 236.408 251.622 236.408C252.326 236.408 252.918 236.248 253.398 235.928C253.888 235.608 254.251 235.144 254.486 234.536L254.71 235.08C254.486 235.688 254.102 236.173 253.558 236.536C253.024 236.888 252.342 237.064 251.51 237.064ZM262.691 237V228.648H263.491V237H262.691ZM263.091 226.616C262.91 226.616 262.755 226.552 262.627 226.424C262.499 226.296 262.435 226.147 262.435 225.976C262.435 225.795 262.499 225.64 262.627 225.512C262.755 225.384 262.91 225.32 263.091 225.32C263.283 225.32 263.438 225.384 263.555 225.512C263.683 225.629 263.747 225.779 263.747 225.96C263.747 226.141 263.683 226.296 263.555 226.424C263.438 226.552 263.283 226.616 263.091 226.616ZM268.975 237.064C268.282 237.064 267.631 236.963 267.023 236.76C266.426 236.557 265.962 236.301 265.631 235.992L265.999 235.352C266.319 235.629 266.746 235.869 267.279 236.072C267.812 236.264 268.388 236.36 269.007 236.36C269.882 236.36 270.511 236.216 270.895 235.928C271.279 235.64 271.471 235.261 271.471 234.792C271.471 234.451 271.37 234.184 271.167 233.992C270.975 233.789 270.714 233.635 270.383 233.528C270.052 233.421 269.69 233.336 269.295 233.272C268.9 233.197 268.506 233.117 268.111 233.032C267.716 232.947 267.354 232.824 267.023 232.664C266.692 232.504 266.426 232.285 266.223 232.008C266.031 231.72 265.935 231.341 265.935 230.872C265.935 230.445 266.052 230.061 266.287 229.72C266.522 229.379 266.874 229.107 267.343 228.904C267.812 228.691 268.399 228.584 269.103 228.584C269.626 228.584 270.148 228.659 270.671 228.808C271.204 228.957 271.636 229.155 271.967 229.4L271.599 230.04C271.247 229.773 270.852 229.581 270.415 229.464C269.978 229.347 269.535 229.288 269.087 229.288C268.276 229.288 267.679 229.437 267.295 229.736C266.922 230.035 266.735 230.408 266.735 230.856C266.735 231.208 266.831 231.491 267.023 231.704C267.226 231.907 267.492 232.067 267.823 232.184C268.154 232.291 268.516 232.381 268.911 232.456C269.306 232.52 269.7 232.595 270.095 232.68C270.49 232.765 270.852 232.888 271.183 233.048C271.514 233.197 271.775 233.411 271.967 233.688C272.17 233.955 272.271 234.317 272.271 234.776C272.271 235.235 272.143 235.635 271.887 235.976C271.642 236.317 271.274 236.584 270.783 236.776C270.292 236.968 269.69 237.064 268.975 237.064ZM6.01374 261.064C5.27774 261.064 4.71241 260.861 4.31774 260.456C3.93374 260.051 3.74174 259.496 3.74174 258.792V250.824H4.54174V258.712C4.54174 259.245 4.67508 259.656 4.94174 259.944C5.20841 260.232 5.59241 260.376 6.09374 260.376C6.61641 260.376 7.04841 260.221 7.38974 259.912L7.72574 260.472C7.51241 260.675 7.25108 260.824 6.94174 260.92C6.64308 261.016 6.33374 261.064 6.01374 261.064ZM2.20574 253.336V252.648H7.19774V253.336H2.20574ZM14.0367 252.584C14.7194 252.584 15.3114 252.717 15.8127 252.984C16.3247 253.24 16.7194 253.635 16.9967 254.168C17.2847 254.691 17.4287 255.341 17.4287 256.12V261H16.6287V256.184C16.6287 255.245 16.3887 254.531 15.9087 254.04C15.4394 253.549 14.7781 253.304 13.9247 253.304C13.2741 253.304 12.7087 253.437 12.2287 253.704C11.7487 253.971 11.3807 254.344 11.1247 254.824C10.8794 255.304 10.7567 255.88 10.7567 256.552V261H9.95674V249.128H10.7567V254.968L10.6127 254.712C10.8687 254.051 11.2901 253.533 11.8767 253.16C12.4634 252.776 13.1834 252.584 14.0367 252.584ZM24.1144 261.064C23.2717 261.064 22.525 260.883 21.8744 260.52C21.2344 260.157 20.7277 259.656 20.3544 259.016C19.9917 258.376 19.8104 257.645 19.8104 256.824C19.8104 255.992 19.981 255.261 20.3224 254.632C20.6744 253.992 21.1544 253.491 21.7624 253.128C22.3704 252.765 23.053 252.584 23.8104 252.584C24.5677 252.584 25.245 252.76 25.8424 253.112C26.4504 253.464 26.925 253.96 27.2664 254.6C27.6184 255.229 27.7944 255.96 27.7944 256.792C27.7944 256.824 27.789 256.861 27.7784 256.904C27.7784 256.936 27.7784 256.973 27.7784 257.016H20.4024V256.392H27.3464L27.0264 256.696C27.037 256.045 26.8984 255.464 26.6104 254.952C26.333 254.429 25.9544 254.024 25.4744 253.736C24.9944 253.437 24.4397 253.288 23.8104 253.288C23.1917 253.288 22.637 253.437 22.1464 253.736C21.6664 254.024 21.2877 254.429 21.0104 254.952C20.733 255.464 20.5944 256.051 20.5944 256.712V256.856C20.5944 257.539 20.7437 258.147 21.0424 258.68C21.3517 259.203 21.773 259.613 22.3064 259.912C22.8397 260.2 23.4477 260.344 24.1304 260.344C24.6637 260.344 25.1597 260.248 25.6184 260.056C26.0877 259.864 26.4824 259.571 26.8024 259.176L27.2664 259.704C26.9037 260.152 26.445 260.493 25.8904 260.728C25.3464 260.952 24.7544 261.064 24.1144 261.064ZM38.5706 261.064C37.8346 261.064 37.168 260.893 36.5706 260.552C35.984 260.211 35.5146 259.725 35.1626 259.096C34.8213 258.456 34.6506 257.699 34.6506 256.824C34.6506 255.949 34.8213 255.197 35.1626 254.568C35.5146 253.928 35.984 253.437 36.5706 253.096C37.168 252.755 37.8346 252.584 38.5706 252.584C39.36 252.584 40.064 252.765 40.6826 253.128C41.312 253.48 41.8026 253.976 42.1546 254.616C42.5173 255.256 42.6986 255.992 42.6986 256.824C42.6986 257.656 42.5173 258.392 42.1546 259.032C41.8026 259.672 41.312 260.173 40.6826 260.536C40.064 260.888 39.36 261.064 38.5706 261.064ZM34.3786 264.104V252.648H35.1466V255.384L35.0186 256.84L35.1786 258.296V264.104H34.3786ZM38.5226 260.344C39.1626 260.344 39.7386 260.2 40.2506 259.912C40.7626 259.613 41.1626 259.197 41.4506 258.664C41.7493 258.131 41.8986 257.517 41.8986 256.824C41.8986 256.12 41.7493 255.507 41.4506 254.984C41.1626 254.451 40.7626 254.04 40.2506 253.752C39.7386 253.453 39.1626 253.304 38.5226 253.304C37.8826 253.304 37.3066 253.453 36.7946 253.752C36.2933 254.04 35.8933 254.451 35.5946 254.984C35.3066 255.507 35.1626 256.12 35.1626 256.824C35.1626 257.517 35.3066 258.131 35.5946 258.664C35.8933 259.197 36.2933 259.613 36.7946 259.912C37.3066 260.2 37.8826 260.344 38.5226 260.344ZM50.4082 261V259.096L50.3762 258.808V255.672C50.3762 254.893 50.1629 254.301 49.7362 253.896C49.3202 253.491 48.7069 253.288 47.8962 253.288C47.3202 253.288 46.7816 253.389 46.2802 253.592C45.7896 253.784 45.3682 254.035 45.0162 254.344L44.6162 253.768C45.0322 253.395 45.5336 253.107 46.1202 252.904C46.7069 252.691 47.3202 252.584 47.9602 252.584C48.9949 252.584 49.7896 252.845 50.3442 253.368C50.8989 253.891 51.1762 254.669 51.1762 255.704V261H50.4082ZM47.4002 261.064C46.7816 261.064 46.2429 260.968 45.7842 260.776C45.3362 260.573 44.9896 260.291 44.7442 259.928C44.5096 259.565 44.3922 259.149 44.3922 258.68C44.3922 258.253 44.4882 257.869 44.6802 257.528C44.8829 257.176 45.2136 256.893 45.6722 256.68C46.1309 256.456 46.7442 256.344 47.5122 256.344H50.5842V256.968H47.5282C46.6642 256.968 46.0562 257.128 45.7042 257.448C45.3629 257.768 45.1922 258.168 45.1922 258.648C45.1922 259.181 45.3949 259.608 45.8002 259.928C46.2056 260.248 46.7762 260.408 47.5122 260.408C48.2162 260.408 48.8082 260.248 49.2882 259.928C49.7789 259.608 50.1416 259.144 50.3762 258.536L50.6002 259.08C50.3762 259.688 49.9922 260.173 49.4482 260.536C48.9149 260.888 48.2322 261.064 47.4002 261.064ZM54.4724 261V252.648H55.2404V254.936L55.1604 254.68C55.395 254.008 55.7897 253.491 56.3444 253.128C56.899 252.765 57.5924 252.584 58.4244 252.584V253.368C58.3924 253.368 58.3604 253.368 58.3284 253.368C58.2964 253.357 58.2644 253.352 58.2324 253.352C57.3044 253.352 56.579 253.645 56.0564 254.232C55.5337 254.808 55.2724 255.613 55.2724 256.648V261H54.4724ZM63.4356 261.064C62.6996 261.064 62.1343 260.861 61.7396 260.456C61.3556 260.051 61.1636 259.496 61.1636 258.792V250.824H61.9636V258.712C61.9636 259.245 62.097 259.656 62.3636 259.944C62.6303 260.232 63.0143 260.376 63.5156 260.376C64.0383 260.376 64.4703 260.221 64.8116 259.912L65.1476 260.472C64.9343 260.675 64.673 260.824 64.3636 260.92C64.065 261.016 63.7556 261.064 63.4356 261.064ZM59.6276 253.336V252.648H64.6196V253.336H59.6276ZM67.0304 264.168C66.6464 264.168 66.2837 264.104 65.9424 263.976C65.6117 263.848 65.329 263.661 65.0944 263.416L65.4944 262.808C65.7077 263.032 65.937 263.197 66.1824 263.304C66.4384 263.411 66.7264 263.464 67.0464 263.464C67.4304 263.464 67.7664 263.357 68.0544 263.144C68.353 262.931 68.6304 262.541 68.8864 261.976L69.4624 260.696L69.5744 260.552L73.1104 252.648H73.9264L69.6384 262.136C69.4144 262.648 69.169 263.048 68.9024 263.336C68.6464 263.635 68.3637 263.848 68.0544 263.976C67.745 264.104 67.4037 264.168 67.0304 264.168ZM69.4464 261.208L65.5744 252.648H66.4224L69.9424 260.504L69.4464 261.208ZM83.0489 261.064C82.2489 261.064 81.5342 260.883 80.9049 260.52C80.2862 260.157 79.7902 259.656 79.4169 259.016C79.0542 258.376 78.8729 257.645 78.8729 256.824C78.8729 255.992 79.0542 255.261 79.4169 254.632C79.7902 253.992 80.2862 253.491 80.9049 253.128C81.5342 252.765 82.2489 252.584 83.0489 252.584C83.8489 252.584 84.5635 252.765 85.1929 253.128C85.8222 253.491 86.3182 253.992 86.6809 254.632C87.0435 255.261 87.2249 255.992 87.2249 256.824C87.2249 257.645 87.0435 258.376 86.6809 259.016C86.3182 259.656 85.8222 260.157 85.1929 260.52C84.5635 260.883 83.8489 261.064 83.0489 261.064ZM83.0489 260.344C83.6889 260.344 84.2649 260.2 84.7769 259.912C85.2889 259.613 85.6889 259.197 85.9769 258.664C86.2649 258.131 86.4089 257.517 86.4089 256.824C86.4089 256.12 86.2649 255.507 85.9769 254.984C85.6889 254.451 85.2889 254.04 84.7769 253.752C84.2649 253.453 83.6889 253.304 83.0489 253.304C82.4089 253.304 81.8329 253.453 81.3209 253.752C80.8195 254.04 80.4195 254.451 80.1209 254.984C79.8329 255.507 79.6889 256.12 79.6889 256.824C79.6889 257.517 79.8329 258.131 80.1209 258.664C80.4195 259.197 80.8195 259.613 81.3209 259.912C81.8329 260.2 82.4089 260.344 83.0489 260.344ZM89.8667 261V251.368C89.8667 250.675 90.0641 250.12 90.4587 249.704C90.8641 249.277 91.4401 249.064 92.1867 249.064C92.4961 249.064 92.8001 249.112 93.0987 249.208C93.3974 249.293 93.6427 249.427 93.8347 249.608L93.5147 250.216C93.3547 250.056 93.1627 249.939 92.9387 249.864C92.7147 249.789 92.4747 249.752 92.2187 249.752C91.7067 249.752 91.3174 249.896 91.0507 250.184C90.7841 250.461 90.6507 250.877 90.6507 251.432V252.84L90.6667 253.224V261H89.8667ZM88.3307 253.336V252.648H93.3227V253.336H88.3307ZM101.498 261.064C100.762 261.064 100.197 260.861 99.8021 260.456C99.4181 260.051 99.2261 259.496 99.2261 258.792V250.824H100.026V258.712C100.026 259.245 100.159 259.656 100.426 259.944C100.693 260.232 101.077 260.376 101.578 260.376C102.101 260.376 102.533 260.221 102.874 259.912L103.21 260.472C102.997 260.675 102.735 260.824 102.426 260.92C102.127 261.016 101.818 261.064 101.498 261.064ZM97.6901 253.336V252.648H102.682V253.336H97.6901ZM109.521 252.584C110.204 252.584 110.796 252.717 111.297 252.984C111.809 253.24 112.204 253.635 112.481 254.168C112.769 254.691 112.913 255.341 112.913 256.12V261H112.113V256.184C112.113 255.245 111.873 254.531 111.393 254.04C110.924 253.549 110.262 253.304 109.409 253.304C108.758 253.304 108.193 253.437 107.713 253.704C107.233 253.971 106.865 254.344 106.609 254.824C106.364 255.304 106.241 255.88 106.241 256.552V261H105.441V249.128H106.241V254.968L106.097 254.712C106.353 254.051 106.774 253.533 107.361 253.16C107.948 252.776 108.668 252.584 109.521 252.584ZM119.599 261.064C118.756 261.064 118.009 260.883 117.359 260.52C116.719 260.157 116.212 259.656 115.839 259.016C115.476 258.376 115.295 257.645 115.295 256.824C115.295 255.992 115.465 255.261 115.807 254.632C116.159 253.992 116.639 253.491 117.247 253.128C117.855 252.765 118.537 252.584 119.295 252.584C120.052 252.584 120.729 252.76 121.327 253.112C121.935 253.464 122.409 253.96 122.751 254.6C123.103 255.229 123.279 255.96 123.279 256.792C123.279 256.824 123.273 256.861 123.263 256.904C123.263 256.936 123.263 256.973 123.263 257.016H115.887V256.392H122.831L122.511 256.696C122.521 256.045 122.383 255.464 122.095 254.952C121.817 254.429 121.439 254.024 120.959 253.736C120.479 253.437 119.924 253.288 119.295 253.288C118.676 253.288 118.121 253.437 117.631 253.736C117.151 254.024 116.772 254.429 116.495 254.952C116.217 255.464 116.079 256.051 116.079 256.712V256.856C116.079 257.539 116.228 258.147 116.527 258.68C116.836 259.203 117.257 259.613 117.791 259.912C118.324 260.2 118.932 260.344 119.615 260.344C120.148 260.344 120.644 260.248 121.103 260.056C121.572 259.864 121.967 259.571 122.287 259.176L122.751 259.704C122.388 260.152 121.929 260.493 121.375 260.728C120.831 260.952 120.239 261.064 119.599 261.064ZM130.119 261V249.8H134.791C135.996 249.8 136.94 250.045 137.623 250.536C138.306 251.027 138.647 251.736 138.647 252.664C138.647 253.272 138.503 253.784 138.215 254.2C137.927 254.616 137.527 254.931 137.015 255.144C136.514 255.347 135.948 255.448 135.319 255.448L135.607 255.128C136.375 255.128 137.031 255.24 137.575 255.464C138.119 255.688 138.53 256.013 138.807 256.44C139.095 256.867 139.239 257.4 139.239 258.04C139.239 258.979 138.898 259.709 138.215 260.232C137.532 260.744 136.498 261 135.111 261H130.119ZM130.935 260.296H135.111C136.188 260.296 137.01 260.115 137.575 259.752C138.14 259.379 138.423 258.787 138.423 257.976C138.423 257.176 138.14 256.595 137.575 256.232C137.01 255.859 136.188 255.672 135.111 255.672H130.839V254.968H134.759C135.73 254.968 136.482 254.781 137.015 254.408C137.548 254.035 137.815 253.475 137.815 252.728C137.815 251.992 137.548 251.437 137.015 251.064C136.482 250.691 135.73 250.504 134.759 250.504H130.935V260.296ZM147.158 261V259.096L147.126 258.808V255.672C147.126 254.893 146.913 254.301 146.486 253.896C146.07 253.491 145.457 253.288 144.646 253.288C144.07 253.288 143.532 253.389 143.03 253.592C142.54 253.784 142.118 254.035 141.766 254.344L141.366 253.768C141.782 253.395 142.284 253.107 142.87 252.904C143.457 252.691 144.07 252.584 144.71 252.584C145.745 252.584 146.54 252.845 147.094 253.368C147.649 253.891 147.926 254.669 147.926 255.704V261H147.158ZM144.15 261.064C143.532 261.064 142.993 260.968 142.534 260.776C142.086 260.573 141.74 260.291 141.494 259.928C141.26 259.565 141.142 259.149 141.142 258.68C141.142 258.253 141.238 257.869 141.43 257.528C141.633 257.176 141.964 256.893 142.422 256.68C142.881 256.456 143.494 256.344 144.262 256.344H147.334V256.968H144.278C143.414 256.968 142.806 257.128 142.454 257.448C142.113 257.768 141.942 258.168 141.942 258.648C141.942 259.181 142.145 259.608 142.55 259.928C142.956 260.248 143.526 260.408 144.262 260.408C144.966 260.408 145.558 260.248 146.038 259.928C146.529 259.608 146.892 259.144 147.126 258.536L147.35 259.08C147.126 259.688 146.742 260.173 146.198 260.536C145.665 260.888 144.982 261.064 144.15 261.064ZM151.83 258.696L151.846 257.688L157.366 252.648H158.39L154.726 256.088L154.246 256.488L151.83 258.696ZM151.222 261V249.128H152.022V261H151.222ZM157.75 261L154.102 256.424L154.646 255.832L158.742 261H157.75ZM161.237 258.696L161.253 257.688L166.773 252.648H167.797L164.133 256.088L163.653 256.488L161.237 258.696ZM160.629 261V249.128H161.429V261H160.629ZM167.157 261L163.509 256.424L164.053 255.832L168.149 261H167.157ZM172.971 261.064C172.171 261.064 171.456 260.883 170.827 260.52C170.208 260.157 169.712 259.656 169.339 259.016C168.976 258.376 168.795 257.645 168.795 256.824C168.795 255.992 168.976 255.261 169.339 254.632C169.712 253.992 170.208 253.491 170.827 253.128C171.456 252.765 172.171 252.584 172.971 252.584C173.771 252.584 174.485 252.765 175.115 253.128C175.744 253.491 176.24 253.992 176.603 254.632C176.965 255.261 177.147 255.992 177.147 256.824C177.147 257.645 176.965 258.376 176.603 259.016C176.24 259.656 175.744 260.157 175.115 260.52C174.485 260.883 173.771 261.064 172.971 261.064ZM172.971 260.344C173.611 260.344 174.187 260.2 174.699 259.912C175.211 259.613 175.611 259.197 175.899 258.664C176.187 258.131 176.331 257.517 176.331 256.824C176.331 256.12 176.187 255.507 175.899 254.984C175.611 254.451 175.211 254.04 174.699 253.752C174.187 253.453 173.611 253.304 172.971 253.304C172.331 253.304 171.755 253.453 171.243 253.752C170.741 254.04 170.341 254.451 170.043 254.984C169.755 255.507 169.611 256.12 169.611 256.824C169.611 257.517 169.755 258.131 170.043 258.664C170.341 259.197 170.741 259.613 171.243 259.912C171.755 260.2 172.331 260.344 172.971 260.344ZM183.021 261.064C182.306 261.064 181.687 260.936 181.165 260.68C180.642 260.413 180.237 260.019 179.949 259.496C179.671 258.963 179.533 258.307 179.533 257.528V252.648H180.333V257.464C180.333 258.403 180.573 259.117 181.053 259.608C181.533 260.099 182.21 260.344 183.085 260.344C183.714 260.344 184.258 260.211 184.717 259.944C185.175 259.677 185.527 259.304 185.773 258.824C186.018 258.333 186.141 257.757 186.141 257.096V252.648H186.941V261H186.173V258.68L186.285 258.952C186.039 259.603 185.629 260.12 185.053 260.504C184.487 260.877 183.81 261.064 183.021 261.064ZM190.332 261V252.648H191.1V254.936L191.02 254.68C191.254 254.008 191.649 253.491 192.204 253.128C192.758 252.765 193.452 252.584 194.284 252.584V253.368C194.252 253.368 194.22 253.368 194.188 253.368C194.156 253.357 194.124 253.352 194.092 253.352C193.164 253.352 192.438 253.645 191.916 254.232C191.393 254.808 191.132 255.613 191.132 256.648V261H190.332ZM201.127 261V259.096L201.095 258.808V255.672C201.095 254.893 200.882 254.301 200.455 253.896C200.039 253.491 199.426 253.288 198.615 253.288C198.039 253.288 197.5 253.389 196.999 253.592C196.508 253.784 196.087 254.035 195.735 254.344L195.335 253.768C195.751 253.395 196.252 253.107 196.839 252.904C197.426 252.691 198.039 252.584 198.679 252.584C199.714 252.584 200.508 252.845 201.063 253.368C201.618 253.891 201.895 254.669 201.895 255.704V261H201.127ZM198.119 261.064C197.5 261.064 196.962 260.968 196.503 260.776C196.055 260.573 195.708 260.291 195.463 259.928C195.228 259.565 195.111 259.149 195.111 258.68C195.111 258.253 195.207 257.869 195.399 257.528C195.602 257.176 195.932 256.893 196.391 256.68C196.85 256.456 197.463 256.344 198.231 256.344H201.303V256.968H198.247C197.383 256.968 196.775 257.128 196.423 257.448C196.082 257.768 195.911 258.168 195.911 258.648C195.911 259.181 196.114 259.608 196.519 259.928C196.924 260.248 197.495 260.408 198.231 260.408C198.935 260.408 199.527 260.248 200.007 259.928C200.498 259.608 200.86 259.144 201.095 258.536L201.319 259.08C201.095 259.688 200.711 260.173 200.167 260.536C199.634 260.888 198.951 261.064 198.119 261.064ZM212.516 261.064C211.738 261.064 211.034 260.888 210.404 260.536C209.786 260.173 209.295 259.672 208.932 259.032C208.57 258.392 208.388 257.656 208.388 256.824C208.388 255.981 208.57 255.245 208.932 254.616C209.295 253.976 209.786 253.48 210.404 253.128C211.034 252.765 211.738 252.584 212.516 252.584C213.252 252.584 213.914 252.755 214.5 253.096C215.098 253.437 215.567 253.923 215.908 254.552C216.26 255.181 216.436 255.939 216.436 256.824C216.436 257.688 216.266 258.44 215.924 259.08C215.583 259.72 215.114 260.211 214.516 260.552C213.93 260.893 213.263 261.064 212.516 261.064ZM212.564 260.344C213.204 260.344 213.775 260.2 214.276 259.912C214.788 259.613 215.188 259.197 215.476 258.664C215.775 258.131 215.924 257.517 215.924 256.824C215.924 256.12 215.775 255.507 215.476 254.984C215.188 254.451 214.788 254.04 214.276 253.752C213.775 253.453 213.204 253.304 212.564 253.304C211.924 253.304 211.348 253.453 210.836 253.752C210.335 254.04 209.935 254.451 209.636 254.984C209.348 255.507 209.204 256.12 209.204 256.824C209.204 257.517 209.348 258.131 209.636 258.664C209.935 259.197 210.335 259.613 210.836 259.912C211.348 260.2 211.924 260.344 212.564 260.344ZM215.94 261V258.264L216.084 256.808L215.924 255.352V249.128H216.724V261H215.94ZM219.905 264.168C219.521 264.168 219.159 264.104 218.817 263.976C218.487 263.848 218.204 263.661 217.969 263.416L218.369 262.808C218.583 263.032 218.812 263.197 219.057 263.304C219.313 263.411 219.601 263.464 219.921 263.464C220.305 263.464 220.641 263.357 220.929 263.144C221.228 262.931 221.505 262.541 221.761 261.976L222.337 260.696L222.449 260.552L225.985 252.648H226.801L222.513 262.136C222.289 262.648 222.044 263.048 221.777 263.336C221.521 263.635 221.239 263.848 220.929 263.976C220.62 264.104 220.279 264.168 219.905 264.168ZM222.321 261.208L218.449 252.648H219.297L222.817 260.504L222.321 261.208ZM232.63 252.584C233.313 252.584 233.905 252.717 234.406 252.984C234.918 253.24 235.313 253.635 235.59 254.168C235.878 254.691 236.022 255.341 236.022 256.12V261H235.222V256.184C235.222 255.245 234.982 254.531 234.502 254.04C234.033 253.549 233.372 253.304 232.518 253.304C231.868 253.304 231.302 253.437 230.822 253.704C230.342 253.971 229.974 254.344 229.718 254.824C229.473 255.304 229.35 255.88 229.35 256.552V261H228.55V252.648H229.318V254.968L229.206 254.712C229.462 254.051 229.884 253.533 230.47 253.16C231.057 252.776 231.777 252.584 232.63 252.584ZM244.58 261V259.096L244.548 258.808V255.672C244.548 254.893 244.335 254.301 243.908 253.896C243.492 253.491 242.879 253.288 242.068 253.288C241.492 253.288 240.953 253.389 240.452 253.592C239.961 253.784 239.54 254.035 239.188 254.344L238.788 253.768C239.204 253.395 239.705 253.107 240.292 252.904C240.879 252.691 241.492 252.584 242.132 252.584C243.167 252.584 243.961 252.845 244.516 253.368C245.071 253.891 245.348 254.669 245.348 255.704V261H244.58ZM241.572 261.064C240.953 261.064 240.415 260.968 239.956 260.776C239.508 260.573 239.161 260.291 238.916 259.928C238.681 259.565 238.564 259.149 238.564 258.68C238.564 258.253 238.66 257.869 238.852 257.528C239.055 257.176 239.385 256.893 239.844 256.68C240.303 256.456 240.916 256.344 241.684 256.344H244.756V256.968H241.7C240.836 256.968 240.228 257.128 239.876 257.448C239.535 257.768 239.364 258.168 239.364 258.648C239.364 259.181 239.567 259.608 239.972 259.928C240.377 260.248 240.948 260.408 241.684 260.408C242.388 260.408 242.98 260.248 243.46 259.928C243.951 259.608 244.313 259.144 244.548 258.536L244.772 259.08C244.548 259.688 244.164 260.173 243.62 260.536C243.087 260.888 242.404 261.064 241.572 261.064ZM250.756 261.064C250.063 261.064 249.412 260.963 248.804 260.76C248.207 260.557 247.743 260.301 247.412 259.992L247.78 259.352C248.1 259.629 248.527 259.869 249.06 260.072C249.594 260.264 250.17 260.36 250.788 260.36C251.663 260.36 252.292 260.216 252.676 259.928C253.06 259.64 253.252 259.261 253.252 258.792C253.252 258.451 253.151 258.184 252.948 257.992C252.756 257.789 252.495 257.635 252.164 257.528C251.834 257.421 251.471 257.336 251.076 257.272C250.682 257.197 250.287 257.117 249.892 257.032C249.498 256.947 249.135 256.824 248.804 256.664C248.474 256.504 248.207 256.285 248.004 256.008C247.812 255.72 247.716 255.341 247.716 254.872C247.716 254.445 247.834 254.061 248.068 253.72C248.303 253.379 248.655 253.107 249.124 252.904C249.594 252.691 250.18 252.584 250.884 252.584C251.407 252.584 251.93 252.659 252.452 252.808C252.986 252.957 253.418 253.155 253.748 253.4L253.38 254.04C253.028 253.773 252.634 253.581 252.196 253.464C251.759 253.347 251.316 253.288 250.868 253.288C250.058 253.288 249.46 253.437 249.076 253.736C248.703 254.035 248.516 254.408 248.516 254.856C248.516 255.208 248.612 255.491 248.804 255.704C249.007 255.907 249.274 256.067 249.604 256.184C249.935 256.291 250.298 256.381 250.692 256.456C251.087 256.52 251.482 256.595 251.876 256.68C252.271 256.765 252.634 256.888 252.964 257.048C253.295 257.197 253.556 257.411 253.748 257.688C253.951 257.955 254.052 258.317 254.052 258.776C254.052 259.235 253.924 259.635 253.668 259.976C253.423 260.317 253.055 260.584 252.564 260.776C252.074 260.968 251.471 261.064 250.756 261.064ZM258.717 261.064C257.981 261.064 257.416 260.861 257.021 260.456C256.637 260.051 256.445 259.496 256.445 258.792V250.824H257.245V258.712C257.245 259.245 257.378 259.656 257.645 259.944C257.912 260.232 258.296 260.376 258.797 260.376C259.32 260.376 259.752 260.221 260.093 259.912L260.429 260.472C260.216 260.675 259.954 260.824 259.645 260.92C259.346 261.016 259.037 261.064 258.717 261.064ZM254.909 253.336V252.648H259.901V253.336H254.909ZM262.312 264.168C261.928 264.168 261.565 264.104 261.224 263.976C260.893 263.848 260.61 263.661 260.376 263.416L260.776 262.808C260.989 263.032 261.218 263.197 261.464 263.304C261.72 263.411 262.008 263.464 262.328 263.464C262.712 263.464 263.048 263.357 263.336 263.144C263.634 262.931 263.912 262.541 264.168 261.976L264.744 260.696L264.856 260.552L268.392 252.648H269.208L264.92 262.136C264.696 262.648 264.45 263.048 264.184 263.336C263.928 263.635 263.645 263.848 263.336 263.976C263.026 264.104 262.685 264.168 262.312 264.168ZM264.728 261.208L260.856 252.648H261.704L265.224 260.504L264.728 261.208ZM5.98174 285V274.536H1.94974V273.8H10.8297V274.536H6.79774V285H5.98174ZM16.6774 276.584C17.36 276.584 17.952 276.717 18.4534 276.984C18.9654 277.24 19.36 277.635 19.6374 278.168C19.9254 278.691 20.0694 279.341 20.0694 280.12V285H19.2694V280.184C19.2694 279.245 19.0294 278.531 18.5494 278.04C18.08 277.549 17.4187 277.304 16.5654 277.304C15.9147 277.304 15.3494 277.437 14.8694 277.704C14.3894 277.971 14.0214 278.344 13.7654 278.824C13.52 279.304 13.3974 279.88 13.3974 280.552V285H12.5974V273.128H13.3974V278.968L13.2534 278.712C13.5094 278.051 13.9307 277.533 14.5174 277.16C15.104 276.776 15.824 276.584 16.6774 276.584ZM23.363 285V276.648H24.163V285H23.363ZM23.763 274.616C23.5817 274.616 23.427 274.552 23.299 274.424C23.171 274.296 23.107 274.147 23.107 273.976C23.107 273.795 23.171 273.64 23.299 273.512C23.427 273.384 23.5817 273.32 23.763 273.32C23.955 273.32 24.1097 273.384 24.227 273.512C24.355 273.629 24.419 273.779 24.419 273.96C24.419 274.141 24.355 274.296 24.227 274.424C24.1097 274.552 23.955 274.616 23.763 274.616ZM29.6469 285.064C28.9535 285.064 28.3029 284.963 27.6949 284.76C27.0975 284.557 26.6335 284.301 26.3029 283.992L26.6709 283.352C26.9909 283.629 27.4175 283.869 27.9509 284.072C28.4842 284.264 29.0602 284.36 29.6789 284.36C30.5535 284.36 31.1829 284.216 31.5669 283.928C31.9509 283.64 32.1429 283.261 32.1429 282.792C32.1429 282.451 32.0415 282.184 31.8389 281.992C31.6469 281.789 31.3855 281.635 31.0549 281.528C30.7242 281.421 30.3615 281.336 29.9669 281.272C29.5722 281.197 29.1775 281.117 28.7829 281.032C28.3882 280.947 28.0255 280.824 27.6949 280.664C27.3642 280.504 27.0975 280.285 26.8949 280.008C26.7029 279.72 26.6069 279.341 26.6069 278.872C26.6069 278.445 26.7242 278.061 26.9589 277.72C27.1935 277.379 27.5455 277.107 28.0149 276.904C28.4842 276.691 29.0709 276.584 29.7749 276.584C30.2975 276.584 30.8202 276.659 31.3429 276.808C31.8762 276.957 32.3082 277.155 32.6389 277.4L32.2709 278.04C31.9189 277.773 31.5242 277.581 31.0869 277.464C30.6495 277.347 30.2069 277.288 29.7589 277.288C28.9482 277.288 28.3509 277.437 27.9669 277.736C27.5935 278.035 27.4069 278.408 27.4069 278.856C27.4069 279.208 27.5029 279.491 27.6949 279.704C27.8975 279.907 28.1642 280.067 28.4949 280.184C28.8255 280.291 29.1882 280.381 29.5829 280.456C29.9775 280.52 30.3722 280.595 30.7669 280.68C31.1615 280.765 31.5242 280.888 31.8549 281.048C32.1855 281.197 32.4469 281.411 32.6389 281.688C32.8415 281.955 32.9429 282.317 32.9429 282.776C32.9429 283.235 32.8149 283.635 32.5589 283.976C32.3135 284.317 31.9455 284.584 31.4549 284.776C30.9642 284.968 30.3615 285.064 29.6469 285.064ZM41.7169 285.064C40.9809 285.064 40.4155 284.861 40.0209 284.456C39.6369 284.051 39.4449 283.496 39.4449 282.792V274.824H40.2449V282.712C40.2449 283.245 40.3782 283.656 40.6449 283.944C40.9115 284.232 41.2955 284.376 41.7969 284.376C42.3195 284.376 42.7515 284.221 43.0929 283.912L43.4289 284.472C43.2155 284.675 42.9542 284.824 42.6449 284.92C42.3462 285.016 42.0369 285.064 41.7169 285.064ZM37.9089 277.336V276.648H42.9009V277.336H37.9089ZM49.7399 276.584C50.4225 276.584 51.0145 276.717 51.5159 276.984C52.0279 277.24 52.4225 277.635 52.6999 278.168C52.9879 278.691 53.1319 279.341 53.1319 280.12V285H52.3319V280.184C52.3319 279.245 52.0919 278.531 51.6119 278.04C51.1425 277.549 50.4812 277.304 49.6279 277.304C48.9772 277.304 48.4119 277.437 47.9319 277.704C47.4519 277.971 47.0839 278.344 46.8279 278.824C46.5825 279.304 46.4599 279.88 46.4599 280.552V285H45.6599V273.128H46.4599V278.968L46.3159 278.712C46.5719 278.051 46.9932 277.533 47.5799 277.16C48.1665 276.776 48.8865 276.584 49.7399 276.584ZM59.8175 285.064C58.9748 285.064 58.2282 284.883 57.5775 284.52C56.9375 284.157 56.4308 283.656 56.0575 283.016C55.6948 282.376 55.5135 281.645 55.5135 280.824C55.5135 279.992 55.6842 279.261 56.0255 278.632C56.3775 277.992 56.8575 277.491 57.4655 277.128C58.0735 276.765 58.7562 276.584 59.5135 276.584C60.2708 276.584 60.9482 276.76 61.5455 277.112C62.1535 277.464 62.6282 277.96 62.9695 278.6C63.3215 279.229 63.4975 279.96 63.4975 280.792C63.4975 280.824 63.4922 280.861 63.4815 280.904C63.4815 280.936 63.4815 280.973 63.4815 281.016H56.1055V280.392H63.0495L62.7295 280.696C62.7402 280.045 62.6015 279.464 62.3135 278.952C62.0362 278.429 61.6575 278.024 61.1775 277.736C60.6975 277.437 60.1428 277.288 59.5135 277.288C58.8948 277.288 58.3402 277.437 57.8495 277.736C57.3695 278.024 56.9908 278.429 56.7135 278.952C56.4362 279.464 56.2975 280.051 56.2975 280.712V280.856C56.2975 281.539 56.4468 282.147 56.7455 282.68C57.0548 283.203 57.4762 283.613 58.0095 283.912C58.5428 284.2 59.1508 284.344 59.8335 284.344C60.3668 284.344 60.8628 284.248 61.3215 284.056C61.7908 283.864 62.1855 283.571 62.5055 283.176L62.9695 283.704C62.6068 284.152 62.1482 284.493 61.5935 284.728C61.0495 284.952 60.4575 285.064 59.8175 285.064ZM72.5137 285.064C71.7777 285.064 71.2124 284.861 70.8177 284.456C70.4337 284.051 70.2417 283.496 70.2417 282.792V274.824H71.0417V282.712C71.0417 283.245 71.1751 283.656 71.4417 283.944C71.7084 284.232 72.0924 284.376 72.5937 284.376C73.1164 284.376 73.5484 284.221 73.8897 283.912L74.2257 284.472C74.0124 284.675 73.7511 284.824 73.4417 284.92C73.1431 285.016 72.8337 285.064 72.5137 285.064ZM68.7057 277.336V276.648H73.6977V277.336H68.7057ZM80.5367 276.584C81.2194 276.584 81.8114 276.717 82.3127 276.984C82.8247 277.24 83.2194 277.635 83.4967 278.168C83.7847 278.691 83.9287 279.341 83.9287 280.12V285H83.1287V280.184C83.1287 279.245 82.8887 278.531 82.4087 278.04C81.9394 277.549 81.2781 277.304 80.4247 277.304C79.7741 277.304 79.2087 277.437 78.7287 277.704C78.2487 277.971 77.8807 278.344 77.6247 278.824C77.3794 279.304 77.2567 279.88 77.2567 280.552V285H76.4567V273.128H77.2567V278.968L77.1127 278.712C77.3687 278.051 77.7901 277.533 78.3767 277.16C78.9634 276.776 79.6834 276.584 80.5367 276.584ZM90.6144 285.064C89.7717 285.064 89.025 284.883 88.3744 284.52C87.7344 284.157 87.2277 283.656 86.8544 283.016C86.4917 282.376 86.3104 281.645 86.3104 280.824C86.3104 279.992 86.481 279.261 86.8224 278.632C87.1744 277.992 87.6544 277.491 88.2624 277.128C88.8704 276.765 89.553 276.584 90.3104 276.584C91.0677 276.584 91.745 276.76 92.3424 277.112C92.9504 277.464 93.425 277.96 93.7664 278.6C94.1184 279.229 94.2944 279.96 94.2944 280.792C94.2944 280.824 94.289 280.861 94.2784 280.904C94.2784 280.936 94.2784 280.973 94.2784 281.016H86.9024V280.392H93.8464L93.5264 280.696C93.537 280.045 93.3984 279.464 93.1104 278.952C92.833 278.429 92.4544 278.024 91.9744 277.736C91.4944 277.437 90.9397 277.288 90.3104 277.288C89.6917 277.288 89.137 277.437 88.6464 277.736C88.1664 278.024 87.7877 278.429 87.5104 278.952C87.233 279.464 87.0944 280.051 87.0944 280.712V280.856C87.0944 281.539 87.2437 282.147 87.5424 282.68C87.8517 283.203 88.273 283.613 88.8064 283.912C89.3397 284.2 89.9477 284.344 90.6304 284.344C91.1637 284.344 91.6597 284.248 92.1184 284.056C92.5877 283.864 92.9824 283.571 93.3024 283.176L93.7664 283.704C93.4037 284.152 92.945 284.493 92.3904 284.728C91.8464 284.952 91.2544 285.064 90.6144 285.064ZM101.039 285V275.368C101.039 274.675 101.236 274.12 101.631 273.704C102.036 273.277 102.612 273.064 103.359 273.064C103.668 273.064 103.972 273.112 104.271 273.208C104.569 273.293 104.815 273.427 105.007 273.608L104.687 274.216C104.527 274.056 104.335 273.939 104.111 273.864C103.887 273.789 103.647 273.752 103.391 273.752C102.879 273.752 102.489 273.896 102.223 274.184C101.956 274.461 101.823 274.877 101.823 275.432V276.84L101.839 277.224V285H101.039ZM99.5026 277.336V276.648H104.495V277.336H99.5026ZM111.236 285V283.096L111.204 282.808V279.672C111.204 278.893 110.991 278.301 110.564 277.896C110.148 277.491 109.535 277.288 108.724 277.288C108.148 277.288 107.61 277.389 107.108 277.592C106.618 277.784 106.196 278.035 105.844 278.344L105.444 277.768C105.86 277.395 106.362 277.107 106.948 276.904C107.535 276.691 108.148 276.584 108.788 276.584C109.823 276.584 110.618 276.845 111.172 277.368C111.727 277.891 112.004 278.669 112.004 279.704V285H111.236ZM108.228 285.064C107.61 285.064 107.071 284.968 106.612 284.776C106.164 284.573 105.818 284.291 105.572 283.928C105.338 283.565 105.22 283.149 105.22 282.68C105.22 282.253 105.316 281.869 105.508 281.528C105.711 281.176 106.042 280.893 106.5 280.68C106.959 280.456 107.572 280.344 108.34 280.344H111.412V280.968H108.356C107.492 280.968 106.884 281.128 106.532 281.448C106.191 281.768 106.02 282.168 106.02 282.648C106.02 283.181 106.223 283.608 106.628 283.928C107.034 284.248 107.604 284.408 108.34 284.408C109.044 284.408 109.636 284.248 110.116 283.928C110.607 283.608 110.97 283.144 111.204 282.536L111.428 283.08C111.204 283.688 110.82 284.173 110.276 284.536C109.743 284.888 109.06 285.064 108.228 285.064ZM125.7 276.584C126.372 276.584 126.954 276.717 127.444 276.984C127.946 277.24 128.335 277.635 128.612 278.168C128.89 278.691 129.028 279.341 129.028 280.12V285H128.228V280.184C128.228 279.245 127.999 278.531 127.54 278.04C127.082 277.549 126.442 277.304 125.62 277.304C124.991 277.304 124.447 277.437 123.988 277.704C123.53 277.971 123.178 278.344 122.932 278.824C122.687 279.304 122.564 279.88 122.564 280.552V285H121.764V280.184C121.764 279.245 121.535 278.531 121.076 278.04C120.618 277.549 119.978 277.304 119.156 277.304C118.527 277.304 117.983 277.437 117.524 277.704C117.066 277.971 116.714 278.344 116.468 278.824C116.223 279.304 116.1 279.88 116.1 280.552V285H115.3V276.648H116.068V278.952L115.956 278.696C116.202 278.045 116.612 277.533 117.188 277.16C117.764 276.776 118.458 276.584 119.268 276.584C120.1 276.584 120.799 276.797 121.364 277.224C121.94 277.64 122.303 278.264 122.452 279.096L122.18 278.984C122.404 278.269 122.826 277.693 123.444 277.256C124.063 276.808 124.815 276.584 125.7 276.584ZM132.332 285V276.648H133.132V285H132.332ZM132.732 274.616C132.55 274.616 132.396 274.552 132.268 274.424C132.14 274.296 132.076 274.147 132.076 273.976C132.076 273.795 132.14 273.64 132.268 273.512C132.396 273.384 132.55 273.32 132.732 273.32C132.924 273.32 133.078 273.384 133.196 273.512C133.324 273.629 133.388 273.779 133.388 273.96C133.388 274.141 133.324 274.296 133.196 274.424C133.078 274.552 132.924 274.616 132.732 274.616ZM136.504 285V273.128H137.304V285H136.504ZM140.483 288.168C140.099 288.168 139.737 288.104 139.395 287.976C139.065 287.848 138.782 287.661 138.547 287.416L138.947 286.808C139.161 287.032 139.39 287.197 139.635 287.304C139.891 287.411 140.179 287.464 140.499 287.464C140.883 287.464 141.219 287.357 141.507 287.144C141.806 286.931 142.083 286.541 142.339 285.976L142.915 284.696L143.027 284.552L146.563 276.648H147.379L143.091 286.136C142.867 286.648 142.622 287.048 142.355 287.336C142.099 287.635 141.817 287.848 141.507 287.976C141.198 288.104 140.857 288.168 140.483 288.168ZM142.899 285.208L139.027 276.648H139.875L143.395 284.504L142.899 285.208ZM156.502 285.064C155.702 285.064 154.987 284.883 154.358 284.52C153.739 284.157 153.243 283.656 152.87 283.016C152.507 282.376 152.326 281.645 152.326 280.824C152.326 279.992 152.507 279.261 152.87 278.632C153.243 277.992 153.739 277.491 154.358 277.128C154.987 276.765 155.702 276.584 156.502 276.584C157.302 276.584 158.017 276.765 158.646 277.128C159.275 277.491 159.771 277.992 160.134 278.632C160.497 279.261 160.678 279.992 160.678 280.824C160.678 281.645 160.497 282.376 160.134 283.016C159.771 283.656 159.275 284.157 158.646 284.52C158.017 284.883 157.302 285.064 156.502 285.064ZM156.502 284.344C157.142 284.344 157.718 284.2 158.23 283.912C158.742 283.613 159.142 283.197 159.43 282.664C159.718 282.131 159.862 281.517 159.862 280.824C159.862 280.12 159.718 279.507 159.43 278.984C159.142 278.451 158.742 278.04 158.23 277.752C157.718 277.453 157.142 277.304 156.502 277.304C155.862 277.304 155.286 277.453 154.774 277.752C154.273 278.04 153.873 278.451 153.574 278.984C153.286 279.507 153.142 280.12 153.142 280.824C153.142 281.517 153.286 282.131 153.574 282.664C153.873 283.197 154.273 283.613 154.774 283.912C155.286 284.2 155.862 284.344 156.502 284.344ZM163.32 285V275.368C163.32 274.675 163.517 274.12 163.912 273.704C164.317 273.277 164.893 273.064 165.64 273.064C165.949 273.064 166.253 273.112 166.552 273.208C166.851 273.293 167.096 273.427 167.288 273.608L166.968 274.216C166.808 274.056 166.616 273.939 166.392 273.864C166.168 273.789 165.928 273.752 165.672 273.752C165.16 273.752 164.771 273.896 164.504 274.184C164.237 274.461 164.104 274.877 164.104 275.432V276.84L164.12 277.224V285H163.32ZM161.784 277.336V276.648H166.776V277.336H161.784ZM176.711 285.064C175.975 285.064 175.309 284.893 174.711 284.552C174.125 284.211 173.655 283.72 173.303 283.08C172.962 282.44 172.791 281.688 172.791 280.824C172.791 279.939 172.962 279.181 173.303 278.552C173.655 277.923 174.125 277.437 174.711 277.096C175.309 276.755 175.975 276.584 176.711 276.584C177.501 276.584 178.205 276.765 178.823 277.128C179.453 277.48 179.943 277.976 180.295 278.616C180.658 279.245 180.839 279.981 180.839 280.824C180.839 281.656 180.658 282.392 180.295 283.032C179.943 283.672 179.453 284.173 178.823 284.536C178.205 284.888 177.501 285.064 176.711 285.064ZM172.519 285V273.128H173.319V279.352L173.159 280.808L173.287 282.264V285H172.519ZM176.663 284.344C177.303 284.344 177.879 284.2 178.391 283.912C178.903 283.613 179.303 283.197 179.591 282.664C179.89 282.131 180.039 281.517 180.039 280.824C180.039 280.12 179.89 279.507 179.591 278.984C179.303 278.451 178.903 278.04 178.391 277.752C177.879 277.453 177.303 277.304 176.663 277.304C176.023 277.304 175.447 277.453 174.935 277.752C174.434 278.04 174.034 278.451 173.735 278.984C173.447 279.507 173.303 280.12 173.303 280.824C173.303 281.517 173.447 282.131 173.735 282.664C174.034 283.197 174.434 283.613 174.935 283.912C175.447 284.2 176.023 284.344 176.663 284.344ZM183.316 285V276.648H184.084V278.936L184.004 278.68C184.239 278.008 184.633 277.491 185.188 277.128C185.743 276.765 186.436 276.584 187.268 276.584V277.368C187.236 277.368 187.204 277.368 187.172 277.368C187.14 277.357 187.108 277.352 187.076 277.352C186.148 277.352 185.423 277.645 184.9 278.232C184.377 278.808 184.116 279.613 184.116 280.648V285H183.316ZM194.111 285V283.096L194.079 282.808V279.672C194.079 278.893 193.866 278.301 193.439 277.896C193.023 277.491 192.41 277.288 191.599 277.288C191.023 277.288 190.485 277.389 189.983 277.592C189.493 277.784 189.071 278.035 188.719 278.344L188.319 277.768C188.735 277.395 189.237 277.107 189.823 276.904C190.41 276.691 191.023 276.584 191.663 276.584C192.698 276.584 193.493 276.845 194.047 277.368C194.602 277.891 194.879 278.669 194.879 279.704V285H194.111ZM191.103 285.064C190.485 285.064 189.946 284.968 189.487 284.776C189.039 284.573 188.693 284.291 188.447 283.928C188.213 283.565 188.095 283.149 188.095 282.68C188.095 282.253 188.191 281.869 188.383 281.528C188.586 281.176 188.917 280.893 189.375 280.68C189.834 280.456 190.447 280.344 191.215 280.344H194.287V280.968H191.231C190.367 280.968 189.759 281.128 189.407 281.448C189.066 281.768 188.895 282.168 188.895 282.648C188.895 283.181 189.098 283.608 189.503 283.928C189.909 284.248 190.479 284.408 191.215 284.408C191.919 284.408 192.511 284.248 192.991 283.928C193.482 283.608 193.845 283.144 194.079 282.536L194.303 283.08C194.079 283.688 193.695 284.173 193.151 284.536C192.618 284.888 191.935 285.064 191.103 285.064ZM202.255 276.584C202.938 276.584 203.53 276.717 204.031 276.984C204.543 277.24 204.938 277.635 205.215 278.168C205.503 278.691 205.647 279.341 205.647 280.12V285H204.847V280.184C204.847 279.245 204.607 278.531 204.127 278.04C203.658 277.549 202.997 277.304 202.143 277.304C201.493 277.304 200.927 277.437 200.447 277.704C199.967 277.971 199.599 278.344 199.343 278.824C199.098 279.304 198.975 279.88 198.975 280.552V285H198.175V276.648H198.943V278.968L198.831 278.712C199.087 278.051 199.509 277.533 200.095 277.16C200.682 276.776 201.402 276.584 202.255 276.584ZM212.157 285.064C211.378 285.064 210.674 284.888 210.045 284.536C209.426 284.173 208.936 283.672 208.573 283.032C208.21 282.392 208.029 281.656 208.029 280.824C208.029 279.981 208.21 279.245 208.573 278.616C208.936 277.976 209.426 277.48 210.045 277.128C210.674 276.765 211.378 276.584 212.157 276.584C212.893 276.584 213.554 276.755 214.141 277.096C214.738 277.437 215.208 277.923 215.549 278.552C215.901 279.181 216.077 279.939 216.077 280.824C216.077 281.688 215.906 282.44 215.565 283.08C215.224 283.72 214.754 284.211 214.157 284.552C213.57 284.893 212.904 285.064 212.157 285.064ZM212.205 284.344C212.845 284.344 213.416 284.2 213.917 283.912C214.429 283.613 214.829 283.197 215.117 282.664C215.416 282.131 215.565 281.517 215.565 280.824C215.565 280.12 215.416 279.507 215.117 278.984C214.829 278.451 214.429 278.04 213.917 277.752C213.416 277.453 212.845 277.304 212.205 277.304C211.565 277.304 210.989 277.453 210.477 277.752C209.976 278.04 209.576 278.451 209.277 278.984C208.989 279.507 208.845 280.12 208.845 280.824C208.845 281.517 208.989 282.131 209.277 282.664C209.576 283.197 209.976 283.613 210.477 283.912C210.989 284.2 211.565 284.344 212.205 284.344ZM215.581 285V282.264L215.725 280.808L215.565 279.352V273.128H216.365V285H215.581ZM221.85 285.064C221.157 285.064 220.506 284.963 219.898 284.76C219.301 284.557 218.837 284.301 218.506 283.992L218.874 283.352C219.194 283.629 219.621 283.869 220.154 284.072C220.687 284.264 221.263 284.36 221.882 284.36C222.757 284.36 223.386 284.216 223.77 283.928C224.154 283.64 224.346 283.261 224.346 282.792C224.346 282.451 224.245 282.184 224.042 281.992C223.85 281.789 223.589 281.635 223.258 281.528C222.927 281.421 222.565 281.336 222.17 281.272C221.775 281.197 221.381 281.117 220.986 281.032C220.591 280.947 220.229 280.824 219.898 280.664C219.567 280.504 219.301 280.285 219.098 280.008C218.906 279.72 218.81 279.341 218.81 278.872C218.81 278.445 218.927 278.061 219.162 277.72C219.397 277.379 219.749 277.107 220.218 276.904C220.687 276.691 221.274 276.584 221.978 276.584C222.501 276.584 223.023 276.659 223.546 276.808C224.079 276.957 224.511 277.155 224.842 277.4L224.474 278.04C224.122 277.773 223.727 277.581 223.29 277.464C222.853 277.347 222.41 277.288 221.962 277.288C221.151 277.288 220.554 277.437 220.17 277.736C219.797 278.035 219.61 278.408 219.61 278.856C219.61 279.208 219.706 279.491 219.898 279.704C220.101 279.907 220.367 280.067 220.698 280.184C221.029 280.291 221.391 280.381 221.786 280.456C222.181 280.52 222.575 280.595 222.97 280.68C223.365 280.765 223.727 280.888 224.058 281.048C224.389 281.197 224.65 281.411 224.842 281.688C225.045 281.955 225.146 282.317 225.146 282.776C225.146 283.235 225.018 283.635 224.762 283.976C224.517 284.317 224.149 284.584 223.658 284.776C223.167 284.968 222.565 285.064 221.85 285.064ZM227.283 285.064C227.101 285.064 226.941 285 226.803 284.872C226.675 284.733 226.611 284.568 226.611 284.376C226.611 284.184 226.675 284.024 226.803 283.896C226.941 283.768 227.101 283.704 227.283 283.704C227.464 283.704 227.619 283.768 227.747 283.896C227.885 284.024 227.955 284.184 227.955 284.376C227.955 284.568 227.885 284.733 227.747 284.872C227.619 285 227.464 285.064 227.283 285.064ZM230.486 285.064C230.304 285.064 230.144 285 230.006 284.872C229.878 284.733 229.814 284.568 229.814 284.376C229.814 284.184 229.878 284.024 230.006 283.896C230.144 283.768 230.304 283.704 230.486 283.704C230.667 283.704 230.822 283.768 230.95 283.896C231.088 284.024 231.158 284.184 231.158 284.376C231.158 284.568 231.088 284.733 230.95 284.872C230.822 285 230.667 285.064 230.486 285.064ZM233.689 285.064C233.508 285.064 233.348 285 233.209 284.872C233.081 284.733 233.017 284.568 233.017 284.376C233.017 284.184 233.081 284.024 233.209 283.896C233.348 283.768 233.508 283.704 233.689 283.704C233.87 283.704 234.025 283.768 234.153 283.896C234.292 284.024 234.361 284.184 234.361 284.376C234.361 284.568 234.292 284.733 234.153 284.872C234.025 285 233.87 285.064 233.689 285.064Z" fill="white"/>
<defs>
<linearGradient id="paint0_linear_1903_10728" x1="-7.94845" y1="108.416" x2="321.319" y2="118.586" gradientUnits="userSpaceOnUse">
<stop stop-color="#3C113F"/>
<stop offset="0.552083" stop-color="#BB236F" stop-opacity="0.5"/>
<stop offset="1" stop-color="#FFAD0E" stop-opacity="0"/>
</linearGradient>
</defs>
</svg>
