<svg width="889" height="259" viewBox="0 0 889 259" fill="none" xmlns="http://www.w3.org/2000/svg">
<path d="M20.8 99V95.75H37.7V4.23H27.82C23.7467 4.40333 20.28 5.87666 17.42 8.64999C14.56 11.3367 12.35 14.8033 10.79 19.05C9.23 23.2967 8.40667 27.89 8.32 32.83H3.77V0.979999H88.01V32.83H83.46C83.3733 27.7167 82.5067 22.9933 80.86 18.66C79.2133 14.3267 76.8733 10.86 73.84 8.26C70.8933 5.57333 67.2533 4.23 62.92 4.23H55.12V95.75H72.02V99H20.8ZM140.601 97.05V53.11C140.601 49.8167 139.864 47.39 138.391 45.83C137.004 44.1833 135.011 43.36 132.411 43.36C129.464 43.36 126.734 44.53 124.221 46.87C121.794 49.21 119.844 52.4167 118.371 56.49C116.984 60.4767 116.291 65.0267 116.291 70.14L113.691 51.29H116.811C118.718 47.7367 121.274 44.79 124.481 42.45C127.688 40.11 131.848 38.94 136.961 38.94C142.248 38.94 146.538 40.3267 149.831 43.1C153.211 45.7867 154.901 49.1233 154.901 53.11V97.05H140.601ZM91.7211 99V95.75H124.741V99H91.7211ZM130.721 99V95.75H163.741V99H130.721ZM101.991 97.05V3.06H116.291V97.05H101.991ZM91.7211 4.23V0.979999H116.291V4.23H91.7211ZM202.183 100.56C198.023 100.56 194.079 99.7367 190.353 98.09C186.713 96.3567 183.506 94.06 180.733 91.2C177.959 88.2533 175.793 84.96 174.233 81.32C172.673 77.5933 171.893 73.7367 171.893 69.75C171.893 64.4633 173.106 59.48 175.533 54.8C178.046 50.12 181.513 46.3067 185.933 43.36C190.353 40.4133 195.553 38.94 201.533 38.94C206.213 38.94 210.416 40.0233 214.143 42.19C217.956 44.27 220.946 47.2167 223.113 51.03C225.279 54.8433 226.363 59.22 226.363 64.16V64.94H183.853V61.69H211.283V54.28C211.283 46.3933 207.816 42.45 200.882 42.45C198.023 42.45 195.683 43.3167 193.863 45.05C192.129 46.6967 190.829 49.5133 189.963 53.5C189.183 57.4867 188.793 62.9033 188.793 69.75C188.793 76.77 189.226 82.23 190.093 86.13C190.959 90.03 192.389 92.76 194.383 94.32C196.463 95.88 199.193 96.66 202.573 96.66C207.166 96.66 211.153 95.49 214.533 93.15C217.913 90.81 220.773 86.7367 223.113 80.93H226.753C225.019 86.9967 221.943 91.8067 217.523 95.36C213.189 98.8267 208.076 100.56 202.183 100.56ZM231.417 99V95.75H276.397C280.471 95.75 283.937 95.1433 286.797 93.93C289.744 92.63 291.997 90.2467 293.557 86.78C295.117 83.3133 295.897 78.33 295.897 71.83C295.897 65.9367 295.161 61.3867 293.687 58.18C292.214 54.8867 289.787 52.59 286.407 51.29C283.027 49.99 278.391 49.34 272.497 49.34L268.597 45.44C277.611 45.44 285.671 46.4367 292.777 48.43C299.884 50.3367 305.474 53.2833 309.547 57.27C313.707 61.2567 315.787 66.3267 315.787 72.48C315.787 77.68 314.271 82.2733 311.237 86.26C308.291 90.2467 304.217 93.3667 299.017 95.62C293.904 97.8733 288.097 99 281.597 99H231.417ZM245.717 97.05V0.979999H263.137V97.05H245.717ZM259.107 49.34V45.44H276.397C280.384 45.44 283.591 44.92 286.017 43.88C288.531 42.7533 290.351 40.76 291.477 37.9C292.691 34.9533 293.297 30.7067 293.297 25.16C293.297 19.2667 292.691 14.8467 291.477 11.9C290.264 8.86666 288.401 6.83 285.887 5.79C283.374 4.75 280.211 4.23 276.397 4.23H231.417V0.979999H281.597C287.317 0.979999 292.474 2.02 297.067 4.1C301.661 6.09333 305.301 8.86666 307.987 12.42C310.761 15.9733 312.147 20.0467 312.147 24.64C312.147 29.4933 310.544 33.7833 307.337 37.51C304.131 41.2367 299.841 44.14 294.467 46.22C289.094 48.3 283.071 49.34 276.397 49.34H259.107ZM344.794 100.56C340.114 100.56 336.3 99.2167 333.354 96.53C330.407 93.8433 328.934 90.3333 328.934 86C328.934 81.84 330.32 78.2867 333.094 75.34C335.954 72.3933 339.984 70.14 345.184 68.58C350.384 66.9333 356.537 66.11 363.644 66.11V50.25C363.644 47.9967 362.777 46.22 361.044 44.92C359.31 43.62 356.927 42.97 353.894 42.97C351.294 42.97 349.17 43.4033 347.524 44.27C345.877 45.1367 345.054 46.2633 345.054 47.65C345.054 48.5167 345.357 49.2967 345.964 49.99C346.57 50.6833 346.874 51.7667 346.874 53.24C346.874 55.06 346.18 56.5767 344.794 57.79C343.494 58.9167 341.804 59.48 339.724 59.48C337.644 59.48 335.997 58.8733 334.784 57.66C333.57 56.36 332.964 54.7567 332.964 52.85C332.964 50.25 334.004 47.91 336.084 45.83C338.164 43.6633 340.98 41.9733 344.534 40.76C348.087 39.5467 352.074 38.94 356.494 38.94C362.82 38.94 367.977 40.1967 371.964 42.71C375.95 45.1367 377.944 48.3433 377.944 52.33V91.85C377.944 92.7167 378.204 93.4533 378.724 94.06C379.33 94.58 380.024 94.84 380.804 94.84C381.584 94.84 382.494 94.45 383.534 93.67C384.574 92.8033 385.874 91.5033 387.434 89.77L389.254 91.85C385.18 97.6567 380.63 100.56 375.604 100.56C372.57 100.56 370.057 99.7367 368.064 98.09C366.157 96.3567 364.857 93.9733 364.164 90.94H363.644C361.997 93.7133 359.397 96.01 355.844 97.83C352.29 99.65 348.607 100.56 344.794 100.56ZM352.594 93.41C355.887 93.41 358.53 92.1967 360.524 89.77C362.604 87.2567 363.644 84.0067 363.644 80.02V69.49C357.144 69.49 352.247 70.7033 348.954 73.13C345.66 75.47 344.014 78.9367 344.014 83.53C344.014 86.65 344.75 89.0767 346.224 90.81C347.784 92.5433 349.907 93.41 352.594 93.41ZM439.545 97.05L416.405 66.63L428.365 59.22L458.135 97.05H439.545ZM390.925 99V95.75H422.645V99H390.925ZM430.705 99V95.75H462.685V99H430.705ZM401.195 97.05V3.06H415.495V97.05H401.195ZM421.995 66.63H416.405L440.195 42.71H445.785L421.995 66.63ZM390.925 4.23V0.979999H415.495V4.23H390.925ZM426.415 43.75V40.5H456.575V43.75H426.415ZM507.465 97.05L484.325 66.63L496.285 59.22L526.055 97.05H507.465ZM458.845 99V95.75H490.565V99H458.845ZM498.625 99V95.75H530.605V99H498.625ZM469.115 97.05V3.06H483.415V97.05H469.115ZM489.915 66.63H484.325L508.115 42.71H513.705L489.915 66.63ZM458.845 4.23V0.979999H483.415V4.23H458.845ZM494.335 43.75V40.5H524.495V43.75H494.335ZM560.212 100.56C555.965 100.56 551.978 99.6933 548.252 97.96C544.612 96.2267 541.362 93.93 538.502 91.07C535.728 88.1233 533.562 84.83 532.002 81.19C530.442 77.4633 529.662 73.65 529.662 69.75C529.662 65.85 530.442 62.08 532.002 58.44C533.562 54.7133 535.728 51.42 538.502 48.56C541.362 45.6133 544.612 43.2733 548.252 41.54C551.978 39.8067 555.965 38.94 560.212 38.94C564.458 38.94 568.402 39.8067 572.042 41.54C575.768 43.2733 579.018 45.6133 581.792 48.56C584.652 51.42 586.862 54.7133 588.422 58.44C589.982 62.08 590.762 65.85 590.762 69.75C590.762 73.65 589.982 77.4633 588.422 81.19C586.862 84.83 584.652 88.1233 581.792 91.07C579.018 93.93 575.768 96.2267 572.042 97.96C568.402 99.6933 564.458 100.56 560.212 100.56ZM560.212 96.66C563.505 96.66 566.148 95.9233 568.142 94.45C570.135 92.9767 571.565 90.3333 572.432 86.52C573.385 82.62 573.862 77.03 573.862 69.75C573.862 62.47 573.385 56.88 572.432 52.98C571.565 49.08 570.135 46.4367 568.142 45.05C566.148 43.5767 563.505 42.84 560.212 42.84C556.918 42.84 554.275 43.5767 552.282 45.05C550.288 46.4367 548.815 49.08 547.862 52.98C546.995 56.88 546.562 62.47 546.562 69.75C546.562 77.03 546.995 82.62 547.862 86.52C548.815 90.3333 550.288 92.9767 552.282 94.45C554.275 95.9233 556.918 96.66 560.212 96.66ZM624.76 100.56C619.733 100.56 615.616 99.2167 612.41 96.53C609.29 93.7567 607.73 90.3767 607.73 86.39V42.45H622.03V86C622.03 89.2067 622.68 91.6333 623.98 93.28C625.28 94.9267 627.056 95.75 629.31 95.75C631.996 95.75 634.466 94.58 636.72 92.24C639.06 89.9 640.923 86.7367 642.31 82.75C643.783 78.7633 644.52 74.3 644.52 69.36L647.12 88.86H644C642.093 92.24 639.623 95.0567 636.59 97.31C633.556 99.4767 629.613 100.56 624.76 100.56ZM644.52 99V95.75H669.09V99H644.52ZM597.59 43.75V40.5H622.03V43.75H597.59ZM644.52 96.92V42.45H658.82V96.92H644.52ZM633.86 43.75V40.5H658.82V43.75H633.86ZM674.46 99V95.75H684.73V43.75H674.46V40.5H699.03V50.77H699.55C701.717 46.09 704.187 42.97 706.96 41.41C709.82 39.7633 712.464 38.94 714.89 38.94C717.664 38.94 719.83 39.7633 721.39 41.41C723.037 42.97 723.86 45.2233 723.86 48.17C723.86 50.8567 723.037 52.85 721.39 54.15C719.83 55.3633 718.054 55.97 716.06 55.97C714.414 55.97 712.897 55.5367 711.51 54.67C710.21 53.7167 709.56 52.4167 709.56 50.77C709.56 50.25 709.604 49.8167 709.69 49.47C709.864 49.0367 709.95 48.6033 709.95 48.17C709.95 47.7367 709.82 47.3467 709.56 47C709.3 46.6533 708.737 46.48 707.87 46.48C706.744 46.48 705.487 47.39 704.1 49.21C702.714 50.9433 701.5 53.3267 700.46 56.36C699.507 59.3067 699.03 62.6 699.03 66.24V95.75H710.73V99H674.46ZM747.616 100.56C742.936 100.56 739.122 99.2167 736.176 96.53C733.229 93.8433 731.756 90.3333 731.756 86C731.756 81.84 733.142 78.2867 735.916 75.34C738.776 72.3933 742.806 70.14 748.006 68.58C753.206 66.9333 759.359 66.11 766.466 66.11V50.25C766.466 47.9967 765.599 46.22 763.866 44.92C762.132 43.62 759.749 42.97 756.716 42.97C754.116 42.97 751.992 43.4033 750.346 44.27C748.699 45.1367 747.876 46.2633 747.876 47.65C747.876 48.5167 748.179 49.2967 748.786 49.99C749.392 50.6833 749.696 51.7667 749.696 53.24C749.696 55.06 749.002 56.5767 747.616 57.79C746.316 58.9167 744.626 59.48 742.546 59.48C740.466 59.48 738.819 58.8733 737.606 57.66C736.392 56.36 735.786 54.7567 735.786 52.85C735.786 50.25 736.826 47.91 738.906 45.83C740.986 43.6633 743.802 41.9733 747.356 40.76C750.909 39.5467 754.896 38.94 759.316 38.94C765.642 38.94 770.799 40.1967 774.786 42.71C778.772 45.1367 780.766 48.3433 780.766 52.33V91.85C780.766 92.7167 781.026 93.4533 781.546 94.06C782.152 94.58 782.846 94.84 783.626 94.84C784.406 94.84 785.316 94.45 786.356 93.67C787.396 92.8033 788.696 91.5033 790.256 89.77L792.076 91.85C788.002 97.6567 783.452 100.56 778.426 100.56C775.392 100.56 772.879 99.7367 770.886 98.09C768.979 96.3567 767.679 93.9733 766.986 90.94H766.466C764.819 93.7133 762.219 96.01 758.666 97.83C755.112 99.65 751.429 100.56 747.616 100.56ZM755.416 93.41C758.709 93.41 761.352 92.1967 763.346 89.77C765.426 87.2567 766.466 84.0067 766.466 80.02V69.49C759.966 69.49 755.069 70.7033 751.776 73.13C748.482 75.47 746.836 78.9367 746.836 83.53C746.836 86.65 747.572 89.0767 749.046 90.81C750.606 92.5433 752.729 93.41 755.416 93.41ZM1.43 216V212.75H44.98C50.3533 212.75 54.9033 212.1 58.63 210.8C62.3567 209.5 65.39 207.203 67.73 203.91C70.07 200.53 71.76 195.85 72.8 189.87C73.9267 183.89 74.49 176.263 74.49 166.99C74.49 157.717 73.9267 150.09 72.8 144.11C71.76 138.13 70.0267 133.493 67.6 130.2C65.26 126.82 62.2267 124.48 58.5 123.18C54.7733 121.88 50.2233 121.23 44.85 121.23H1.43V117.98H49.01C55.51 117.98 61.5333 119.323 67.08 122.01C72.7133 124.61 77.6533 128.207 81.9 132.8C86.1467 137.393 89.44 142.637 91.78 148.53C94.12 154.423 95.29 160.577 95.29 166.99C95.29 173.403 94.0767 179.557 91.65 185.45C89.31 191.343 86.0167 196.587 81.77 201.18C77.61 205.773 72.7133 209.413 67.08 212.1C61.4467 214.7 55.38 216 48.88 216H1.43ZM15.73 214.05V117.98H33.15V214.05H15.73ZM110.935 258.38C108.768 258.38 107.078 257.947 105.865 257.08C104.651 256.213 103.785 255.173 103.265 253.96C102.831 252.747 102.615 251.62 102.615 250.58C102.615 248.5 103.221 246.81 104.435 245.51C105.735 244.297 107.338 243.69 109.245 243.69C110.978 243.69 112.321 244.08 113.275 244.86C114.228 245.727 115.008 246.55 115.615 247.33C116.308 248.197 117.045 248.63 117.825 248.63C118.518 248.63 119.038 248.327 119.385 247.72C119.818 247.113 120.165 246.42 120.425 245.64L151.235 159.84H155.915L124.715 244.08C122.548 249.887 120.295 253.7 117.955 255.52C115.615 257.427 113.275 258.38 110.935 258.38ZM131.995 214.05L106.385 158.8L122.115 158.02L138.105 195.33H138.885L131.995 214.05ZM99.6247 160.75V157.5H131.865V160.75H99.6247ZM141.225 160.75V157.5H165.665V160.75H141.225ZM216.017 214.05V170.11C216.017 163.61 213.417 160.36 208.217 160.36C205.357 160.36 202.714 161.53 200.287 163.87C197.947 166.21 196.041 169.417 194.567 173.49C193.181 177.477 192.487 182.027 192.487 187.14L189.887 168.29H193.007C194.827 164.737 197.297 161.79 200.417 159.45C203.624 157.11 207.741 155.94 212.767 155.94C217.881 155.94 222.084 157.327 225.377 160.1C228.671 162.787 230.317 166.123 230.317 170.11V214.05H216.017ZM167.917 216V212.75H200.937V216H167.917ZM178.187 214.05V159.58H192.487V214.05H178.187ZM206.137 216V212.75H239.157V216H206.137ZM167.917 160.75V157.5H192.487V160.75H167.917ZM262.909 217.56C258.229 217.56 254.415 216.217 251.469 213.53C248.522 210.843 247.049 207.333 247.049 203C247.049 198.84 248.435 195.287 251.209 192.34C254.069 189.393 258.099 187.14 263.299 185.58C268.499 183.933 274.652 183.11 281.759 183.11V167.25C281.759 164.997 280.892 163.22 279.159 161.92C277.425 160.62 275.042 159.97 272.009 159.97C269.409 159.97 267.285 160.403 265.639 161.27C263.992 162.137 263.169 163.263 263.169 164.65C263.169 165.517 263.472 166.297 264.079 166.99C264.685 167.683 264.989 168.767 264.989 170.24C264.989 172.06 264.295 173.577 262.909 174.79C261.609 175.917 259.919 176.48 257.839 176.48C255.759 176.48 254.112 175.873 252.899 174.66C251.685 173.36 251.079 171.757 251.079 169.85C251.079 167.25 252.119 164.91 254.199 162.83C256.279 160.663 259.095 158.973 262.649 157.76C266.202 156.547 270.189 155.94 274.609 155.94C280.935 155.94 286.092 157.197 290.079 159.71C294.065 162.137 296.059 165.343 296.059 169.33V208.85C296.059 209.717 296.319 210.453 296.839 211.06C297.445 211.58 298.139 211.84 298.919 211.84C299.699 211.84 300.609 211.45 301.649 210.67C302.689 209.803 303.989 208.503 305.549 206.77L307.369 208.85C303.295 214.657 298.745 217.56 293.719 217.56C290.685 217.56 288.172 216.737 286.179 215.09C284.272 213.357 282.972 210.973 282.279 207.94H281.759C280.112 210.713 277.512 213.01 273.959 214.83C270.405 216.65 266.722 217.56 262.909 217.56ZM270.709 210.41C274.002 210.41 276.645 209.197 278.639 206.77C280.719 204.257 281.759 201.007 281.759 197.02V186.49C275.259 186.49 270.362 187.703 267.069 190.13C263.775 192.47 262.129 195.937 262.129 200.53C262.129 203.65 262.865 206.077 264.339 207.81C265.899 209.543 268.022 210.41 270.709 210.41ZM338.55 217.56C334.997 217.56 331.53 216.953 328.15 215.74C324.857 214.527 322.17 212.923 320.09 210.93L318.14 216H314.37V196.11H318.53L319.18 198.58C320.394 203.26 322.56 206.813 325.68 209.24C328.887 211.667 333.134 212.88 338.42 212.88C342.754 212.88 345.787 212.143 347.52 210.67C349.254 209.11 350.12 206.9 350.12 204.04C350.12 201.18 348.95 199.1 346.61 197.8C344.27 196.413 340.674 195.2 335.82 194.16C331.66 193.293 328.02 192.21 324.9 190.91C321.867 189.523 319.484 187.617 317.75 185.19C316.017 182.677 315.15 179.253 315.15 174.92C315.15 168.767 316.927 164.087 320.48 160.88C324.034 157.587 329.104 155.94 335.69 155.94C339.417 155.94 342.624 156.46 345.31 157.5C348.084 158.54 350.034 159.97 351.16 161.79L352.59 157.5H355.97V176.35H351.94L351.55 174.4C350.597 169.547 348.907 166.037 346.48 163.87C344.14 161.703 340.63 160.62 335.95 160.62C331.79 160.62 328.67 161.443 326.59 163.09C324.597 164.65 323.6 166.86 323.6 169.72C323.6 171.107 323.99 172.363 324.77 173.49C325.55 174.53 326.98 175.483 329.06 176.35C331.227 177.217 334.217 178.083 338.03 178.95C342.45 179.903 346.177 181.117 349.21 182.59C352.244 184.063 354.54 186.013 356.1 188.44C357.747 190.867 358.57 194.03 358.57 197.93C358.57 203.91 356.75 208.677 353.11 212.23C349.47 215.783 344.617 217.56 338.55 217.56ZM390.978 217.69C386.471 217.69 383.091 216.78 380.838 214.96C378.671 213.14 377.588 210.41 377.588 206.77V160.88H367.058V157.63C370.091 157.37 372.908 156.2 375.508 154.12C378.195 151.953 380.621 149.223 382.788 145.93C385.041 142.637 386.861 139.04 388.248 135.14H391.888V157.63H406.838V160.88H391.888V205.86C391.888 209.76 393.491 211.71 396.698 211.71C398.518 211.71 400.165 211.103 401.638 209.89C403.198 208.59 404.801 206.467 406.448 203.52L409.048 204.95C406.881 209.717 404.411 213.053 401.638 214.96C398.865 216.78 395.311 217.69 390.978 217.69ZM421.335 258.38C419.168 258.38 417.478 257.947 416.265 257.08C415.052 256.213 414.185 255.173 413.665 253.96C413.232 252.747 413.015 251.62 413.015 250.58C413.015 248.5 413.622 246.81 414.835 245.51C416.135 244.297 417.738 243.69 419.645 243.69C421.378 243.69 422.722 244.08 423.675 244.86C424.628 245.727 425.408 246.55 426.015 247.33C426.708 248.197 427.445 248.63 428.225 248.63C428.918 248.63 429.438 248.327 429.785 247.72C430.218 247.113 430.565 246.42 430.825 245.64L461.635 159.84H466.315L435.115 244.08C432.948 249.887 430.695 253.7 428.355 255.52C426.015 257.427 423.675 258.38 421.335 258.38ZM442.395 214.05L416.785 158.8L432.515 158.02L448.505 195.33H449.285L442.395 214.05ZM410.025 160.75V157.5H442.265V160.75H410.025ZM451.625 160.75V157.5H476.065V160.75H451.625Z" fill="url(#paint0_linear_1585_4105)"/>
<path d="M507.096 168V157.536H503.064V156.8H511.944V157.536H507.912V168H507.096ZM517.792 159.584C518.474 159.584 519.066 159.717 519.568 159.984C520.08 160.24 520.474 160.635 520.752 161.168C521.04 161.691 521.184 162.341 521.184 163.12V168H520.384V163.184C520.384 162.245 520.144 161.531 519.664 161.04C519.194 160.549 518.533 160.304 517.68 160.304C517.029 160.304 516.464 160.437 515.984 160.704C515.504 160.971 515.136 161.344 514.88 161.824C514.634 162.304 514.512 162.88 514.512 163.552V168H513.712V156.128H514.512V161.968L514.368 161.712C514.624 161.051 515.045 160.533 515.632 160.16C516.218 159.776 516.938 159.584 517.792 159.584ZM527.869 168.064C527.027 168.064 526.28 167.883 525.629 167.52C524.989 167.157 524.483 166.656 524.109 166.016C523.747 165.376 523.565 164.645 523.565 163.824C523.565 162.992 523.736 162.261 524.077 161.632C524.429 160.992 524.909 160.491 525.517 160.128C526.125 159.765 526.808 159.584 527.565 159.584C528.323 159.584 529 159.76 529.597 160.112C530.205 160.464 530.68 160.96 531.021 161.6C531.373 162.229 531.549 162.96 531.549 163.792C531.549 163.824 531.544 163.861 531.533 163.904C531.533 163.936 531.533 163.973 531.533 164.016H524.157V163.392H531.101L530.781 163.696C530.792 163.045 530.653 162.464 530.365 161.952C530.088 161.429 529.709 161.024 529.229 160.736C528.749 160.437 528.195 160.288 527.565 160.288C526.947 160.288 526.392 160.437 525.901 160.736C525.421 161.024 525.043 161.429 524.765 161.952C524.488 162.464 524.349 163.051 524.349 163.712V163.856C524.349 164.539 524.499 165.147 524.797 165.68C525.107 166.203 525.528 166.613 526.061 166.912C526.595 167.2 527.203 167.344 527.885 167.344C528.419 167.344 528.915 167.248 529.373 167.056C529.843 166.864 530.237 166.571 530.557 166.176L531.021 166.704C530.659 167.152 530.2 167.493 529.645 167.728C529.101 167.952 528.509 168.064 527.869 168.064ZM539.766 168L536.598 159.648H537.366L540.31 167.552H539.974L542.998 159.648H543.686L546.694 167.552H546.342L549.334 159.648H550.07L546.902 168H546.15L543.206 160.416H543.462L540.502 168H539.766ZM551.93 168V159.648H552.73V168H551.93ZM552.33 157.616C552.149 157.616 551.994 157.552 551.866 157.424C551.738 157.296 551.674 157.147 551.674 156.976C551.674 156.795 551.738 156.64 551.866 156.512C551.994 156.384 552.149 156.32 552.33 156.32C552.522 156.32 552.677 156.384 552.794 156.512C552.922 156.629 552.986 156.779 552.986 156.96C552.986 157.141 552.922 157.296 552.794 157.424C552.677 157.552 552.522 157.616 552.33 157.616ZM560.182 159.584C560.865 159.584 561.457 159.717 561.958 159.984C562.47 160.24 562.865 160.635 563.142 161.168C563.43 161.691 563.574 162.341 563.574 163.12V168H562.774V163.184C562.774 162.245 562.534 161.531 562.054 161.04C561.585 160.549 560.924 160.304 560.07 160.304C559.42 160.304 558.854 160.437 558.374 160.704C557.894 160.971 557.526 161.344 557.27 161.824C557.025 162.304 556.902 162.88 556.902 163.552V168H556.102V159.648H556.87V161.968L556.758 161.712C557.014 161.051 557.436 160.533 558.022 160.16C558.609 159.776 559.329 159.584 560.182 159.584ZM567.476 165.696L567.492 164.688L573.012 159.648H574.036L570.372 163.088L569.892 163.488L567.476 165.696ZM566.868 168V156.128H567.668V168H566.868ZM573.396 168L569.748 163.424L570.292 162.832L574.388 168H573.396ZM583.696 168.064C582.885 168.064 582.16 167.883 581.52 167.52C580.89 167.157 580.389 166.656 580.016 166.016C579.653 165.376 579.472 164.645 579.472 163.824C579.472 162.992 579.653 162.256 580.016 161.616C580.389 160.976 580.89 160.48 581.52 160.128C582.16 159.765 582.885 159.584 583.696 159.584C584.368 159.584 584.976 159.712 585.52 159.968C586.074 160.224 586.522 160.608 586.864 161.12L586.272 161.552C585.973 161.125 585.6 160.811 585.152 160.608C584.704 160.405 584.218 160.304 583.696 160.304C583.045 160.304 582.458 160.453 581.936 160.752C581.424 161.04 581.018 161.451 580.72 161.984C580.432 162.507 580.288 163.12 580.288 163.824C580.288 164.528 580.432 165.147 580.72 165.68C581.018 166.203 581.424 166.613 581.936 166.912C582.458 167.2 583.045 167.344 583.696 167.344C584.218 167.344 584.704 167.243 585.152 167.04C585.6 166.837 585.973 166.523 586.272 166.096L586.864 166.528C586.522 167.04 586.074 167.424 585.52 167.68C584.976 167.936 584.368 168.064 583.696 168.064ZM592.382 168.064C591.582 168.064 590.867 167.883 590.238 167.52C589.619 167.157 589.123 166.656 588.75 166.016C588.387 165.376 588.206 164.645 588.206 163.824C588.206 162.992 588.387 162.261 588.75 161.632C589.123 160.992 589.619 160.491 590.238 160.128C590.867 159.765 591.582 159.584 592.382 159.584C593.182 159.584 593.897 159.765 594.526 160.128C595.155 160.491 595.651 160.992 596.014 161.632C596.377 162.261 596.558 162.992 596.558 163.824C596.558 164.645 596.377 165.376 596.014 166.016C595.651 166.656 595.155 167.157 594.526 167.52C593.897 167.883 593.182 168.064 592.382 168.064ZM592.382 167.344C593.022 167.344 593.598 167.2 594.11 166.912C594.622 166.613 595.022 166.197 595.31 165.664C595.598 165.131 595.742 164.517 595.742 163.824C595.742 163.12 595.598 162.507 595.31 161.984C595.022 161.451 594.622 161.04 594.11 160.752C593.598 160.453 593.022 160.304 592.382 160.304C591.742 160.304 591.166 160.453 590.654 160.752C590.153 161.04 589.753 161.451 589.454 161.984C589.166 162.507 589.022 163.12 589.022 163.824C589.022 164.517 589.166 165.131 589.454 165.664C589.753 166.197 590.153 166.613 590.654 166.912C591.166 167.2 591.742 167.344 592.382 167.344ZM599.04 168V156.128H599.84V168H599.04ZM603.212 168V156.128H604.012V168H603.212ZM610.776 168.064C609.933 168.064 609.186 167.883 608.536 167.52C607.896 167.157 607.389 166.656 607.016 166.016C606.653 165.376 606.472 164.645 606.472 163.824C606.472 162.992 606.642 162.261 606.984 161.632C607.336 160.992 607.816 160.491 608.424 160.128C609.032 159.765 609.714 159.584 610.472 159.584C611.229 159.584 611.906 159.76 612.504 160.112C613.112 160.464 613.586 160.96 613.928 161.6C614.28 162.229 614.456 162.96 614.456 163.792C614.456 163.824 614.45 163.861 614.44 163.904C614.44 163.936 614.44 163.973 614.44 164.016H607.064V163.392H614.008L613.688 163.696C613.698 163.045 613.56 162.464 613.272 161.952C612.994 161.429 612.616 161.024 612.136 160.736C611.656 160.437 611.101 160.288 610.472 160.288C609.853 160.288 609.298 160.437 608.808 160.736C608.328 161.024 607.949 161.429 607.672 161.952C607.394 162.464 607.256 163.051 607.256 163.712V163.856C607.256 164.539 607.405 165.147 607.704 165.68C608.013 166.203 608.434 166.613 608.968 166.912C609.501 167.2 610.109 167.344 610.792 167.344C611.325 167.344 611.821 167.248 612.28 167.056C612.749 166.864 613.144 166.571 613.464 166.176L613.928 166.704C613.565 167.152 613.106 167.493 612.552 167.728C612.008 167.952 611.416 168.064 610.776 168.064ZM620.242 168.064C619.432 168.064 618.706 167.883 618.066 167.52C617.437 167.157 616.936 166.656 616.562 166.016C616.2 165.376 616.018 164.645 616.018 163.824C616.018 162.992 616.2 162.256 616.562 161.616C616.936 160.976 617.437 160.48 618.066 160.128C618.706 159.765 619.432 159.584 620.242 159.584C620.914 159.584 621.522 159.712 622.066 159.968C622.621 160.224 623.069 160.608 623.41 161.12L622.818 161.552C622.52 161.125 622.146 160.811 621.698 160.608C621.25 160.405 620.765 160.304 620.242 160.304C619.592 160.304 619.005 160.453 618.482 160.752C617.97 161.04 617.565 161.451 617.266 161.984C616.978 162.507 616.834 163.12 616.834 163.824C616.834 164.528 616.978 165.147 617.266 165.68C617.565 166.203 617.97 166.613 618.482 166.912C619.005 167.2 619.592 167.344 620.242 167.344C620.765 167.344 621.25 167.243 621.698 167.04C622.146 166.837 622.52 166.523 622.818 166.096L623.41 166.528C623.069 167.04 622.621 167.424 622.066 167.68C621.522 167.936 620.914 168.064 620.242 168.064ZM628.331 168.064C627.595 168.064 627.03 167.861 626.635 167.456C626.251 167.051 626.059 166.496 626.059 165.792V157.824H626.859V165.712C626.859 166.245 626.992 166.656 627.259 166.944C627.526 167.232 627.91 167.376 628.411 167.376C628.934 167.376 629.366 167.221 629.707 166.912L630.043 167.472C629.83 167.675 629.568 167.824 629.259 167.92C628.96 168.016 628.651 168.064 628.331 168.064ZM624.523 160.336V159.648H629.515V160.336H624.523ZM632.274 168V159.648H633.074V168H632.274ZM632.674 157.616C632.493 157.616 632.338 157.552 632.21 157.424C632.082 157.296 632.018 157.147 632.018 156.976C632.018 156.795 632.082 156.64 632.21 156.512C632.338 156.384 632.493 156.32 632.674 156.32C632.866 156.32 633.021 156.384 633.138 156.512C633.266 156.629 633.33 156.779 633.33 156.96C633.33 157.141 633.266 157.296 633.138 157.424C633.021 157.552 632.866 157.616 632.674 157.616ZM639.71 168.064C638.91 168.064 638.195 167.883 637.566 167.52C636.947 167.157 636.451 166.656 636.078 166.016C635.715 165.376 635.534 164.645 635.534 163.824C635.534 162.992 635.715 162.261 636.078 161.632C636.451 160.992 636.947 160.491 637.566 160.128C638.195 159.765 638.91 159.584 639.71 159.584C640.51 159.584 641.225 159.765 641.854 160.128C642.483 160.491 642.979 160.992 643.342 161.632C643.705 162.261 643.886 162.992 643.886 163.824C643.886 164.645 643.705 165.376 643.342 166.016C642.979 166.656 642.483 167.157 641.854 167.52C641.225 167.883 640.51 168.064 639.71 168.064ZM639.71 167.344C640.35 167.344 640.926 167.2 641.438 166.912C641.95 166.613 642.35 166.197 642.638 165.664C642.926 165.131 643.07 164.517 643.07 163.824C643.07 163.12 642.926 162.507 642.638 161.984C642.35 161.451 641.95 161.04 641.438 160.752C640.926 160.453 640.35 160.304 639.71 160.304C639.07 160.304 638.494 160.453 637.982 160.752C637.481 161.04 637.081 161.451 636.782 161.984C636.494 162.507 636.35 163.12 636.35 163.824C636.35 164.517 636.494 165.131 636.782 165.664C637.081 166.197 637.481 166.613 637.982 166.912C638.494 167.2 639.07 167.344 639.71 167.344ZM650.448 159.584C651.131 159.584 651.723 159.717 652.224 159.984C652.736 160.24 653.131 160.635 653.408 161.168C653.696 161.691 653.84 162.341 653.84 163.12V168H653.04V163.184C653.04 162.245 652.8 161.531 652.32 161.04C651.851 160.549 651.189 160.304 650.336 160.304C649.685 160.304 649.12 160.437 648.64 160.704C648.16 160.971 647.792 161.344 647.536 161.824C647.291 162.304 647.168 162.88 647.168 163.552V168H646.368V159.648H647.136V161.968L647.024 161.712C647.28 161.051 647.701 160.533 648.288 160.16C648.875 159.776 649.595 159.584 650.448 159.584ZM665.435 168.064C664.699 168.064 664.032 167.893 663.435 167.552C662.848 167.211 662.379 166.72 662.027 166.08C661.686 165.44 661.515 164.688 661.515 163.824C661.515 162.939 661.686 162.181 662.027 161.552C662.379 160.923 662.848 160.437 663.435 160.096C664.032 159.755 664.699 159.584 665.435 159.584C666.224 159.584 666.928 159.765 667.547 160.128C668.176 160.48 668.667 160.976 669.019 161.616C669.382 162.245 669.563 162.981 669.563 163.824C669.563 164.656 669.382 165.392 669.019 166.032C668.667 166.672 668.176 167.173 667.547 167.536C666.928 167.888 666.224 168.064 665.435 168.064ZM661.243 168V156.128H662.043V162.352L661.883 163.808L662.011 165.264V168H661.243ZM665.387 167.344C666.027 167.344 666.603 167.2 667.115 166.912C667.627 166.613 668.027 166.197 668.315 165.664C668.614 165.131 668.763 164.517 668.763 163.824C668.763 163.12 668.614 162.507 668.315 161.984C668.027 161.451 667.627 161.04 667.115 160.752C666.603 160.453 666.027 160.304 665.387 160.304C664.747 160.304 664.171 160.453 663.659 160.752C663.158 161.04 662.758 161.451 662.459 161.984C662.171 162.507 662.027 163.12 662.027 163.824C662.027 164.517 662.171 165.131 662.459 165.664C662.758 166.197 663.158 166.613 663.659 166.912C664.171 167.2 664.747 167.344 665.387 167.344ZM671.613 171.168C671.229 171.168 670.867 171.104 670.525 170.976C670.195 170.848 669.912 170.661 669.677 170.416L670.077 169.808C670.291 170.032 670.52 170.197 670.765 170.304C671.021 170.411 671.309 170.464 671.629 170.464C672.013 170.464 672.349 170.357 672.637 170.144C672.936 169.931 673.213 169.541 673.469 168.976L674.045 167.696L674.157 167.552L677.693 159.648H678.509L674.221 169.136C673.997 169.648 673.752 170.048 673.485 170.336C673.229 170.635 672.947 170.848 672.637 170.976C672.328 171.104 671.987 171.168 671.613 171.168ZM674.029 168.208L670.157 159.648H671.005L674.525 167.504L674.029 168.208ZM684.624 168V156.8H689.296C690.501 156.8 691.445 157.045 692.128 157.536C692.811 158.027 693.152 158.736 693.152 159.664C693.152 160.272 693.008 160.784 692.72 161.2C692.432 161.616 692.032 161.931 691.52 162.144C691.019 162.347 690.453 162.448 689.824 162.448L690.112 162.128C690.88 162.128 691.536 162.24 692.08 162.464C692.624 162.688 693.035 163.013 693.312 163.44C693.6 163.867 693.744 164.4 693.744 165.04C693.744 165.979 693.403 166.709 692.72 167.232C692.037 167.744 691.003 168 689.616 168H684.624ZM685.44 167.296H689.616C690.693 167.296 691.515 167.115 692.08 166.752C692.645 166.379 692.928 165.787 692.928 164.976C692.928 164.176 692.645 163.595 692.08 163.232C691.515 162.859 690.693 162.672 689.616 162.672H685.344V161.968H689.264C690.235 161.968 690.987 161.781 691.52 161.408C692.053 161.035 692.32 160.475 692.32 159.728C692.32 158.992 692.053 158.437 691.52 158.064C690.987 157.691 690.235 157.504 689.264 157.504H685.44V167.296ZM701.663 168V166.096L701.631 165.808V162.672C701.631 161.893 701.418 161.301 700.991 160.896C700.575 160.491 699.962 160.288 699.151 160.288C698.575 160.288 698.036 160.389 697.535 160.592C697.044 160.784 696.623 161.035 696.271 161.344L695.871 160.768C696.287 160.395 696.788 160.107 697.375 159.904C697.962 159.691 698.575 159.584 699.215 159.584C700.25 159.584 701.044 159.845 701.599 160.368C702.154 160.891 702.431 161.669 702.431 162.704V168H701.663ZM698.655 168.064C698.036 168.064 697.498 167.968 697.039 167.776C696.591 167.573 696.244 167.291 695.999 166.928C695.764 166.565 695.647 166.149 695.647 165.68C695.647 165.253 695.743 164.869 695.935 164.528C696.138 164.176 696.468 163.893 696.927 163.68C697.386 163.456 697.999 163.344 698.767 163.344H701.839V163.968H698.783C697.919 163.968 697.311 164.128 696.959 164.448C696.618 164.768 696.447 165.168 696.447 165.648C696.447 166.181 696.65 166.608 697.055 166.928C697.46 167.248 698.031 167.408 698.767 167.408C699.471 167.408 700.063 167.248 700.543 166.928C701.034 166.608 701.396 166.144 701.631 165.536L701.855 166.08C701.631 166.688 701.247 167.173 700.703 167.536C700.17 167.888 699.487 168.064 698.655 168.064ZM706.335 165.696L706.351 164.688L711.871 159.648H712.895L709.231 163.088L708.751 163.488L706.335 165.696ZM705.727 168V156.128H706.527V168H705.727ZM712.255 168L708.607 163.424L709.151 162.832L713.247 168H712.255ZM715.742 165.696L715.758 164.688L721.278 159.648H722.302L718.638 163.088L718.158 163.488L715.742 165.696ZM715.134 168V156.128H715.934V168H715.134ZM721.661 168L718.014 163.424L718.558 162.832L722.654 168H721.661ZM727.476 168.064C726.676 168.064 725.961 167.883 725.332 167.52C724.713 167.157 724.217 166.656 723.844 166.016C723.481 165.376 723.3 164.645 723.3 163.824C723.3 162.992 723.481 162.261 723.844 161.632C724.217 160.992 724.713 160.491 725.332 160.128C725.961 159.765 726.676 159.584 727.476 159.584C728.276 159.584 728.99 159.765 729.62 160.128C730.249 160.491 730.745 160.992 731.108 161.632C731.47 162.261 731.652 162.992 731.652 163.824C731.652 164.645 731.47 165.376 731.108 166.016C730.745 166.656 730.249 167.157 729.62 167.52C728.99 167.883 728.276 168.064 727.476 168.064ZM727.476 167.344C728.116 167.344 728.692 167.2 729.204 166.912C729.716 166.613 730.116 166.197 730.404 165.664C730.692 165.131 730.836 164.517 730.836 163.824C730.836 163.12 730.692 162.507 730.404 161.984C730.116 161.451 729.716 161.04 729.204 160.752C728.692 160.453 728.116 160.304 727.476 160.304C726.836 160.304 726.26 160.453 725.748 160.752C725.246 161.04 724.846 161.451 724.548 161.984C724.26 162.507 724.116 163.12 724.116 163.824C724.116 164.517 724.26 165.131 724.548 165.664C724.846 166.197 725.246 166.613 725.748 166.912C726.26 167.2 726.836 167.344 727.476 167.344ZM737.526 168.064C736.811 168.064 736.192 167.936 735.67 167.68C735.147 167.413 734.742 167.019 734.454 166.496C734.176 165.963 734.038 165.307 734.038 164.528V159.648H734.838V164.464C734.838 165.403 735.078 166.117 735.558 166.608C736.038 167.099 736.715 167.344 737.59 167.344C738.219 167.344 738.763 167.211 739.222 166.944C739.68 166.677 740.032 166.304 740.278 165.824C740.523 165.333 740.646 164.757 740.646 164.096V159.648H741.446V168H740.678V165.68L740.79 165.952C740.544 166.603 740.134 167.12 739.558 167.504C738.992 167.877 738.315 168.064 737.526 168.064ZM744.837 168V159.648H745.605V161.936L745.525 161.68C745.759 161.008 746.154 160.491 746.709 160.128C747.263 159.765 747.957 159.584 748.789 159.584V160.368C748.757 160.368 748.725 160.368 748.693 160.368C748.661 160.357 748.629 160.352 748.597 160.352C747.669 160.352 746.943 160.645 746.421 161.232C745.898 161.808 745.637 162.613 745.637 163.648V168H744.837ZM755.632 168V166.096L755.6 165.808V162.672C755.6 161.893 755.387 161.301 754.96 160.896C754.544 160.491 753.931 160.288 753.12 160.288C752.544 160.288 752.005 160.389 751.504 160.592C751.013 160.784 750.592 161.035 750.24 161.344L749.84 160.768C750.256 160.395 750.757 160.107 751.344 159.904C751.931 159.691 752.544 159.584 753.184 159.584C754.219 159.584 755.013 159.845 755.568 160.368C756.123 160.891 756.4 161.669 756.4 162.704V168H755.632ZM752.624 168.064C752.005 168.064 751.467 167.968 751.008 167.776C750.56 167.573 750.213 167.291 749.968 166.928C749.733 166.565 749.616 166.149 749.616 165.68C749.616 165.253 749.712 164.869 749.904 164.528C750.107 164.176 750.437 163.893 750.896 163.68C751.355 163.456 751.968 163.344 752.736 163.344H755.808V163.968H752.752C751.888 163.968 751.28 164.128 750.928 164.448C750.587 164.768 750.416 165.168 750.416 165.648C750.416 166.181 750.619 166.608 751.024 166.928C751.429 167.248 752 167.408 752.736 167.408C753.44 167.408 754.032 167.248 754.512 166.928C755.003 166.608 755.365 166.144 755.6 165.536L755.824 166.08C755.6 166.688 755.216 167.173 754.672 167.536C754.139 167.888 753.456 168.064 752.624 168.064ZM763.805 168V159.648H764.605V168H763.805ZM764.205 157.616C764.024 157.616 763.869 157.552 763.741 157.424C763.613 157.296 763.549 157.147 763.549 156.976C763.549 156.795 763.613 156.64 763.741 156.512C763.869 156.384 764.024 156.32 764.205 156.32C764.397 156.32 764.552 156.384 764.669 156.512C764.797 156.629 764.861 156.779 764.861 156.96C764.861 157.141 764.797 157.296 764.669 157.424C764.552 157.552 764.397 157.616 764.205 157.616ZM770.089 168.064C769.396 168.064 768.745 167.963 768.137 167.76C767.54 167.557 767.076 167.301 766.745 166.992L767.113 166.352C767.433 166.629 767.86 166.869 768.393 167.072C768.927 167.264 769.503 167.36 770.121 167.36C770.996 167.36 771.625 167.216 772.009 166.928C772.393 166.64 772.585 166.261 772.585 165.792C772.585 165.451 772.484 165.184 772.281 164.992C772.089 164.789 771.828 164.635 771.497 164.528C771.167 164.421 770.804 164.336 770.409 164.272C770.015 164.197 769.62 164.117 769.225 164.032C768.831 163.947 768.468 163.824 768.137 163.664C767.807 163.504 767.54 163.285 767.337 163.008C767.145 162.72 767.049 162.341 767.049 161.872C767.049 161.445 767.167 161.061 767.401 160.72C767.636 160.379 767.988 160.107 768.457 159.904C768.927 159.691 769.513 159.584 770.217 159.584C770.74 159.584 771.263 159.659 771.785 159.808C772.319 159.957 772.751 160.155 773.081 160.4L772.713 161.04C772.361 160.773 771.967 160.581 771.529 160.464C771.092 160.347 770.649 160.288 770.201 160.288C769.391 160.288 768.793 160.437 768.409 160.736C768.036 161.035 767.849 161.408 767.849 161.856C767.849 162.208 767.945 162.491 768.137 162.704C768.34 162.907 768.607 163.067 768.937 163.184C769.268 163.291 769.631 163.381 770.025 163.456C770.42 163.52 770.815 163.595 771.209 163.68C771.604 163.765 771.967 163.888 772.297 164.048C772.628 164.197 772.889 164.411 773.081 164.688C773.284 164.955 773.385 165.317 773.385 165.776C773.385 166.235 773.257 166.635 773.001 166.976C772.756 167.317 772.388 167.584 771.897 167.776C771.407 167.968 770.804 168.064 770.089 168.064ZM782.159 168.064C781.423 168.064 780.858 167.861 780.463 167.456C780.079 167.051 779.887 166.496 779.887 165.792V157.824H780.687V165.712C780.687 166.245 780.821 166.656 781.087 166.944C781.354 167.232 781.738 167.376 782.239 167.376C782.762 167.376 783.194 167.221 783.535 166.912L783.871 167.472C783.658 167.675 783.397 167.824 783.087 167.92C782.789 168.016 782.479 168.064 782.159 168.064ZM778.351 160.336V159.648H783.343V160.336H778.351ZM790.182 159.584C790.865 159.584 791.457 159.717 791.958 159.984C792.47 160.24 792.865 160.635 793.142 161.168C793.43 161.691 793.574 162.341 793.574 163.12V168H792.774V163.184C792.774 162.245 792.534 161.531 792.054 161.04C791.585 160.549 790.924 160.304 790.07 160.304C789.42 160.304 788.854 160.437 788.374 160.704C787.894 160.971 787.526 161.344 787.27 161.824C787.025 162.304 786.902 162.88 786.902 163.552V168H786.102V156.128H786.902V161.968L786.758 161.712C787.014 161.051 787.436 160.533 788.022 160.16C788.609 159.776 789.329 159.584 790.182 159.584ZM800.26 168.064C799.417 168.064 798.671 167.883 798.02 167.52C797.38 167.157 796.873 166.656 796.5 166.016C796.137 165.376 795.956 164.645 795.956 163.824C795.956 162.992 796.127 162.261 796.468 161.632C796.82 160.992 797.3 160.491 797.908 160.128C798.516 159.765 799.199 159.584 799.956 159.584C800.713 159.584 801.391 159.76 801.988 160.112C802.596 160.464 803.071 160.96 803.412 161.6C803.764 162.229 803.94 162.96 803.94 163.792C803.94 163.824 803.935 163.861 803.924 163.904C803.924 163.936 803.924 163.973 803.924 164.016H796.548V163.392H803.492L803.172 163.696C803.183 163.045 803.044 162.464 802.756 161.952C802.479 161.429 802.1 161.024 801.62 160.736C801.14 160.437 800.585 160.288 799.956 160.288C799.337 160.288 798.783 160.437 798.292 160.736C797.812 161.024 797.433 161.429 797.156 161.952C796.879 162.464 796.74 163.051 796.74 163.712V163.856C796.74 164.539 796.889 165.147 797.188 165.68C797.497 166.203 797.919 166.613 798.452 166.912C798.985 167.2 799.593 167.344 800.276 167.344C800.809 167.344 801.305 167.248 801.764 167.056C802.233 166.864 802.628 166.571 802.948 166.176L803.412 166.704C803.049 167.152 802.591 167.493 802.036 167.728C801.492 167.952 800.9 168.064 800.26 168.064ZM814.716 168.064C813.98 168.064 813.313 167.893 812.716 167.552C812.129 167.211 811.66 166.725 811.308 166.096C810.967 165.456 810.796 164.699 810.796 163.824C810.796 162.949 810.967 162.197 811.308 161.568C811.66 160.928 812.129 160.437 812.716 160.096C813.313 159.755 813.98 159.584 814.716 159.584C815.505 159.584 816.209 159.765 816.828 160.128C817.457 160.48 817.948 160.976 818.3 161.616C818.663 162.256 818.844 162.992 818.844 163.824C818.844 164.656 818.663 165.392 818.3 166.032C817.948 166.672 817.457 167.173 816.828 167.536C816.209 167.888 815.505 168.064 814.716 168.064ZM810.524 171.104V159.648H811.292V162.384L811.164 163.84L811.324 165.296V171.104H810.524ZM814.668 167.344C815.308 167.344 815.884 167.2 816.396 166.912C816.908 166.613 817.308 166.197 817.596 165.664C817.895 165.131 818.044 164.517 818.044 163.824C818.044 163.12 817.895 162.507 817.596 161.984C817.308 161.451 816.908 161.04 816.396 160.752C815.884 160.453 815.308 160.304 814.668 160.304C814.028 160.304 813.452 160.453 812.94 160.752C812.439 161.04 812.039 161.451 811.74 161.984C811.452 162.507 811.308 163.12 811.308 163.824C811.308 164.517 811.452 165.131 811.74 165.664C812.039 166.197 812.439 166.613 812.94 166.912C813.452 167.2 814.028 167.344 814.668 167.344ZM826.554 168V166.096L826.522 165.808V162.672C826.522 161.893 826.308 161.301 825.882 160.896C825.466 160.491 824.852 160.288 824.042 160.288C823.466 160.288 822.927 160.389 822.426 160.592C821.935 160.784 821.514 161.035 821.162 161.344L820.762 160.768C821.178 160.395 821.679 160.107 822.266 159.904C822.852 159.691 823.466 159.584 824.106 159.584C825.14 159.584 825.935 159.845 826.49 160.368C827.044 160.891 827.322 161.669 827.322 162.704V168H826.554ZM823.546 168.064C822.927 168.064 822.388 167.968 821.93 167.776C821.482 167.573 821.135 167.291 820.89 166.928C820.655 166.565 820.538 166.149 820.538 165.68C820.538 165.253 820.634 164.869 820.826 164.528C821.028 164.176 821.359 163.893 821.818 163.68C822.276 163.456 822.89 163.344 823.658 163.344H826.73V163.968H823.674C822.81 163.968 822.202 164.128 821.85 164.448C821.508 164.768 821.338 165.168 821.338 165.648C821.338 166.181 821.54 166.608 821.946 166.928C822.351 167.248 822.922 167.408 823.658 167.408C824.362 167.408 824.954 167.248 825.434 166.928C825.924 166.608 826.287 166.144 826.522 165.536L826.746 166.08C826.522 166.688 826.138 167.173 825.594 167.536C825.06 167.888 824.378 168.064 823.546 168.064ZM830.618 168V159.648H831.386V161.936L831.306 161.68C831.541 161.008 831.935 160.491 832.49 160.128C833.045 159.765 833.738 159.584 834.57 159.584V160.368C834.538 160.368 834.506 160.368 834.474 160.368C834.442 160.357 834.41 160.352 834.378 160.352C833.45 160.352 832.725 160.645 832.202 161.232C831.679 161.808 831.418 162.613 831.418 163.648V168H830.618ZM839.581 168.064C838.845 168.064 838.28 167.861 837.885 167.456C837.501 167.051 837.309 166.496 837.309 165.792V157.824H838.109V165.712C838.109 166.245 838.242 166.656 838.509 166.944C838.776 167.232 839.16 167.376 839.661 167.376C840.184 167.376 840.616 167.221 840.957 166.912L841.293 167.472C841.08 167.675 840.818 167.824 840.509 167.92C840.21 168.016 839.901 168.064 839.581 168.064ZM835.773 160.336V159.648H840.765V160.336H835.773ZM507.96 192.064C507.16 192.064 506.445 191.883 505.816 191.52C505.197 191.157 504.701 190.656 504.328 190.016C503.965 189.376 503.784 188.645 503.784 187.824C503.784 186.992 503.965 186.261 504.328 185.632C504.701 184.992 505.197 184.491 505.816 184.128C506.445 183.765 507.16 183.584 507.96 183.584C508.76 183.584 509.475 183.765 510.104 184.128C510.733 184.491 511.229 184.992 511.592 185.632C511.955 186.261 512.136 186.992 512.136 187.824C512.136 188.645 511.955 189.376 511.592 190.016C511.229 190.656 510.733 191.157 510.104 191.52C509.475 191.883 508.76 192.064 507.96 192.064ZM507.96 191.344C508.6 191.344 509.176 191.2 509.688 190.912C510.2 190.613 510.6 190.197 510.888 189.664C511.176 189.131 511.32 188.517 511.32 187.824C511.32 187.12 511.176 186.507 510.888 185.984C510.6 185.451 510.2 185.04 509.688 184.752C509.176 184.453 508.6 184.304 507.96 184.304C507.32 184.304 506.744 184.453 506.232 184.752C505.731 185.04 505.331 185.451 505.032 185.984C504.744 186.507 504.6 187.12 504.6 187.824C504.6 188.517 504.744 189.131 505.032 189.664C505.331 190.197 505.731 190.613 506.232 190.912C506.744 191.2 507.32 191.344 507.96 191.344ZM514.778 192V182.368C514.778 181.675 514.975 181.12 515.37 180.704C515.775 180.277 516.351 180.064 517.098 180.064C517.407 180.064 517.711 180.112 518.01 180.208C518.309 180.293 518.554 180.427 518.746 180.608L518.426 181.216C518.266 181.056 518.074 180.939 517.85 180.864C517.626 180.789 517.386 180.752 517.13 180.752C516.618 180.752 516.229 180.896 515.962 181.184C515.695 181.461 515.562 181.877 515.562 182.432V183.84L515.578 184.224V192H514.778ZM513.242 184.336V183.648H518.234V184.336H513.242ZM526.409 192.064C525.673 192.064 525.108 191.861 524.713 191.456C524.329 191.051 524.137 190.496 524.137 189.792V181.824H524.937V189.712C524.937 190.245 525.071 190.656 525.337 190.944C525.604 191.232 525.988 191.376 526.489 191.376C527.012 191.376 527.444 191.221 527.785 190.912L528.121 191.472C527.908 191.675 527.647 191.824 527.337 191.92C527.039 192.016 526.729 192.064 526.409 192.064ZM522.601 184.336V183.648H527.593V184.336H522.601ZM534.432 183.584C535.115 183.584 535.707 183.717 536.208 183.984C536.72 184.24 537.115 184.635 537.392 185.168C537.68 185.691 537.824 186.341 537.824 187.12V192H537.024V187.184C537.024 186.245 536.784 185.531 536.304 185.04C535.835 184.549 535.174 184.304 534.32 184.304C533.67 184.304 533.104 184.437 532.624 184.704C532.144 184.971 531.776 185.344 531.52 185.824C531.275 186.304 531.152 186.88 531.152 187.552V192H530.352V180.128H531.152V185.968L531.008 185.712C531.264 185.051 531.686 184.533 532.272 184.16C532.859 183.776 533.579 183.584 534.432 183.584ZM544.51 192.064C543.667 192.064 542.921 191.883 542.27 191.52C541.63 191.157 541.123 190.656 540.75 190.016C540.387 189.376 540.206 188.645 540.206 187.824C540.206 186.992 540.377 186.261 540.718 185.632C541.07 184.992 541.55 184.491 542.158 184.128C542.766 183.765 543.449 183.584 544.206 183.584C544.963 183.584 545.641 183.76 546.238 184.112C546.846 184.464 547.321 184.96 547.662 185.6C548.014 186.229 548.19 186.96 548.19 187.792C548.19 187.824 548.185 187.861 548.174 187.904C548.174 187.936 548.174 187.973 548.174 188.016H540.798V187.392H547.742L547.422 187.696C547.433 187.045 547.294 186.464 547.006 185.952C546.729 185.429 546.35 185.024 545.87 184.736C545.39 184.437 544.835 184.288 544.206 184.288C543.587 184.288 543.033 184.437 542.542 184.736C542.062 185.024 541.683 185.429 541.406 185.952C541.129 186.464 540.99 187.051 540.99 187.712V187.856C540.99 188.539 541.139 189.147 541.438 189.68C541.747 190.203 542.169 190.613 542.702 190.912C543.235 191.2 543.843 191.344 544.526 191.344C545.059 191.344 545.555 191.248 546.014 191.056C546.483 190.864 546.878 190.571 547.198 190.176L547.662 190.704C547.299 191.152 546.841 191.493 546.286 191.728C545.742 191.952 545.15 192.064 544.51 192.064ZM555.03 192V180.8H559.702C560.907 180.8 561.851 181.045 562.534 181.536C563.217 182.027 563.558 182.736 563.558 183.664C563.558 184.272 563.414 184.784 563.126 185.2C562.838 185.616 562.438 185.931 561.926 186.144C561.425 186.347 560.859 186.448 560.23 186.448L560.518 186.128C561.286 186.128 561.942 186.24 562.486 186.464C563.03 186.688 563.441 187.013 563.718 187.44C564.006 187.867 564.15 188.4 564.15 189.04C564.15 189.979 563.809 190.709 563.126 191.232C562.443 191.744 561.409 192 560.022 192H555.03ZM555.846 191.296H560.022C561.099 191.296 561.921 191.115 562.486 190.752C563.051 190.379 563.334 189.787 563.334 188.976C563.334 188.176 563.051 187.595 562.486 187.232C561.921 186.859 561.099 186.672 560.022 186.672H555.75V185.968H559.67C560.641 185.968 561.393 185.781 561.926 185.408C562.459 185.035 562.726 184.475 562.726 183.728C562.726 182.992 562.459 182.437 561.926 182.064C561.393 181.691 560.641 181.504 559.67 181.504H555.846V191.296ZM572.069 192V190.096L572.037 189.808V186.672C572.037 185.893 571.824 185.301 571.397 184.896C570.981 184.491 570.368 184.288 569.557 184.288C568.981 184.288 568.443 184.389 567.941 184.592C567.451 184.784 567.029 185.035 566.677 185.344L566.277 184.768C566.693 184.395 567.195 184.107 567.781 183.904C568.368 183.691 568.981 183.584 569.621 183.584C570.656 183.584 571.451 183.845 572.005 184.368C572.56 184.891 572.837 185.669 572.837 186.704V192H572.069ZM569.061 192.064C568.443 192.064 567.904 191.968 567.445 191.776C566.997 191.573 566.651 191.291 566.405 190.928C566.171 190.565 566.053 190.149 566.053 189.68C566.053 189.253 566.149 188.869 566.341 188.528C566.544 188.176 566.875 187.893 567.333 187.68C567.792 187.456 568.405 187.344 569.173 187.344H572.245V187.968H569.189C568.325 187.968 567.717 188.128 567.365 188.448C567.024 188.768 566.853 189.168 566.853 189.648C566.853 190.181 567.056 190.608 567.461 190.928C567.867 191.248 568.437 191.408 569.173 191.408C569.877 191.408 570.469 191.248 570.949 190.928C571.44 190.608 571.803 190.144 572.037 189.536L572.261 190.08C572.037 190.688 571.653 191.173 571.109 191.536C570.576 191.888 569.893 192.064 569.061 192.064ZM576.742 189.696L576.758 188.688L582.278 183.648H583.302L579.638 187.088L579.158 187.488L576.742 189.696ZM576.134 192V180.128H576.934V192H576.134ZM582.661 192L579.014 187.424L579.558 186.832L583.654 192H582.661ZM586.148 189.696L586.164 188.688L591.684 183.648H592.708L589.044 187.088L588.564 187.488L586.148 189.696ZM585.54 192V180.128H586.34V192H585.54ZM592.068 192L588.42 187.424L588.964 186.832L593.06 192H592.068ZM597.882 192.064C597.082 192.064 596.367 191.883 595.738 191.52C595.119 191.157 594.623 190.656 594.25 190.016C593.887 189.376 593.706 188.645 593.706 187.824C593.706 186.992 593.887 186.261 594.25 185.632C594.623 184.992 595.119 184.491 595.738 184.128C596.367 183.765 597.082 183.584 597.882 183.584C598.682 183.584 599.397 183.765 600.026 184.128C600.655 184.491 601.151 184.992 601.514 185.632C601.877 186.261 602.058 186.992 602.058 187.824C602.058 188.645 601.877 189.376 601.514 190.016C601.151 190.656 600.655 191.157 600.026 191.52C599.397 191.883 598.682 192.064 597.882 192.064ZM597.882 191.344C598.522 191.344 599.098 191.2 599.61 190.912C600.122 190.613 600.522 190.197 600.81 189.664C601.098 189.131 601.242 188.517 601.242 187.824C601.242 187.12 601.098 186.507 600.81 185.984C600.522 185.451 600.122 185.04 599.61 184.752C599.098 184.453 598.522 184.304 597.882 184.304C597.242 184.304 596.666 184.453 596.154 184.752C595.653 185.04 595.253 185.451 594.954 185.984C594.666 186.507 594.522 187.12 594.522 187.824C594.522 188.517 594.666 189.131 594.954 189.664C595.253 190.197 595.653 190.613 596.154 190.912C596.666 191.2 597.242 191.344 597.882 191.344ZM607.932 192.064C607.217 192.064 606.598 191.936 606.076 191.68C605.553 191.413 605.148 191.019 604.86 190.496C604.582 189.963 604.444 189.307 604.444 188.528V183.648H605.244V188.464C605.244 189.403 605.484 190.117 605.964 190.608C606.444 191.099 607.121 191.344 607.996 191.344C608.625 191.344 609.169 191.211 609.628 190.944C610.086 190.677 610.438 190.304 610.684 189.824C610.929 189.333 611.052 188.757 611.052 188.096V183.648H611.852V192H611.084V189.68L611.196 189.952C610.95 190.603 610.54 191.12 609.964 191.504C609.398 191.877 608.721 192.064 607.932 192.064ZM615.243 192V183.648H616.011V185.936L615.931 185.68C616.166 185.008 616.56 184.491 617.115 184.128C617.67 183.765 618.363 183.584 619.195 183.584V184.368C619.163 184.368 619.131 184.368 619.099 184.368C619.067 184.357 619.035 184.352 619.003 184.352C618.075 184.352 617.35 184.645 616.827 185.232C616.304 185.808 616.043 186.613 616.043 187.648V192H615.243ZM626.038 192V190.096L626.006 189.808V186.672C626.006 185.893 625.793 185.301 625.366 184.896C624.95 184.491 624.337 184.288 623.526 184.288C622.95 184.288 622.411 184.389 621.91 184.592C621.419 184.784 620.998 185.035 620.646 185.344L620.246 184.768C620.662 184.395 621.163 184.107 621.75 183.904C622.337 183.691 622.95 183.584 623.59 183.584C624.625 183.584 625.419 183.845 625.974 184.368C626.529 184.891 626.806 185.669 626.806 186.704V192H626.038ZM623.03 192.064C622.411 192.064 621.873 191.968 621.414 191.776C620.966 191.573 620.619 191.291 620.374 190.928C620.139 190.565 620.022 190.149 620.022 189.68C620.022 189.253 620.118 188.869 620.31 188.528C620.513 188.176 620.843 187.893 621.302 187.68C621.761 187.456 622.374 187.344 623.142 187.344H626.214V187.968H623.158C622.294 187.968 621.686 188.128 621.334 188.448C620.993 188.768 620.822 189.168 620.822 189.648C620.822 190.181 621.025 190.608 621.43 190.928C621.835 191.248 622.406 191.408 623.142 191.408C623.846 191.408 624.438 191.248 624.918 190.928C625.409 190.608 625.771 190.144 626.006 189.536L626.23 190.08C626.006 190.688 625.622 191.173 625.078 191.536C624.545 191.888 623.862 192.064 623.03 192.064ZM637.428 192.064C636.649 192.064 635.945 191.888 635.316 191.536C634.697 191.173 634.206 190.672 633.844 190.032C633.481 189.392 633.3 188.656 633.3 187.824C633.3 186.981 633.481 186.245 633.844 185.616C634.206 184.976 634.697 184.48 635.316 184.128C635.945 183.765 636.649 183.584 637.428 183.584C638.164 183.584 638.825 183.755 639.412 184.096C640.009 184.437 640.478 184.923 640.82 185.552C641.172 186.181 641.348 186.939 641.348 187.824C641.348 188.688 641.177 189.44 640.836 190.08C640.494 190.72 640.025 191.211 639.428 191.552C638.841 191.893 638.174 192.064 637.428 192.064ZM637.476 191.344C638.116 191.344 638.686 191.2 639.188 190.912C639.7 190.613 640.1 190.197 640.388 189.664C640.686 189.131 640.836 188.517 640.836 187.824C640.836 187.12 640.686 186.507 640.388 185.984C640.1 185.451 639.7 185.04 639.188 184.752C638.686 184.453 638.116 184.304 637.476 184.304C636.836 184.304 636.26 184.453 635.748 184.752C635.246 185.04 634.846 185.451 634.548 185.984C634.26 186.507 634.116 187.12 634.116 187.824C634.116 188.517 634.26 189.131 634.548 189.664C634.846 190.197 635.246 190.613 635.748 190.912C636.26 191.2 636.836 191.344 637.476 191.344ZM640.852 192V189.264L640.996 187.808L640.836 186.352V180.128H641.636V192H640.852ZM644.817 195.168C644.433 195.168 644.07 195.104 643.729 194.976C643.398 194.848 643.115 194.661 642.88 194.416L643.28 193.808C643.494 194.032 643.723 194.197 643.969 194.304C644.225 194.411 644.513 194.464 644.833 194.464C645.217 194.464 645.553 194.357 645.841 194.144C646.139 193.931 646.417 193.541 646.673 192.976L647.249 191.696L647.361 191.552L650.897 183.648H651.713L647.424 193.136C647.201 193.648 646.955 194.048 646.689 194.336C646.433 194.635 646.15 194.848 645.841 194.976C645.531 195.104 645.19 195.168 644.817 195.168ZM647.233 192.208L643.361 183.648H644.209L647.729 191.504L647.233 192.208ZM657.542 183.584C658.224 183.584 658.816 183.717 659.318 183.984C659.83 184.24 660.224 184.635 660.502 185.168C660.79 185.691 660.934 186.341 660.934 187.12V192H660.134V187.184C660.134 186.245 659.894 185.531 659.414 185.04C658.944 184.549 658.283 184.304 657.43 184.304C656.779 184.304 656.214 184.437 655.734 184.704C655.254 184.971 654.886 185.344 654.63 185.824C654.384 186.304 654.262 186.88 654.262 187.552V192H653.462V183.648H654.23V185.968L654.118 185.712C654.374 185.051 654.795 184.533 655.382 184.16C655.968 183.776 656.688 183.584 657.542 183.584ZM669.491 192V190.096L669.459 189.808V186.672C669.459 185.893 669.246 185.301 668.819 184.896C668.403 184.491 667.79 184.288 666.979 184.288C666.403 184.288 665.865 184.389 665.363 184.592C664.873 184.784 664.451 185.035 664.099 185.344L663.699 184.768C664.115 184.395 664.617 184.107 665.203 183.904C665.79 183.691 666.403 183.584 667.043 183.584C668.078 183.584 668.873 183.845 669.427 184.368C669.982 184.891 670.259 185.669 670.259 186.704V192H669.491ZM666.483 192.064C665.865 192.064 665.326 191.968 664.867 191.776C664.419 191.573 664.073 191.291 663.827 190.928C663.593 190.565 663.475 190.149 663.475 189.68C663.475 189.253 663.571 188.869 663.763 188.528C663.966 188.176 664.297 187.893 664.755 187.68C665.214 187.456 665.827 187.344 666.595 187.344H669.667V187.968H666.611C665.747 187.968 665.139 188.128 664.787 188.448C664.446 188.768 664.275 189.168 664.275 189.648C664.275 190.181 664.478 190.608 664.883 190.928C665.289 191.248 665.859 191.408 666.595 191.408C667.299 191.408 667.891 191.248 668.371 190.928C668.862 190.608 669.225 190.144 669.459 189.536L669.683 190.08C669.459 190.688 669.075 191.173 668.531 191.536C667.998 191.888 667.315 192.064 666.483 192.064ZM675.667 192.064C674.974 192.064 674.323 191.963 673.715 191.76C673.118 191.557 672.654 191.301 672.323 190.992L672.691 190.352C673.011 190.629 673.438 190.869 673.971 191.072C674.505 191.264 675.081 191.36 675.699 191.36C676.574 191.36 677.203 191.216 677.587 190.928C677.971 190.64 678.163 190.261 678.163 189.792C678.163 189.451 678.062 189.184 677.859 188.992C677.667 188.789 677.406 188.635 677.075 188.528C676.745 188.421 676.382 188.336 675.987 188.272C675.593 188.197 675.198 188.117 674.803 188.032C674.409 187.947 674.046 187.824 673.715 187.664C673.385 187.504 673.118 187.285 672.915 187.008C672.723 186.72 672.627 186.341 672.627 185.872C672.627 185.445 672.745 185.061 672.979 184.72C673.214 184.379 673.566 184.107 674.035 183.904C674.505 183.691 675.091 183.584 675.795 183.584C676.318 183.584 676.841 183.659 677.363 183.808C677.897 183.957 678.329 184.155 678.659 184.4L678.291 185.04C677.939 184.773 677.545 184.581 677.107 184.464C676.67 184.347 676.227 184.288 675.779 184.288C674.969 184.288 674.371 184.437 673.987 184.736C673.614 185.035 673.427 185.408 673.427 185.856C673.427 186.208 673.523 186.491 673.715 186.704C673.918 186.907 674.185 187.067 674.515 187.184C674.846 187.291 675.209 187.381 675.603 187.456C675.998 187.52 676.393 187.595 676.787 187.68C677.182 187.765 677.545 187.888 677.875 188.048C678.206 188.197 678.467 188.411 678.659 188.688C678.862 188.955 678.963 189.317 678.963 189.776C678.963 190.235 678.835 190.635 678.579 190.976C678.334 191.317 677.966 191.584 677.475 191.776C676.985 191.968 676.382 192.064 675.667 192.064ZM683.628 192.064C682.892 192.064 682.327 191.861 681.932 191.456C681.548 191.051 681.356 190.496 681.356 189.792V181.824H682.156V189.712C682.156 190.245 682.289 190.656 682.556 190.944C682.823 191.232 683.207 191.376 683.708 191.376C684.231 191.376 684.663 191.221 685.004 190.912L685.34 191.472C685.127 191.675 684.865 191.824 684.556 191.92C684.257 192.016 683.948 192.064 683.628 192.064ZM679.82 184.336V183.648H684.812V184.336H679.82ZM687.223 195.168C686.839 195.168 686.476 195.104 686.135 194.976C685.804 194.848 685.521 194.661 685.287 194.416L685.687 193.808C685.9 194.032 686.129 194.197 686.375 194.304C686.631 194.411 686.919 194.464 687.239 194.464C687.623 194.464 687.959 194.357 688.247 194.144C688.545 193.931 688.823 193.541 689.079 192.976L689.655 191.696L689.767 191.552L693.303 183.648H694.119L689.831 193.136C689.607 193.648 689.361 194.048 689.095 194.336C688.839 194.635 688.556 194.848 688.247 194.976C687.937 195.104 687.596 195.168 687.223 195.168ZM689.639 192.208L685.767 183.648H686.615L690.135 191.504L689.639 192.208ZM507.096 216V205.536H503.064V204.8H511.944V205.536H507.912V216H507.096ZM517.792 207.584C518.474 207.584 519.066 207.717 519.568 207.984C520.08 208.24 520.474 208.635 520.752 209.168C521.04 209.691 521.184 210.341 521.184 211.12V216H520.384V211.184C520.384 210.245 520.144 209.531 519.664 209.04C519.194 208.549 518.533 208.304 517.68 208.304C517.029 208.304 516.464 208.437 515.984 208.704C515.504 208.971 515.136 209.344 514.88 209.824C514.634 210.304 514.512 210.88 514.512 211.552V216H513.712V204.128H514.512V209.968L514.368 209.712C514.624 209.051 515.045 208.533 515.632 208.16C516.218 207.776 516.938 207.584 517.792 207.584ZM524.477 216V207.648H525.277V216H524.477ZM524.877 205.616C524.696 205.616 524.541 205.552 524.413 205.424C524.285 205.296 524.221 205.147 524.221 204.976C524.221 204.795 524.285 204.64 524.413 204.512C524.541 204.384 524.696 204.32 524.877 204.32C525.069 204.32 525.224 204.384 525.341 204.512C525.469 204.629 525.533 204.779 525.533 204.96C525.533 205.141 525.469 205.296 525.341 205.424C525.224 205.552 525.069 205.616 524.877 205.616ZM530.761 216.064C530.068 216.064 529.417 215.963 528.809 215.76C528.212 215.557 527.748 215.301 527.417 214.992L527.785 214.352C528.105 214.629 528.532 214.869 529.065 215.072C529.598 215.264 530.174 215.36 530.793 215.36C531.668 215.36 532.297 215.216 532.681 214.928C533.065 214.64 533.257 214.261 533.257 213.792C533.257 213.451 533.156 213.184 532.953 212.992C532.761 212.789 532.5 212.635 532.169 212.528C531.838 212.421 531.476 212.336 531.081 212.272C530.686 212.197 530.292 212.117 529.897 212.032C529.502 211.947 529.14 211.824 528.809 211.664C528.478 211.504 528.212 211.285 528.009 211.008C527.817 210.72 527.721 210.341 527.721 209.872C527.721 209.445 527.838 209.061 528.073 208.72C528.308 208.379 528.66 208.107 529.129 207.904C529.598 207.691 530.185 207.584 530.889 207.584C531.412 207.584 531.934 207.659 532.457 207.808C532.99 207.957 533.422 208.155 533.753 208.4L533.385 209.04C533.033 208.773 532.638 208.581 532.201 208.464C531.764 208.347 531.321 208.288 530.873 208.288C530.062 208.288 529.465 208.437 529.081 208.736C528.708 209.035 528.521 209.408 528.521 209.856C528.521 210.208 528.617 210.491 528.809 210.704C529.012 210.907 529.278 211.067 529.609 211.184C529.94 211.291 530.302 211.381 530.697 211.456C531.092 211.52 531.486 211.595 531.881 211.68C532.276 211.765 532.638 211.888 532.969 212.048C533.3 212.197 533.561 212.411 533.753 212.688C533.956 212.955 534.057 213.317 534.057 213.776C534.057 214.235 533.929 214.635 533.673 214.976C533.428 215.317 533.06 215.584 532.569 215.776C532.078 215.968 531.476 216.064 530.761 216.064ZM542.831 216.064C542.095 216.064 541.53 215.861 541.135 215.456C540.751 215.051 540.559 214.496 540.559 213.792V205.824H541.359V213.712C541.359 214.245 541.492 214.656 541.759 214.944C542.026 215.232 542.41 215.376 542.911 215.376C543.434 215.376 543.866 215.221 544.207 214.912L544.543 215.472C544.33 215.675 544.068 215.824 543.759 215.92C543.46 216.016 543.151 216.064 542.831 216.064ZM539.023 208.336V207.648H544.015V208.336H539.023ZM550.854 207.584C551.537 207.584 552.129 207.717 552.63 207.984C553.142 208.24 553.537 208.635 553.814 209.168C554.102 209.691 554.246 210.341 554.246 211.12V216H553.446V211.184C553.446 210.245 553.206 209.531 552.726 209.04C552.257 208.549 551.595 208.304 550.742 208.304C550.091 208.304 549.526 208.437 549.046 208.704C548.566 208.971 548.198 209.344 547.942 209.824C547.697 210.304 547.574 210.88 547.574 211.552V216H546.774V204.128H547.574V209.968L547.43 209.712C547.686 209.051 548.107 208.533 548.694 208.16C549.281 207.776 550.001 207.584 550.854 207.584ZM560.932 216.064C560.089 216.064 559.342 215.883 558.692 215.52C558.052 215.157 557.545 214.656 557.172 214.016C556.809 213.376 556.628 212.645 556.628 211.824C556.628 210.992 556.798 210.261 557.14 209.632C557.492 208.992 557.972 208.491 558.58 208.128C559.188 207.765 559.87 207.584 560.628 207.584C561.385 207.584 562.062 207.76 562.66 208.112C563.268 208.464 563.742 208.96 564.084 209.6C564.436 210.229 564.612 210.96 564.612 211.792C564.612 211.824 564.606 211.861 564.596 211.904C564.596 211.936 564.596 211.973 564.596 212.016H557.22V211.392H564.164L563.844 211.696C563.854 211.045 563.716 210.464 563.428 209.952C563.15 209.429 562.772 209.024 562.292 208.736C561.812 208.437 561.257 208.288 560.628 208.288C560.009 208.288 559.454 208.437 558.964 208.736C558.484 209.024 558.105 209.429 557.828 209.952C557.55 210.464 557.412 211.051 557.412 211.712V211.856C557.412 212.539 557.561 213.147 557.86 213.68C558.169 214.203 558.59 214.613 559.124 214.912C559.657 215.2 560.265 215.344 560.948 215.344C561.481 215.344 561.977 215.248 562.436 215.056C562.905 214.864 563.3 214.571 563.62 214.176L564.084 214.704C563.721 215.152 563.262 215.493 562.708 215.728C562.164 215.952 561.572 216.064 560.932 216.064ZM573.628 216.064C572.892 216.064 572.327 215.861 571.932 215.456C571.548 215.051 571.356 214.496 571.356 213.792V205.824H572.156V213.712C572.156 214.245 572.289 214.656 572.556 214.944C572.823 215.232 573.207 215.376 573.708 215.376C574.231 215.376 574.663 215.221 575.004 214.912L575.34 215.472C575.127 215.675 574.865 215.824 574.556 215.92C574.257 216.016 573.948 216.064 573.628 216.064ZM569.82 208.336V207.648H574.812V208.336H569.82ZM581.651 207.584C582.334 207.584 582.926 207.717 583.427 207.984C583.939 208.24 584.334 208.635 584.611 209.168C584.899 209.691 585.043 210.341 585.043 211.12V216H584.243V211.184C584.243 210.245 584.003 209.531 583.523 209.04C583.054 208.549 582.392 208.304 581.539 208.304C580.888 208.304 580.323 208.437 579.843 208.704C579.363 208.971 578.995 209.344 578.739 209.824C578.494 210.304 578.371 210.88 578.371 211.552V216H577.571V204.128H578.371V209.968L578.227 209.712C578.483 209.051 578.904 208.533 579.491 208.16C580.078 207.776 580.798 207.584 581.651 207.584ZM591.729 216.064C590.886 216.064 590.139 215.883 589.489 215.52C588.849 215.157 588.342 214.656 587.969 214.016C587.606 213.376 587.425 212.645 587.425 211.824C587.425 210.992 587.595 210.261 587.937 209.632C588.289 208.992 588.769 208.491 589.377 208.128C589.985 207.765 590.667 207.584 591.425 207.584C592.182 207.584 592.859 207.76 593.457 208.112C594.065 208.464 594.539 208.96 594.881 209.6C595.233 210.229 595.409 210.96 595.409 211.792C595.409 211.824 595.403 211.861 595.393 211.904C595.393 211.936 595.393 211.973 595.393 212.016H588.017V211.392H594.961L594.641 211.696C594.651 211.045 594.513 210.464 594.225 209.952C593.947 209.429 593.569 209.024 593.089 208.736C592.609 208.437 592.054 208.288 591.425 208.288C590.806 208.288 590.251 208.437 589.761 208.736C589.281 209.024 588.902 209.429 588.625 209.952C588.347 210.464 588.209 211.051 588.209 211.712V211.856C588.209 212.539 588.358 213.147 588.657 213.68C588.966 214.203 589.387 214.613 589.921 214.912C590.454 215.2 591.062 215.344 591.745 215.344C592.278 215.344 592.774 215.248 593.233 215.056C593.702 214.864 594.097 214.571 594.417 214.176L594.881 214.704C594.518 215.152 594.059 215.493 593.505 215.728C592.961 215.952 592.369 216.064 591.729 216.064ZM602.153 216V206.368C602.153 205.675 602.35 205.12 602.745 204.704C603.15 204.277 603.726 204.064 604.473 204.064C604.782 204.064 605.086 204.112 605.385 204.208C605.684 204.293 605.929 204.427 606.121 204.608L605.801 205.216C605.641 205.056 605.449 204.939 605.225 204.864C605.001 204.789 604.761 204.752 604.505 204.752C603.993 204.752 603.604 204.896 603.337 205.184C603.07 205.461 602.937 205.877 602.937 206.432V207.84L602.953 208.224V216H602.153ZM600.617 208.336V207.648H605.609V208.336H600.617ZM612.351 216V214.096L612.319 213.808V210.672C612.319 209.893 612.105 209.301 611.679 208.896C611.263 208.491 610.649 208.288 609.839 208.288C609.263 208.288 608.724 208.389 608.223 208.592C607.732 208.784 607.311 209.035 606.959 209.344L606.559 208.768C606.975 208.395 607.476 208.107 608.063 207.904C608.649 207.691 609.263 207.584 609.903 207.584C610.937 207.584 611.732 207.845 612.287 208.368C612.841 208.891 613.119 209.669 613.119 210.704V216H612.351ZM609.343 216.064C608.724 216.064 608.185 215.968 607.727 215.776C607.279 215.573 606.932 215.291 606.687 214.928C606.452 214.565 606.335 214.149 606.335 213.68C606.335 213.253 606.431 212.869 606.623 212.528C606.825 212.176 607.156 211.893 607.615 211.68C608.073 211.456 608.687 211.344 609.455 211.344H612.527V211.968H609.471C608.607 211.968 607.999 212.128 607.647 212.448C607.305 212.768 607.135 213.168 607.135 213.648C607.135 214.181 607.337 214.608 607.743 214.928C608.148 215.248 608.719 215.408 609.455 215.408C610.159 215.408 610.751 215.248 611.231 214.928C611.721 214.608 612.084 214.144 612.319 213.536L612.543 214.08C612.319 214.688 611.935 215.173 611.391 215.536C610.857 215.888 610.175 216.064 609.343 216.064ZM626.815 207.584C627.487 207.584 628.068 207.717 628.559 207.984C629.06 208.24 629.449 208.635 629.727 209.168C630.004 209.691 630.143 210.341 630.143 211.12V216H629.343V211.184C629.343 210.245 629.113 209.531 628.655 209.04C628.196 208.549 627.556 208.304 626.735 208.304C626.105 208.304 625.561 208.437 625.103 208.704C624.644 208.971 624.292 209.344 624.047 209.824C623.801 210.304 623.679 210.88 623.679 211.552V216H622.879V211.184C622.879 210.245 622.649 209.531 622.191 209.04C621.732 208.549 621.092 208.304 620.271 208.304C619.641 208.304 619.097 208.437 618.639 208.704C618.18 208.971 617.828 209.344 617.583 209.824C617.337 210.304 617.215 210.88 617.215 211.552V216H616.415V207.648H617.183V209.952L617.071 209.696C617.316 209.045 617.727 208.533 618.303 208.16C618.879 207.776 619.572 207.584 620.383 207.584C621.215 207.584 621.913 207.797 622.479 208.224C623.055 208.64 623.417 209.264 623.567 210.096L623.295 209.984C623.519 209.269 623.94 208.693 624.559 208.256C625.177 207.808 625.929 207.584 626.815 207.584ZM633.446 216V207.648H634.246V216H633.446ZM633.846 205.616C633.665 205.616 633.51 205.552 633.382 205.424C633.254 205.296 633.19 205.147 633.19 204.976C633.19 204.795 633.254 204.64 633.382 204.512C633.51 204.384 633.665 204.32 633.846 204.32C634.038 204.32 634.193 204.384 634.31 204.512C634.438 204.629 634.502 204.779 634.502 204.96C634.502 205.141 634.438 205.296 634.31 205.424C634.193 205.552 634.038 205.616 633.846 205.616ZM637.618 216V204.128H638.418V216H637.618ZM641.598 219.168C641.214 219.168 640.851 219.104 640.51 218.976C640.179 218.848 639.896 218.661 639.662 218.416L640.062 217.808C640.275 218.032 640.504 218.197 640.75 218.304C641.006 218.411 641.294 218.464 641.614 218.464C641.998 218.464 642.334 218.357 642.622 218.144C642.92 217.931 643.198 217.541 643.454 216.976L644.03 215.696L644.142 215.552L647.678 207.648H648.494L644.206 217.136C643.982 217.648 643.736 218.048 643.47 218.336C643.214 218.635 642.931 218.848 642.622 218.976C642.312 219.104 641.971 219.168 641.598 219.168ZM644.014 216.208L640.142 207.648H640.99L644.51 215.504L644.014 216.208ZM657.616 216.064C656.816 216.064 656.102 215.883 655.472 215.52C654.854 215.157 654.358 214.656 653.984 214.016C653.622 213.376 653.44 212.645 653.44 211.824C653.44 210.992 653.622 210.261 653.984 209.632C654.358 208.992 654.854 208.491 655.472 208.128C656.102 207.765 656.816 207.584 657.616 207.584C658.416 207.584 659.131 207.765 659.76 208.128C660.39 208.491 660.886 208.992 661.248 209.632C661.611 210.261 661.792 210.992 661.792 211.824C661.792 212.645 661.611 213.376 661.248 214.016C660.886 214.656 660.39 215.157 659.76 215.52C659.131 215.883 658.416 216.064 657.616 216.064ZM657.616 215.344C658.256 215.344 658.832 215.2 659.344 214.912C659.856 214.613 660.256 214.197 660.544 213.664C660.832 213.131 660.976 212.517 660.976 211.824C660.976 211.12 660.832 210.507 660.544 209.984C660.256 209.451 659.856 209.04 659.344 208.752C658.832 208.453 658.256 208.304 657.616 208.304C656.976 208.304 656.4 208.453 655.888 208.752C655.387 209.04 654.987 209.451 654.688 209.984C654.4 210.507 654.256 211.12 654.256 211.824C654.256 212.517 654.4 213.131 654.688 213.664C654.987 214.197 655.387 214.613 655.888 214.912C656.4 215.2 656.976 215.344 657.616 215.344ZM664.434 216V206.368C664.434 205.675 664.631 205.12 665.026 204.704C665.431 204.277 666.007 204.064 666.754 204.064C667.063 204.064 667.367 204.112 667.666 204.208C667.965 204.293 668.21 204.427 668.402 204.608L668.082 205.216C667.922 205.056 667.73 204.939 667.506 204.864C667.282 204.789 667.042 204.752 666.786 204.752C666.274 204.752 665.885 204.896 665.618 205.184C665.351 205.461 665.218 205.877 665.218 206.432V207.84L665.234 208.224V216H664.434ZM662.898 208.336V207.648H667.89V208.336H662.898ZM677.826 216.064C677.09 216.064 676.423 215.893 675.826 215.552C675.239 215.211 674.77 214.72 674.418 214.08C674.076 213.44 673.906 212.688 673.906 211.824C673.906 210.939 674.076 210.181 674.418 209.552C674.77 208.923 675.239 208.437 675.826 208.096C676.423 207.755 677.09 207.584 677.826 207.584C678.615 207.584 679.319 207.765 679.938 208.128C680.567 208.48 681.058 208.976 681.41 209.616C681.772 210.245 681.954 210.981 681.954 211.824C681.954 212.656 681.772 213.392 681.41 214.032C681.058 214.672 680.567 215.173 679.938 215.536C679.319 215.888 678.615 216.064 677.826 216.064ZM673.634 216V204.128H674.434V210.352L674.274 211.808L674.402 213.264V216H673.634ZM677.778 215.344C678.418 215.344 678.994 215.2 679.506 214.912C680.018 214.613 680.418 214.197 680.706 213.664C681.004 213.131 681.154 212.517 681.154 211.824C681.154 211.12 681.004 210.507 680.706 209.984C680.418 209.451 680.018 209.04 679.506 208.752C678.994 208.453 678.418 208.304 677.778 208.304C677.138 208.304 676.562 208.453 676.049 208.752C675.548 209.04 675.148 209.451 674.85 209.984C674.562 210.507 674.418 211.12 674.418 211.824C674.418 212.517 674.562 213.131 674.85 213.664C675.148 214.197 675.548 214.613 676.049 214.912C676.562 215.2 677.138 215.344 677.778 215.344ZM684.43 216V207.648H685.198V209.936L685.118 209.68C685.353 209.008 685.748 208.491 686.302 208.128C686.857 207.765 687.55 207.584 688.382 207.584V208.368C688.35 208.368 688.318 208.368 688.286 208.368C688.254 208.357 688.222 208.352 688.19 208.352C687.262 208.352 686.537 208.645 686.014 209.232C685.492 209.808 685.23 210.613 685.23 211.648V216H684.43ZM695.226 216V214.096L695.194 213.808V210.672C695.194 209.893 694.98 209.301 694.554 208.896C694.138 208.491 693.524 208.288 692.714 208.288C692.138 208.288 691.599 208.389 691.098 208.592C690.607 208.784 690.186 209.035 689.834 209.344L689.434 208.768C689.85 208.395 690.351 208.107 690.938 207.904C691.524 207.691 692.138 207.584 692.778 207.584C693.812 207.584 694.607 207.845 695.162 208.368C695.716 208.891 695.994 209.669 695.994 210.704V216H695.226ZM692.218 216.064C691.599 216.064 691.06 215.968 690.602 215.776C690.154 215.573 689.807 215.291 689.562 214.928C689.327 214.565 689.21 214.149 689.21 213.68C689.21 213.253 689.306 212.869 689.498 212.528C689.7 212.176 690.031 211.893 690.49 211.68C690.948 211.456 691.562 211.344 692.33 211.344H695.402V211.968H692.346C691.482 211.968 690.874 212.128 690.522 212.448C690.18 212.768 690.01 213.168 690.01 213.648C690.01 214.181 690.212 214.608 690.618 214.928C691.023 215.248 691.594 215.408 692.33 215.408C693.034 215.408 693.626 215.248 694.106 214.928C694.596 214.608 694.959 214.144 695.194 213.536L695.418 214.08C695.194 214.688 694.81 215.173 694.266 215.536C693.732 215.888 693.05 216.064 692.218 216.064ZM703.37 207.584C704.052 207.584 704.644 207.717 705.146 207.984C705.658 208.24 706.052 208.635 706.33 209.168C706.618 209.691 706.762 210.341 706.762 211.12V216H705.962V211.184C705.962 210.245 705.722 209.531 705.242 209.04C704.772 208.549 704.111 208.304 703.258 208.304C702.607 208.304 702.042 208.437 701.562 208.704C701.082 208.971 700.714 209.344 700.458 209.824C700.212 210.304 700.09 210.88 700.09 211.552V216H699.29V207.648H700.058V209.968L699.946 209.712C700.202 209.051 700.623 208.533 701.21 208.16C701.796 207.776 702.516 207.584 703.37 207.584ZM713.271 216.064C712.493 216.064 711.789 215.888 711.159 215.536C710.541 215.173 710.05 214.672 709.687 214.032C709.325 213.392 709.143 212.656 709.143 211.824C709.143 210.981 709.325 210.245 709.687 209.616C710.05 208.976 710.541 208.48 711.159 208.128C711.789 207.765 712.493 207.584 713.271 207.584C714.007 207.584 714.669 207.755 715.255 208.096C715.853 208.437 716.322 208.923 716.663 209.552C717.015 210.181 717.191 210.939 717.191 211.824C717.191 212.688 717.021 213.44 716.679 214.08C716.338 214.72 715.869 215.211 715.271 215.552C714.685 215.893 714.018 216.064 713.271 216.064ZM713.319 215.344C713.959 215.344 714.53 215.2 715.031 214.912C715.543 214.613 715.943 214.197 716.231 213.664C716.53 213.131 716.679 212.517 716.679 211.824C716.679 211.12 716.53 210.507 716.231 209.984C715.943 209.451 715.543 209.04 715.031 208.752C714.53 208.453 713.959 208.304 713.319 208.304C712.679 208.304 712.103 208.453 711.591 208.752C711.09 209.04 710.69 209.451 710.391 209.984C710.103 210.507 709.959 211.12 709.959 211.824C709.959 212.517 710.103 213.131 710.391 213.664C710.69 214.197 711.09 214.613 711.591 214.912C712.103 215.2 712.679 215.344 713.319 215.344ZM716.695 216V213.264L716.839 211.808L716.679 210.352V204.128H717.479V216H716.695ZM722.964 216.064C722.271 216.064 721.62 215.963 721.012 215.76C720.415 215.557 719.951 215.301 719.62 214.992L719.988 214.352C720.308 214.629 720.735 214.869 721.268 215.072C721.802 215.264 722.378 215.36 722.996 215.36C723.871 215.36 724.5 215.216 724.884 214.928C725.268 214.64 725.46 214.261 725.46 213.792C725.46 213.451 725.359 213.184 725.156 212.992C724.964 212.789 724.703 212.635 724.372 212.528C724.042 212.421 723.679 212.336 723.284 212.272C722.89 212.197 722.495 212.117 722.1 212.032C721.706 211.947 721.343 211.824 721.012 211.664C720.682 211.504 720.415 211.285 720.212 211.008C720.02 210.72 719.924 210.341 719.924 209.872C719.924 209.445 720.042 209.061 720.276 208.72C720.511 208.379 720.863 208.107 721.332 207.904C721.802 207.691 722.388 207.584 723.092 207.584C723.615 207.584 724.138 207.659 724.66 207.808C725.194 207.957 725.626 208.155 725.956 208.4L725.588 209.04C725.236 208.773 724.842 208.581 724.404 208.464C723.967 208.347 723.524 208.288 723.076 208.288C722.266 208.288 721.668 208.437 721.284 208.736C720.911 209.035 720.724 209.408 720.724 209.856C720.724 210.208 720.82 210.491 721.012 210.704C721.215 210.907 721.482 211.067 721.812 211.184C722.143 211.291 722.506 211.381 722.9 211.456C723.295 211.52 723.69 211.595 724.084 211.68C724.479 211.765 724.842 211.888 725.172 212.048C725.503 212.197 725.764 212.411 725.956 212.688C726.159 212.955 726.26 213.317 726.26 213.776C726.26 214.235 726.132 214.635 725.876 214.976C725.631 215.317 725.263 215.584 724.772 215.776C724.282 215.968 723.679 216.064 722.964 216.064ZM728.397 216.064C728.216 216.064 728.056 216 727.917 215.872C727.789 215.733 727.725 215.568 727.725 215.376C727.725 215.184 727.789 215.024 727.917 214.896C728.056 214.768 728.216 214.704 728.397 214.704C728.578 214.704 728.733 214.768 728.861 214.896C729 215.024 729.069 215.184 729.069 215.376C729.069 215.568 729 215.733 728.861 215.872C728.733 216 728.578 216.064 728.397 216.064ZM731.6 216.064C731.419 216.064 731.259 216 731.12 215.872C730.992 215.733 730.928 215.568 730.928 215.376C730.928 215.184 730.992 215.024 731.12 214.896C731.259 214.768 731.419 214.704 731.6 214.704C731.781 214.704 731.936 214.768 732.064 214.896C732.203 215.024 732.272 215.184 732.272 215.376C732.272 215.568 732.203 215.733 732.064 215.872C731.936 216 731.781 216.064 731.6 216.064ZM734.803 216.064C734.622 216.064 734.462 216 734.323 215.872C734.195 215.733 734.131 215.568 734.131 215.376C734.131 215.184 734.195 215.024 734.323 214.896C734.462 214.768 734.622 214.704 734.803 214.704C734.984 214.704 735.139 214.768 735.267 214.896C735.406 215.024 735.475 215.184 735.475 215.376C735.475 215.568 735.406 215.733 735.267 215.872C735.139 216 734.984 216.064 734.803 216.064Z" fill="white"/>
<defs>
<linearGradient id="paint0_linear_1585_4105" x1="-25.6619" y1="118.368" x2="913.218" y2="195.132" gradientUnits="userSpaceOnUse">
<stop stop-color="#3C113F"/>
<stop offset="0.552083" stop-color="#BB236F" stop-opacity="0.5"/>
<stop offset="1" stop-color="#FFAD0E" stop-opacity="0"/>
</linearGradient>
</defs>
</svg>
