<svg width="889" height="259" viewBox="0 0 889 259" fill="none" xmlns="http://www.w3.org/2000/svg">
<path d="M20.8 99V95.75H37.7V4.23H27.82C23.7467 4.40333 20.28 5.87666 17.42 8.64999C14.56 11.3367 12.35 14.8033 10.79 19.05C9.23 23.2967 8.40667 27.89 8.32 32.83H3.77V0.979999H88.01V32.83H83.46C83.3733 27.7167 82.5067 22.9933 80.86 18.66C79.2133 14.3267 76.8733 10.86 73.84 8.26C70.8933 5.57333 67.2533 4.23 62.92 4.23H55.12V95.75H72.02V99H20.8ZM140.601 97.05V53.11C140.601 49.8167 139.864 47.39 138.391 45.83C137.004 44.1833 135.011 43.36 132.411 43.36C129.464 43.36 126.734 44.53 124.221 46.87C121.794 49.21 119.844 52.4167 118.371 56.49C116.984 60.4767 116.291 65.0267 116.291 70.14L113.691 51.29H116.811C118.718 47.7367 121.274 44.79 124.481 42.45C127.688 40.11 131.848 38.94 136.961 38.94C142.248 38.94 146.538 40.3267 149.831 43.1C153.211 45.7867 154.901 49.1233 154.901 53.11V97.05H140.601ZM91.7211 99V95.75H124.741V99H91.7211ZM130.721 99V95.75H163.741V99H130.721ZM101.991 97.05V3.06H116.291V97.05H101.991ZM91.7211 4.23V0.979999H116.291V4.23H91.7211ZM202.183 100.56C198.023 100.56 194.079 99.7367 190.353 98.09C186.713 96.3567 183.506 94.06 180.733 91.2C177.959 88.2533 175.793 84.96 174.233 81.32C172.673 77.5933 171.893 73.7367 171.893 69.75C171.893 64.4633 173.106 59.48 175.533 54.8C178.046 50.12 181.513 46.3067 185.933 43.36C190.353 40.4133 195.553 38.94 201.533 38.94C206.213 38.94 210.416 40.0233 214.143 42.19C217.956 44.27 220.946 47.2167 223.113 51.03C225.279 54.8433 226.363 59.22 226.363 64.16V64.94H183.853V61.69H211.283V54.28C211.283 46.3933 207.816 42.45 200.882 42.45C198.023 42.45 195.683 43.3167 193.863 45.05C192.129 46.6967 190.829 49.5133 189.963 53.5C189.183 57.4867 188.793 62.9033 188.793 69.75C188.793 76.77 189.226 82.23 190.093 86.13C190.959 90.03 192.389 92.76 194.383 94.32C196.463 95.88 199.193 96.66 202.573 96.66C207.166 96.66 211.153 95.49 214.533 93.15C217.913 90.81 220.773 86.7367 223.113 80.93H226.753C225.019 86.9967 221.943 91.8067 217.523 95.36C213.189 98.8267 208.076 100.56 202.183 100.56ZM231.417 99V95.75H276.397C280.471 95.75 283.937 95.1433 286.797 93.93C289.744 92.63 291.997 90.2467 293.557 86.78C295.117 83.3133 295.897 78.33 295.897 71.83C295.897 65.9367 295.161 61.3867 293.687 58.18C292.214 54.8867 289.787 52.59 286.407 51.29C283.027 49.99 278.391 49.34 272.497 49.34L268.597 45.44C277.611 45.44 285.671 46.4367 292.777 48.43C299.884 50.3367 305.474 53.2833 309.547 57.27C313.707 61.2567 315.787 66.3267 315.787 72.48C315.787 77.68 314.271 82.2733 311.237 86.26C308.291 90.2467 304.217 93.3667 299.017 95.62C293.904 97.8733 288.097 99 281.597 99H231.417ZM245.717 97.05V0.979999H263.137V97.05H245.717ZM259.107 49.34V45.44H276.397C280.384 45.44 283.591 44.92 286.017 43.88C288.531 42.7533 290.351 40.76 291.477 37.9C292.691 34.9533 293.297 30.7067 293.297 25.16C293.297 19.2667 292.691 14.8467 291.477 11.9C290.264 8.86666 288.401 6.83 285.887 5.79C283.374 4.75 280.211 4.23 276.397 4.23H231.417V0.979999H281.597C287.317 0.979999 292.474 2.02 297.067 4.1C301.661 6.09333 305.301 8.86666 307.987 12.42C310.761 15.9733 312.147 20.0467 312.147 24.64C312.147 29.4933 310.544 33.7833 307.337 37.51C304.131 41.2367 299.841 44.14 294.467 46.22C289.094 48.3 283.071 49.34 276.397 49.34H259.107ZM344.794 100.56C340.114 100.56 336.3 99.2167 333.354 96.53C330.407 93.8433 328.934 90.3333 328.934 86C328.934 81.84 330.32 78.2867 333.094 75.34C335.954 72.3933 339.984 70.14 345.184 68.58C350.384 66.9333 356.537 66.11 363.644 66.11V50.25C363.644 47.9967 362.777 46.22 361.044 44.92C359.31 43.62 356.927 42.97 353.894 42.97C351.294 42.97 349.17 43.4033 347.524 44.27C345.877 45.1367 345.054 46.2633 345.054 47.65C345.054 48.5167 345.357 49.2967 345.964 49.99C346.57 50.6833 346.874 51.7667 346.874 53.24C346.874 55.06 346.18 56.5767 344.794 57.79C343.494 58.9167 341.804 59.48 339.724 59.48C337.644 59.48 335.997 58.8733 334.784 57.66C333.57 56.36 332.964 54.7567 332.964 52.85C332.964 50.25 334.004 47.91 336.084 45.83C338.164 43.6633 340.98 41.9733 344.534 40.76C348.087 39.5467 352.074 38.94 356.494 38.94C362.82 38.94 367.977 40.1967 371.964 42.71C375.95 45.1367 377.944 48.3433 377.944 52.33V91.85C377.944 92.7167 378.204 93.4533 378.724 94.06C379.33 94.58 380.024 94.84 380.804 94.84C381.584 94.84 382.494 94.45 383.534 93.67C384.574 92.8033 385.874 91.5033 387.434 89.77L389.254 91.85C385.18 97.6567 380.63 100.56 375.604 100.56C372.57 100.56 370.057 99.7367 368.064 98.09C366.157 96.3567 364.857 93.9733 364.164 90.94H363.644C361.997 93.7133 359.397 96.01 355.844 97.83C352.29 99.65 348.607 100.56 344.794 100.56ZM352.594 93.41C355.887 93.41 358.53 92.1967 360.524 89.77C362.604 87.2567 363.644 84.0067 363.644 80.02V69.49C357.144 69.49 352.247 70.7033 348.954 73.13C345.66 75.47 344.014 78.9367 344.014 83.53C344.014 86.65 344.75 89.0767 346.224 90.81C347.784 92.5433 349.907 93.41 352.594 93.41ZM439.545 97.05L416.405 66.63L428.365 59.22L458.135 97.05H439.545ZM390.925 99V95.75H422.645V99H390.925ZM430.705 99V95.75H462.685V99H430.705ZM401.195 97.05V3.06H415.495V97.05H401.195ZM421.995 66.63H416.405L440.195 42.71H445.785L421.995 66.63ZM390.925 4.23V0.979999H415.495V4.23H390.925ZM426.415 43.75V40.5H456.575V43.75H426.415ZM507.465 97.05L484.325 66.63L496.285 59.22L526.055 97.05H507.465ZM458.845 99V95.75H490.565V99H458.845ZM498.625 99V95.75H530.605V99H498.625ZM469.115 97.05V3.06H483.415V97.05H469.115ZM489.915 66.63H484.325L508.115 42.71H513.705L489.915 66.63ZM458.845 4.23V0.979999H483.415V4.23H458.845ZM494.335 43.75V40.5H524.495V43.75H494.335ZM560.212 100.56C555.965 100.56 551.978 99.6933 548.252 97.96C544.612 96.2267 541.362 93.93 538.502 91.07C535.728 88.1233 533.562 84.83 532.002 81.19C530.442 77.4633 529.662 73.65 529.662 69.75C529.662 65.85 530.442 62.08 532.002 58.44C533.562 54.7133 535.728 51.42 538.502 48.56C541.362 45.6133 544.612 43.2733 548.252 41.54C551.978 39.8067 555.965 38.94 560.212 38.94C564.458 38.94 568.402 39.8067 572.042 41.54C575.768 43.2733 579.018 45.6133 581.792 48.56C584.652 51.42 586.862 54.7133 588.422 58.44C589.982 62.08 590.762 65.85 590.762 69.75C590.762 73.65 589.982 77.4633 588.422 81.19C586.862 84.83 584.652 88.1233 581.792 91.07C579.018 93.93 575.768 96.2267 572.042 97.96C568.402 99.6933 564.458 100.56 560.212 100.56ZM560.212 96.66C563.505 96.66 566.148 95.9233 568.142 94.45C570.135 92.9767 571.565 90.3333 572.432 86.52C573.385 82.62 573.862 77.03 573.862 69.75C573.862 62.47 573.385 56.88 572.432 52.98C571.565 49.08 570.135 46.4367 568.142 45.05C566.148 43.5767 563.505 42.84 560.212 42.84C556.918 42.84 554.275 43.5767 552.282 45.05C550.288 46.4367 548.815 49.08 547.862 52.98C546.995 56.88 546.562 62.47 546.562 69.75C546.562 77.03 546.995 82.62 547.862 86.52C548.815 90.3333 550.288 92.9767 552.282 94.45C554.275 95.9233 556.918 96.66 560.212 96.66ZM624.76 100.56C619.733 100.56 615.616 99.2167 612.41 96.53C609.29 93.7567 607.73 90.3767 607.73 86.39V42.45H622.03V86C622.03 89.2067 622.68 91.6333 623.98 93.28C625.28 94.9267 627.056 95.75 629.31 95.75C631.996 95.75 634.466 94.58 636.72 92.24C639.06 89.9 640.923 86.7367 642.31 82.75C643.783 78.7633 644.52 74.3 644.52 69.36L647.12 88.86H644C642.093 92.24 639.623 95.0567 636.59 97.31C633.556 99.4767 629.613 100.56 624.76 100.56ZM644.52 99V95.75H669.09V99H644.52ZM597.59 43.75V40.5H622.03V43.75H597.59ZM644.52 96.92V42.45H658.82V96.92H644.52ZM633.86 43.75V40.5H658.82V43.75H633.86ZM674.46 99V95.75H684.73V43.75H674.46V40.5H699.03V50.77H699.55C701.717 46.09 704.187 42.97 706.96 41.41C709.82 39.7633 712.464 38.94 714.89 38.94C717.664 38.94 719.83 39.7633 721.39 41.41C723.037 42.97 723.86 45.2233 723.86 48.17C723.86 50.8567 723.037 52.85 721.39 54.15C719.83 55.3633 718.054 55.97 716.06 55.97C714.414 55.97 712.897 55.5367 711.51 54.67C710.21 53.7167 709.56 52.4167 709.56 50.77C709.56 50.25 709.604 49.8167 709.69 49.47C709.864 49.0367 709.95 48.6033 709.95 48.17C709.95 47.7367 709.82 47.3467 709.56 47C709.3 46.6533 708.737 46.48 707.87 46.48C706.744 46.48 705.487 47.39 704.1 49.21C702.714 50.9433 701.5 53.3267 700.46 56.36C699.507 59.3067 699.03 62.6 699.03 66.24V95.75H710.73V99H674.46ZM747.616 100.56C742.936 100.56 739.122 99.2167 736.176 96.53C733.229 93.8433 731.756 90.3333 731.756 86C731.756 81.84 733.142 78.2867 735.916 75.34C738.776 72.3933 742.806 70.14 748.006 68.58C753.206 66.9333 759.359 66.11 766.466 66.11V50.25C766.466 47.9967 765.599 46.22 763.866 44.92C762.132 43.62 759.749 42.97 756.716 42.97C754.116 42.97 751.992 43.4033 750.346 44.27C748.699 45.1367 747.876 46.2633 747.876 47.65C747.876 48.5167 748.179 49.2967 748.786 49.99C749.392 50.6833 749.696 51.7667 749.696 53.24C749.696 55.06 749.002 56.5767 747.616 57.79C746.316 58.9167 744.626 59.48 742.546 59.48C740.466 59.48 738.819 58.8733 737.606 57.66C736.392 56.36 735.786 54.7567 735.786 52.85C735.786 50.25 736.826 47.91 738.906 45.83C740.986 43.6633 743.802 41.9733 747.356 40.76C750.909 39.5467 754.896 38.94 759.316 38.94C765.642 38.94 770.799 40.1967 774.786 42.71C778.772 45.1367 780.766 48.3433 780.766 52.33V91.85C780.766 92.7167 781.026 93.4533 781.546 94.06C782.152 94.58 782.846 94.84 783.626 94.84C784.406 94.84 785.316 94.45 786.356 93.67C787.396 92.8033 788.696 91.5033 790.256 89.77L792.076 91.85C788.002 97.6567 783.452 100.56 778.426 100.56C775.392 100.56 772.879 99.7367 770.886 98.09C768.979 96.3567 767.679 93.9733 766.986 90.94H766.466C764.819 93.7133 762.219 96.01 758.666 97.83C755.112 99.65 751.429 100.56 747.616 100.56ZM755.416 93.41C758.709 93.41 761.352 92.1967 763.346 89.77C765.426 87.2567 766.466 84.0067 766.466 80.02V69.49C759.966 69.49 755.069 70.7033 751.776 73.13C748.482 75.47 746.836 78.9367 746.836 83.53C746.836 86.65 747.572 89.0767 749.046 90.81C750.606 92.5433 752.729 93.41 755.416 93.41ZM1.43 216V212.75H44.98C50.3533 212.75 54.9033 212.1 58.63 210.8C62.3567 209.5 65.39 207.203 67.73 203.91C70.07 200.53 71.76 195.85 72.8 189.87C73.9267 183.89 74.49 176.263 74.49 166.99C74.49 157.717 73.9267 150.09 72.8 144.11C71.76 138.13 70.0267 133.493 67.6 130.2C65.26 126.82 62.2267 124.48 58.5 123.18C54.7733 121.88 50.2233 121.23 44.85 121.23H1.43V117.98H49.01C55.51 117.98 61.5333 119.323 67.08 122.01C72.7133 124.61 77.6533 128.207 81.9 132.8C86.1467 137.393 89.44 142.637 91.78 148.53C94.12 154.423 95.29 160.577 95.29 166.99C95.29 173.403 94.0767 179.557 91.65 185.45C89.31 191.343 86.0167 196.587 81.77 201.18C77.61 205.773 72.7133 209.413 67.08 212.1C61.4467 214.7 55.38 216 48.88 216H1.43ZM15.73 214.05V117.98H33.15V214.05H15.73ZM110.935 258.38C108.768 258.38 107.078 257.947 105.865 257.08C104.651 256.213 103.785 255.173 103.265 253.96C102.831 252.747 102.615 251.62 102.615 250.58C102.615 248.5 103.221 246.81 104.435 245.51C105.735 244.297 107.338 243.69 109.245 243.69C110.978 243.69 112.321 244.08 113.275 244.86C114.228 245.727 115.008 246.55 115.615 247.33C116.308 248.197 117.045 248.63 117.825 248.63C118.518 248.63 119.038 248.327 119.385 247.72C119.818 247.113 120.165 246.42 120.425 245.64L151.235 159.84H155.915L124.715 244.08C122.548 249.887 120.295 253.7 117.955 255.52C115.615 257.427 113.275 258.38 110.935 258.38ZM131.995 214.05L106.385 158.8L122.115 158.02L138.105 195.33H138.885L131.995 214.05ZM99.6247 160.75V157.5H131.865V160.75H99.6247ZM141.225 160.75V157.5H165.665V160.75H141.225ZM216.017 214.05V170.11C216.017 163.61 213.417 160.36 208.217 160.36C205.357 160.36 202.714 161.53 200.287 163.87C197.947 166.21 196.041 169.417 194.567 173.49C193.181 177.477 192.487 182.027 192.487 187.14L189.887 168.29H193.007C194.827 164.737 197.297 161.79 200.417 159.45C203.624 157.11 207.741 155.94 212.767 155.94C217.881 155.94 222.084 157.327 225.377 160.1C228.671 162.787 230.317 166.123 230.317 170.11V214.05H216.017ZM167.917 216V212.75H200.937V216H167.917ZM178.187 214.05V159.58H192.487V214.05H178.187ZM206.137 216V212.75H239.157V216H206.137ZM167.917 160.75V157.5H192.487V160.75H167.917ZM262.909 217.56C258.229 217.56 254.415 216.217 251.469 213.53C248.522 210.843 247.049 207.333 247.049 203C247.049 198.84 248.435 195.287 251.209 192.34C254.069 189.393 258.099 187.14 263.299 185.58C268.499 183.933 274.652 183.11 281.759 183.11V167.25C281.759 164.997 280.892 163.22 279.159 161.92C277.425 160.62 275.042 159.97 272.009 159.97C269.409 159.97 267.285 160.403 265.639 161.27C263.992 162.137 263.169 163.263 263.169 164.65C263.169 165.517 263.472 166.297 264.079 166.99C264.685 167.683 264.989 168.767 264.989 170.24C264.989 172.06 264.295 173.577 262.909 174.79C261.609 175.917 259.919 176.48 257.839 176.48C255.759 176.48 254.112 175.873 252.899 174.66C251.685 173.36 251.079 171.757 251.079 169.85C251.079 167.25 252.119 164.91 254.199 162.83C256.279 160.663 259.095 158.973 262.649 157.76C266.202 156.547 270.189 155.94 274.609 155.94C280.935 155.94 286.092 157.197 290.079 159.71C294.065 162.137 296.059 165.343 296.059 169.33V208.85C296.059 209.717 296.319 210.453 296.839 211.06C297.445 211.58 298.139 211.84 298.919 211.84C299.699 211.84 300.609 211.45 301.649 210.67C302.689 209.803 303.989 208.503 305.549 206.77L307.369 208.85C303.295 214.657 298.745 217.56 293.719 217.56C290.685 217.56 288.172 216.737 286.179 215.09C284.272 213.357 282.972 210.973 282.279 207.94H281.759C280.112 210.713 277.512 213.01 273.959 214.83C270.405 216.65 266.722 217.56 262.909 217.56ZM270.709 210.41C274.002 210.41 276.645 209.197 278.639 206.77C280.719 204.257 281.759 201.007 281.759 197.02V186.49C275.259 186.49 270.362 187.703 267.069 190.13C263.775 192.47 262.129 195.937 262.129 200.53C262.129 203.65 262.865 206.077 264.339 207.81C265.899 209.543 268.022 210.41 270.709 210.41ZM338.55 217.56C334.997 217.56 331.53 216.953 328.15 215.74C324.857 214.527 322.17 212.923 320.09 210.93L318.14 216H314.37V196.11H318.53L319.18 198.58C320.394 203.26 322.56 206.813 325.68 209.24C328.887 211.667 333.134 212.88 338.42 212.88C342.754 212.88 345.787 212.143 347.52 210.67C349.254 209.11 350.12 206.9 350.12 204.04C350.12 201.18 348.95 199.1 346.61 197.8C344.27 196.413 340.674 195.2 335.82 194.16C331.66 193.293 328.02 192.21 324.9 190.91C321.867 189.523 319.484 187.617 317.75 185.19C316.017 182.677 315.15 179.253 315.15 174.92C315.15 168.767 316.927 164.087 320.48 160.88C324.034 157.587 329.104 155.94 335.69 155.94C339.417 155.94 342.624 156.46 345.31 157.5C348.084 158.54 350.034 159.97 351.16 161.79L352.59 157.5H355.97V176.35H351.94L351.55 174.4C350.597 169.547 348.907 166.037 346.48 163.87C344.14 161.703 340.63 160.62 335.95 160.62C331.79 160.62 328.67 161.443 326.59 163.09C324.597 164.65 323.6 166.86 323.6 169.72C323.6 171.107 323.99 172.363 324.77 173.49C325.55 174.53 326.98 175.483 329.06 176.35C331.227 177.217 334.217 178.083 338.03 178.95C342.45 179.903 346.177 181.117 349.21 182.59C352.244 184.063 354.54 186.013 356.1 188.44C357.747 190.867 358.57 194.03 358.57 197.93C358.57 203.91 356.75 208.677 353.11 212.23C349.47 215.783 344.617 217.56 338.55 217.56ZM390.978 217.69C386.471 217.69 383.091 216.78 380.838 214.96C378.671 213.14 377.588 210.41 377.588 206.77V160.88H367.058V157.63C370.091 157.37 372.908 156.2 375.508 154.12C378.195 151.953 380.621 149.223 382.788 145.93C385.041 142.637 386.861 139.04 388.248 135.14H391.888V157.63H406.838V160.88H391.888V205.86C391.888 209.76 393.491 211.71 396.698 211.71C398.518 211.71 400.165 211.103 401.638 209.89C403.198 208.59 404.801 206.467 406.448 203.52L409.048 204.95C406.881 209.717 404.411 213.053 401.638 214.96C398.865 216.78 395.311 217.69 390.978 217.69ZM421.335 258.38C419.168 258.38 417.478 257.947 416.265 257.08C415.052 256.213 414.185 255.173 413.665 253.96C413.232 252.747 413.015 251.62 413.015 250.58C413.015 248.5 413.622 246.81 414.835 245.51C416.135 244.297 417.738 243.69 419.645 243.69C421.378 243.69 422.722 244.08 423.675 244.86C424.628 245.727 425.408 246.55 426.015 247.33C426.708 248.197 427.445 248.63 428.225 248.63C428.918 248.63 429.438 248.327 429.785 247.72C430.218 247.113 430.565 246.42 430.825 245.64L461.635 159.84H466.315L435.115 244.08C432.948 249.887 430.695 253.7 428.355 255.52C426.015 257.427 423.675 258.38 421.335 258.38ZM442.395 214.05L416.785 158.8L432.515 158.02L448.505 195.33H449.285L442.395 214.05ZM410.025 160.75V157.5H442.265V160.75H410.025ZM451.625 160.75V157.5H476.065V160.75H451.625Z" fill="url(#paint0_linear_1_877)"/>
<path d="M507.096 157.536H503.064V156.8H511.944V157.536H507.912V168H507.096V157.536ZM517.792 159.584C518.837 159.584 519.664 159.888 520.272 160.496C520.88 161.104 521.184 161.979 521.184 163.12V168H520.384V163.184C520.384 162.245 520.144 161.531 519.664 161.04C519.194 160.549 518.533 160.304 517.68 160.304C516.698 160.304 515.925 160.597 515.36 161.184C514.794 161.771 514.512 162.56 514.512 163.552V168H513.712V156.128H514.512V161.392C514.8 160.816 515.226 160.373 515.792 160.064C516.357 159.744 517.024 159.584 517.792 159.584ZM531.549 164.016H524.365C524.386 164.667 524.552 165.248 524.861 165.76C525.17 166.261 525.586 166.651 526.109 166.928C526.642 167.205 527.24 167.344 527.901 167.344C528.445 167.344 528.946 167.248 529.405 167.056C529.874 166.853 530.264 166.56 530.573 166.176L531.037 166.704C530.674 167.141 530.216 167.477 529.661 167.712C529.117 167.947 528.525 168.064 527.885 168.064C527.053 168.064 526.312 167.883 525.661 167.52C525.01 167.157 524.498 166.656 524.125 166.016C523.762 165.376 523.581 164.645 523.581 163.824C523.581 163.013 523.752 162.288 524.093 161.648C524.445 160.997 524.925 160.491 525.533 160.128C526.141 159.765 526.824 159.584 527.581 159.584C528.338 159.584 529.016 159.765 529.613 160.128C530.221 160.48 530.696 160.976 531.037 161.616C531.389 162.256 531.565 162.981 531.565 163.792L531.549 164.016ZM527.581 160.288C526.994 160.288 526.466 160.421 525.997 160.688C525.528 160.944 525.149 161.312 524.861 161.792C524.584 162.261 524.424 162.795 524.381 163.392H530.781C530.749 162.795 530.589 162.261 530.301 161.792C530.013 161.323 529.634 160.955 529.165 160.688C528.696 160.421 528.168 160.288 527.581 160.288ZM550.085 159.648L546.917 168H546.165L543.349 160.752L540.517 168H539.781L536.613 159.648H537.381L540.165 167.104L543.013 159.648H543.701L546.533 167.088L549.349 159.648H550.085ZM551.946 159.648H552.746V168H551.946V159.648ZM552.346 157.616C552.165 157.616 552.01 157.557 551.882 157.44C551.754 157.312 551.69 157.157 551.69 156.976C551.69 156.795 551.754 156.64 551.882 156.512C552.01 156.384 552.165 156.32 552.346 156.32C552.527 156.32 552.682 156.384 552.81 156.512C552.938 156.629 553.002 156.779 553.002 156.96C553.002 157.141 552.938 157.296 552.81 157.424C552.682 157.552 552.527 157.616 552.346 157.616ZM560.198 159.584C561.243 159.584 562.07 159.888 562.678 160.496C563.286 161.104 563.59 161.979 563.59 163.12V168H562.79V163.184C562.79 162.245 562.55 161.531 562.07 161.04C561.601 160.549 560.939 160.304 560.086 160.304C559.105 160.304 558.331 160.597 557.766 161.184C557.201 161.771 556.918 162.56 556.918 163.552V168H556.118V159.648H556.886V161.456C557.174 160.869 557.601 160.411 558.166 160.08C558.742 159.749 559.419 159.584 560.198 159.584ZM569.86 163.536L567.684 165.52V168H566.884V156.128H567.684V164.528L573.028 159.648H574.052L570.452 163.024L574.404 168H573.411L569.86 163.536ZM583.711 168.064C582.9 168.064 582.175 167.883 581.535 167.52C580.895 167.157 580.394 166.656 580.031 166.016C579.668 165.365 579.487 164.635 579.487 163.824C579.487 163.003 579.668 162.272 580.031 161.632C580.394 160.981 580.895 160.48 581.535 160.128C582.175 159.765 582.9 159.584 583.711 159.584C584.383 159.584 584.991 159.717 585.535 159.984C586.09 160.24 586.538 160.619 586.879 161.12L586.287 161.552C585.988 161.136 585.615 160.827 585.167 160.624C584.73 160.411 584.244 160.304 583.711 160.304C583.06 160.304 582.474 160.453 581.951 160.752C581.439 161.04 581.034 161.451 580.735 161.984C580.447 162.517 580.303 163.131 580.303 163.824C580.303 164.517 580.447 165.131 580.735 165.664C581.034 166.197 581.439 166.613 581.951 166.912C582.474 167.2 583.06 167.344 583.711 167.344C584.244 167.344 584.73 167.243 585.167 167.04C585.615 166.827 585.988 166.512 586.287 166.096L586.879 166.528C586.538 167.029 586.09 167.413 585.535 167.68C584.991 167.936 584.383 168.064 583.711 168.064ZM592.398 168.064C591.608 168.064 590.894 167.883 590.254 167.52C589.624 167.157 589.128 166.656 588.766 166.016C588.403 165.365 588.222 164.635 588.222 163.824C588.222 163.013 588.403 162.288 588.766 161.648C589.128 160.997 589.624 160.491 590.254 160.128C590.894 159.765 591.608 159.584 592.398 159.584C593.187 159.584 593.896 159.765 594.526 160.128C595.166 160.491 595.667 160.997 596.03 161.648C596.392 162.288 596.574 163.013 596.574 163.824C596.574 164.635 596.392 165.365 596.03 166.016C595.667 166.656 595.166 167.157 594.526 167.52C593.896 167.883 593.187 168.064 592.398 168.064ZM592.398 167.344C593.038 167.344 593.608 167.195 594.11 166.896C594.622 166.597 595.022 166.181 595.31 165.648C595.608 165.115 595.758 164.507 595.758 163.824C595.758 163.141 595.608 162.533 595.31 162C595.022 161.467 594.622 161.051 594.11 160.752C593.608 160.453 593.038 160.304 592.398 160.304C591.758 160.304 591.182 160.453 590.67 160.752C590.168 161.051 589.768 161.467 589.47 162C589.182 162.533 589.038 163.141 589.038 163.824C589.038 164.507 589.182 165.115 589.47 165.648C589.768 166.181 590.168 166.597 590.67 166.896C591.182 167.195 591.758 167.344 592.398 167.344ZM599.055 156.128H599.855V168H599.055V156.128ZM603.227 156.128H604.027V168H603.227V156.128ZM614.455 164.016H607.271C607.292 164.667 607.458 165.248 607.767 165.76C608.076 166.261 608.492 166.651 609.015 166.928C609.548 167.205 610.146 167.344 610.807 167.344C611.351 167.344 611.852 167.248 612.311 167.056C612.78 166.853 613.17 166.56 613.479 166.176L613.943 166.704C613.58 167.141 613.122 167.477 612.567 167.712C612.023 167.947 611.431 168.064 610.791 168.064C609.959 168.064 609.218 167.883 608.567 167.52C607.916 167.157 607.404 166.656 607.031 166.016C606.668 165.376 606.487 164.645 606.487 163.824C606.487 163.013 606.658 162.288 606.999 161.648C607.351 160.997 607.831 160.491 608.439 160.128C609.047 159.765 609.73 159.584 610.487 159.584C611.244 159.584 611.922 159.765 612.519 160.128C613.127 160.48 613.602 160.976 613.943 161.616C614.295 162.256 614.471 162.981 614.471 163.792L614.455 164.016ZM610.487 160.288C609.9 160.288 609.372 160.421 608.903 160.688C608.434 160.944 608.055 161.312 607.767 161.792C607.49 162.261 607.33 162.795 607.287 163.392H613.687C613.655 162.795 613.495 162.261 613.207 161.792C612.919 161.323 612.54 160.955 612.071 160.688C611.602 160.421 611.074 160.288 610.487 160.288ZM620.258 168.064C619.447 168.064 618.722 167.883 618.082 167.52C617.442 167.157 616.941 166.656 616.578 166.016C616.215 165.365 616.034 164.635 616.034 163.824C616.034 163.003 616.215 162.272 616.578 161.632C616.941 160.981 617.442 160.48 618.082 160.128C618.722 159.765 619.447 159.584 620.258 159.584C620.93 159.584 621.538 159.717 622.082 159.984C622.637 160.24 623.085 160.619 623.426 161.12L622.834 161.552C622.535 161.136 622.162 160.827 621.714 160.624C621.277 160.411 620.791 160.304 620.258 160.304C619.607 160.304 619.021 160.453 618.498 160.752C617.986 161.04 617.581 161.451 617.282 161.984C616.994 162.517 616.85 163.131 616.85 163.824C616.85 164.517 616.994 165.131 617.282 165.664C617.581 166.197 617.986 166.613 618.498 166.912C619.021 167.2 619.607 167.344 620.258 167.344C620.791 167.344 621.277 167.243 621.714 167.04C622.162 166.827 622.535 166.512 622.834 166.096L623.426 166.528C623.085 167.029 622.637 167.413 622.082 167.68C621.538 167.936 620.93 168.064 620.258 168.064ZM630.059 167.472C629.856 167.664 629.6 167.813 629.291 167.92C628.992 168.016 628.677 168.064 628.347 168.064C627.621 168.064 627.061 167.867 626.667 167.472C626.272 167.067 626.075 166.507 626.075 165.792V160.336H624.539V159.648H626.075V157.824H626.875V159.648H629.531V160.336H626.875V165.712C626.875 166.256 627.003 166.672 627.259 166.96C627.525 167.237 627.915 167.376 628.427 167.376C628.949 167.376 629.381 167.221 629.723 166.912L630.059 167.472ZM632.29 159.648H633.09V168H632.29V159.648ZM632.69 157.616C632.508 157.616 632.354 157.557 632.226 157.44C632.098 157.312 632.034 157.157 632.034 156.976C632.034 156.795 632.098 156.64 632.226 156.512C632.354 156.384 632.508 156.32 632.69 156.32C632.871 156.32 633.026 156.384 633.154 156.512C633.282 156.629 633.346 156.779 633.346 156.96C633.346 157.141 633.282 157.296 633.154 157.424C633.026 157.552 632.871 157.616 632.69 157.616ZM639.726 168.064C638.936 168.064 638.222 167.883 637.582 167.52C636.952 167.157 636.456 166.656 636.094 166.016C635.731 165.365 635.55 164.635 635.55 163.824C635.55 163.013 635.731 162.288 636.094 161.648C636.456 160.997 636.952 160.491 637.582 160.128C638.222 159.765 638.936 159.584 639.726 159.584C640.515 159.584 641.224 159.765 641.854 160.128C642.494 160.491 642.995 160.997 643.358 161.648C643.72 162.288 643.902 163.013 643.902 163.824C643.902 164.635 643.72 165.365 643.358 166.016C642.995 166.656 642.494 167.157 641.854 167.52C641.224 167.883 640.515 168.064 639.726 168.064ZM639.726 167.344C640.366 167.344 640.936 167.195 641.438 166.896C641.95 166.597 642.35 166.181 642.638 165.648C642.936 165.115 643.086 164.507 643.086 163.824C643.086 163.141 642.936 162.533 642.638 162C642.35 161.467 641.95 161.051 641.438 160.752C640.936 160.453 640.366 160.304 639.726 160.304C639.086 160.304 638.51 160.453 637.998 160.752C637.496 161.051 637.096 161.467 636.798 162C636.51 162.533 636.366 163.141 636.366 163.824C636.366 164.507 636.51 165.115 636.798 165.648C637.096 166.181 637.496 166.597 637.998 166.896C638.51 167.195 639.086 167.344 639.726 167.344ZM650.464 159.584C651.509 159.584 652.336 159.888 652.944 160.496C653.552 161.104 653.856 161.979 653.856 163.12V168H653.056V163.184C653.056 162.245 652.816 161.531 652.336 161.04C651.866 160.549 651.205 160.304 650.352 160.304C649.37 160.304 648.597 160.597 648.032 161.184C647.466 161.771 647.184 162.56 647.184 163.552V168H646.384V159.648H647.152V161.456C647.44 160.869 647.866 160.411 648.432 160.08C649.008 159.749 649.685 159.584 650.464 159.584ZM665.451 159.584C666.229 159.584 666.933 159.765 667.562 160.128C668.192 160.48 668.683 160.981 669.035 161.632C669.397 162.272 669.579 163.003 669.579 163.824C669.579 164.645 669.397 165.376 669.035 166.016C668.683 166.656 668.192 167.157 667.562 167.52C666.933 167.883 666.229 168.064 665.451 168.064C664.704 168.064 664.027 167.888 663.419 167.536C662.821 167.173 662.357 166.672 662.027 166.032V168H661.259V156.128H662.059V161.552C662.389 160.933 662.853 160.453 663.451 160.112C664.048 159.76 664.715 159.584 665.451 159.584ZM665.403 167.344C666.043 167.344 666.619 167.195 667.131 166.896C667.643 166.597 668.043 166.181 668.331 165.648C668.629 165.115 668.779 164.507 668.779 163.824C668.779 163.141 668.629 162.533 668.331 162C668.043 161.467 667.643 161.051 667.131 160.752C666.619 160.453 666.043 160.304 665.403 160.304C664.763 160.304 664.187 160.453 663.674 160.752C663.173 161.051 662.773 161.467 662.475 162C662.187 162.533 662.043 163.141 662.043 163.824C662.043 164.507 662.187 165.115 662.475 165.648C662.773 166.181 663.173 166.597 663.674 166.896C664.187 167.195 664.763 167.344 665.403 167.344ZM678.525 159.648L674.237 169.136C673.917 169.872 673.544 170.395 673.117 170.704C672.701 171.013 672.205 171.168 671.629 171.168C671.245 171.168 670.882 171.104 670.541 170.976C670.21 170.848 669.928 170.661 669.693 170.416L670.093 169.808C670.52 170.245 671.037 170.464 671.645 170.464C672.05 170.464 672.397 170.352 672.685 170.128C672.973 169.904 673.24 169.52 673.485 168.976L673.933 167.968L670.173 159.648H671.021L674.365 167.12L677.709 159.648H678.525ZM691.296 162.224C692.096 162.373 692.704 162.688 693.12 163.168C693.546 163.648 693.76 164.272 693.76 165.04C693.76 165.989 693.413 166.72 692.72 167.232C692.026 167.744 690.997 168 689.632 168H684.64V156.8H689.312C690.528 156.8 691.472 157.051 692.144 157.552C692.826 158.043 693.168 158.747 693.168 159.664C693.168 160.304 692.997 160.843 692.656 161.28C692.325 161.717 691.872 162.032 691.296 162.224ZM685.456 157.504V161.968H689.28C690.261 161.968 691.013 161.781 691.536 161.408C692.069 161.024 692.336 160.464 692.336 159.728C692.336 159.003 692.069 158.453 691.536 158.08C691.013 157.696 690.261 157.504 689.28 157.504H685.456ZM689.632 167.296C690.72 167.296 691.541 167.109 692.095 166.736C692.661 166.352 692.944 165.765 692.944 164.976C692.944 164.187 692.661 163.605 692.095 163.232C691.541 162.859 690.72 162.672 689.632 162.672H685.456V167.296H689.632ZM699.231 159.584C700.265 159.584 701.06 159.851 701.615 160.384C702.169 160.907 702.447 161.68 702.447 162.704V168H701.679V166.512C701.412 167.003 701.023 167.387 700.511 167.664C699.999 167.931 699.385 168.064 698.671 168.064C697.743 168.064 697.007 167.845 696.463 167.408C695.929 166.971 695.663 166.395 695.663 165.68C695.663 164.987 695.908 164.427 696.399 164C696.9 163.563 697.695 163.344 698.783 163.344H701.647V162.672C701.647 161.893 701.433 161.301 701.007 160.896C700.591 160.491 699.977 160.288 699.167 160.288C698.612 160.288 698.079 160.384 697.567 160.576C697.065 160.768 696.639 161.024 696.287 161.344L695.887 160.768C696.303 160.395 696.804 160.107 697.391 159.904C697.977 159.691 698.591 159.584 699.231 159.584ZM698.783 167.408C699.476 167.408 700.063 167.248 700.543 166.928C701.033 166.608 701.401 166.144 701.647 165.536V163.968H698.799C697.977 163.968 697.38 164.117 697.007 164.416C696.644 164.715 696.463 165.125 696.463 165.648C696.463 166.192 696.665 166.624 697.071 166.944C697.476 167.253 698.047 167.408 698.783 167.408ZM708.719 163.536L706.543 165.52V168H705.743V156.128H706.543V164.528L711.887 159.648H712.911L709.311 163.024L713.263 168H712.271L708.719 163.536ZM718.125 163.536L715.949 165.52V168H715.149V156.128H715.949V164.528L721.293 159.648H722.317L718.717 163.024L722.669 168H721.677L718.125 163.536ZM727.476 168.064C726.686 168.064 725.972 167.883 725.332 167.52C724.702 167.157 724.206 166.656 723.844 166.016C723.481 165.365 723.3 164.635 723.3 163.824C723.3 163.013 723.481 162.288 723.844 161.648C724.206 160.997 724.702 160.491 725.332 160.128C725.972 159.765 726.686 159.584 727.476 159.584C728.265 159.584 728.974 159.765 729.604 160.128C730.244 160.491 730.745 160.997 731.108 161.648C731.47 162.288 731.652 163.013 731.652 163.824C731.652 164.635 731.47 165.365 731.108 166.016C730.745 166.656 730.244 167.157 729.604 167.52C728.974 167.883 728.265 168.064 727.476 168.064ZM727.476 167.344C728.116 167.344 728.686 167.195 729.188 166.896C729.7 166.597 730.1 166.181 730.388 165.648C730.686 165.115 730.836 164.507 730.836 163.824C730.836 163.141 730.686 162.533 730.388 162C730.1 161.467 729.7 161.051 729.188 160.752C728.686 160.453 728.116 160.304 727.476 160.304C726.836 160.304 726.26 160.453 725.748 160.752C725.246 161.051 724.846 161.467 724.548 162C724.26 162.533 724.116 163.141 724.116 163.824C724.116 164.507 724.26 165.115 724.548 165.648C724.846 166.181 725.246 166.597 725.748 166.896C726.26 167.195 726.836 167.344 727.476 167.344ZM741.446 159.648V168H740.678V166.208C740.4 166.795 739.99 167.253 739.446 167.584C738.902 167.904 738.262 168.064 737.526 168.064C736.438 168.064 735.584 167.76 734.966 167.152C734.347 166.544 734.038 165.669 734.038 164.528V159.648H734.838V164.464C734.838 165.403 735.078 166.117 735.558 166.608C736.038 167.099 736.715 167.344 737.59 167.344C738.528 167.344 739.27 167.051 739.814 166.464C740.368 165.877 740.646 165.088 740.646 164.096V159.648H741.446ZM745.605 161.472C745.861 160.864 746.261 160.4 746.805 160.08C747.349 159.749 748.01 159.584 748.789 159.584V160.368L748.597 160.352C747.669 160.352 746.943 160.645 746.421 161.232C745.898 161.808 745.637 162.613 745.637 163.648V168H744.837V159.648H745.605V161.472ZM753.809 159.584C754.844 159.584 755.638 159.851 756.193 160.384C756.748 160.907 757.025 161.68 757.025 162.704V168H756.257V166.512C755.99 167.003 755.601 167.387 755.089 167.664C754.577 167.931 753.964 168.064 753.249 168.064C752.321 168.064 751.585 167.845 751.041 167.408C750.508 166.971 750.241 166.395 750.241 165.68C750.241 164.987 750.486 164.427 750.977 164C751.478 163.563 752.273 163.344 753.361 163.344H756.225V162.672C756.225 161.893 756.012 161.301 755.585 160.896C755.169 160.491 754.556 160.288 753.745 160.288C753.19 160.288 752.657 160.384 752.145 160.576C751.644 160.768 751.217 161.024 750.865 161.344L750.465 160.768C750.881 160.395 751.382 160.107 751.969 159.904C752.556 159.691 753.169 159.584 753.809 159.584ZM753.361 167.408C754.054 167.408 754.641 167.248 755.121 166.928C755.612 166.608 755.98 166.144 756.225 165.536V163.968H753.377C752.556 163.968 751.958 164.117 751.585 164.416C751.222 164.715 751.041 165.125 751.041 165.648C751.041 166.192 751.244 166.624 751.649 166.944C752.054 167.253 752.625 167.408 753.361 167.408ZM764.43 159.648H765.23V168H764.43V159.648ZM764.83 157.616C764.649 157.616 764.494 157.557 764.366 157.44C764.238 157.312 764.174 157.157 764.174 156.976C764.174 156.795 764.238 156.64 764.366 156.512C764.494 156.384 764.649 156.32 764.83 156.32C765.012 156.32 765.166 156.384 765.294 156.512C765.422 156.629 765.486 156.779 765.486 156.96C765.486 157.141 765.422 157.296 765.294 157.424C765.166 157.552 765.012 157.616 764.83 157.616ZM770.714 168.064C770.042 168.064 769.402 167.963 768.794 167.76C768.186 167.557 767.712 167.301 767.37 166.992L767.738 166.352C768.08 166.64 768.517 166.88 769.05 167.072C769.594 167.264 770.16 167.36 770.746 167.36C771.589 167.36 772.208 167.221 772.602 166.944C773.008 166.667 773.21 166.283 773.21 165.792C773.21 165.44 773.098 165.163 772.874 164.96C772.661 164.757 772.394 164.608 772.074 164.512C771.754 164.416 771.312 164.315 770.746 164.208C770.085 164.091 769.552 163.963 769.146 163.824C768.741 163.685 768.394 163.461 768.106 163.152C767.818 162.843 767.674 162.416 767.674 161.872C767.674 161.211 767.946 160.667 768.49 160.24C769.045 159.803 769.829 159.584 770.842 159.584C771.376 159.584 771.904 159.659 772.426 159.808C772.949 159.957 773.376 160.155 773.706 160.4L773.338 161.04C772.997 160.795 772.608 160.608 772.17 160.48C771.733 160.352 771.285 160.288 770.826 160.288C770.048 160.288 769.461 160.432 769.066 160.72C768.672 161.008 768.474 161.387 768.474 161.856C768.474 162.229 768.586 162.523 768.81 162.736C769.034 162.939 769.306 163.093 769.626 163.2C769.957 163.296 770.416 163.403 771.002 163.52C771.653 163.637 772.176 163.765 772.57 163.904C772.976 164.032 773.317 164.245 773.594 164.544C773.872 164.843 774.01 165.253 774.01 165.776C774.01 166.469 773.722 167.024 773.146 167.44C772.57 167.856 771.76 168.064 770.714 168.064ZM784.496 167.472C784.294 167.664 784.038 167.813 783.728 167.92C783.43 168.016 783.115 168.064 782.784 168.064C782.059 168.064 781.499 167.867 781.104 167.472C780.71 167.067 780.512 166.507 780.512 165.792V160.336H778.976V159.648H780.512V157.824H781.312V159.648H783.968V160.336H781.312V165.712C781.312 166.256 781.44 166.672 781.696 166.96C781.963 167.237 782.352 167.376 782.864 167.376C783.387 167.376 783.819 167.221 784.16 166.912L784.496 167.472ZM790.807 159.584C791.853 159.584 792.679 159.888 793.287 160.496C793.895 161.104 794.199 161.979 794.199 163.12V168H793.399V163.184C793.399 162.245 793.159 161.531 792.679 161.04C792.21 160.549 791.549 160.304 790.695 160.304C789.714 160.304 788.941 160.597 788.375 161.184C787.81 161.771 787.527 162.56 787.527 163.552V168H786.727V156.128H787.527V161.392C787.815 160.816 788.242 160.373 788.807 160.064C789.373 159.744 790.039 159.584 790.807 159.584ZM804.565 164.016H797.381C797.402 164.667 797.567 165.248 797.877 165.76C798.186 166.261 798.602 166.651 799.125 166.928C799.658 167.205 800.255 167.344 800.917 167.344C801.461 167.344 801.962 167.248 802.421 167.056C802.89 166.853 803.279 166.56 803.589 166.176L804.053 166.704C803.69 167.141 803.231 167.477 802.677 167.712C802.133 167.947 801.541 168.064 800.901 168.064C800.069 168.064 799.327 167.883 798.677 167.52C798.026 167.157 797.514 166.656 797.141 166.016C796.778 165.376 796.597 164.645 796.597 163.824C796.597 163.013 796.767 162.288 797.109 161.648C797.461 160.997 797.941 160.491 798.549 160.128C799.157 159.765 799.839 159.584 800.597 159.584C801.354 159.584 802.031 159.765 802.629 160.128C803.237 160.48 803.711 160.976 804.053 161.616C804.405 162.256 804.581 162.981 804.581 163.792L804.565 164.016ZM800.597 160.288C800.01 160.288 799.482 160.421 799.013 160.688C798.543 160.944 798.165 161.312 797.877 161.792C797.599 162.261 797.439 162.795 797.397 163.392H803.797C803.765 162.795 803.605 162.261 803.317 161.792C803.029 161.323 802.65 160.955 802.181 160.688C801.711 160.421 801.183 160.288 800.597 160.288ZM815.357 159.584C816.135 159.584 816.839 159.765 817.469 160.128C818.098 160.491 818.589 160.992 818.941 161.632C819.303 162.272 819.485 163.003 819.485 163.824C819.485 164.645 819.303 165.381 818.941 166.032C818.589 166.672 818.098 167.173 817.469 167.536C816.839 167.888 816.135 168.064 815.357 168.064C814.621 168.064 813.954 167.893 813.357 167.552C812.759 167.2 812.295 166.715 811.965 166.096V171.104H811.165V159.648H811.933V161.616C812.263 160.976 812.727 160.48 813.325 160.128C813.933 159.765 814.61 159.584 815.357 159.584ZM815.309 167.344C815.949 167.344 816.525 167.195 817.037 166.896C817.549 166.597 817.949 166.181 818.237 165.648C818.535 165.115 818.685 164.507 818.685 163.824C818.685 163.141 818.535 162.533 818.237 162C817.949 161.467 817.549 161.051 817.037 160.752C816.525 160.453 815.949 160.304 815.309 160.304C814.669 160.304 814.093 160.453 813.581 160.752C813.079 161.051 812.679 161.467 812.381 162C812.093 162.533 811.949 163.141 811.949 163.824C811.949 164.507 812.093 165.115 812.381 165.648C812.679 166.181 813.079 166.597 813.581 166.896C814.093 167.195 814.669 167.344 815.309 167.344ZM824.746 159.584C825.781 159.584 826.576 159.851 827.13 160.384C827.685 160.907 827.962 161.68 827.962 162.704V168H827.194V166.512C826.928 167.003 826.538 167.387 826.026 167.664C825.514 167.931 824.901 168.064 824.186 168.064C823.258 168.064 822.522 167.845 821.978 167.408C821.445 166.971 821.178 166.395 821.178 165.68C821.178 164.987 821.424 164.427 821.914 164C822.416 163.563 823.21 163.344 824.298 163.344H827.162V162.672C827.162 161.893 826.949 161.301 826.522 160.896C826.106 160.491 825.493 160.288 824.682 160.288C824.128 160.288 823.594 160.384 823.082 160.576C822.581 160.768 822.154 161.024 821.802 161.344L821.402 160.768C821.818 160.395 822.32 160.107 822.906 159.904C823.493 159.691 824.106 159.584 824.746 159.584ZM824.298 167.408C824.992 167.408 825.578 167.248 826.058 166.928C826.549 166.608 826.917 166.144 827.162 165.536V163.968H824.314C823.493 163.968 822.896 164.117 822.522 164.416C822.16 164.715 821.978 165.125 821.978 165.648C821.978 166.192 822.181 166.624 822.586 166.944C822.992 167.253 823.562 167.408 824.298 167.408ZM832.027 161.472C832.283 160.864 832.683 160.4 833.227 160.08C833.771 159.749 834.432 159.584 835.211 159.584V160.368L835.019 160.352C834.091 160.352 833.365 160.645 832.843 161.232C832.32 161.808 832.059 162.613 832.059 163.648V168H831.259V159.648H832.027V161.472ZM841.934 167.472C841.731 167.664 841.475 167.813 841.166 167.92C840.867 168.016 840.552 168.064 840.222 168.064C839.496 168.064 838.936 167.867 838.542 167.472C838.147 167.067 837.95 166.507 837.95 165.792V160.336H836.414V159.648H837.95V157.824H838.75V159.648H841.406V160.336H838.75V165.712C838.75 166.256 838.878 166.672 839.134 166.96C839.4 167.237 839.79 167.376 840.302 167.376C840.824 167.376 841.256 167.221 841.598 166.912L841.934 167.472ZM850.713 159.648L846.424 169.136C846.105 169.872 845.731 170.395 845.305 170.704C844.889 171.013 844.393 171.168 843.817 171.168C843.433 171.168 843.07 171.104 842.729 170.976C842.398 170.848 842.115 170.661 841.88 170.416L842.28 169.808C842.707 170.245 843.225 170.464 843.833 170.464C844.238 170.464 844.585 170.352 844.873 170.128C845.161 169.904 845.427 169.52 845.673 168.976L846.121 167.968L842.361 159.648H843.209L846.553 167.12L849.897 159.648H850.713ZM507.96 192.064C507.171 192.064 506.456 191.883 505.816 191.52C505.187 191.157 504.691 190.656 504.328 190.016C503.965 189.365 503.784 188.635 503.784 187.824C503.784 187.013 503.965 186.288 504.328 185.648C504.691 184.997 505.187 184.491 505.816 184.128C506.456 183.765 507.171 183.584 507.96 183.584C508.749 183.584 509.459 183.765 510.088 184.128C510.728 184.491 511.229 184.997 511.592 185.648C511.955 186.288 512.136 187.013 512.136 187.824C512.136 188.635 511.955 189.365 511.592 190.016C511.229 190.656 510.728 191.157 510.088 191.52C509.459 191.883 508.749 192.064 507.96 192.064ZM507.96 191.344C508.6 191.344 509.171 191.195 509.672 190.896C510.184 190.597 510.584 190.181 510.872 189.648C511.171 189.115 511.32 188.507 511.32 187.824C511.32 187.141 511.171 186.533 510.872 186C510.584 185.467 510.184 185.051 509.672 184.752C509.171 184.453 508.6 184.304 507.96 184.304C507.32 184.304 506.744 184.453 506.232 184.752C505.731 185.051 505.331 185.467 505.032 186C504.744 186.533 504.6 187.141 504.6 187.824C504.6 188.507 504.744 189.115 505.032 189.648C505.331 190.181 505.731 190.597 506.232 190.896C506.744 191.195 507.32 191.344 507.96 191.344ZM517.13 180.752C516.085 180.752 515.562 181.312 515.562 182.432V183.648H518.234V184.336H515.578V192H514.778V184.336H513.242V183.648H514.778V182.368C514.778 181.664 514.981 181.104 515.386 180.688C515.791 180.272 516.362 180.064 517.098 180.064C517.418 180.064 517.722 180.112 518.01 180.208C518.309 180.293 518.554 180.427 518.746 180.608L518.426 181.216C518.085 180.907 517.653 180.752 517.13 180.752ZM528.121 191.472C527.919 191.664 527.663 191.813 527.353 191.92C527.055 192.016 526.74 192.064 526.409 192.064C525.684 192.064 525.124 191.867 524.729 191.472C524.335 191.067 524.137 190.507 524.137 189.792V184.336H522.601V183.648H524.137V181.824H524.937V183.648H527.593V184.336H524.937V189.712C524.937 190.256 525.065 190.672 525.321 190.96C525.588 191.237 525.977 191.376 526.489 191.376C527.012 191.376 527.444 191.221 527.785 190.912L528.121 191.472ZM534.432 183.584C535.478 183.584 536.304 183.888 536.912 184.496C537.52 185.104 537.824 185.979 537.824 187.12V192H537.024V187.184C537.024 186.245 536.784 185.531 536.304 185.04C535.835 184.549 535.174 184.304 534.32 184.304C533.339 184.304 532.566 184.597 532 185.184C531.435 185.771 531.152 186.56 531.152 187.552V192H530.352V180.128H531.152V185.392C531.44 184.816 531.867 184.373 532.432 184.064C532.998 183.744 533.664 183.584 534.432 183.584ZM548.19 188.016H541.006C541.027 188.667 541.192 189.248 541.502 189.76C541.811 190.261 542.227 190.651 542.75 190.928C543.283 191.205 543.88 191.344 544.542 191.344C545.086 191.344 545.587 191.248 546.046 191.056C546.515 190.853 546.904 190.56 547.214 190.176L547.678 190.704C547.315 191.141 546.856 191.477 546.302 191.712C545.758 191.947 545.166 192.064 544.526 192.064C543.694 192.064 542.952 191.883 542.302 191.52C541.651 191.157 541.139 190.656 540.766 190.016C540.403 189.376 540.222 188.645 540.222 187.824C540.222 187.013 540.392 186.288 540.734 185.648C541.086 184.997 541.566 184.491 542.174 184.128C542.782 183.765 543.464 183.584 544.222 183.584C544.979 183.584 545.656 183.765 546.254 184.128C546.862 184.48 547.336 184.976 547.678 185.616C548.03 186.256 548.206 186.981 548.206 187.792L548.19 188.016ZM544.222 184.288C543.635 184.288 543.107 184.421 542.638 184.688C542.168 184.944 541.79 185.312 541.502 185.792C541.224 186.261 541.064 186.795 541.022 187.392H547.422C547.39 186.795 547.23 186.261 546.942 185.792C546.654 185.323 546.275 184.955 545.806 184.688C545.336 184.421 544.808 184.288 544.222 184.288ZM561.702 186.224C562.502 186.373 563.11 186.688 563.526 187.168C563.952 187.648 564.166 188.272 564.166 189.04C564.166 189.989 563.819 190.72 563.126 191.232C562.432 191.744 561.403 192 560.038 192H555.046V180.8H559.718C560.934 180.8 561.878 181.051 562.55 181.552C563.232 182.043 563.574 182.747 563.574 183.664C563.574 184.304 563.403 184.843 563.062 185.28C562.731 185.717 562.278 186.032 561.702 186.224ZM555.862 181.504V185.968H559.686C560.667 185.968 561.419 185.781 561.942 185.408C562.475 185.024 562.742 184.464 562.742 183.728C562.742 183.003 562.475 182.453 561.942 182.08C561.419 181.696 560.667 181.504 559.686 181.504H555.862ZM560.038 191.296C561.126 191.296 561.947 191.109 562.502 190.736C563.067 190.352 563.35 189.765 563.35 188.976C563.35 188.187 563.067 187.605 562.502 187.232C561.947 186.859 561.126 186.672 560.038 186.672H555.862V191.296H560.038ZM569.637 183.584C570.672 183.584 571.466 183.851 572.021 184.384C572.576 184.907 572.853 185.68 572.853 186.704V192H572.085V190.512C571.818 191.003 571.429 191.387 570.917 191.664C570.405 191.931 569.792 192.064 569.077 192.064C568.149 192.064 567.413 191.845 566.869 191.408C566.336 190.971 566.069 190.395 566.069 189.68C566.069 188.987 566.314 188.427 566.805 188C567.306 187.563 568.101 187.344 569.189 187.344H572.053V186.672C572.053 185.893 571.84 185.301 571.413 184.896C570.997 184.491 570.384 184.288 569.573 184.288C569.018 184.288 568.485 184.384 567.973 184.576C567.472 184.768 567.045 185.024 566.693 185.344L566.293 184.768C566.709 184.395 567.21 184.107 567.797 183.904C568.384 183.691 568.997 183.584 569.637 183.584ZM569.189 191.408C569.882 191.408 570.469 191.248 570.949 190.928C571.44 190.608 571.808 190.144 572.053 189.536V187.968H569.205C568.384 187.968 567.786 188.117 567.413 188.416C567.05 188.715 566.869 189.125 566.869 189.648C566.869 190.192 567.072 190.624 567.477 190.944C567.882 191.253 568.453 191.408 569.189 191.408ZM579.125 187.536L576.949 189.52V192H576.149V180.128H576.949V188.528L582.293 183.648H583.317L579.717 187.024L583.669 192H582.677L579.125 187.536ZM588.531 187.536L586.355 189.52V192H585.555V180.128H586.355V188.528L591.699 183.648H592.723L589.123 187.024L593.075 192H592.083L588.531 187.536ZM597.882 192.064C597.093 192.064 596.378 191.883 595.738 191.52C595.109 191.157 594.613 190.656 594.25 190.016C593.887 189.365 593.706 188.635 593.706 187.824C593.706 187.013 593.887 186.288 594.25 185.648C594.613 184.997 595.109 184.491 595.738 184.128C596.378 183.765 597.093 183.584 597.882 183.584C598.671 183.584 599.381 183.765 600.01 184.128C600.65 184.491 601.151 184.997 601.514 185.648C601.877 186.288 602.058 187.013 602.058 187.824C602.058 188.635 601.877 189.365 601.514 190.016C601.151 190.656 600.65 191.157 600.01 191.52C599.381 191.883 598.671 192.064 597.882 192.064ZM597.882 191.344C598.522 191.344 599.093 191.195 599.594 190.896C600.106 190.597 600.506 190.181 600.794 189.648C601.093 189.115 601.242 188.507 601.242 187.824C601.242 187.141 601.093 186.533 600.794 186C600.506 185.467 600.106 185.051 599.594 184.752C599.093 184.453 598.522 184.304 597.882 184.304C597.242 184.304 596.666 184.453 596.154 184.752C595.653 185.051 595.253 185.467 594.954 186C594.666 186.533 594.522 187.141 594.522 187.824C594.522 188.507 594.666 189.115 594.954 189.648C595.253 190.181 595.653 190.597 596.154 190.896C596.666 191.195 597.242 191.344 597.882 191.344ZM611.852 183.648V192H611.084V190.208C610.806 190.795 610.396 191.253 609.852 191.584C609.308 191.904 608.668 192.064 607.932 192.064C606.844 192.064 605.99 191.76 605.372 191.152C604.753 190.544 604.444 189.669 604.444 188.528V183.648H605.244V188.464C605.244 189.403 605.484 190.117 605.964 190.608C606.444 191.099 607.121 191.344 607.996 191.344C608.934 191.344 609.676 191.051 610.22 190.464C610.774 189.877 611.052 189.088 611.052 188.096V183.648H611.852ZM616.011 185.472C616.267 184.864 616.667 184.4 617.211 184.08C617.755 183.749 618.416 183.584 619.195 183.584V184.368L619.003 184.352C618.075 184.352 617.35 184.645 616.827 185.232C616.304 185.808 616.043 186.613 616.043 187.648V192H615.243V183.648H616.011V185.472ZM624.215 183.584C625.25 183.584 626.044 183.851 626.599 184.384C627.154 184.907 627.431 185.68 627.431 186.704V192H626.663V190.512C626.396 191.003 626.007 191.387 625.495 191.664C624.983 191.931 624.37 192.064 623.655 192.064C622.727 192.064 621.991 191.845 621.447 191.408C620.914 190.971 620.647 190.395 620.647 189.68C620.647 188.987 620.892 188.427 621.383 188C621.884 187.563 622.679 187.344 623.767 187.344H626.631V186.672C626.631 185.893 626.418 185.301 625.991 184.896C625.575 184.491 624.962 184.288 624.151 184.288C623.596 184.288 623.063 184.384 622.551 184.576C622.05 184.768 621.623 185.024 621.271 185.344L620.871 184.768C621.287 184.395 621.788 184.107 622.375 183.904C622.962 183.691 623.575 183.584 624.215 183.584ZM623.767 191.408C624.46 191.408 625.047 191.248 625.527 190.928C626.018 190.608 626.386 190.144 626.631 189.536V187.968H623.783C622.962 187.968 622.364 188.117 621.991 188.416C621.628 188.715 621.447 189.125 621.447 189.648C621.447 190.192 621.65 190.624 622.055 190.944C622.46 191.253 623.031 191.408 623.767 191.408ZM642.261 180.128V192H641.477V190.032C641.146 190.683 640.682 191.184 640.085 191.536C639.487 191.888 638.81 192.064 638.053 192.064C637.274 192.064 636.57 191.883 635.941 191.52C635.311 191.157 634.815 190.656 634.453 190.016C634.101 189.376 633.925 188.645 633.925 187.824C633.925 187.003 634.101 186.272 634.453 185.632C634.815 184.981 635.311 184.48 635.941 184.128C636.57 183.765 637.274 183.584 638.053 183.584C638.799 183.584 639.466 183.76 640.053 184.112C640.65 184.464 641.119 184.955 641.461 185.584V180.128H642.261ZM638.101 191.344C638.741 191.344 639.311 191.195 639.813 190.896C640.325 190.597 640.725 190.181 641.013 189.648C641.311 189.115 641.461 188.507 641.461 187.824C641.461 187.141 641.311 186.533 641.013 186C640.725 185.467 640.325 185.051 639.813 184.752C639.311 184.453 638.741 184.304 638.101 184.304C637.461 184.304 636.885 184.453 636.373 184.752C635.871 185.051 635.471 185.467 635.173 186C634.885 186.533 634.741 187.141 634.741 187.824C634.741 188.507 634.885 189.115 635.173 189.648C635.471 190.181 635.871 190.597 636.373 190.896C636.885 191.195 637.461 191.344 638.101 191.344ZM652.338 183.648L648.049 193.136C647.73 193.872 647.356 194.395 646.93 194.704C646.514 195.013 646.018 195.168 645.442 195.168C645.058 195.168 644.695 195.104 644.354 194.976C644.023 194.848 643.74 194.661 643.505 194.416L643.905 193.808C644.332 194.245 644.85 194.464 645.458 194.464C645.863 194.464 646.21 194.352 646.498 194.128C646.786 193.904 647.052 193.52 647.298 192.976L647.746 191.968L643.986 183.648H644.834L648.178 191.12L651.522 183.648H652.338ZM658.167 183.584C659.212 183.584 660.039 183.888 660.647 184.496C661.255 185.104 661.559 185.979 661.559 187.12V192H660.759V187.184C660.759 186.245 660.519 185.531 660.039 185.04C659.569 184.549 658.908 184.304 658.055 184.304C657.073 184.304 656.3 184.597 655.735 185.184C655.169 185.771 654.887 186.56 654.887 187.552V192H654.087V183.648H654.855V185.456C655.143 184.869 655.569 184.411 656.135 184.08C656.711 183.749 657.388 183.584 658.167 183.584ZM667.668 183.584C668.703 183.584 669.498 183.851 670.052 184.384C670.607 184.907 670.884 185.68 670.884 186.704V192H670.116V190.512C669.85 191.003 669.46 191.387 668.948 191.664C668.436 191.931 667.823 192.064 667.108 192.064C666.18 192.064 665.444 191.845 664.9 191.408C664.367 190.971 664.1 190.395 664.1 189.68C664.1 188.987 664.346 188.427 664.836 188C665.338 187.563 666.132 187.344 667.22 187.344H670.084V186.672C670.084 185.893 669.871 185.301 669.444 184.896C669.028 184.491 668.415 184.288 667.604 184.288C667.05 184.288 666.516 184.384 666.004 184.576C665.503 184.768 665.076 185.024 664.724 185.344L664.324 184.768C664.74 184.395 665.242 184.107 665.828 183.904C666.415 183.691 667.028 183.584 667.668 183.584ZM667.22 191.408C667.914 191.408 668.5 191.248 668.98 190.928C669.471 190.608 669.839 190.144 670.084 189.536V187.968H667.236C666.415 187.968 665.818 188.117 665.444 188.416C665.082 188.715 664.9 189.125 664.9 189.648C664.9 190.192 665.103 190.624 665.508 190.944C665.914 191.253 666.484 191.408 667.22 191.408ZM676.292 192.064C675.62 192.064 674.98 191.963 674.372 191.76C673.764 191.557 673.29 191.301 672.948 190.992L673.316 190.352C673.658 190.64 674.095 190.88 674.628 191.072C675.172 191.264 675.738 191.36 676.324 191.36C677.167 191.36 677.786 191.221 678.18 190.944C678.586 190.667 678.788 190.283 678.788 189.792C678.788 189.44 678.676 189.163 678.452 188.96C678.239 188.757 677.972 188.608 677.652 188.512C677.332 188.416 676.89 188.315 676.324 188.208C675.663 188.091 675.13 187.963 674.724 187.824C674.319 187.685 673.972 187.461 673.684 187.152C673.396 186.843 673.252 186.416 673.252 185.872C673.252 185.211 673.524 184.667 674.068 184.24C674.623 183.803 675.407 183.584 676.42 183.584C676.954 183.584 677.482 183.659 678.004 183.808C678.527 183.957 678.954 184.155 679.284 184.4L678.916 185.04C678.575 184.795 678.186 184.608 677.748 184.48C677.311 184.352 676.863 184.288 676.404 184.288C675.626 184.288 675.039 184.432 674.644 184.72C674.25 185.008 674.052 185.387 674.052 185.856C674.052 186.229 674.164 186.523 674.388 186.736C674.612 186.939 674.884 187.093 675.204 187.2C675.535 187.296 675.994 187.403 676.58 187.52C677.231 187.637 677.754 187.765 678.148 187.904C678.554 188.032 678.895 188.245 679.172 188.544C679.45 188.843 679.588 189.253 679.588 189.776C679.588 190.469 679.3 191.024 678.724 191.44C678.148 191.856 677.338 192.064 676.292 192.064ZM685.965 191.472C685.762 191.664 685.506 191.813 685.197 191.92C684.898 192.016 684.584 192.064 684.253 192.064C683.528 192.064 682.968 191.867 682.573 191.472C682.178 191.067 681.981 190.507 681.981 189.792V184.336H680.445V183.648H681.981V181.824H682.781V183.648H685.437V184.336H682.781V189.712C682.781 190.256 682.909 190.672 683.165 190.96C683.432 191.237 683.821 191.376 684.333 191.376C684.856 191.376 685.288 191.221 685.629 190.912L685.965 191.472ZM694.744 183.648L690.456 193.136C690.136 193.872 689.762 194.395 689.336 194.704C688.92 195.013 688.424 195.168 687.848 195.168C687.464 195.168 687.101 195.104 686.76 194.976C686.429 194.848 686.146 194.661 685.912 194.416L686.312 193.808C686.738 194.245 687.256 194.464 687.864 194.464C688.269 194.464 688.616 194.352 688.904 194.128C689.192 193.904 689.458 193.52 689.704 192.976L690.152 191.968L686.392 183.648H687.24L690.584 191.12L693.928 183.648H694.744ZM507.096 205.536H503.064V204.8H511.944V205.536H507.912V216H507.096V205.536ZM517.792 207.584C518.837 207.584 519.664 207.888 520.272 208.496C520.88 209.104 521.184 209.979 521.184 211.12V216H520.384V211.184C520.384 210.245 520.144 209.531 519.664 209.04C519.194 208.549 518.533 208.304 517.68 208.304C516.698 208.304 515.925 208.597 515.36 209.184C514.794 209.771 514.512 210.56 514.512 211.552V216H513.712V204.128H514.512V209.392C514.8 208.816 515.226 208.373 515.792 208.064C516.357 207.744 517.024 207.584 517.792 207.584ZM524.477 207.648H525.277V216H524.477V207.648ZM524.877 205.616C524.696 205.616 524.541 205.557 524.413 205.44C524.285 205.312 524.221 205.157 524.221 204.976C524.221 204.795 524.285 204.64 524.413 204.512C524.541 204.384 524.696 204.32 524.877 204.32C525.059 204.32 525.213 204.384 525.341 204.512C525.469 204.629 525.533 204.779 525.533 204.96C525.533 205.141 525.469 205.296 525.341 205.424C525.213 205.552 525.059 205.616 524.877 205.616ZM530.761 216.064C530.089 216.064 529.449 215.963 528.841 215.76C528.233 215.557 527.758 215.301 527.417 214.992L527.785 214.352C528.126 214.64 528.564 214.88 529.097 215.072C529.641 215.264 530.206 215.36 530.793 215.36C531.636 215.36 532.254 215.221 532.649 214.944C533.054 214.667 533.257 214.283 533.257 213.792C533.257 213.44 533.145 213.163 532.921 212.96C532.708 212.757 532.441 212.608 532.121 212.512C531.801 212.416 531.358 212.315 530.793 212.208C530.132 212.091 529.598 211.963 529.193 211.824C528.788 211.685 528.441 211.461 528.153 211.152C527.865 210.843 527.721 210.416 527.721 209.872C527.721 209.211 527.993 208.667 528.537 208.24C529.092 207.803 529.876 207.584 530.889 207.584C531.422 207.584 531.95 207.659 532.473 207.808C532.996 207.957 533.422 208.155 533.753 208.4L533.385 209.04C533.044 208.795 532.654 208.608 532.217 208.48C531.78 208.352 531.332 208.288 530.873 208.288C530.094 208.288 529.508 208.432 529.113 208.72C528.718 209.008 528.521 209.387 528.521 209.856C528.521 210.229 528.633 210.523 528.857 210.736C529.081 210.939 529.353 211.093 529.673 211.2C530.004 211.296 530.462 211.403 531.049 211.52C531.7 211.637 532.222 211.765 532.617 211.904C533.022 212.032 533.364 212.245 533.641 212.544C533.918 212.843 534.057 213.253 534.057 213.776C534.057 214.469 533.769 215.024 533.193 215.44C532.617 215.856 531.806 216.064 530.761 216.064ZM544.543 215.472C544.34 215.664 544.084 215.813 543.775 215.92C543.476 216.016 543.162 216.064 542.831 216.064C542.106 216.064 541.546 215.867 541.151 215.472C540.756 215.067 540.559 214.507 540.559 213.792V208.336H539.023V207.648H540.559V205.824H541.359V207.648H544.015V208.336H541.359V213.712C541.359 214.256 541.487 214.672 541.743 214.96C542.01 215.237 542.399 215.376 542.911 215.376C543.434 215.376 543.866 215.221 544.207 214.912L544.543 215.472ZM550.854 207.584C551.899 207.584 552.726 207.888 553.334 208.496C553.942 209.104 554.246 209.979 554.246 211.12V216H553.446V211.184C553.446 210.245 553.206 209.531 552.726 209.04C552.257 208.549 551.595 208.304 550.742 208.304C549.761 208.304 548.987 208.597 548.422 209.184C547.857 209.771 547.574 210.56 547.574 211.552V216H546.774V204.128H547.574V209.392C547.862 208.816 548.289 208.373 548.854 208.064C549.419 207.744 550.086 207.584 550.854 207.584ZM564.611 212.016H557.427C557.449 212.667 557.614 213.248 557.923 213.76C558.233 214.261 558.649 214.651 559.171 214.928C559.705 215.205 560.302 215.344 560.963 215.344C561.507 215.344 562.009 215.248 562.467 215.056C562.937 214.853 563.326 214.56 563.635 214.176L564.099 214.704C563.737 215.141 563.278 215.477 562.723 215.712C562.179 215.947 561.587 216.064 560.947 216.064C560.115 216.064 559.374 215.883 558.723 215.52C558.073 215.157 557.561 214.656 557.187 214.016C556.825 213.376 556.643 212.645 556.643 211.824C556.643 211.013 556.814 210.288 557.155 209.648C557.507 208.997 557.987 208.491 558.595 208.128C559.203 207.765 559.886 207.584 560.643 207.584C561.401 207.584 562.078 207.765 562.675 208.128C563.283 208.48 563.758 208.976 564.099 209.616C564.451 210.256 564.627 210.981 564.627 211.792L564.611 212.016ZM560.643 208.288C560.057 208.288 559.529 208.421 559.059 208.688C558.59 208.944 558.211 209.312 557.923 209.792C557.646 210.261 557.486 210.795 557.443 211.392H563.843C563.811 210.795 563.651 210.261 563.363 209.792C563.075 209.323 562.697 208.955 562.227 208.688C561.758 208.421 561.23 208.288 560.643 208.288ZM575.356 215.472C575.153 215.664 574.897 215.813 574.588 215.92C574.289 216.016 573.974 216.064 573.644 216.064C572.918 216.064 572.358 215.867 571.964 215.472C571.569 215.067 571.372 214.507 571.372 213.792V208.336H569.836V207.648H571.372V205.824H572.172V207.648H574.828V208.336H572.172V213.712C572.172 214.256 572.3 214.672 572.556 214.96C572.822 215.237 573.212 215.376 573.724 215.376C574.246 215.376 574.678 215.221 575.02 214.912L575.356 215.472ZM581.667 207.584C582.712 207.584 583.539 207.888 584.147 208.496C584.755 209.104 585.059 209.979 585.059 211.12V216H584.259V211.184C584.259 210.245 584.019 209.531 583.539 209.04C583.069 208.549 582.408 208.304 581.555 208.304C580.573 208.304 579.8 208.597 579.235 209.184C578.669 209.771 578.387 210.56 578.387 211.552V216H577.587V204.128H578.387V209.392C578.675 208.816 579.101 208.373 579.667 208.064C580.232 207.744 580.899 207.584 581.667 207.584ZM595.424 212.016H588.24C588.261 212.667 588.427 213.248 588.736 213.76C589.045 214.261 589.461 214.651 589.984 214.928C590.517 215.205 591.115 215.344 591.776 215.344C592.32 215.344 592.821 215.248 593.28 215.056C593.749 214.853 594.139 214.56 594.448 214.176L594.912 214.704C594.549 215.141 594.091 215.477 593.536 215.712C592.992 215.947 592.4 216.064 591.76 216.064C590.928 216.064 590.187 215.883 589.536 215.52C588.885 215.157 588.373 214.656 588 214.016C587.637 213.376 587.456 212.645 587.456 211.824C587.456 211.013 587.627 210.288 587.968 209.648C588.32 208.997 588.8 208.491 589.408 208.128C590.016 207.765 590.699 207.584 591.456 207.584C592.213 207.584 592.891 207.765 593.488 208.128C594.096 208.48 594.571 208.976 594.912 209.616C595.264 210.256 595.44 210.981 595.44 211.792L595.424 212.016ZM591.456 208.288C590.869 208.288 590.341 208.421 589.872 208.688C589.403 208.944 589.024 209.312 588.736 209.792C588.459 210.261 588.299 210.795 588.256 211.392H594.656C594.624 210.795 594.464 210.261 594.176 209.792C593.888 209.323 593.509 208.955 593.04 208.688C592.571 208.421 592.043 208.288 591.456 208.288ZM604.536 204.752C603.491 204.752 602.968 205.312 602.968 206.432V207.648H605.64V208.336H602.984V216H602.184V208.336H600.648V207.648H602.184V206.368C602.184 205.664 602.387 205.104 602.792 204.688C603.197 204.272 603.768 204.064 604.504 204.064C604.824 204.064 605.128 204.112 605.416 204.208C605.715 204.293 605.96 204.427 606.152 204.608L605.832 205.216C605.491 204.907 605.059 204.752 604.536 204.752ZM609.934 207.584C610.969 207.584 611.763 207.851 612.318 208.384C612.873 208.907 613.15 209.68 613.15 210.704V216H612.382V214.512C612.115 215.003 611.726 215.387 611.214 215.664C610.702 215.931 610.089 216.064 609.374 216.064C608.446 216.064 607.71 215.845 607.166 215.408C606.633 214.971 606.366 214.395 606.366 213.68C606.366 212.987 606.611 212.427 607.102 212C607.603 211.563 608.398 211.344 609.486 211.344H612.35V210.672C612.35 209.893 612.137 209.301 611.71 208.896C611.294 208.491 610.681 208.288 609.87 208.288C609.315 208.288 608.782 208.384 608.27 208.576C607.769 208.768 607.342 209.024 606.99 209.344L606.59 208.768C607.006 208.395 607.507 208.107 608.094 207.904C608.681 207.691 609.294 207.584 609.934 207.584ZM609.486 215.408C610.179 215.408 610.766 215.248 611.246 214.928C611.737 214.608 612.105 214.144 612.35 213.536V211.968H609.502C608.681 211.968 608.083 212.117 607.71 212.416C607.347 212.715 607.166 213.125 607.166 213.648C607.166 214.192 607.369 214.624 607.774 214.944C608.179 215.253 608.75 215.408 609.486 215.408ZM626.846 207.584C627.881 207.584 628.691 207.888 629.278 208.496C629.875 209.104 630.174 209.979 630.174 211.12V216H629.374V211.184C629.374 210.245 629.145 209.531 628.686 209.04C628.227 208.549 627.587 208.304 626.766 208.304C625.827 208.304 625.081 208.597 624.526 209.184C623.982 209.771 623.71 210.56 623.71 211.552V216H622.91V211.184C622.91 210.245 622.681 209.531 622.222 209.04C621.763 208.549 621.123 208.304 620.302 208.304C619.363 208.304 618.617 208.597 618.062 209.184C617.518 209.771 617.246 210.56 617.246 211.552V216H616.446V207.648H617.214V209.44C617.491 208.853 617.902 208.4 618.446 208.08C619.001 207.749 619.657 207.584 620.414 207.584C621.171 207.584 621.811 207.755 622.334 208.096C622.867 208.437 623.246 208.939 623.47 209.6C623.747 208.981 624.179 208.491 624.766 208.128C625.363 207.765 626.057 207.584 626.846 207.584ZM633.477 207.648H634.277V216H633.477V207.648ZM633.877 205.616C633.696 205.616 633.541 205.557 633.413 205.44C633.285 205.312 633.221 205.157 633.221 204.976C633.221 204.795 633.285 204.64 633.413 204.512C633.541 204.384 633.696 204.32 633.877 204.32C634.059 204.32 634.213 204.384 634.341 204.512C634.469 204.629 634.533 204.779 634.533 204.96C634.533 205.141 634.469 205.296 634.341 205.424C634.213 205.552 634.059 205.616 633.877 205.616ZM637.649 204.128H638.449V216H637.649V204.128ZM648.525 207.648L644.237 217.136C643.917 217.872 643.544 218.395 643.117 218.704C642.701 219.013 642.205 219.168 641.629 219.168C641.245 219.168 640.882 219.104 640.541 218.976C640.21 218.848 639.928 218.661 639.693 218.416L640.093 217.808C640.52 218.245 641.037 218.464 641.645 218.464C642.05 218.464 642.397 218.352 642.685 218.128C642.973 217.904 643.24 217.52 643.485 216.976L643.933 215.968L640.173 207.648H641.021L644.365 215.12L647.709 207.648H648.525ZM657.648 216.064C656.858 216.064 656.144 215.883 655.504 215.52C654.874 215.157 654.378 214.656 654.016 214.016C653.653 213.365 653.472 212.635 653.472 211.824C653.472 211.013 653.653 210.288 654.016 209.648C654.378 208.997 654.874 208.491 655.504 208.128C656.144 207.765 656.858 207.584 657.648 207.584C658.437 207.584 659.146 207.765 659.776 208.128C660.416 208.491 660.917 208.997 661.28 209.648C661.642 210.288 661.824 211.013 661.824 211.824C661.824 212.635 661.642 213.365 661.28 214.016C660.917 214.656 660.416 215.157 659.776 215.52C659.146 215.883 658.437 216.064 657.648 216.064ZM657.648 215.344C658.288 215.344 658.858 215.195 659.36 214.896C659.872 214.597 660.272 214.181 660.56 213.648C660.858 213.115 661.008 212.507 661.008 211.824C661.008 211.141 660.858 210.533 660.56 210C660.272 209.467 659.872 209.051 659.36 208.752C658.858 208.453 658.288 208.304 657.648 208.304C657.008 208.304 656.432 208.453 655.92 208.752C655.418 209.051 655.018 209.467 654.72 210C654.432 210.533 654.288 211.141 654.288 211.824C654.288 212.507 654.432 213.115 654.72 213.648C655.018 214.181 655.418 214.597 655.92 214.896C656.432 215.195 657.008 215.344 657.648 215.344ZM666.817 204.752C665.772 204.752 665.249 205.312 665.249 206.432V207.648H667.921V208.336H665.265V216H664.465V208.336H662.929V207.648H664.465V206.368C664.465 205.664 664.668 205.104 665.073 204.688C665.479 204.272 666.049 204.064 666.785 204.064C667.105 204.064 667.409 204.112 667.697 204.208C667.996 204.293 668.241 204.427 668.433 204.608L668.113 205.216C667.772 204.907 667.34 204.752 666.817 204.752ZM677.857 207.584C678.635 207.584 679.339 207.765 679.969 208.128C680.598 208.48 681.089 208.981 681.441 209.632C681.803 210.272 681.985 211.003 681.985 211.824C681.985 212.645 681.803 213.376 681.441 214.016C681.089 214.656 680.598 215.157 679.969 215.52C679.339 215.883 678.635 216.064 677.857 216.064C677.11 216.064 676.433 215.888 675.825 215.536C675.227 215.173 674.763 214.672 674.433 214.032V216H673.665V204.128H674.465V209.552C674.795 208.933 675.259 208.453 675.857 208.112C676.454 207.76 677.121 207.584 677.857 207.584ZM677.809 215.344C678.449 215.344 679.025 215.195 679.537 214.896C680.049 214.597 680.449 214.181 680.737 213.648C681.035 213.115 681.185 212.507 681.185 211.824C681.185 211.141 681.035 210.533 680.737 210C680.449 209.467 680.049 209.051 679.537 208.752C679.025 208.453 678.449 208.304 677.809 208.304C677.169 208.304 676.593 208.453 676.081 208.752C675.579 209.051 675.179 209.467 674.881 210C674.593 210.533 674.449 211.141 674.449 211.824C674.449 212.507 674.593 213.115 674.881 213.648C675.179 214.181 675.579 214.597 676.081 214.896C676.593 215.195 677.169 215.344 677.809 215.344ZM685.23 209.472C685.486 208.864 685.886 208.4 686.43 208.08C686.974 207.749 687.635 207.584 688.414 207.584V208.368L688.222 208.352C687.294 208.352 686.568 208.645 686.046 209.232C685.523 209.808 685.262 210.613 685.262 211.648V216H684.462V207.648H685.23V209.472ZM693.434 207.584C694.469 207.584 695.263 207.851 695.818 208.384C696.373 208.907 696.65 209.68 696.65 210.704V216H695.882V214.512C695.615 215.003 695.226 215.387 694.714 215.664C694.202 215.931 693.589 216.064 692.874 216.064C691.946 216.064 691.21 215.845 690.666 215.408C690.133 214.971 689.866 214.395 689.866 213.68C689.866 212.987 690.111 212.427 690.602 212C691.103 211.563 691.898 211.344 692.986 211.344H695.85V210.672C695.85 209.893 695.637 209.301 695.21 208.896C694.794 208.491 694.181 208.288 693.37 208.288C692.815 208.288 692.282 208.384 691.77 208.576C691.269 208.768 690.842 209.024 690.49 209.344L690.09 208.768C690.506 208.395 691.007 208.107 691.594 207.904C692.181 207.691 692.794 207.584 693.434 207.584ZM692.986 215.408C693.679 215.408 694.266 215.248 694.746 214.928C695.237 214.608 695.605 214.144 695.85 213.536V211.968H693.002C692.181 211.968 691.583 212.117 691.21 212.416C690.847 212.715 690.666 213.125 690.666 213.648C690.666 214.192 690.869 214.624 691.274 214.944C691.679 215.253 692.25 215.408 692.986 215.408ZM704.026 207.584C705.071 207.584 705.898 207.888 706.506 208.496C707.114 209.104 707.418 209.979 707.418 211.12V216H706.618V211.184C706.618 210.245 706.378 209.531 705.898 209.04C705.429 208.549 704.767 208.304 703.914 208.304C702.933 208.304 702.159 208.597 701.594 209.184C701.029 209.771 700.746 210.56 700.746 211.552V216H699.946V207.648H700.714V209.456C701.002 208.869 701.429 208.411 701.994 208.08C702.57 207.749 703.247 207.584 704.026 207.584ZM718.151 204.128V216H717.367V214.032C717.037 214.683 716.573 215.184 715.975 215.536C715.378 215.888 714.701 216.064 713.943 216.064C713.165 216.064 712.461 215.883 711.831 215.52C711.202 215.157 710.706 214.656 710.343 214.016C709.991 213.376 709.815 212.645 709.815 211.824C709.815 211.003 709.991 210.272 710.343 209.632C710.706 208.981 711.202 208.48 711.831 208.128C712.461 207.765 713.165 207.584 713.943 207.584C714.69 207.584 715.357 207.76 715.943 208.112C716.541 208.464 717.01 208.955 717.351 209.584V204.128H718.151ZM713.991 215.344C714.631 215.344 715.202 215.195 715.703 214.896C716.215 214.597 716.615 214.181 716.903 213.648C717.202 213.115 717.351 212.507 717.351 211.824C717.351 211.141 717.202 210.533 716.903 210C716.615 209.467 716.215 209.051 715.703 208.752C715.202 208.453 714.631 208.304 713.991 208.304C713.351 208.304 712.775 208.453 712.263 208.752C711.762 209.051 711.362 209.467 711.063 210C710.775 210.533 710.631 211.141 710.631 211.824C710.631 212.507 710.775 213.115 711.063 213.648C711.362 214.181 711.762 214.597 712.263 214.896C712.775 215.195 713.351 215.344 713.991 215.344ZM723.636 216.064C722.964 216.064 722.324 215.963 721.716 215.76C721.108 215.557 720.633 215.301 720.292 214.992L720.66 214.352C721.001 214.64 721.439 214.88 721.972 215.072C722.516 215.264 723.081 215.36 723.668 215.36C724.511 215.36 725.129 215.221 725.524 214.944C725.929 214.667 726.132 214.283 726.132 213.792C726.132 213.44 726.02 213.163 725.796 212.96C725.583 212.757 725.316 212.608 724.996 212.512C724.676 212.416 724.233 212.315 723.668 212.208C723.007 212.091 722.473 211.963 722.068 211.824C721.663 211.685 721.316 211.461 721.028 211.152C720.74 210.843 720.596 210.416 720.596 209.872C720.596 209.211 720.868 208.667 721.412 208.24C721.967 207.803 722.751 207.584 723.764 207.584C724.297 207.584 724.825 207.659 725.348 207.808C725.871 207.957 726.297 208.155 726.628 208.4L726.26 209.04C725.919 208.795 725.529 208.608 725.092 208.48C724.655 208.352 724.207 208.288 723.748 208.288C722.969 208.288 722.383 208.432 721.988 208.72C721.593 209.008 721.396 209.387 721.396 209.856C721.396 210.229 721.508 210.523 721.732 210.736C721.956 210.939 722.228 211.093 722.548 211.2C722.879 211.296 723.337 211.403 723.924 211.52C724.575 211.637 725.097 211.765 725.492 211.904C725.897 212.032 726.239 212.245 726.516 212.544C726.793 212.843 726.932 213.253 726.932 213.776C726.932 214.469 726.644 215.024 726.068 215.44C725.492 215.856 724.681 216.064 723.636 216.064ZM729.069 216.064C728.887 216.064 728.727 216 728.589 215.872C728.461 215.733 728.397 215.568 728.397 215.376C728.397 215.184 728.461 215.024 728.589 214.896C728.727 214.768 728.887 214.704 729.069 214.704C729.25 214.704 729.405 214.768 729.533 214.896C729.671 215.024 729.741 215.184 729.741 215.376C729.741 215.568 729.671 215.733 729.533 215.872C729.405 216 729.25 216.064 729.069 216.064ZM732.272 216.064C732.091 216.064 731.931 216 731.792 215.872C731.664 215.733 731.6 215.568 731.6 215.376C731.6 215.184 731.664 215.024 731.792 214.896C731.931 214.768 732.091 214.704 732.272 214.704C732.453 214.704 732.608 214.768 732.736 214.896C732.875 215.024 732.944 215.184 732.944 215.376C732.944 215.568 732.875 215.733 732.736 215.872C732.608 216 732.453 216.064 732.272 216.064ZM735.475 216.064C735.294 216.064 735.134 216 734.995 215.872C734.867 215.733 734.803 215.568 734.803 215.376C734.803 215.184 734.867 215.024 734.995 214.896C735.134 214.768 735.294 214.704 735.475 214.704C735.656 214.704 735.811 214.768 735.939 214.896C736.078 215.024 736.147 215.184 736.147 215.376C736.147 215.568 736.078 215.733 735.939 215.872C735.811 216 735.656 216.064 735.475 216.064Z" fill="white"/>
<defs>
<linearGradient id="paint0_linear_1_877" x1="-25.6619" y1="118.368" x2="913.218" y2="195.132" gradientUnits="userSpaceOnUse">
<stop stop-color="#A9A9A9"/>
<stop offset="0.552083" stop-color="#548FC1" stop-opacity="0.51"/>
<stop offset="1" stop-opacity="0.25"/>
</linearGradient>
</defs>
</svg>
