<svg width="466" height="453" viewBox="0 0 466 453" fill="none" xmlns="http://www.w3.org/2000/svg">
<g opacity="0.5">
<path d="M276 93L279 107.308V341L277.5 335.92L276 341V93Z" fill="#290B29"/>
<path d="M280 241.393L274.5 241.393L86.8642 100.496L91.7194 102.172L88.7616 97.9725L280 241.393Z" fill="#290B29"/>
<path d="M386.229 186.882L374.85 196.188L164.378 296.636L168.2 292.874L162.871 293.48L386.229 186.882Z" fill="#290B29"/>
<g filter="url(#filter0_d_2039_3559)">
<ellipse cx="283.322" cy="63.1356" rx="65.661" ry="63.1356" fill="#0B0613"/>
<path d="M347.483 63.1356C347.483 97.1211 318.813 124.771 283.322 124.771C247.831 124.771 219.161 97.1211 219.161 63.1356C219.161 29.1501 247.831 1.5 283.322 1.5C318.813 1.5 347.483 29.1501 347.483 63.1356Z" stroke="url(#paint0_linear_2039_3559)" stroke-opacity="0.5" stroke-width="3"/>
</g>
<g filter="url(#filter1_d_2039_3559)">
<ellipse cx="283.322" cy="383.865" rx="65.661" ry="63.1356" fill="#0B0613"/>
<path d="M347.483 383.865C347.483 417.85 318.813 445.5 283.322 445.5C247.831 445.5 219.161 417.85 219.161 383.865C219.161 349.879 247.831 322.229 283.322 322.229C318.813 322.229 347.483 349.879 347.483 383.865Z" stroke="url(#paint1_linear_2039_3559)" stroke-opacity="0.5" stroke-width="3"/>
</g>
<g filter="url(#filter2_d_2039_3559)">
<ellipse cx="396.966" cy="199.509" rx="65.661" ry="63.1356" fill="#0B0613"/>
<path d="M461.127 199.509C461.127 233.494 432.457 261.144 396.966 261.144C361.475 261.144 332.805 233.494 332.805 199.509C332.805 165.523 361.475 137.873 396.966 137.873C432.457 137.873 461.127 165.523 461.127 199.509Z" stroke="url(#paint2_linear_2039_3559)" stroke-opacity="0.5" stroke-width="3"/>
</g>
<g filter="url(#filter3_d_2039_3559)">
<ellipse cx="124.221" cy="305.577" rx="65.661" ry="63.1356" fill="#0B0613"/>
<path d="M188.382 305.577C188.382 339.562 159.712 367.212 124.221 367.212C88.7294 367.212 60.0596 339.562 60.0596 305.577C60.0596 271.591 88.7294 243.941 124.221 243.941C159.712 243.941 188.382 271.591 188.382 305.577Z" stroke="url(#paint3_linear_2039_3559)" stroke-opacity="0.5" stroke-width="3"/>
</g>
<g filter="url(#filter4_d_2039_3559)">
<ellipse cx="68.661" cy="93.4408" rx="65.661" ry="63.1356" fill="#0B0613"/>
<path d="M132.822 93.4408C132.822 127.426 104.152 155.076 68.661 155.076C33.1699 155.076 4.5 127.426 4.5 93.4408C4.5 59.4553 33.1699 31.8052 68.661 31.8052C104.152 31.8052 132.822 59.4553 132.822 93.4408Z" stroke="url(#paint4_linear_2039_3559)" stroke-opacity="0.5" stroke-width="3"/>
</g>
</g>
<defs>
<filter id="filter0_d_2039_3559" x="214.661" y="0" width="137.322" height="132.271" filterUnits="userSpaceOnUse" color-interpolation-filters="sRGB">
<feFlood flood-opacity="0" result="BackgroundImageFix"/>
<feColorMatrix in="SourceAlpha" type="matrix" values="0 0 0 0 0 0 0 0 0 0 0 0 0 0 0 0 0 0 127 0" result="hardAlpha"/>
<feOffset dy="3"/>
<feGaussianBlur stdDeviation="1.5"/>
<feColorMatrix type="matrix" values="0 0 0 0 0 0 0 0 0 0 0 0 0 0 0 0 0 0 0.5 0"/>
<feBlend mode="normal" in2="BackgroundImageFix" result="effect1_dropShadow_2039_3559"/>
<feBlend mode="normal" in="SourceGraphic" in2="effect1_dropShadow_2039_3559" result="shape"/>
</filter>
<filter id="filter1_d_2039_3559" x="214.661" y="320.729" width="137.322" height="132.271" filterUnits="userSpaceOnUse" color-interpolation-filters="sRGB">
<feFlood flood-opacity="0" result="BackgroundImageFix"/>
<feColorMatrix in="SourceAlpha" type="matrix" values="0 0 0 0 0 0 0 0 0 0 0 0 0 0 0 0 0 0 127 0" result="hardAlpha"/>
<feOffset dy="3"/>
<feGaussianBlur stdDeviation="1.5"/>
<feColorMatrix type="matrix" values="0 0 0 0 0 0 0 0 0 0 0 0 0 0 0 0 0 0 0.5 0"/>
<feBlend mode="normal" in2="BackgroundImageFix" result="effect1_dropShadow_2039_3559"/>
<feBlend mode="normal" in="SourceGraphic" in2="effect1_dropShadow_2039_3559" result="shape"/>
</filter>
<filter id="filter2_d_2039_3559" x="328.305" y="136.373" width="137.322" height="132.271" filterUnits="userSpaceOnUse" color-interpolation-filters="sRGB">
<feFlood flood-opacity="0" result="BackgroundImageFix"/>
<feColorMatrix in="SourceAlpha" type="matrix" values="0 0 0 0 0 0 0 0 0 0 0 0 0 0 0 0 0 0 127 0" result="hardAlpha"/>
<feOffset dy="3"/>
<feGaussianBlur stdDeviation="1.5"/>
<feColorMatrix type="matrix" values="0 0 0 0 0 0 0 0 0 0 0 0 0 0 0 0 0 0 0.5 0"/>
<feBlend mode="normal" in2="BackgroundImageFix" result="effect1_dropShadow_2039_3559"/>
<feBlend mode="normal" in="SourceGraphic" in2="effect1_dropShadow_2039_3559" result="shape"/>
</filter>
<filter id="filter3_d_2039_3559" x="55.5596" y="242.441" width="137.322" height="132.271" filterUnits="userSpaceOnUse" color-interpolation-filters="sRGB">
<feFlood flood-opacity="0" result="BackgroundImageFix"/>
<feColorMatrix in="SourceAlpha" type="matrix" values="0 0 0 0 0 0 0 0 0 0 0 0 0 0 0 0 0 0 127 0" result="hardAlpha"/>
<feOffset dy="3"/>
<feGaussianBlur stdDeviation="1.5"/>
<feColorMatrix type="matrix" values="0 0 0 0 0 0 0 0 0 0 0 0 0 0 0 0 0 0 0.5 0"/>
<feBlend mode="normal" in2="BackgroundImageFix" result="effect1_dropShadow_2039_3559"/>
<feBlend mode="normal" in="SourceGraphic" in2="effect1_dropShadow_2039_3559" result="shape"/>
</filter>
<filter id="filter4_d_2039_3559" x="0" y="30.3052" width="137.322" height="132.271" filterUnits="userSpaceOnUse" color-interpolation-filters="sRGB">
<feFlood flood-opacity="0" result="BackgroundImageFix"/>
<feColorMatrix in="SourceAlpha" type="matrix" values="0 0 0 0 0 0 0 0 0 0 0 0 0 0 0 0 0 0 127 0" result="hardAlpha"/>
<feOffset dy="3"/>
<feGaussianBlur stdDeviation="1.5"/>
<feColorMatrix type="matrix" values="0 0 0 0 0 0 0 0 0 0 0 0 0 0 0 0 0 0 0.5 0"/>
<feBlend mode="normal" in2="BackgroundImageFix" result="effect1_dropShadow_2039_3559"/>
<feBlend mode="normal" in="SourceGraphic" in2="effect1_dropShadow_2039_3559" result="shape"/>
</filter>
<linearGradient id="paint0_linear_2039_3559" x1="283.322" y1="0" x2="283.322" y2="126.271" gradientUnits="userSpaceOnUse">
<stop stop-color="#548FC1"/>
<stop offset="1" stop-color="#2843D5" stop-opacity="0"/>
</linearGradient>
<linearGradient id="paint1_linear_2039_3559" x1="283.322" y1="320.729" x2="283.322" y2="447" gradientUnits="userSpaceOnUse">
<stop stop-color="#548FC1"/>
<stop offset="1" stop-color="#2843D5" stop-opacity="0"/>
</linearGradient>
<linearGradient id="paint2_linear_2039_3559" x1="396.966" y1="136.373" x2="396.966" y2="262.644" gradientUnits="userSpaceOnUse">
<stop stop-color="#548FC1"/>
<stop offset="1" stop-color="#2843D5" stop-opacity="0"/>
</linearGradient>
<linearGradient id="paint3_linear_2039_3559" x1="124.221" y1="242.441" x2="124.221" y2="368.712" gradientUnits="userSpaceOnUse">
<stop stop-color="#548FC1"/>
<stop offset="1" stop-color="#2843D5" stop-opacity="0"/>
</linearGradient>
<linearGradient id="paint4_linear_2039_3559" x1="68.661" y1="30.3052" x2="68.661" y2="156.576" gradientUnits="userSpaceOnUse">
<stop stop-color="#548FC1"/>
<stop offset="1" stop-color="#2843D5" stop-opacity="0"/>
</linearGradient>
</defs>
</svg>
